<svg xmlns="http://www.w3.org/2000/svg" width="300" height="147.06" viewBox="0 0 300 147.06"><defs><style>.cls-1{fill:#f79c34;}.cls-1,.cls-2{fill-rule:evenodd;}.cls-2{fill:#333e47;}</style></defs><g id="Layer_2" data-name="Layer 2"><g id="Layer_1-2" data-name="Layer 1"><path class="cls-1" d="M183.65,127.62c-17.2,12.69-42.14,19.44-63.61,19.44a115.11,115.11,0,0,1-77.7-29.64c-1.61-1.45-.17-3.44,1.76-2.31a156.47,156.47,0,0,0,77.75,20.63,154.69,154.69,0,0,0,59.3-12.14C184.05,122.37,186.49,125.52,183.65,127.62Z"/><path class="cls-1" d="M190.8,119.45c-2.2-2.82-14.54-1.34-20.08-.67-1.68.2-1.94-1.27-.43-2.33,9.85-6.92,26-4.92,27.85-2.6s-.49,18.51-9.72,26.22c-1.42,1.19-2.77.56-2.14-1C188.36,133.88,193,122.27,190.8,119.45Z"/><path class="cls-2" d="M171.11,67.6V60.88a1.66,1.66,0,0,1,1.7-1.7h30.12a1.68,1.68,0,0,1,1.74,1.69v5.76c0,1-.83,2.23-2.27,4.23L186.8,93.14c5.79-.14,11.91.73,17.17,3.69a3,3,0,0,1,1.6,2.62v7.17c0,1-1.08,2.13-2.22,1.54a34.69,34.69,0,0,0-31.82,0c-1,.56-2.14-.57-2.14-1.55V99.84a8.11,8.11,0,0,1,1.12-4.62l18.07-25.93H172.85A1.67,1.67,0,0,1,171.11,67.6Z"/><path class="cls-2" d="M61.26,109.57H52.09A1.74,1.74,0,0,1,50.45,108V61a1.73,1.73,0,0,1,1.77-1.69h8.53a1.74,1.74,0,0,1,1.67,1.58V67h.17c2.22-5.94,6.41-8.71,12.06-8.71S84,61.08,86.55,67a13.53,13.53,0,0,1,23.26-3.56c2.91,4,2.31,9.69,2.31,14.74v29.68a1.73,1.73,0,0,1-1.77,1.69h-9.15a1.72,1.72,0,0,1-1.64-1.69V83c0-2,.17-6.92-.26-8.8-.69-3.17-2.74-4.06-5.39-4.06a6.07,6.07,0,0,0-5.47,3.85c-.94,2.38-.86,6.34-.86,9v24.93a1.73,1.73,0,0,1-1.76,1.69H76.65A1.72,1.72,0,0,1,75,107.88V83c0-5.24.86-13-5.64-13S63,77.51,63,83v24.93A1.73,1.73,0,0,1,61.26,109.57Z"/><path class="cls-2" d="M230.67,67.91c-6.75,0-7.18,9.2-7.18,14.94s-.08,18,7.1,18S238,91,238,84.93c0-4-.17-8.71-1.37-12.47C235.63,69.19,233.58,67.91,230.67,67.91Zm-.08-9.6c13.6,0,20.95,11.68,20.95,26.52,0,14.35-8.12,25.73-20.95,25.73-13.34,0-20.61-11.68-20.61-26.22S217.33,58.31,230.59,58.31Z"/><path class="cls-2" d="M269.18,109.57h-9.13a1.73,1.73,0,0,1-1.65-1.69v-47a1.74,1.74,0,0,1,1.76-1.54h8.5a1.75,1.75,0,0,1,1.63,1.32v7.19h.17c2.57-6.43,6.16-9.5,12.48-9.5,4.11,0,8.13,1.49,10.69,5.54C296,67.61,296,73.94,296,78.5v29.59a1.74,1.74,0,0,1-1.76,1.48h-9.18a1.73,1.73,0,0,1-1.63-1.48V82.56c0-5.15.6-12.67-5.73-12.67a6,6,0,0,0-5.3,3.76A20.81,20.81,0,0,0,271,82.56v25.32A1.76,1.76,0,0,1,269.18,109.57Z"/><path class="cls-2" d="M156.34,109.45a1.91,1.91,0,0,1-2.17.21c-3-2.52-3.58-3.69-5.25-6.1-5,5.12-8.59,6.66-15.1,6.66-7.72,0-13.72-4.76-13.72-14.28a15.57,15.57,0,0,1,9.77-15c5-2.18,11.92-2.57,17.23-3.17V76.6c0-2.18.17-4.76-1.11-6.64a6.12,6.12,0,0,0-5.14-2.38c-3.5,0-6.6,1.79-7.37,5.5a1.93,1.93,0,0,1-1.59,1.68l-8.88-1a1.62,1.62,0,0,1-1.37-1.92c2-10.62,11.5-13.93,20.13-14h.68c4.41.06,10.05,1.27,13.48,4.56,4.46,4.16,4,9.72,4,15.77V92.46c0,4.3,1.78,6.18,3.46,8.49a1.74,1.74,0,0,1,0,2.44c-1.88,1.57-5.2,4.45-7,6.08ZM147.1,87.11c0,3.57.09,6.55-1.71,9.72A7.44,7.44,0,0,1,139,101c-3.51,0-5.56-2.67-5.56-6.64,0-7.8,7-9.22,13.62-9.22Z"/><path class="cls-2" d="M36.24,109.45a1.91,1.91,0,0,1-2.17.21,22.16,22.16,0,0,1-5.25-6.1c-5,5.12-8.59,6.66-15.11,6.66C6,110.22,0,105.46,0,95.94A15.57,15.57,0,0,1,9.77,81c5-2.18,11.91-2.57,17.23-3.17V76.6c0-2.18.17-4.76-1.12-6.64a6.11,6.11,0,0,0-5.14-2.38c-3.49,0-6.6,1.79-7.36,5.5a1.93,1.93,0,0,1-1.59,1.68l-8.88-1a1.61,1.61,0,0,1-1.37-1.92c2-10.62,11.5-13.93,20.12-14h.68c4.42.06,10.05,1.27,13.49,4.56,4.45,4.16,4,9.72,4,15.77V92.46c0,4.3,1.79,6.18,3.46,8.49a1.74,1.74,0,0,1,0,2.44c-1.87,1.57-5.2,4.45-7,6.08ZM27,87.11c0,3.57.08,6.55-1.72,9.72A7.42,7.42,0,0,1,18.94,101c-3.51,0-5.57-2.67-5.57-6.64,0-7.8,7-9.22,13.63-9.22Z"/><path class="cls-2" d="M273.22,41.65v-2.1c0-.59.3-1,.92-1a12.89,12.89,0,0,0,4,.09,4.63,4.63,0,0,0,3.26-2.88c.91-2.08,1.51-3.76,1.89-4.86L271.7,2.29c-.2-.49-.25-1.39.72-1.39h4a1.27,1.27,0,0,1,1.26,1l8.38,23.26,8-23.26a1.25,1.25,0,0,1,1.26-1h3.81c1,0,.91.9.72,1.39L288.42,31.83C286.93,35.76,285,42,280.5,43.11a11.78,11.78,0,0,1-6.7-.32A1.3,1.3,0,0,1,273.22,41.65Z"/><path class="cls-2" d="M267.83,29.67a1,1,0,0,1-1,1H264a1.12,1.12,0,0,1-1.12-1l-.28-1.94A16.7,16.7,0,0,1,258,30.49c-3.36,1.3-7.22,1.52-10.5-.49a8.39,8.39,0,0,1-3.62-7.23,8.85,8.85,0,0,1,2.25-6.15c2.07-2.23,5.06-3.33,8.68-3.33a27.14,27.14,0,0,1,7.59,1v-3.9c0-4-1.67-5.69-6.07-5.69a29.68,29.68,0,0,0-9.54,1.62.87.87,0,0,1-.91-1V3.15a1.39,1.39,0,0,1,.95-1.21,28.76,28.76,0,0,1,10-1.94c5,0,11,1.13,11,8.87ZM262.35,24V18.08a30.61,30.61,0,0,0-6.3-.74c-1.94,0-4.05.46-5.16,1.65a4.84,4.84,0,0,0-1.2,3.34,4.44,4.44,0,0,0,1.81,3.91c1.47,1,3.75.88,5.89.27A12.8,12.8,0,0,0,262.35,24Z"/><path class="cls-2" d="M225.81,4.79c6.32,0,8,5,8,10.67,0,3.83-.67,7.26-2.66,9.22-1.48,1.46-3.14,1.86-5.65,1.86a13.71,13.71,0,0,1-7.34-2.78V7.48A13.1,13.1,0,0,1,225.81,4.79Zm-8.58,37.88h-3.82a1,1,0,0,1-1-1V1.92a1,1,0,0,1,1-1h2.93a1.12,1.12,0,0,1,1.11,1L217.76,4a15,15,0,0,1,9.61-4c9.41,0,12.5,7.75,12.5,15.8,0,8.62-4.73,15.55-12.73,15.55A13.39,13.39,0,0,1,218.2,28V41.7A1,1,0,0,1,217.23,42.67Z"/></g></g></svg>