<svg xmlns="http://www.w3.org/2000/svg" width="300" height="300" viewBox="0 0 300 300"><defs><style>.cls-1{fill:#714c99;}.cls-2{fill:#fff;}</style></defs><g id="Layer_2" data-name="Layer 2"><g id="Layer_1-2" data-name="Layer 1"><rect class="cls-1" width="300" height="300"/><g id="Layer_2-2" data-name="Layer 2"><g id="Layer_1-2-2" data-name="Layer 1-2"><path class="cls-2" d="M41.18,275.49A19,19,0,0,1,22.75,295h-.14a19,19,0,0,1-10.13-2.86A49.74,49.74,0,0,1,0,294.06V243.58a49.75,49.75,0,0,0,12.48-1.9V259a18.25,18.25,0,0,1,10.13-2.86,18.8,18.8,0,0,1,18.58,19,1.93,1.93,0,0,1,0,.24m-12.31.09a9,9,0,0,0-8.53-9.2h-.16a9.61,9.61,0,0,0-7.7,3.43v11.51a9.64,9.64,0,0,0,7.7,3.5,8.87,8.87,0,0,0,8.69-9.07v-.17m162,0A19,19,0,0,1,172.52,295h-.12a19.27,19.27,0,0,1-10.26-2.86,48.74,48.74,0,0,1-12.35,1.89V243.58a48.75,48.75,0,0,0,12.35-1.9V259A18.79,18.79,0,0,1,191,275.49m-12.25,0a8.79,8.79,0,0,0-8.37-9.19H170a9.63,9.63,0,0,0-7.8,3.43v11.51a9.38,9.38,0,0,0,7.8,3.56,8.78,8.78,0,0,0,8.67-8.9c0-.13,0-.26,0-.4m53.66,0a20.18,20.18,0,1,1-40.35,0,19,19,0,0,1,18.66-19.43c.51,0,1,0,1.52,0a19.24,19.24,0,0,1,20.15,18.29c0,.37,0,.74,0,1.11m-11.74,0a8.33,8.33,0,0,0-7.88-8.77l-.46,0a8.53,8.53,0,0,0-6.09,2.6,8.34,8.34,0,0,0-2.34,6.19,8.53,8.53,0,0,0,8.07,9h.36A8.39,8.39,0,0,0,220.6,276c0-.18,0-.36,0-.54m25.66-18.7v4a18.6,18.6,0,0,1,12.83-4.52v11.8a17.7,17.7,0,0,0-12.83,4.75v21.23H233.92V258.78a43.4,43.4,0,0,0,12.35-1.89M98.21,259.1a50.12,50.12,0,0,1-12.47-1.89v36.85H98.21V270.3a7.14,7.14,0,0,1,5.62-3.37c4.1,0,6.64,2.53,6.64,7.82V294h12.47V270.1a6.82,6.82,0,0,1,5.71-3.2c4.11,0,6.64,2.53,6.64,7.82V294h12.26v-21c0-10.65-6.42-17.1-15.53-17.1a18.17,18.17,0,0,0-13.21,5,14.27,14.27,0,0,0-11.39-5,13.51,13.51,0,0,0-9.3,3.21m-14.72,35A44.84,44.84,0,0,1,70.92,292a18.33,18.33,0,0,1-10.23,2.85,18.86,18.86,0,0,1-18.48-19.23v-.21A18.83,18.83,0,0,1,60.45,256h.24a19.42,19.42,0,0,1,10.23,2.82,44.35,44.35,0,0,0,12.48-1.89ZM70.92,281.23V269.72a9.59,9.59,0,0,0-7.7-3.59,9.3,9.3,0,0,0,0,18.57,9.65,9.65,0,0,0,7.7-3.47M300,294.06A44.84,44.84,0,0,1,287.52,292a17.73,17.73,0,0,1-10.13,2.85,18.85,18.85,0,0,1-18.58-19.14c0-.1,0-.2,0-.3a18.86,18.86,0,0,1,18.3-19.4h.27a19.26,19.26,0,0,1,10.13,2.82,44.66,44.66,0,0,0,12.42-1.89Zm-12.48-12.83V269.72a9.58,9.58,0,0,0-7.7-3.59,9.3,9.3,0,0,0,0,18.57,9.62,9.62,0,0,0,7.7-3.47"/><path class="cls-2" d="M108.65,148.54a4.44,4.44,0,0,1,.59-.89c2.74-2.91,2.69-2.82,6.61-1.81A122.09,122.09,0,0,0,134,149.21a194.26,194.26,0,0,0,25.76.42,88.86,88.86,0,0,0,9.69-1,14,14,0,0,1-1.14,4.21A139.71,139.71,0,0,1,108.65,148.54Z"/><path class="cls-2" d="M102.83,156.84l2.19-3.67c3.63,1.1,7.13,2.19,10.67,3.16a157.16,157.16,0,0,0,17.91,3.16,148,148,0,0,0,24.45,1.06c2.11,0,4.21-.38,6.24-.55a19.22,19.22,0,0,1,2.4,0l-.89,4a36.7,36.7,0,0,1-3.92.6H142.71a4.27,4.27,0,0,1-3-.93,9,9,0,0,0-9-1.73,17.7,17.7,0,0,1-10.75-.25c-4.89-1.31-9.82-2.49-14.75-3.8C104.39,157.58,103.6,157.23,102.83,156.84Z"/><path class="cls-2" d="M117.08,140.53a8.9,8.9,0,0,1,9.1-2.87,94.83,94.83,0,0,0,24.7,1.81A122.13,122.13,0,0,0,168,137.53l3.92-.76v2.53c-.25,1.82-.72,2.15-2.45,2.45a141.43,141.43,0,0,1-29.5,1.77c-4.22-.25-8.9-.8-13.32-1.39C123.57,141.75,120.49,141.07,117.08,140.53Z"/><path class="cls-2" d="M129.72,132.14a2.2,2.2,0,0,1,.47-.47,19.77,19.77,0,0,1,5.1-3,20.11,20.11,0,0,1,5.9,0A99.75,99.75,0,0,0,162.94,127c3.88-.68,7.8-1.23,11.72-1.82.29,3.33,0,4-3,4.64a124.37,124.37,0,0,1-13.82,2.4,181.15,181.15,0,0,1-19.77.42A73.62,73.62,0,0,1,129.72,132.14Z"/><path class="cls-2" d="M143.76,122.36c1-.72,1.52-.89,1.77-1.27a10.69,10.69,0,0,1,8.94-3.79,124.71,124.71,0,0,0,14.33-2.7,29.21,29.21,0,0,1,8.43-1c.76,1.61-.25,2.83-.63,4.22C165.72,119.16,155.31,122.82,143.76,122.36Z"/><path class="cls-2" d="M211.29,20.81l-1.73,2.49a35.11,35.11,0,0,1-9.91-.76c-4.21-1.05-8.76-1.73-13.4-2.61l.5-5.69A151.86,151.86,0,0,1,211.29,20.81Z"/><path class="cls-2" d="M180.3,102.38l-.75,3.71-20.32,3.62a14.79,14.79,0,0,1-2.49,0,7,7,0,0,1,6.7-5.1c2.95-.25,5.82-1,8.77-1.39A36.68,36.68,0,0,1,180.3,102.38Z"/><path class="cls-2" d="M118.51,167.71l-3,3.42a173.82,173.82,0,0,1-16.87-4.89l1.35-4Z"/><path class="cls-2" d="M165.43,92.85a73.86,73.86,0,0,1,17.24-1.43l-1.06,4L164,97.28C163.78,95.38,165,94.24,165.43,92.85Z"/><path class="cls-2" d="M163.87,170.83l-1.1,4.22c-5.65.29-11.3,0-16.86,0l-1.14-3.75c.76,0,1.39-.3,2-.3H157.5A33.81,33.81,0,0,0,163.87,170.83Z"/><path class="cls-2" d="M185.19,80.21l-1.05,4.21-16,1.44c.23-.79.5-1.56.8-2.32a7.43,7.43,0,0,1,.8-2.11Z"/><path class="cls-2" d="M111,176.36l-2.62,3.41L95.2,175.55l1.18-4.21Z"/><path class="cls-2" d="M171.87,74.43l1.48-4.21,14-.8-.93,4.21Z"/><path class="cls-2" d="M159.86,186.05H147.22v-4.21a66,66,0,0,1,13.91,0Z"/><path class="cls-2" d="M176.09,59.13h13.24l-.89,3.79-13.28.51Z"/><path class="cls-2" d="M193.2,38.27l-.84,4.21L181.53,42c-.63-1.56.42-2.7.63-4.22A34.11,34.11,0,0,1,193.2,38.27Z"/><path class="cls-2" d="M93.94,180.91l11.46,4.21-1.94,3.59L93,185.29Z"/><path class="cls-2" d="M178.45,52.13l1.05-3.71h11.76l-.8,3.71Z"/><path class="cls-2" d="M147.09,196.25v-3.71h11c.42,1.65-.55,2.87-.89,4.22Z"/><path class="cls-2" d="M183.93,31.31l.51-3.88c3.45-.88,6.74.76,10.07.26.76,1.6,0,2.69-.46,4.21Z"/><path class="cls-2" d="M100.72,194a9.31,9.31,0,0,1-.29,1.56c-.34.8-.76,1.6-1.18,2.4l-8.43-2.87.54-4.47Z"/><path class="cls-2" d="M170.23,170.45l9.11-1.22a8.09,8.09,0,0,1,.42,4.22l-8.85,1.18Z"/><path class="cls-2" d="M127.45,194.48,119,192.75l-.76-4.42,9.1,1.94Z"/><path class="cls-2" d="M146.33,203.16h9l-1,4.22-8.43-.42Z"/><path class="cls-2" d="M173.1,185.59l-1-4.22,8.09-1.05.89,4.21Z"/><path class="cls-2" d="M117.71,182.05c1.6-4.22,2-3.84,5.44-3.12l3.79.84v4A60.17,60.17,0,0,1,117.71,182.05Z"/><path class="cls-2" d="M151.39,217.83h-6.24c-.93-1.73,0-3.16.25-4.89l7.3.68Z"/><path class="cls-2" d="M120.41,198.91l7.54,1.6v4.21l-6.66-.8Z"/><path class="cls-2" d="M97.14,203.21l-1.52,4.21-7-2.61.88-4.22Z"/><path class="cls-2" d="M171.24,163.54l1-4.55,6.2-.84v4.21Z"/><path class="cls-2" d="M174.53,192.2a13.64,13.64,0,0,1,6.91-1l.26,3.75a10.44,10.44,0,0,1-6.79.64Z"/><path class="cls-2" d="M92.08,216.61l-5.61-2.4,1-4,5.77,2.24C93.72,214.08,92.59,215.09,92.08,216.61Z"/><path class="cls-2" d="M128.21,211.09l.67,4.21a11.3,11.3,0,0,1-3.67-.38c-2.23-.42-2.57-.84-2.74-3.16V210Z"/><path class="cls-2" d="M176.09,202.74l5.9-.84.63,4.21-5.43.68Z"/><path class="cls-2" d="M83.36,230l3.79,1.1c-.59,1.56-1.1,2.91-1.64,4.21s-.76,1.86-3.21,1.82A41.88,41.88,0,0,1,83.36,230Z"/><path class="cls-2" d="M183.85,217.16h-4.6l-.93-4.22,4.89-.21Z"/><path class="cls-2" d="M144.52,223.52l5.22.72-1,3.92-4.64-.72A5.77,5.77,0,0,1,144.52,223.52Z"/><path class="cls-2" d="M84.7,224.24l.93-4.22,4.85,1.56-1.56,4.22Z"/><path class="cls-2" d="M181.7,6.82c3.45.59,4.21,1.56,4.21,5.4a5.23,5.23,0,0,1-4.21-2.28,2.18,2.18,0,0,1,0-3.1Z"/><path class="cls-2" d="M124.33,220.87l4.21.63.59,4.22-4.21-.68Z"/><path class="cls-2" d="M180.3,223.78h4.22v4h-3.37Z"/><path class="cls-2" d="M129.34,232v4.85c-2.27.3-2.44.25-2.61-1.26s0-2.53-.21-4.22Z"/><path class="cls-2" d="M174.74,147.65h2.61v3.79l-3,.89C173.56,150.35,174.83,149.13,174.74,147.65Z"/><path class="cls-2" d="M192.07,4.33a1.56,1.56,0,0,1,1.61,1.51,1.62,1.62,0,0,1,0,.22,1.6,1.6,0,0,1-1.44,1.75,1.42,1.42,0,0,1-.46,0c-1.1,0-2.07-1-1.94-1.85A2.33,2.33,0,0,1,192.07,4.33Z"/><path class="cls-2" d="M146,237.18h-2.53V234.1l3.46.47Z"/><path class="cls-2" d="M185.11,237c-2.19,0-2.19,0-2.44-2.44h2.44Z"/><path class="cls-2" d="M123.27,172.94l3.67-2.82v3.28Z"/></g></g></g></g></svg>