<svg xmlns="http://www.w3.org/2000/svg" width="223.36" height="300" viewBox="0 0 223.36 300"><defs><style>.cls-1{fill:#e4032e;}</style></defs><g id="Layer_2" data-name="Layer 2"><g id="Layer_1-2" data-name="Layer 1"><g id="Layer_2-2" data-name="Layer 2"><g id="Layer_1-2-2" data-name="Layer 1-2"><path class="cls-1" d="M69.53,278.93c6.17,7.38,12.35,14.36,18.52,20.67H81.21a166.92,166.92,0,0,1-11.55-13.43c-23.35-26.84-46.44-60.53-69-91v-7.25C23.62,217.58,46.31,251.28,69.53,278.93Zm51-22.42a169,169,0,0,1-30.88-57.58A918.67,918.67,0,0,0,54.23,95.57,146.77,146.77,0,0,0,23.62,51.68,122.38,122.38,0,0,0,.67,35.17v7.25a100.59,100.59,0,0,1,13.42,9.39,153.58,153.58,0,0,1,43.09,65.77c7.52,19.06,13.42,40.27,19.2,59.47a230.4,230.4,0,0,0,37.18,80.53,97.52,97.52,0,0,0,34.23,26.85,120.26,120.26,0,0,0,20.93,6.85,76.5,76.5,0,0,0,9.27-4.43,105.55,105.55,0,0,1-28.19-8.46A87,87,0,0,1,120.54,256.51Zm-44.7,11.95C51.28,236.38,28.72,196.11,5,161.88c-1.35-2.15-2.82-4.16-4.3-6.18v8.86l3.49,5.1c23.36,34.64,46,74.77,71.14,106.58A253.45,253.45,0,0,0,96,299.73h7.39A244.81,244.81,0,0,1,75.84,268.46Zm12.48-21.21c-20.53-33.16-35.84-74.9-55.57-111.41A219.33,219.33,0,0,0,.67,89.26v8.46a233.31,233.31,0,0,1,29.8,45.9C49.66,180,65,221.88,86.44,254.9a143.47,143.47,0,0,0,38.26,41.34l4.7,2.95a36,36,0,0,0,10.06-.93h-.8a129.71,129.71,0,0,1-50.34-51.15Zm6.18-10.47C76,203,63.89,160.27,46.71,122.68A193,193,0,0,0,13.42,72,103.9,103.9,0,0,0,0,60.4v7.65A176.06,176.06,0,0,1,43.76,130.6c16.91,37.32,28.59,80.54,48.32,113.7a123.81,123.81,0,0,0,37.58,42.14,93.73,93.73,0,0,0,19.74,10.2c3.75-.8,7.38-1.61,10.73-2.68a105,105,0,0,1-16.1-6A115.25,115.25,0,0,1,94.5,236.64Zm81.88-87.25a201.35,201.35,0,0,0,40.26,40.27l5.1,3.35a66.35,66.35,0,0,0-1.61-7.24,209.72,209.72,0,0,1-43.62-44.17c-25-32.75-48.46-73.55-72.35-108.32A412.2,412.2,0,0,0,77.32,0h-7a384.25,384.25,0,0,1,32.48,41.34c24.16,35,47.78,75.84,73.56,108.06ZM.67,247.25c16.65,18,33.42,36,49.53,52.35h6.18c-18-17.72-37.05-38.66-55.71-58.79ZM82,257.72C59.6,225.1,40.67,184,18.93,148.72,13,139.19,7,130.2.67,121.88V131c5.77,8.05,11.28,16.64,16.65,25.63,21.34,35.57,40.26,76.51,63.49,109a188.46,188.46,0,0,0,30.6,34.09h8.72A175.32,175.32,0,0,1,82,257.72Zm-81.34,31L13.15,299.6h5.91l-18.39-16Zm0-73V223C21.61,248.46,43.22,274.9,64,297.18l2.28,2.42h6.31l-8.73-9.94C42.68,267.11,21.34,240.81.67,215.7Zm0,53.7,26.85,26c1.74,1.47,3.22,3.08,4.83,4.56h6C26,288.32,13.15,276,.4,263.62Zm184-232.08-26.85-25a88.09,88.09,0,0,0-11.94-5.77L190.6,49.26A92.58,92.58,0,0,0,184.7,37.32Zm-1.08,88.18,2.29-4.69c-25.78-31.15-51.41-68.6-76.38-100.54C104.16,13.42,98.12,6.58,92.48,0H86c7.65,8.72,15.44,18.39,23.36,28.59,24,31,48.45,66.85,73.69,96.91ZM126,246.31a145,145,0,0,1-28.32-58.39c-9.4-33.69-14.5-72.22-29-105.77A136,136,0,0,0,38,36.64a122.53,122.53,0,0,0-37.32-24v7.11A116.31,116.31,0,0,1,28.32,36.64,141.26,141.26,0,0,1,70.2,104.56c6.31,19.6,10.61,40.27,15.3,60.81a402.09,402.09,0,0,0,12.22,44.16,115.21,115.21,0,0,0,35.57,53.69,107.39,107.39,0,0,0,50.07,20.27c2.55-1.75,5-3.62,7.38-5.64a118.41,118.41,0,0,1-35.84-9.39,84.47,84.47,0,0,1-29.4-22.15ZM215.44,207a155.1,155.1,0,0,1-52.08-50.6C140.27,123.22,120.67,81.74,98.26,46A263.46,263.46,0,0,0,63,0H55.3A264.09,264.09,0,0,1,96.38,53.69c21.88,36,41.47,77.45,65.36,110.2A170,170,0,0,0,202,204.16a95.65,95.65,0,0,0,21.35,11.28V209.8A78.41,78.41,0,0,1,214.9,207ZM198.12,82.28V75.84c-24.16-24.16-48.59-50.61-71-74.1L120.27.81l2.15,2.28C146.31,28.05,172.48,56.51,198.12,82.28Zm-4.56,23.89,1.61-5.1c-26.85-29.53-53.69-63.75-79.33-93a105,105,0,0,1-7.65-8H102l13.43,15.84c25.23,28.72,51.81,61.88,77.58,90.33Zm-58.12,79.74c-18.8-33.83-30.74-76.78-48.86-114.5A190,190,0,0,0,53,20.4,116.06,116.06,0,0,0,26.85,0H13.42A113.09,113.09,0,0,1,37.58,15.17a175.16,175.16,0,0,1,45,64.16c17.32,37.58,29.26,80.54,49.26,114.36A127.9,127.9,0,0,0,169.66,236a98.12,98.12,0,0,0,41.88,15.84c1.08-1.74,2-3.62,3-5.5a102.37,102.37,0,0,1-29.8-8.73,116.62,116.62,0,0,1-49.8-51.67Zm6,45.37a167.1,167.1,0,0,1-31.14-57.86A968.91,968.91,0,0,0,73.83,69.8,146.64,146.64,0,0,0,42.55,25.91,120.81,120.81,0,0,0,.67,0V6.71A115.14,115.14,0,0,1,33.29,25.5,157.25,157.25,0,0,1,77.32,92c7.38,19.19,13.42,40.26,19.32,59.59a230,230,0,0,0,37.59,80.54,97.11,97.11,0,0,0,34.36,26.85,113.11,113.11,0,0,0,32.35,9l4.7-5.64A112.05,112.05,0,0,1,170.47,253a90.72,90.72,0,0,1-29.53-21.74Zm7.92-60.14c-20.94-33.56-36.78-75.7-56.92-112.48A221.31,221.31,0,0,0,56.91,9.4,112,112,0,0,0,46.71,0H37.05l5.77,4.43a201.46,201.46,0,0,1,47,62.68c19.6,36.78,35.43,78.93,57.31,112.35a147.6,147.6,0,0,0,38.8,41.61,96,96,0,0,0,33.15,14.5c0-1.74,1.07-3.62,1.48-5.5a88,88,0,0,1-20.67-7.25,134.16,134.16,0,0,1-51-51.68Z"/></g></g></g></g></svg>