<?xml version="1.0" encoding="utf-8"?>
<!-- Generator: Adobe Illustrator 26.0.3, SVG Export Plug-In . SVG Version: 6.00 Build 0)  -->
<svg version="1.1" id="Layer_1" xmlns="http://www.w3.org/2000/svg" xmlns:xlink="http://www.w3.org/1999/xlink" x="0px" y="0px"
	 viewBox="0 0 689.8 621.5" style="enable-background:new 0 0 689.8 621.5;" xml:space="preserve">
<style type="text/css">
	.st0{fill:#EA212F;}
	.st1{fill:url(#SVGID_1_);}
	.st2{fill:url(#SVGID_00000076598865574008362370000007204259466761702316_);}
</style>
<g id="Layer_2_00000000187203618262600930000001593346175495371148_">
	<g id="Layer_1-2">
		<path class="st0" d="M0,484.2h28.4c21.2,0,34.8,8,34.8,25.5c0,11-5.7,19.8-16.3,23v0.6c13.6,2.2,22.6,10.8,22.6,25.4
			c0,20.2-15.3,30.6-39.1,30.6H0V484.2z M25.5,530.5c21.5,0,30.3-7.7,30.3-19.9c0-14.8-10.2-20.2-29.5-20.2h-19v40.2H25.5z
			 M28.5,583.2c20.9,0,33.8-7.7,33.8-24.4c0-15.2-12.3-22.3-33.8-22.3H7.3v46.7H28.5z"/>
		<path class="st0" d="M85,551.2c0-25,16.3-40.3,33.3-40.3c18.2,0,29.3,12.9,29.3,35.4c0.1,1.9-0.1,3.8-0.3,5.7H92.2
			c0.3,19.3,11.6,33.2,28.9,33.2c7.4,0,14.6-2.4,20.6-6.9l2.9,5.4c-6.1,3.7-12.9,7.5-24.1,7.5C100.8,591.2,85,576.2,85,551.2z
			 M141,546.3c0-19.6-8.8-29.3-22.5-29.3c-13.1,0-24.7,11-26.3,29.3H141z"/>
		<path class="st0" d="M168.4,512.8h6.1l0.6,11.8h0.5c7.8-7.8,15.8-13.7,26.3-13.7c15.8,0,23.1,9.6,23.1,29.3v49.1h-7v-48.2
			c0-16.3-5.1-23.9-17.5-23.9c-9.1,0-15.6,4.8-25,14.3v57.7h-7L168.4,512.8z"/>
		<path class="st0" d="M246.8,551.2c0-25,16.3-40.3,33.3-40.3c18.2,0,29.3,12.9,29.3,35.4c0.1,1.9-0.1,3.8-0.3,5.7H254
			c0.3,19.3,11.6,33.2,28.9,33.2c7.4,0,14.6-2.4,20.6-6.9l2.9,5.4c-6.1,3.7-12.9,7.5-24.1,7.5C262.6,591.2,246.8,576.2,246.8,551.2z
			 M302.8,546.3c0-19.6-8.8-29.3-22.5-29.3c-13.1,0-24.7,11-26.3,29.3H302.8z"/>
		<path class="st0" d="M331.3,518.8h-10.5v-5.4l10.5-0.6v-17.1c0-15.1,6.9-23,19-23c3.9,0.1,7.7,1,11.2,2.6l-1.9,5.7
			c-2.9-1.5-6-2.2-9.2-2.2c-8.1,0-12,6.2-12,17.4v16.6H356v6.1h-17.7v70.5h-7L331.3,518.8z"/>
		<path class="st0" d="M369.5,488c0-3.5,2.9-6.4,6.4-6.4s6.4,2.9,6.4,6.4s-2.9,6.4-6.4,6.4S369.5,491.6,369.5,488z M372.2,512.8h7
			v76.5h-7V512.8z"/>
		<path class="st0" d="M410.4,568.1v-49.3h-12v-5.4l12.1-0.6l1-22.2h6.1v22.2h22.2v6.1h-22.2v49.9c0,9.7,2.4,16.3,12.9,16.3
			c3.3-0.2,6.6-1,9.6-2.4l1.9,5.7c-4.5,1.6-9.2,2.9-12.4,2.9C414.7,591.2,410.4,581.8,410.4,568.1z"/>
		<path class="st0" d="M457,485h32.9c23.1,0,40.3,8,40.3,32.2c0,23.1-17.2,33.8-39.7,33.8h-15v38.3H457V485z M489,536.2
			c15.5,0,23-6.2,23-19c0-13.1-8.1-17.4-23.6-17.4h-12.9v36.4L489,536.2z"/>
		<path class="st0" d="M538,568.3c0-16.8,13.9-25.5,46.1-29c-0.3-8.3-3.7-15.3-14.4-15.3c-7.7,0-15,3.5-22,7.7l-6.7-12.3
			c8.6-5.4,19.8-10.2,32.2-10.2c19.5,0,29.2,12,29.2,33.8v46.4h-15.1l-1.3-8.6h-0.6c-7,5.9-15,10.5-24.2,10.5
			C547.4,591.2,538,582,538,568.3z M584.1,568.3v-17.6c-21.4,2.7-28.4,8.3-28.4,16.1c0,7,4.8,10,11.3,10S578.2,573.7,584.1,568.3
			L584.1,568.3z"/>
		<path class="st0" d="M619.5,619.9l3.3-14.3c1.8,0.6,3.7,1,5.6,1.1c8.3,0,13.1-5.6,15.6-13.4l1.4-4.9L614.7,511h18.7l13.6,38.4
			c2.2,6.9,4.5,14.7,6.8,22h0.6c1.9-7.2,4-15,5.9-22l11.8-38.4h17.7l-28.4,81.8c-6.5,17.7-14.7,28.7-31.7,28.7
			C626.2,621.6,622.8,621,619.5,619.9z"/>
		<path class="st0" d="M0,484.2h28.4c21.2,0,34.8,8,34.8,25.5c0,11-5.7,19.8-16.3,23v0.6c13.6,2.2,22.6,10.8,22.6,25.4
			c0,20.2-15.3,30.6-39.1,30.6H0V484.2z M25.5,530.5c21.5,0,30.3-7.7,30.3-19.9c0-14.8-10.2-20.2-29.5-20.2h-19v40.2H25.5z
			 M28.5,583.2c20.9,0,33.8-7.7,33.8-24.4c0-15.2-12.3-22.3-33.8-22.3H7.3v46.7H28.5z"/>
		<path class="st0" d="M85,551.2c0-25,16.3-40.3,33.3-40.3c18.2,0,29.3,12.9,29.3,35.4c0.1,1.9-0.1,3.8-0.3,5.7H92.2
			c0.3,19.3,11.6,33.2,28.9,33.2c7.4,0,14.6-2.4,20.6-6.9l2.9,5.4c-6.1,3.7-12.9,7.5-24.1,7.5C100.8,591.2,85,576.2,85,551.2z
			 M141,546.3c0-19.6-8.8-29.3-22.5-29.3c-13.1,0-24.7,11-26.3,29.3H141z"/>
		<path class="st0" d="M168.4,512.8h6.1l0.6,11.8h0.5c7.8-7.8,15.8-13.7,26.3-13.7c15.8,0,23.1,9.6,23.1,29.3v49.1h-7v-48.2
			c0-16.3-5.1-23.9-17.5-23.9c-9.1,0-15.6,4.8-25,14.3v57.7h-7L168.4,512.8z"/>
		<path class="st0" d="M246.8,551.2c0-25,16.3-40.3,33.3-40.3c18.2,0,29.3,12.9,29.3,35.4c0.1,1.9-0.1,3.8-0.3,5.7H254
			c0.3,19.3,11.6,33.2,28.9,33.2c7.4,0,14.6-2.4,20.6-6.9l2.9,5.4c-6.1,3.7-12.9,7.5-24.1,7.5C262.6,591.2,246.8,576.2,246.8,551.2z
			 M302.8,546.3c0-19.6-8.8-29.3-22.5-29.3c-13.1,0-24.7,11-26.3,29.3H302.8z"/>
		<path class="st0" d="M331.3,518.8h-10.5v-5.4l10.5-0.6v-17.1c0-15.1,6.9-23,19-23c3.9,0.1,7.7,1,11.2,2.6l-1.9,5.7
			c-2.9-1.5-6-2.2-9.2-2.2c-8.1,0-12,6.2-12,17.4v16.6H356v6.1h-17.7v70.5h-7L331.3,518.8z"/>
		<path class="st0" d="M369.5,488c0-3.5,2.9-6.4,6.4-6.4s6.4,2.9,6.4,6.4s-2.9,6.4-6.4,6.4S369.5,491.6,369.5,488z M372.2,512.8h7
			v76.5h-7V512.8z"/>
		<path class="st0" d="M410.4,568.1v-49.3h-12v-5.4l12.1-0.6l1-22.2h6.1v22.2h22.2v6.1h-22.2v49.9c0,9.7,2.4,16.3,12.9,16.3
			c3.3-0.2,6.6-1,9.6-2.4l1.9,5.7c-4.5,1.6-9.2,2.9-12.4,2.9C414.7,591.2,410.4,581.8,410.4,568.1z"/>
		<path class="st0" d="M457,485h32.9c23.1,0,40.3,8,40.3,32.2c0,23.1-17.2,33.8-39.7,33.8h-15v38.3H457V485z M489,536.2
			c15.5,0,23-6.2,23-19c0-13.1-8.1-17.4-23.6-17.4h-12.9v36.4L489,536.2z"/>
		<path class="st0" d="M538,568.3c0-16.8,13.9-25.5,46.1-29c-0.3-8.3-3.7-15.3-14.4-15.3c-7.7,0-15,3.5-22,7.7l-6.7-12.3
			c8.6-5.4,19.8-10.2,32.2-10.2c19.5,0,29.2,12,29.2,33.8v46.4h-15.1l-1.3-8.6h-0.6c-7,5.9-15,10.5-24.2,10.5
			C547.4,591.2,538,582,538,568.3z M584.1,568.3v-17.6c-21.4,2.7-28.4,8.3-28.4,16.1c0,7,4.8,10,11.3,10S578.2,573.7,584.1,568.3
			L584.1,568.3z"/>
		<path class="st0" d="M619.5,619.9l3.3-14.3c1.8,0.6,3.7,1,5.6,1.1c8.3,0,13.1-5.6,15.6-13.4l1.4-4.9L614.7,511h18.7l13.6,38.4
			c2.2,6.9,4.5,14.7,6.8,22h0.6c1.9-7.2,4-15,5.9-22l11.8-38.4h17.7l-28.4,81.8c-6.5,17.7-14.7,28.7-31.7,28.7
			C626.2,621.6,622.8,621,619.5,619.9z"/>
		
			<linearGradient id="SVGID_1_" gradientUnits="userSpaceOnUse" x1="95.0601" y1="402.5768" x2="438.3201" y2="664.2468" gradientTransform="matrix(1 0 0 -1 0 688)">
			<stop  offset="0.12" style="stop-color:#9F2F7F"/>
			<stop  offset="0.47" style="stop-color:#EA212F"/>
			<stop  offset="0.54" style="stop-color:#EB2832"/>
			<stop  offset="0.64" style="stop-color:#EC3A3B"/>
			<stop  offset="0.76" style="stop-color:#EF5849"/>
			<stop  offset="0.88" style="stop-color:#F4825D"/>
			<stop  offset="1" style="stop-color:#F8AF72"/>
		</linearGradient>
		<path class="st1" d="M504.7,46c-15-30.5-47.3-46-95.8-46H238.8l-75.7,358l85-50.6l18-84.2h90.3c8.4-0.1,16.7,0.5,25,1.7l4.3,0.6
			l85.8-51.1l1.3-1.1c0.6-0.6,1.3-1.1,1.8-1.6c18.5-16.8,30.6-38.5,36-64.3C515.5,84.5,513.5,63.8,504.7,46z M434.7,108.3
			c-4.2,20.3-14.6,33.9-31.6,41.6c-11.4,5.2-27,7.8-46.4,7.8h-76.7l19.2-90.9h80.1c25,0,37.4,3.2,43.2,5.9
			C430.8,76.6,439.8,84.3,434.7,108.3L434.7,108.3z"/>
		
			<linearGradient id="SVGID_00000109745861334368106270000017040240271939442077_" gradientUnits="userSpaceOnUse" x1="215.8215" y1="244.9812" x2="557.9614" y2="505.7912" gradientTransform="matrix(1 0 0 -1 0 688)">
			<stop  offset="0.12" style="stop-color:#9F2F7F"/>
			<stop  offset="0.47" style="stop-color:#EA212F"/>
			<stop  offset="0.54" style="stop-color:#EB2832"/>
			<stop  offset="0.64" style="stop-color:#EC3A3B"/>
			<stop  offset="0.76" style="stop-color:#EF5849"/>
			<stop  offset="0.88" style="stop-color:#F4825D"/>
			<stop  offset="1" style="stop-color:#F8AF72"/>
		</linearGradient>
		<path style="fill:url(#SVGID_00000109745861334368106270000017040240271939442077_);" d="M482,205.1l-64.4,38.4l0.6,1.4
			c2.8,6.6,3.1,15.2,0.9,25.4c-3,13.7-8.9,25-17.9,34.6c-14.3,15.2-34.5,22.6-61.6,22.6h-62.8l-112.3,67h165.4
			c51.4,0,92.9-15.7,123.2-46.5c20.6-20.7,33.8-44.4,39.2-70.2c6-28.4,3.1-52.1-8.8-70.4L482,205.1z"/>
	</g>
</g>
</svg>
