<svg xmlns="http://www.w3.org/2000/svg" xmlns:xlink="http://www.w3.org/1999/xlink" width="192.54" height="300" viewBox="0 0 192.54 300"><defs><style>.cls-1{fill:url(#linear-gradient);}</style><linearGradient id="linear-gradient" x1="96.86" y1="2411.27" x2="96.86" y2="2112.9" gradientTransform="matrix(1, 0, 0, -1, -0.57, 2406.24)" gradientUnits="userSpaceOnUse"><stop offset="0" stop-color="#d9212b"/><stop offset="1" stop-color="#8e181e"/></linearGradient></defs><g id="Layer_2" data-name="Layer 2"><g id="Layer_1-2" data-name="Layer 1"><g id="Layer_2-2" data-name="Layer 2"><g id="Layer_1-2-2" data-name="Layer 1-2"><path class="cls-1" d="M86,234.32a6.43,6.43,0,1,1-6.42-6.43A6.43,6.43,0,0,1,86,234.32ZM152.64,62.16a24.08,24.08,0,0,0-3.47-13,22.7,22.7,0,0,0-20-12.27H23.33a13,13,0,0,0-3.74,0C7.17,41,0,49.53,0,61.74V275.42a21.41,21.41,0,0,0,2.58,10.89,24.1,24.1,0,0,0,22,13.69H128.48a23.84,23.84,0,0,0,7.11-1.11,25.41,25.41,0,0,0,17-23.1c-.47-35.58,0-71.21,0-106.79Zm-10.1,211.89a14.22,14.22,0,0,1-8.9,13.74,23.07,23.07,0,0,1-8.63,1.84H27.9a17.77,17.77,0,0,1-12.68-4.21A18.79,18.79,0,0,1,10,274.26a14.6,14.6,0,0,1,0-3.1V64.32a17.12,17.12,0,0,1,7.63-15.11A18.38,18.38,0,0,1,25.43,47a50.38,50.38,0,0,1,7,0c1.68,0,3.84-.58,4.84.26s.32,3.06.74,4.64a12.19,12.19,0,0,0,7.84,9.68,25.65,25.65,0,0,0,8.1,1.79H99.32A15.32,15.32,0,0,0,114.06,55a10.24,10.24,0,0,0,.74-4.74,3,3,0,0,1,2.78-3.1h.22a53.57,53.57,0,0,1,8.21,0,24.18,24.18,0,0,1,7.63,1.32,13.91,13.91,0,0,1,7.79,8.1,20.27,20.27,0,0,1,1.16,7.68V168.42C142.59,203.63,142.64,238.84,142.54,274.05ZM39.12,180.79v8.05H58.8V176.11H83.38a34.28,34.28,0,0,1,11.89,2.26,11.41,11.41,0,0,1,5.69,5.84A22.81,22.81,0,0,1,101,200,13.82,13.82,0,0,1,90.43,208H58.8V194.11H39.12v29.57H87.64a52.25,52.25,0,0,0,17.63-2.63,26.43,26.43,0,0,0,6.69-3.21,26.71,26.71,0,0,0,9.1-19.73c.69-5.27,1.58-22.48-8.58-32.21a17.55,17.55,0,0,1-3.58-4.06,20,20,0,0,1,1.95-4.1,29.5,29.5,0,0,0,3.53-12.27h0a30.2,30.2,0,0,0-.84-9.42h0a26.32,26.32,0,0,0-21.79-18.26,28.05,28.05,0,0,0-2.9,0c-15.79-.53-49.63-.26-49.63-.26v63.26Zm18.94-26.32h0V134.26h0s21.37-.58,28.48,0a9.22,9.22,0,0,1,8.68,5.64A12.23,12.23,0,0,1,94,151.32a11.07,11.07,0,0,1-7.79,3.36H74.27ZM192.48,38.69a32.54,32.54,0,0,0,0-3.95A34.31,34.31,0,0,0,159,0a28,28,0,0,0-4.84.37,4.48,4.48,0,0,0,1.52,8.84A17.63,17.63,0,0,1,159,9a25.37,25.37,0,0,1,24.74,26,27.86,27.86,0,0,1,0,2.89,4.47,4.47,0,0,0,3.94,5h.53a4.48,4.48,0,0,0,4.26-3.9Zm-17.63,9.42q.08-1.53,0-3.06A26.31,26.31,0,0,0,149,18.32a21.23,21.23,0,0,0-3.74,0,3.47,3.47,0,1,0,.39,6.93,3.28,3.28,0,0,0,.82-.14,11.89,11.89,0,0,1,2.53,0A19.48,19.48,0,0,1,168,45a16.3,16.3,0,0,1,0,2.21,3.46,3.46,0,0,0,3,3.84h.42A3.41,3.41,0,0,0,174.85,48.11Z"/></g></g></g></g></svg>