<svg xmlns="http://www.w3.org/2000/svg" width="288.6" height="300" viewBox="0 0 288.6 300"><defs><style>.cls-1{fill:#1093cf;}.cls-2{fill:#f78e20;}.cls-3{fill:#086aac;}</style></defs><g id="Layer_2" data-name="Layer 2"><g id="Layer_1-2" data-name="Layer 1"><g id="Layer_2-2" data-name="Layer 2"><g id="Layer_1-2-2" data-name="Layer 1-2"><path class="cls-1" d="M223.68,6l53.45,60.28,3.23,3.65c23,28.59-3.77,95-60.63,154.42C161.78,285.09,95.21,317,64.41,290.72L0,239.13c12.4,7.79,34,3.89,59.92-9.29l1.62-.78,1-.54a362.19,362.19,0,0,0,87.66-69.21,363.4,363.4,0,0,0,65.55-90.95c0-.42.36-.72.48-1.08l.72-1.38C228.77,39.77,231.77,18,223.68,6"/><path class="cls-2" d="M231.11,246.14c-14.86,15.58-19,35.95-9.29,45s29.6,4.13,44.46-11.45,19.06-35.95,9.35-44.94-30-4.19-44.52,11.39"/><path class="cls-3" d="M207.44,6.34C185.21-15,119,19.28,58.3,82.56c-4.49,4.67-8.75,9.94-12.88,15.1l54.65,50.51c4.37-5.21,8-9.17,12.88-14.26,29.3-30.62,59.92-54.47,87.84-63.94,13.78-29.12,18-52.61,6.65-63.63"/></g></g></g></g></svg>