<svg xmlns="http://www.w3.org/2000/svg" width="48" height="15" viewBox="0 0 48 15"><defs><style>.cls-1{fill:#26336d;}</style></defs><g id="Layer_2" data-name="Layer 2"><g id="Layer_1-2" data-name="Layer 1"><path class="cls-1" d="M44.47,2.79l-.1.22a.67.67,0,0,0-.07.11l-.06.1s0,0,0,0l0,0,.14-.11L44.55,3a.18.18,0,0,0,.06-.08,1.76,1.76,0,0,0,.09-.2s.09-.2.1-.21a.67.67,0,0,1,.06-.15H45a0,0,0,0,0,0,0v0a.61.61,0,0,1,0-.15V2S45,2,44.9,2s-.12.06-.15.1a.67.67,0,0,0-.06.15s-.1.22-.11.24-.11.26-.11.28M38.62,2a1.83,1.83,0,0,0,1.08-.7.23.23,0,0,0,.07.06.18.18,0,0,0,.18,0c.16-.07.18-.39.18-.48A.32.32,0,0,0,40,.68a.56.56,0,0,0,0,.08.69.69,0,0,0,0,.17.26.26,0,0,1,.09.13s0,.05-.07.08a.16.16,0,0,1-.17,0s0,0,0,0l0-.08h0a.66.66,0,0,1-.18.23,2.5,2.5,0,0,1-1.74.63.4.4,0,0,1-.35-.41,0,0,0,0,0,0,0,.81.81,0,0,0,.1.55c.14.19.47.27,1.06.07M40.46.83V.77a0,0,0,0,1,0,0,.5.5,0,0,1,.15-.08l.24-.1a1.58,1.58,0,0,0,.25-.14.12.12,0,0,0,0-.07v0s0,0,0,0L41,.4c-.07,0-.31.13-.33.15a1.75,1.75,0,0,0-.24.11.17.17,0,0,0,0,.1V.87s0,0,0,0m-.7.83a.72.72,0,0,0-.09.14,1.21,1.21,0,0,0-.19-.08s-.14.18-.14.21l0,0,.2.11,0-.07.05-.09a1,1,0,0,1,.18.1l.07-.11L40,1.8a0,0,0,0,0,0,0,.87.87,0,0,0-.19-.11h0"/><path class="cls-1" d="M38.32,1.31l.08,0,.09,0s.06,0,.07,0,0,0,0-.05,0-.07,0-.1,0,0,0,0l.06,0,.11,0h.08s0,0,0,0l0,0,0-.06S39,1,39,1s0,0,0,0l-.11,0-.14,0s0,0,0,0,0,0,0,.06a.23.23,0,0,1,0,.11s0,0,0,0a1.29,1.29,0,0,1-.2,0s0,.06,0,.08l0,.13v0h0m-.59-.14s0,0,0,0,0,0,0,0l.06,0s.06,0,.07,0a0,0,0,0,1,0,0,.09.09,0,0,1,0,0l-.08.1-.08.09a0,0,0,0,0,0,0s0,0,0,0a.31.31,0,0,0,.09,0A.23.23,0,0,0,38,1.17a1.64,1.64,0,0,0,0-.25.14.14,0,0,0,0-.05s0,0,0,0h0l-.12.05s0,0,0,0a.17.17,0,0,0,0,.1s0,.11,0,.11h0s0,0,0,0m2.38.64a.28.28,0,0,0,.26.13.46.46,0,0,0,.26-.07c.07,0,.25-.19.3-.23l.13-.1h0a1,1,0,0,0,.39.23c.11,0,.51.16.65.19a8.72,8.72,0,0,1,1.09.34s.22.1.32.16,0,0,0,0,0,0,0,0a.54.54,0,0,0,0,.08.25.25,0,0,0,0,.15.42.42,0,0,0,.17.14.31.31,0,0,0,.16,0A.16.16,0,0,0,44,2.85l.13-.12a.34.34,0,0,0,.12-.13s.1-.25.11-.28.07-.23.08-.25,0,0,0-.06l.07,0,.11,0s0,0,0,0l0,0s0-.11,0-.14a.21.21,0,0,1,0-.06h0l-.11.07a.22.22,0,0,0-.1.09c0,.06-.15.41-.17.45s-.11.32-.11.35l0,.09h0a.35.35,0,0,1-.23-.14.19.19,0,0,1,0-.19l.08-.13a.24.24,0,0,0,0-.2.61.61,0,0,0-.24-.34,4.61,4.61,0,0,0-.82-.34L42,1.16s-.16-.07-.16-.09S41.91,1,42,1a2.1,2.1,0,0,1,.42-.09,2.18,2.18,0,0,1,.34,0s.08-.06.1-.08l.08-.08s0,0,0,0h-.24a2.1,2.1,0,0,0-.82.2c-.1,0-.24.19-.24.27s0,.08.08.12l.35.13c.14,0,.68.19.83.24a2.42,2.42,0,0,1,.6.28.7.7,0,0,1,.13.16.93.93,0,0,1,0,.1,0,0,0,0,1,0,0l-.11-.06-.2-.08a4.61,4.61,0,0,0-.5-.18l-.46-.12L42,1.67l-.42-.13a1.45,1.45,0,0,1-.31-.19.09.09,0,0,1,0-.06.69.69,0,0,0-.07-.42S41.07.74,41,.73a.19.19,0,0,0-.16.08,1,1,0,0,0-.15.24l0,.08a.17.17,0,0,0,0,.18l.1.05.12,0s0,0,0,0,0,0,0,0l-.13.09a.74.74,0,0,1-.31.15.28.28,0,0,1-.3-.21.57.57,0,0,1,.06-.33s0,0,0,0a2.06,2.06,0,0,0-.11.3.46.46,0,0,0,0,.37m.78-.69h0s0,0,0-.05A.13.13,0,0,1,40.92,1c.07,0,.09.11.09.13s0,.06,0,.06l-.07,0,0,0"/><path class="cls-1" d="M43.22,1.39h.22a.05.05,0,0,0,0,0s0,0,0,0l0,0a0,0,0,0,1,0,0s0,0,0,0,0,0,0,0a.09.09,0,0,0,0-.06s0-.07,0-.08,0,0,0,0a.59.59,0,0,0,0-.08.24.24,0,0,0,0-.09s-.08,0-.1,0l0,0a.16.16,0,0,0-.06.09s0,0,0,.05,0,0,0,0,0,0,0,0h-.1l-.1,0,0,0s0,0,0,0m.3-.22h0a.06.06,0,0,1,0,.08h0l0,0s0,0,0,0,0,0,0,0M36.9,1.8l.25.28s.26.3.33.4a.21.21,0,0,1,.05.12s0,0,0,0a.2.2,0,0,0,0-.11.83.83,0,0,0-.05-.18.85.85,0,0,0-.16-.28s-.22-.27-.25-.29A.22.22,0,0,1,37,1.63a1,1,0,0,1,0-.12s0,0,0,0l-.12-.05-.14-.06v0a.45.45,0,0,0,0,.08.32.32,0,0,0,0,.15.49.49,0,0,0,.13.18M35.55,3h0V3s0,0,0,0,0,0,0-.06a.59.59,0,0,1,.07-.17l.13-.26a1.59,1.59,0,0,1,.08-.18.42.42,0,0,1,0-.1.22.22,0,0,0,0-.08h0v0a.27.27,0,0,1,0,.08s-.11.25-.13.27l-.12.25a.32.32,0,0,0,0,.11.19.19,0,0,0,0,.11.14.14,0,0,1,0,0m-.9,1h0V3.79s0-.22,0-.24a.85.85,0,0,0,0-.16s0-.06,0-.06h0v.11s0,.21,0,.23v.17a.11.11,0,0,0,0,.1"/><path class="cls-1" d="M34.31,4.91a1.73,1.73,0,0,0,.14.2.09.09,0,0,0,.07,0s.06,0,.09-.1a1.47,1.47,0,0,0,.14-.28,2.63,2.63,0,0,0,.15-.35s.17-.42.25-.57a.82.82,0,0,1,.28-.33.2.2,0,0,1,.12,0s0,0,0,0a.64.64,0,0,1-.06.11s-.2.44-.22.5-.21.47-.22.51l-.21.52a.54.54,0,0,1-.38.31,2.23,2.23,0,0,1-.37,0,0,0,0,0,0,0,0l.1.08.11.07h.25a.56.56,0,0,1,.13,0s0,0,0,.07a.93.93,0,0,1,.07.2c0,.06,0,.46.06.51a1.18,1.18,0,0,1,0,.16h0a.3.3,0,0,0,0-.08.36.36,0,0,0,0-.11s0-.17,0-.25A1.24,1.24,0,0,0,35,5.83a.31.31,0,0,0-.08-.13.44.44,0,0,0-.11-.09s0,0,0,0l.16-.12a.54.54,0,0,0,.15-.25c0-.06.16-.39.18-.45l.19-.45.25-.57s.07-.13.07-.15,0,0,0,0-.15-.21-.2-.27a.15.15,0,0,0-.15-.06c-.09,0-.17,0-.29.17a2.87,2.87,0,0,0-.3.55c0,.07-.19.46-.22.53s-.19.39-.22.38,0-.07,0-.13,0-.17,0-.33a1.05,1.05,0,0,1,.06-.33s0,0,0,0,0,0-.05-.1l-.06-.09h0l0,.06s0,0,0,.05,0,.21,0,.26a1.79,1.79,0,0,0,0,.41.85.85,0,0,0,.1.27m-.57,1.64a.89.89,0,0,0,.16.09.2.2,0,0,0,.15,0,.28.28,0,0,0,.08-.12,1,1,0,0,0,0-.17.22.22,0,0,1,0-.12s0,0,0,0,0,0,0,0a1.35,1.35,0,0,1,.09.27c.06.49-.08.61-.24.69s-.39-.13-.42-.15L33.6,7V7l.07.08.28.22a.41.41,0,0,0,.45,0c.25-.13.2-.58.2-.61s0-.1,0-.12,0-.14-.08-.22-.07-.11-.08-.14l-.11-.08-.11-.08a.1.1,0,0,0-.09,0,.28.28,0,0,0-.12.12.56.56,0,0,0,0,.18c0,.07-.06.19-.12.19s-.12-.19-.13-.25c0-.32.22-.29.22-.29v0l0,0a.49.49,0,0,0-.13-.08l-.12,0a.17.17,0,0,0-.12.09.33.33,0,0,0,0,.2,1.73,1.73,0,0,0,.12.26.6.6,0,0,0,.16.16"/><path class="cls-1" d="M33.88,5.29l.07.1h0l.08-.07a.46.46,0,0,1,.07-.07s0,0,0,0a.14.14,0,0,0,0,0A.81.81,0,0,0,34,5s0,0,0,0l-.13.13v0l.06.07m1,1.68.06,0,0,0s0,0,0-.05a1.32,1.32,0,0,0-.12-.16h0l-.13.12v0s0,0,0,0l.07.11V7l-.11.1s0,0,0,0l0,.07.07.08h0l0,0s.06-.07.08-.07a0,0,0,0,0,0,0l0-.07A.46.46,0,0,0,34.85,7V7l0,0m.87-4.15s0,.05,0,.06a.81.81,0,0,0,0,.14c0,.06,0,0,0,0l.06,0,.12,0c.05,0,.05,0,.05,0a.93.93,0,0,1,0,.25s0,.16,0,.19A1.83,1.83,0,0,1,36,3.8s-.05.16-.07.2a2,2,0,0,1-.07.23l-.05.15h0l.06-.06s.07-.09.08-.11.1-.13.12-.15a1,1,0,0,0,.11-.14,1.14,1.14,0,0,0,.06-.14.61.61,0,0,1,0-.13s0-.12,0-.14a.76.76,0,0,0,0-.15.84.84,0,0,1,0-.12l0-.06s0,0,0,0h.08l.09,0a1.11,1.11,0,0,0,.22-.19l.14-.17a1.25,1.25,0,0,1,.08-.12s0,0,0,0l.08.06a.49.49,0,0,0,.18.08s.14,0,.16,0a.36.36,0,0,0,0-.28,2.56,2.56,0,0,0-.11-.24A.17.17,0,0,0,37,2.09c-.09,0-.17.09-.19.11l0,.06h0l-.07-.06s-.18-.17-.2-.2a.14.14,0,0,1,0-.11l0-.08v0a.36.36,0,0,0-.12,0,.63.63,0,0,1-.17,0h0s0,0,0,.08a.26.26,0,0,0,0,.17l.08.1.19.19.15.15s0,0,0,0l-.06.08-.16.18a.69.69,0,0,1-.25.18.52.52,0,0,1-.17,0l-.2-.09h-.05m1.29-.48s.09,0,.1.13-.08,0-.12,0l-.07,0,0,0v0s.06-.09.13-.09m-1.95.48s0,0,0,0a.36.36,0,0,0,0,.07l.05.06h.06l0,0a.14.14,0,0,0,0-.06.28.28,0,0,0,0-.11s0-.06-.07-.06,0,0-.06,0l-.07,0a0,0,0,0,0,0,0h0m.07,0,.06-.05h0s0,0,0,.05a.08.08,0,0,1,0,0l-.05,0a0,0,0,0,1,0,0v0h0m12,3.41A3.8,3.8,0,0,0,47,5.84c0-.06-.11-.18-.11-.18l-.1,0h-.05s.08.11.13.2a4,4,0,0,1,.2.36c0,.08.1.23.16.33a1.83,1.83,0,0,0,.18.31.14.14,0,0,0,.11,0h0a3.76,3.76,0,0,1-.32-.61m-.35.37a.11.11,0,0,0-.07.08.08.08,0,0,0,.07,0H47s0,0,0,0h0s.05,0,.08,0,.07-.06.06-.08-.15,0-.17,0-.07,0-.05,0,.06,0,.1-.06l.06,0a.07.07,0,0,0,0,0,.31.31,0,0,0-.12,0s0,0,0,0h0s0,0,0,0,0,0-.06,0"/><path class="cls-1" d="M45.25,2.87s-.46,0-.54.42a.76.76,0,0,0,.1.37,3.17,3.17,0,0,0,.25.4c0,.08.2.26.25.32a1.33,1.33,0,0,0,.28.24,1.19,1.19,0,0,0,.18.1s.07,0,.09,0,0,0,0,0a.11.11,0,0,0,0,.05.3.3,0,0,0-.07.2.25.25,0,0,0,.06.15.2.2,0,0,0,.13.07H46s0,0,0,0a.54.54,0,0,0,0,.08,1.61,1.61,0,0,0,0,.26c0,.08,0,.24,0,.3a6.37,6.37,0,0,0,.11.63c0,.1.14.44.15.45a1.78,1.78,0,0,0,.11.21l0,.06.19,0h.17l.1,0L47,7.2s0,0,0,0,0,0-.1,0l-.15,0-.06.06s0,0-.06,0a1.45,1.45,0,0,1-.16-.33,4.66,4.66,0,0,1-.13-.52s-.07-.39-.08-.49a3.65,3.65,0,0,1,0-.47.7.7,0,0,1,.06-.19s0,0,0,0h-.19c-.09,0-.11-.07-.12-.12a.28.28,0,0,1,.07-.24,1.51,1.51,0,0,1,.18-.09l.23-.14.3-.2s0,0,0,0h-.05a1.21,1.21,0,0,0-.19,0,2.7,2.7,0,0,0-.33.22s-.15.12-.22.09a1.53,1.53,0,0,1-.55-.44s-.31-.43-.36-.52A1,1,0,0,1,45,3.31c-.05-.29.29-.44.29-.44"/><path class="cls-1" d="M46.62,4.87s0,0,0,0a.15.15,0,0,1,0,.06s0,.1,0,.13.06,0,.09.05a.31.31,0,0,0,.13,0s0,0,.06,0,0-.13,0-.16,0,0-.05-.06a.6.6,0,0,0-.18,0m-.84-1.12s.07.1.08.11,0,0,0,0a.33.33,0,0,1-.14,0l-.19-.13-.08-.08s0,0,0,0a.28.28,0,0,0,0,.08.55.55,0,0,0,.26.24.26.26,0,0,0,.17,0l.12,0,0,0s0,0,0,0L46,3.76a.07.07,0,0,1,0-.06s0,0,.07,0a.36.36,0,0,1,.09.08v.05a0,0,0,0,0,0,0s.11-.07.1-.12a.11.11,0,0,0-.06-.1.32.32,0,0,0-.13,0c-.18,0-.25.06-.25.11m.09-.43c-.06,0-.17-.08-.18-.08s0,0,0,0,0,0,0,0l.07.06a.28.28,0,0,0,.13,0s.11,0,.14,0a0,0,0,0,0,0,0l-.1-.12s0,0,0,0l-.11.05.08.07s.07,0,0,0M45.43,3a.05.05,0,0,0,0,0l.15-.07s0,0,0,0a.1.1,0,0,1-.08-.05.07.07,0,0,1,0-.09l.13,0,.05,0s0,0,0,0h-.06l-.08,0a.84.84,0,0,0-.14.06.13.13,0,0,0-.09.1.14.14,0,0,0,.06.12M47,5.44c.15,0,.15-.08.15-.1s0,0,0,0-.26-.06-.27,0,.1.1.15.1m0-.13h0a0,0,0,0,1,0,0s0,.06,0,.06,0,0,0,0,0,0,0,0m-2.24,6.15-.16.17.19.42-.31-.29-.13.14.94.88.13-.14-.34-.32.47.18.16-.17L45,12.07l-.24-.61Zm1.08-.11-.62-.45-.11.15.58.42s.28.2.21.29-.28-.08-.33-.12L45,11.22l-.11.15.61.45c.24.17.49.27.63.09s0-.39-.28-.56m-.19-1.24.61.45-.74-.24-.06.12.62.46-.72-.24-.09.18,1.28.38.07-.13-.58-.43.69.22.06-.13-1-.82-.09.18Zm.16-.31,1.14.72.07-.19-.22-.14.07-.2.26,0,.07-.19-1.33-.19Zm.81.15,0,.11-.26-.16a2.47,2.47,0,0,0,.3,0m.62-.37L46,9.32l0-.19,1.26.26Zm-.8-1.07-.26,0-.1.47.26.06,0-.15,1,.22,0-.19-1-.21Zm-4,4.47c-.17.06-.15.4,0,.71s.33.57.5.51.15-.4,0-.72-.33-.57-.5-.5m.37,1c-.07,0-.2-.14-.27-.31s-.07-.37,0-.39.19.1.26.29.07.38,0,.41m.88-.67-.1-.24-.19.08-.09-.2.2-.09-.11-.24-.37.17.52,1.17.18-.08-.22-.49Zm-5,.11c.1-.23.06-.37-.09-.43l-.18-.07-.48,1.19.23.09c.14.06.28,0,.37-.25a.38.38,0,0,0,0-.34.36.36,0,0,0,.13-.19m-.32.44c-.05.13-.1.12-.16.09l.11-.26c.05,0,.1,0,.05.17m.15-.49c0,.1-.08.11-.12.1l.1-.25s.06,0,0,.15m.66-.2-.57,1.2.2,0,.11-.24.21,0v.25l.2.05V13.16Zm0,.8-.11,0,.12-.28c0,.12,0,.3,0,.3M40,14c-.06-.21-.24-.79-.24-.79l-.14,0-.14,1.27.19,0,.07-.73c.06.21.25.79.25.79h.14l.13-1.26-.18,0Zm1-.75h-.23l-.17.43V13.3h-.2l.05,1.29h.19l0-.47.21.46h.24l-.32-.68ZM34,9.5l.27-.08.06.22.25-.08-.06-.21.21-.06.07.22L35,9.44,34.92,9l-1.23.35.11.41.25-.07Zm1.29.56-.69.31.58-.63-.06-.14-1.2.54.08.17.69-.3c-.16.16-.58.63-.58.63l.06.13,1.2-.54Zm.17.85.23-.14-.26-.41-.22.14.07.12-.86.54.1.17.87-.54Zm.94.64-1.1.79.15.13.22-.15.16.14-.14.23.15.13.67-1.17-.11-.1Zm-.44.69-.09-.07.25-.19c-.07.1-.16.26-.16.26M34.26,9.07l-.06-.14a.74.74,0,0,1-.21,0,.16.16,0,0,1-.14-.09.1.1,0,0,1,0-.13.64.64,0,0,1,.26-.1c.19,0,.4-.06.45.07s0,.07,0,.09a.31.31,0,0,1-.17.09l.06.14.06,0c.26-.07.36-.23.31-.36a.34.34,0,0,0-.28-.19,1.22,1.22,0,0,0-.46,0,.9.9,0,0,0-.47.22.21.21,0,0,0-.06.22.33.33,0,0,0,.24.18,1,1,0,0,0,.43,0m1.23,2.82a.33.33,0,0,0,.1-.14V11.7s0,0,.13,0a.77.77,0,0,0,.35-.31.36.36,0,0,0,0-.15l-.24-.31-.15.12-.2.16-.33.26-.3.23v0l.11.14.12-.1.21-.16h0l0,.07a.06.06,0,0,1,0,.06.89.89,0,0,1-.17.17l-.11.11.12.15.06-.06.08-.08.14-.12m0-.49.09-.07.06-.05,0,0s.07.08.07.1a.06.06,0,0,1,0,.07l-.11.08s0,0-.06,0l-.07-.09v0M46.18,7.09l-.12.09v0h0a.69.69,0,0,1,0,.08l0,.08h0l.08,0,.06,0s0,0,0,0a.06.06,0,0,0,0,0l-.08-.13s0,0,0,0m-9.43,4.82-.78,1,.3.23.16-.2-.15-.12.61-.77Zm7.88-4c-.05,0-.06,0-.11,0s-.1,0-.17,0a.8.8,0,0,1-.16,0,.21.21,0,0,0-.14,0h0a.12.12,0,0,1,0,0,.08.08,0,0,0,.06,0l0,0,0,0,0,0a0,0,0,0,0,0,0s0,0-.05,0,0,.06,0,.06L44,7.83a.92.92,0,0,0-.13.14s-.45.45-.47.46a1.8,1.8,0,0,1-.2.18s-.13.17-.15.18,0,0,0,0l.06-.08a.46.46,0,0,0,.07-.1l.13-.14.08-.1a.05.05,0,0,0,0-.08h0c-.05,0-.07,0-.1,0a.27.27,0,0,0-.07.08.05.05,0,0,0,0,0,.15.15,0,0,1,0,.05L43,8.57s-.05.11-.11.11l-.36,0s0,0,0,0l0-.07-.05,0v0s0,0,0,0v0l.12,0,.22.06,0,0v0a.18.18,0,0,0,0-.06s0-.1,0-.16,0-.34,0-.51a4,4,0,0,1,.06-.65c0-.12.12-.54.15-.64s.17-.42.21-.52.25-.49.27-.53l.27-.44s.12-.17.13-.18a.21.21,0,0,1,.07-.05.07.07,0,0,0,0,0s0,0,0,0,0,0,0,0L43.54,5s-1,.68-1.1.73-.52.34-.54.34,0-.1,0-.12,0-.26,0-.26h0l0,.08a.14.14,0,0,1,0,0v0l-.09-.28c0-.06-.1-.35-.1-.35a.62.62,0,0,0,.08-.1l.27-.37a5.36,5.36,0,0,1,.37-.45c.05,0,.24-.27.31-.33a1.11,1.11,0,0,1,.25-.14.05.05,0,0,0,0-.07s0,0,0,0l-.09,0-.26.15-.59.33c-.07,0-.88.5-1,.54l-1.24.71-.1.06s0,0-.05-.1a3.45,3.45,0,0,0-.14-.34,2.58,2.58,0,0,1-.08-.26l0-.08a.38.38,0,0,1,0,.12s-.32.76-.35.8L38.74,6l-.92.52L37,7c-.06.05-.67.38-.67.38a0,0,0,0,0,0,0l.06.08s0,0-.06.09a2.25,2.25,0,0,0-.3.55c0,.1-.07.37-.08.4a.1.1,0,0,1-.05.06v0h.39l.39,0,.42,0,.15.13a1.62,1.62,0,0,0,.2.18,2.62,2.62,0,0,1,.25.22,3.08,3.08,0,0,0,.27.25l.28.24a.84.84,0,0,1,.21,0,3.72,3.72,0,0,0,.51.09,1.88,1.88,0,0,0,.56-.09,1.2,1.2,0,0,1,.4,0l.41.09a1.11,1.11,0,0,0,.46,0,2.17,2.17,0,0,1,.54-.09,1.37,1.37,0,0,1,.32.06,1.4,1.4,0,0,0,.65,0c.36-.08.27-.11.57-.09a.84.84,0,0,1,.28.07.84.84,0,0,0,.19,0h0l-.13,0s0,0,0,0a.23.23,0,0,1,.08-.09s.1-.11.14-.15a.82.82,0,0,0,.1-.11s0,0,0,0V9.17s0,0,.06-.06l.19-.19.1-.11,0,0h0L44,8.76a.06.06,0,0,0,0,0,.27.27,0,0,0-.12-.06h-.07a.07.07,0,0,1,0,0s0,0-.09,0h-.24a.35.35,0,0,0-.12,0l0,0,.14-.14.2-.22L44,7.93l-.08.12c0,.06-.36.33-.36.33l.23-.19h.06l0,0,0,0H44c.06,0,.14.06.2.06a2.15,2.15,0,0,1,.23,0l.08,0,0-.07,0-.07-.09,0a.91.91,0,0,0-.23,0H44.1l.07-.1s0,0-.06,0,0,0,.06,0l.12,0a.3.3,0,0,0,.14,0l.12,0a0,0,0,0,1,0,0s0,0,0,0,0-.06,0-.08l0-.06a.23.23,0,0,1-.1,0M42,6.26s0,0,0,0,0,0,0,0,0,0,0,0l.31-.2.1-.07.71-.46.48-.32.14-.1s0,0,0,0V5s-.26.42-.29.48l-.31.59L43,6.46s-.11.4-.14.48a5.59,5.59,0,0,0-.1.64c0,.08,0,.54,0,.62s0,.21,0,.23a.93.93,0,0,1,0,.1h0a.59.59,0,0,0-.15,0l-.14,0s0,0,0-.07-.06-.22-.07-.27-.13-.49-.15-.53-.19-.65-.2-.7,0-.12,0-.15,0-.08,0-.14a.5.5,0,0,1,0-.14.69.69,0,0,0,0-.1.73.73,0,0,0,0-.08l.05,0M41.82,7s0-.26,0-.28,0-.08,0-.11a.2.2,0,0,1,0-.05s.06.51.06.55,0,.9,0,1,0,.23,0,.24l0,0-.2,0a0,0,0,0,1,0,0s0-.27,0-.31,0-.63,0-.64,0-.31,0-.33m-.09-1s0,0,0,0a.11.11,0,0,1,0,.06.21.21,0,0,1,0,.06l-.16.09s0,0,0,0,0,0,0,0a.46.46,0,0,1,.08-.13l0,0m-.11-.4s.05.16.05.18l0,.12L41.66,6a2.36,2.36,0,0,1-.15.25,1.17,1.17,0,0,0-.08.13l0,0-.1.05L41,6.67l-.36.24h0s0,0,0-.06a1.15,1.15,0,0,1,.06-.17l.06-.14.14-.3s.13-.24.14-.27l.21-.35.18-.28s0,0,0,0l0,0s0,.08,0,.1,0,.17.06.21M40.21,8.28h0a.1.1,0,0,0,0,0c0-.14-.07-.28-.1-.41s0-.19-.06-.22,0-.1,0-.12a.18.18,0,0,1,0,0l.09,0s0,0,0,0l.09.26s.08.23.09.27l0,.16a.32.32,0,0,0-.06.08l-.06.08m0,.48-.12,0s-.06,0,0,0a1.4,1.4,0,0,1,.12-.18,1.24,1.24,0,0,0,0,.16.56.56,0,0,0,0,.07M40,7.11a.11.11,0,0,0,0,.06l0,.07v.07L40,7.36a.68.68,0,0,1,0-.12.56.56,0,0,0,0-.07l0,0h0l-.24-.94s0-.16,0-.18a.08.08,0,0,1,0,0,.78.78,0,0,1,.06.16s.16.51.18.54L40,7v0s0,0,0,0m.41.56s0,0,0,0l.06.15a.1.1,0,0,1,0,.06L40.4,8l0,0s-.14-.37-.14-.39a1.8,1.8,0,0,1-.08-.21s0,0,0,0l.06,0s0,0,0,0,.12.28.12.28a.23.23,0,0,0,0,.07m.06.58a0,0,0,0,1,0,0l0,0v0l0,0m-.2.16.07-.1,0-.06s0,0,0,0l0,.09,0,.07-.11,0h-.07a0,0,0,0,1,0,0m.17,0h0l.09.25a1.66,1.66,0,0,0,0,.16s0,.05,0,.05h0l-.09,0s0,0,0,0,0-.19,0-.2,0-.09,0-.14V8.44Zm0-.08a0,0,0,0,1,0,0v0l0,.06h0m0-.22s0,0,0,0l.07-.1h0s0,0,0,0a2.52,2.52,0,0,0,.12.29s0,0,0,0h-.14l0,0s0-.06,0-.08a.42.42,0,0,1,0-.12m.09-.36h0l0-.09a.11.11,0,0,0,0-.06l-.06,0,0-.08a.93.93,0,0,0-.09-.2v0l.11-.08L40.63,7l.22-.13s.42-.27.42-.27v0a.22.22,0,0,1-.05.08l-.07.12-.2.3a3.57,3.57,0,0,1-.25.38.14.14,0,0,0,0,0l-.15.22Zm-.9-2.16L40,5.39l.19-.1L40.67,5,41,4.83l.31-.18.52-.29.25-.15.22-.12.1-.06a0,0,0,0,1,0,0l-.36.41-.3.37L41.62,5s-.06.09-.07.09,0,0,0,0,0-.13-.05-.17a.47.47,0,0,1,0-.09s0,0,0-.06,0,0,0,0a0,0,0,0,0,0,.06s.09.29.09.31,0,.08,0,.09l-.07.09-.22.35s-.28.49-.3.53l-.2.39-.1.23s0,0,0,.06,0,0,0,0a.59.59,0,0,1-.05.13l-.13.08-.11.08s0,0,0,0L40.16,7S40,6.58,40,6.54l-.15-.34s-.1-.26-.12-.29-.06-.16-.07-.2,0,0,0-.06a0,0,0,0,1,0,0m-.05.06S40,6.73,40,6.76a3.05,3.05,0,0,0,.13.32s0,.11,0,.12-.07,0-.07,0a.89.89,0,0,1,0-.1l0,0h0l-.28-.83L39.64,6l0-.16a.86.86,0,0,0,0-.13l0,0m0,.1,0,.11h0l0-.1v0a0,0,0,0,1,0,0m.12.76s.15.59.15.61l0,.08,0,0a.81.81,0,0,0,0,.09.09.09,0,0,1,0,.06.25.25,0,0,0-.09.07l-.08,0v.06h.06l-.08.1s0-.06,0-.08-.11-.75-.12-.79-.08-.51-.08-.55,0-.29,0-.32V5.84h0s.18.65.18.7m0,2v0h0l0,0Zm-.18,0-.15,0s0-.11,0-.13,0-.08,0-.14.07-.19.08-.23.12-.24.12-.24,0,.21,0,.24,0,.38,0,.38l0,0a1.16,1.16,0,0,1-.15.06m-.07-2.86h0v0h0v0Zm0-.15,0,0s0-.06,0-.08a.83.83,0,0,1,0-.13Zm.11,1.54a.44.44,0,0,1,0,.09s-.07,0-.06.08,0,.09,0,.08h0s0,.34.05.37v.07l-.05.09c0,.06-.09.18-.11.23a1.25,1.25,0,0,0-.09.25l0,.14v0l-.42-.07c-.08,0-.09,0-.12,0s-.07,0-.07,0a.71.71,0,0,1,0-.14s.09-.59.11-.63,0-.23,0-.26a.21.21,0,0,0,0-.06,0,0,0,0,0,0,0,.2.2,0,0,0,0-.07l0-.06s.1-.53.11-.57.07-.41.08-.47,0-.22,0-.24l0,0,.15-.09,0,0h.08l.16,1.31Zm-.17-1.36h0v0h0v0Zm-.13-.62s0-.18,0-.18,0,.09,0,.11a2.42,2.42,0,0,0,0,.25c0,.05,0,.31,0,.31l0,0-.09.06-.09,0,0-.14a1,1,0,0,1,0-.16s.05-.3.06-.32m-.39.74S39,5.62,39,5.6a2.14,2.14,0,0,1,.1-.22l.06-.16a.84.84,0,0,0,.06-.14l0,0v0s-.07.42-.08.46a1.68,1.68,0,0,0,0,.18.25.25,0,0,0,0,.08,0,0,0,0,1,0,0L39,5.89,38.86,6l0,0,0-.06m-.12.24a.14.14,0,0,1,0-.05L38.93,6,39,6l0,0s-.06.44-.08.51-.09.54-.09.57a.66.66,0,0,1,0,.15.15.15,0,0,0,0,.09s0,0,0,0v0l0,0h0l0,0s0,0,0,0,0,0,0,0,0,0,0,0,0,0,0,0,0,.06,0,.07,0,.07,0,.08l-.08.37-.06.33c0,.05,0,.09,0,.13l0,.1s0,.06,0,.06l-.32,0h-.52s0,0,0,0,.23-.47.26-.51.17-.41.2-.45.13-.3.14-.32l.17-.4.15-.36a1,1,0,0,0,.08-.19M36.56,7.36l.07,0,.14-.08.31-.17.22-.13.2-.11.27-.15L38,6.53l.32-.18.31-.18h0s0,0,0,0a.19.19,0,0,0,0,.08,1.59,1.59,0,0,0-.08.18l-.14.3s-.22.48-.22.5-.11.25-.17.37L37.88,8l-.11.24s-.08.19-.1.22-.1,0-.11,0h-.1s-.34-.26-.41-.32-.47-.46-.48-.47-.08-.09-.09-.09l0,0,0,0,.08-.11m1.1,1.11v0l0,0h0l-.09,0h0s0,0,0,0a.15.15,0,0,1,.07,0h0M36.43,7.41h0l-.06.06h0l0,0M37,8.65h-.84l0,0,.28-.05.19,0,.15,0h.05l0,0,.09.09.06,0a.07.07,0,0,1,0,0h0m-.14-.19s0,0,0,0l.07-.07a0,0,0,0,1,0,0l0,0v0l-.05.06,0,0s0,0,0,0l0,0m.29,0,0,0-.07,0-.12-.07-.06,0-.08,0s-.05,0-.06.06a.26.26,0,0,0,0,.08l0,0h-.11l-.12,0-.36,0a1.35,1.35,0,0,1-.18,0s0,0,0,0,0-.1,0-.12,0-.15,0-.17A.93.93,0,0,1,36.11,8l.07-.13.09-.14c0-.06.1-.15.1-.16l0,0,.07.07.09.11.08.09.18.17.17.15a1.74,1.74,0,0,1,.15.13l.15.11v0h-.18m.44.2,0,0h0l0,0h-.07l-.1-.07-.09-.07,0,0h.16s0,0,0,0l.13.09,0,0h0v0s0,0,0,0m.16,0h-.11s0,0,0,0v0h0l0,0,0,0v0m.83,0s0,0,0,0l-.07,0a.2.2,0,0,1-.08,0l-.05,0h0a.26.26,0,0,1,0,.05v0H38a.05.05,0,0,1,0,0,.05.05,0,0,0,0,0h-.06l-.09,0-.06,0s0,0,0,0l0,0,0,0h.49l.26,0h.09s0,0,0,0,0,.11,0,.12V8.7m.1-.1a.36.36,0,0,0,0,.11l0,0h0s0,0,0,0a1,1,0,0,0,0-.12V8.51s0,0,0,0,0,.07,0,.09m0-.13s0,0,0,0,.08-.39.08-.42.1-.47.1-.49,0-.1,0-.11v0h0s0,.11,0,.14,0,.17,0,.19,0,.29-.06.31a2.5,2.5,0,0,1-.05.29.87.87,0,0,1,0,.1s0,0,0,0m0,.27a1.81,1.81,0,0,1,0-.19s0,0,0,0l.46.06.13,0s0,0,0,.05l0,0a0,0,0,0,0,0,0s0,0,0,0,0,0,0,0l.15,0,.12,0s.09,0,.09,0a.82.82,0,0,1,0,.14l-.57,0-.47,0,0,0m1.07.17h0l0,0H39l-.11,0-.13-.05v0h.36l.48,0h.11Zm.07-.39s0-.35,0-.38,0-.27,0-.29a.35.35,0,0,0,0-.06l.16-.25,0,0s0,0,0,0S40,7.92,40,8s.08.36.09.37,0,0,0,.06,0,.07,0,.08l-.23,0s0,0,0,0m0,.05.22-.06L40,8.65l0,0H39.9l-.06,0V8.57m0,.19a.28.28,0,0,0,0-.09l.07,0s0,0,0,.05a.08.08,0,0,0,0,0,0,0,0,0,1,0,0m0,.22s0,0,0,0,0,0,0,0a.66.66,0,0,0,.14,0s.06,0,.06,0,0-.05,0-.05H40l0-.07.14,0,.07,0v0s0,.06,0,.08V9h-.36m.4-.19-.08-.31v0h.12l0,.37h0l-.07,0m.07.21s0,0,0,0a.19.19,0,0,0,0-.07V8.85l.07,0s0,0,0,0h0L40.6,9l0,.05h-.24m.28-.06s0,0,0,0l0,0s-.08-.25-.1-.3,0-.09,0-.11,0,0,0,0h0l.11.31a1.31,1.31,0,0,1,0,.15s0,0,0,0m.22,0a.71.71,0,0,1-.14.1,0,0,0,0,1,0,0,.76.76,0,0,0,0-.11s-.13-.36-.13-.38,0,0,0-.05,0,0,0,0h.14s.12.3.14.33a.69.69,0,0,1,.05.13s0,0,0,0m.39-.3s0,.14,0,.15a.43.43,0,0,1,0,0s0,0,0,0h-.09l0,0v0h0V9h0l0,0v0h0l-.13-.31-.06-.14a0,0,0,0,0,0,0s0,0,0,0h.48s0,.2,0,.22m.07-.36,0,0v.05H41l-.21,0s0,0,0,0a1.67,1.67,0,0,0-.08-.2A1.16,1.16,0,0,1,40.6,8s0,0,0-.06v0l.19-.28a.05.05,0,0,0,0,0,.12.12,0,0,1,0-.05L41,7.16s.29-.45.29-.47l.1-.15.14-.1s.1-.06.11-.08l.08-.05h0a.2.2,0,0,1,0,.07S41.6,8,41.59,8.05s0,.29,0,.29h-.14v0l0,0a.22.22,0,0,0,0-.08V8.12a.64.64,0,0,0,0-.09s0,0-.05,0,0,.05,0,.05v.07s0,0,0,.07,0,0,0,0m.21.17s0,.26,0,.28v.09s0,0,0,0h-.13s0,0,0,0,0-.2,0-.22a.78.78,0,0,0,0-.14v0l0,0a.47.47,0,0,1,.12,0s0,0,0,0m.1.39h-.08l.21-2a.2.2,0,0,0,0,.08s-.07,1-.07,1.11-.06.78-.06.78m.31,0-.21,0s0,0,0,0,0-.21,0-.23V8.41s0,0,0,0H42v0a2.18,2.18,0,0,0,0,.25.35.35,0,0,0,0,.06h0m.37-.27,0,0s0,.06,0,.06l0,0,0,.05,0,.08h-.18v0a.68.68,0,0,0,0-.15.75.75,0,0,1,0-.15l.14,0,.17,0v0Zm.05-.05a1.61,1.61,0,0,1-.33-.06s0-.29,0-.3A.06.06,0,0,0,42,8S42,8,42,8a1.49,1.49,0,0,1,0-.21s0-.65,0-.66,0-.25,0-.27V6.66a.38.38,0,0,1,0,.08l.11.4.2.73s.06.26.07.29a.64.64,0,0,1,0,.17l0,0s0,.06,0,.06m0,.28,0,0,0,0ZM44,7.89l.07.05L44,7.89Zm0,.22h0M42.76,9.94c-.27,0-.49.12-.75.12s-.39-.09-.74-.09a1.31,1.31,0,0,0-.39,0,1.13,1.13,0,0,1-.36.06c-.28,0-.5-.11-.76-.11a1.53,1.53,0,0,0-.4.06,1.24,1.24,0,0,1-.74,0,1.41,1.41,0,0,0-.31-.07A.56.56,0,0,0,38,10l0,.05h0c.16-.1.42,0,.59,0a1.08,1.08,0,0,0,.38,0c.26,0,.5-.13.77-.13a1.51,1.51,0,0,1,.36.06,1.45,1.45,0,0,0,.62,0,2.17,2.17,0,0,1,.53-.09c.35,0,.47.09.74.09a1.67,1.67,0,0,0,.38-.06.94.94,0,0,1,.66,0,.94.94,0,0,0,.15.06l0,0,0,0a.92.92,0,0,0-.41-.1M42,10.3c-.27,0-.39-.09-.74-.09a1.31,1.31,0,0,0-.39,0,1.43,1.43,0,0,1-.36.06c-.28,0-.5-.11-.76-.11a1.53,1.53,0,0,0-.4.06,1.24,1.24,0,0,1-.74,0,1.41,1.41,0,0,0-.31-.07h-.2l0,0a1.47,1.47,0,0,1,.48.07,1.35,1.35,0,0,0,.38.05c.26,0,.5-.14.77-.14a1.51,1.51,0,0,1,.36.06,1.45,1.45,0,0,0,.62,0,2.17,2.17,0,0,1,.53-.09c.35,0,.47.09.74.09a1.67,1.67,0,0,0,.38-.06.94.94,0,0,1,.66,0h0l0,0a.66.66,0,0,0-.34-.08c-.27,0-.49.12-.75.12m0,.24c-.27,0-.39-.09-.74-.09a1.74,1.74,0,0,0-.39.05,1.09,1.09,0,0,1-.36.06c-.28,0-.5-.11-.76-.11a1.53,1.53,0,0,0-.4.06,1.24,1.24,0,0,1-.74,0l-.31-.07h-.05l0,0,.31.07a1.2,1.2,0,0,0,.38,0c.26,0,.5-.13.77-.13a1.51,1.51,0,0,1,.36.06,1.45,1.45,0,0,0,.62,0,2.17,2.17,0,0,1,.53-.09c.35,0,.47.09.74.09a1.67,1.67,0,0,0,.38-.06,1,1,0,0,1,.56,0l0-.05a.65.65,0,0,0-.22,0c-.27,0-.49.12-.75.12m0,.24c-.27,0-.39-.09-.74-.09a1.74,1.74,0,0,0-.39.05,1.09,1.09,0,0,1-.36.06c-.28,0-.5-.11-.76-.11a1.53,1.53,0,0,0-.4.06,1.24,1.24,0,0,1-.74,0l-.16,0,.06.07.09,0a1.58,1.58,0,0,0,.38.05c.26,0,.5-.14.77-.14a1.51,1.51,0,0,1,.36.06,1.45,1.45,0,0,0,.62,0,2.17,2.17,0,0,1,.53-.09c.35,0,.47.09.74.09a1.67,1.67,0,0,0,.38-.06,1.11,1.11,0,0,1,.4-.06l0-.05h-.07c-.27,0-.49.12-.75.12m-.74.15a1.74,1.74,0,0,0-.39.05,1.09,1.09,0,0,1-.36.06c-.28,0-.5-.11-.76-.11a1.53,1.53,0,0,0-.4.06,1.24,1.24,0,0,1-.63.06l.06.06H39c.26,0,.5-.14.77-.14a1.51,1.51,0,0,1,.36.06,1.45,1.45,0,0,0,.62,0,2.17,2.17,0,0,1,.53-.09c.35,0,.47.09.74.09a1.67,1.67,0,0,0,.38-.06l.18,0,.06-.06A4.83,4.83,0,0,1,42,11c-.27,0-.39-.09-.74-.09m0,.24a1.74,1.74,0,0,0-.39.05,1.09,1.09,0,0,1-.36.06c-.28,0-.5-.11-.76-.11a1.53,1.53,0,0,0-.4.06,1.21,1.21,0,0,1-.36.07l.06,0a5.1,5.1,0,0,1,.7-.13,1.51,1.51,0,0,1,.36.06,1.3,1.3,0,0,0,.62,0,2.17,2.17,0,0,1,.53-.09c.35,0,.47.09.74.09a1,1,0,0,0,.24,0l.08-.07a1.19,1.19,0,0,1-.32,0c-.27,0-.39-.09-.74-.09m-.39.29a1.13,1.13,0,0,1-.36.06c-.28,0-.5-.11-.76-.11a1.53,1.53,0,0,0-.4.06l-.1,0,.05,0a1.7,1.7,0,0,1,.45-.08,1.51,1.51,0,0,1,.36.06,1.3,1.3,0,0,0,.62,0,2.17,2.17,0,0,1,.53-.09,3.93,3.93,0,0,1,.63.09L42,11.5c-.24,0-.37-.09-.7-.09a1.69,1.69,0,0,0-.39.05m0,.24a1.09,1.09,0,0,1-.36.06c-.28,0-.5-.11-.76-.11l-.23,0,.08,0h.15a1.51,1.51,0,0,1,.36.06,1.3,1.3,0,0,0,.62,0,1.61,1.61,0,0,1,.84-.06l.08,0a2,2,0,0,0-.39,0,1.74,1.74,0,0,0-.39,0"/><path class="cls-1" d="M40.5,0A7.5,7.5,0,1,0,48,7.5,7.5,7.5,0,0,0,40.5,0m0,14.84A7.34,7.34,0,1,1,47.84,7.5a7.34,7.34,0,0,1-7.34,7.34"/><path class="cls-1" d="M40.5,2.06A5.44,5.44,0,1,0,45.94,7.5,5.45,5.45,0,0,0,40.5,2.06m0,10.77A5.33,5.33,0,1,1,45.83,7.5a5.32,5.32,0,0,1-5.33,5.33M1.36,12.1l-.27.26L1,12.29a.05.05,0,0,0,0,0,.34.34,0,0,0,0-.18.39.39,0,0,0-.57.07,1,1,0,0,0-.09.21.75.75,0,0,0,.37.84.68.68,0,0,0,.37,0c.05,0,.1,0,.12-.13h.1v.33a1,1,0,0,1-1.21-.48.91.91,0,0,1,0-.61.74.74,0,0,1,.37-.49,1,1,0,0,1,.38-.08.79.79,0,0,1,.58.35m1.33,1.31H1.45v-.08l.06,0a0,0,0,0,1,0,0l0,0V11.94l0,0,0,0h0v-.08H2.63v.32H2.52s0,0,0-.06l0,0H1.84v.42h.4l.08,0,0,0a.3.3,0,0,0,0-.08h.08v.41H2.39l0,0,0,0-.06,0H1.84v.63h.63l0,0,0,0,0,0,0-.06h.1v.33Zm1.58,0H3.88v-.08h0l0,0,0,0v-.32l-.79-.84v1.12s0,0,0,.06l0,0,.06,0v.08H2.86v-.08h0l0,0,0,0s0-.07,0-.1V11.93a0,0,0,0,0,0,0s0,0,0,0H2.86v-.08H3.3l.67.73V12s0-.07,0-.1l0,0-.06,0v-.08h.39v.08h0l0,.05a.3.3,0,0,0,0,.1v1.2s0,0,0,0l0,0h0l0,0v.08ZM5.7,12.12H5.61a.64.64,0,0,0,0-.07s0,0,0,0l0,0H5.21v1.18a.34.34,0,0,0,0,.1s0,0,0,0l.07,0v.08h-.5v-.08l.05,0s0,0,0,0l0,0s0-.06,0-.08V12H4.66l-.09,0,0,.05a.14.14,0,0,1,0,.06H4.42v-.34H5.7v.34Zm1.13.09A.29.29,0,0,0,6.6,12H6.25v.53h.29a.27.27,0,0,0,.29-.3m.41,1.2H6.87l-.4-.71H6.25v.47a.38.38,0,0,0,0,.1l0,0h0l0,0v.08H5.87v-.08h0l0,0s0,0,0,0,0-.07,0-.1V12s0-.06,0-.09v0s0,0,0,0H5.86v-.08h.8a.48.48,0,0,1,.47.41.49.49,0,0,1-.16.38.66.66,0,0,1-.19.09l.35.58,0,.06.06,0Zm1-.8-.2-.53-.18.53Zm.64.8h-.5v-.09l0,0h0a.11.11,0,0,0,0,0,.14.14,0,0,0,0-.06l-.14-.36H7.8l-.13.36s0,0,0,.06a.06.06,0,0,0,0,0l.08,0v.09H7.32v-.09l.06,0,0,0a.93.93,0,0,0,0-.1l.5-1.4h.31l.53,1.45s0,0,0,0l0,0,0,0v.09Zm1.29,0H9.06v-.08l0,0,.05,0s0-.07,0-.1V12s0-.07,0-.1l0,0,0,0v-.08h.47v.08h0s0,0,0,0,0,.05,0,.06v1.24H10l.07,0,0,0,0-.05s0,0,0,0h.11v.36ZM12.1,13a.33.33,0,0,0-.11-.32l-.06,0a.76.76,0,0,0-.16,0h-.31v.6h.32c.14,0,.29-.06.32-.23m-.1-.9L12,12l-.08,0-.09,0h-.34v.46h.32a.37.37,0,0,0,.2-.09.25.25,0,0,0,0-.25m.39.76a.49.49,0,0,1-.11.41.55.55,0,0,1-.28.15h-.92v-.08l.05,0,0,0V11.92l0-.05h-.05v-.08h.82a.42.42,0,0,1,.41.32.69.69,0,0,1,0,.2.39.39,0,0,1-.25.22.45.45,0,0,1,.36.33m1.07-.24-.2-.53-.19.53Zm.64.8h-.5v-.09l.05,0h0s0,0,0,0a.14.14,0,0,1,0-.06l-.14-.36H13l-.13.36s0,0,0,.06a.06.06,0,0,0,0,0l.07,0v.09h-.42v-.09l.06,0v0l.06-.1.5-1.4h.31L14,13.23l0,0,0,0,0,0v.09Zm1.58,0h-.4v-.08h0l0,0v-.36l-.8-.84v1.12s0,0,0,.06l0,0,.06,0v.08h-.41v-.08h.05l0,0,0,0a.38.38,0,0,0,0-.1V11.93a0,0,0,0,1,0,0s0,0,0,0h-.06v-.08h.45l.67.73V12a.3.3,0,0,0,0-.1v0l-.07,0v-.08h.4v.08h0s0,0,0,.05,0,.06,0,.1v1.2a.43.43,0,0,1,0,0s0,0,0,0h0l0,0v.08Zm1.64,0h-.51v-.08l.05,0,0,0a0,0,0,0,0,0,0l-.43-.69-.2.22v.51l0,0,0,0v.08h-.46v-.08l0,0,0,0,0,0V12a.31.31,0,0,0,0-.1l0,0-.06,0v-.08h.46v.08l0,0,0,0s0,.06,0,.1v.48l.48-.53a.11.11,0,0,1,0-.05l0,0,0,0h0v-.08h.57v.08l-.12,0-.05,0L17,12l-.34.35.56.91.07.06,0,0v.08Zm2.19-.82a.53.53,0,1,0-1,0c0,.42.22.61.52.61a.59.59,0,0,0,.51-.64m.28,0a.8.8,0,1,1-1.6,0,.83.83,0,0,1,.79-.86.78.78,0,0,1,.81.84m1.42-.45H21.1a.19.19,0,0,0,0-.07s0,0,0,0l0,0,0,0h-.65v.45h.5s0,0,0,0l0-.07H21v.41h-.08l0-.06,0,0,0,0h-.5v.6s0,0,0,0l0,0,.05,0v.08H20v-.08l.05,0,0,0s0,0,0,0,0,0,0-.06V12s0-.07,0-.1a.05.05,0,0,1,0,0H20v-.08h1.24v.35Zm2.37,1.28h-.52v-.08l.06,0s0,0,0,0a0,0,0,0,0,0,0l-.43-.69-.2.22v.51l0,0,0,0v.08h-.46v-.08l0,0,0,0,0,0V12a.31.31,0,0,0,0-.1l0,0-.06,0v-.08h.46v.08l0,0,0,0s0,.06,0,.1v.48L23,12a.11.11,0,0,1,0-.05l0,0,0,0h0v-.08h.57v.08l-.12,0-.06,0-.05.06-.34.35.56.91.07.06,0,0v.08Zm1.47,0h-.63a.63.63,0,0,1-.61-.34.94.94,0,0,1,0-.62,1.6,1.6,0,0,1,.1-.23c0-.09.09-.19.14-.28v0l0,0h0v-.09h.46v.09a1,1,0,0,0-.35.81.59.59,0,0,0,.11.36.46.46,0,0,0,.34.16h.19V12a.31.31,0,0,0,0-.1v0l0,0h0v-.08h.46v.08h0l0,0,0,0S25,12,25,12v1.15s0,.05,0,.08l0,0s0,0,0,0l0,0v.08Zm2-1.55-.06,0v0h0A.45.45,0,0,1,27,12l-.36,1.38h-.26l-.22-.86-.21.86h-.27L25.25,12l0-.08,0,0,0,0v-.08h.46v.08l-.06,0,0,0V12l.26,1,.2-.84-.06-.22,0,0-.05,0v-.08h.46v.08h-.06l0,0s0,.05,0,.07l.24,1,.25-.94a.28.28,0,0,0,0-.13l-.06,0v-.08h.38v.08Zm.7.75-.2-.53-.19.53Zm.64.8h-.5v-.09l.05,0h0s0,0,0,0a.14.14,0,0,1,0-.06l-.14-.36h-.52l-.13.36s0,0,0,.06a.06.06,0,0,0,0,0l.07,0v.09h-.42v-.09l.06,0v0l.06-.1.5-1.4h.31l.53,1.45,0,0,0,0,0,0v.09Zm.64,0h-.48v-.08h0s0,0,0,0,0,0,0,0a.34.34,0,0,0,0-.1V11.93s0,0,0,0h-.06v-.08H29v.08H29l0,0,0,0v1.28a.07.07,0,0,1,0,0s0,0,0,0,.05,0,.07,0v.08Zm1.41-1.29h-.09a.25.25,0,0,1,0-.07l0,0,0,0H30v1.18s0,.07,0,.1l0,0,.07,0v.08h-.5v-.08l.05,0,0,0,0,0V12H29.4l-.08,0a.1.1,0,0,0,0,.05.14.14,0,0,0,0,.06h-.1v-.34h1.29v.34ZM30.22,6.7l-.09.23a.24.24,0,0,0,0,.19,1,1,0,0,1,.12.21.79.79,0,0,1-.44.2.4.4,0,0,1-.45-.29.51.51,0,0,1,0-.27s.06-.19-.2,0-.41.65-1.07.68-.69-.72-.72-.94-.15-2.33-.18-2.82a7.69,7.69,0,0,0-.3-1.62s-.05-.13-.1,0a1.29,1.29,0,0,0-.05.75c.06.38.19,1.45.24,2.25s.06,1.41,0,1.68a.26.26,0,0,1-.1.17,5,5,0,0,1-1.82,1c-1.18.34-2-.14-1.6-1.28a.19.19,0,0,0,0-.1s-.06,0-.12.16a1.55,1.55,0,0,0,.07,1.45c.41.52,1.38.39,2.1,0a4.16,4.16,0,0,0,1.31-.85A1.27,1.27,0,0,0,27,7.3a.81.81,0,0,1,.12-.22s0,0,.05.1,0,.88.61,1,.86-.32,1.16-.61.24,0,.24,0A.42.42,0,0,0,29.6,8a.61.61,0,0,0,.67-.39,1.33,1.33,0,0,0,0-.92s0-.09-.05,0"/><path class="cls-1" d="M28.52,5.58,29,6l-.37.42L28.14,6Zm.68,2.69.46.41-.37.42-.47-.41ZM27.75,4.44c.58-.31,2.52-1.09,2.57-1.1a.1.1,0,0,0,.07-.07l.06-.12c-1.82.71-2.56,1.07-2.56,1.07s-.09,0-.1.07a.29.29,0,0,0,0,.15M29.53,5h0a0,0,0,0,0,0,0h0s0,0,0,0h0l-.05,0-.06,0-.06,0,0,0h0s0,0,0-.11.05-.21.19-.15a.27.27,0,0,1,.08.07l.08.1.08.14.06.14a1,1,0,0,1,.07.15s.05,0,.05-.08a2,2,0,0,1,.08-.51c.06-.22.26-.24.37-.1s0,0,0,0a.62.62,0,0,1,0,.1,0,0,0,0,1,0,0A.3.3,0,0,0,30,4.56c-.07,0-.14.05-.17.36,0,.07,0,.14,0,.21a.29.29,0,0,1-.09.2s0,0,0,0A3,3,0,0,0,29.53,5M27.7,2.48l.14-.29A.28.28,0,0,1,28.05,2a2.93,2.93,0,0,1,.57,0c.08,0,.2,0,.16.16a1,1,0,0,1-.38.51,1.47,1.47,0,0,1-.56.3s0,0,0-.06a2.44,2.44,0,0,1,.28-.17c.19-.13.3-.21.31-.29s-.18,0-.21,0a.76.76,0,0,0-.37.06s-.2.11-.16,0M19.49,3.65l.14-.27a.28.28,0,0,1,.21-.14,2.91,2.91,0,0,1,.53,0c.07,0,.18,0,.14.15a1.07,1.07,0,0,1-.38.46,1.29,1.29,0,0,1-.54.26s0,0,0-.06.09,0,.27-.15.29-.18.3-.25S20,3.61,20,3.6a.72.72,0,0,0-.35,0s-.18.1-.14,0M14.6,5.12l.13-.27a.29.29,0,0,1,.21-.13,3.08,3.08,0,0,1,.53,0c.07,0,.18,0,.14.15a1,1,0,0,1-.37.46,1.29,1.29,0,0,1-.54.26s0,0,0-.06A2.73,2.73,0,0,1,15,5.38c.18-.1.29-.18.31-.25s-.18,0-.2-.06a.82.82,0,0,0-.35,0s-.19.1-.14,0m10.61-.07a1.29,1.29,0,0,0-.17.21c-.08.13.06.18.14.19h.49c.14,0,.24,0,.23.21a.88.88,0,0,1-.24.52.72.72,0,0,1-.37.28,4.79,4.79,0,0,1-.51,0s-.12,0,0-.06A2,2,0,0,0,25.56,6s.06,0,0-.08a1.47,1.47,0,0,0-.44,0c-.14,0-.37,0-.34-.33a1.51,1.51,0,0,1,.67-1.08.17.17,0,0,1,.13,0c.08,0,.05.1,0,.17s-.16.31-.16.31h0s-.11,0-.23.08m0-1.8A1,1,0,0,0,25.28,3c0-.12,0-.13-.13-.19a2,2,0,0,1-.42-.31c-.07-.08,0-.15.07-.16a.32.32,0,0,1,.26,0c.08.06.08.23-.07.44a6.53,6.53,0,0,1-.78.92A14.46,14.46,0,0,1,23,4.87s0,0,.09,0,.51-.39.77-.62A6,6,0,0,0,25,3c.34-.52.32-.81.27-.94S25,2,24.9,2a.85.85,0,0,0-.35.36.31.31,0,0,0,.06.43l.58.44s0,0,0,0M26.41,9V9s0-.15.09-.24a.25.25,0,0,1,.24-.15c.08,0,.2,0,.15.25a1.16,1.16,0,0,1-.22.45,3.85,3.85,0,0,1-.52.61.21.21,0,0,1,.06-.15c.08-.09.36-.42.45-.55s.06-.23,0-.27-.14,0-.19.07V9s0,0,0,0h0V9M22.89,3.25l-.13-.33-.23-.56c0-.08-.06,0-.06,0l-.15.39a.08.08,0,0,0,0,.07l.05.14c0,.26.06,1.4.11,1.85s.17,1.53.22,2a5,5,0,0,1,0,1.22c0,.13,0,.2,0,.18s.05-.06.05-.06a3.82,3.82,0,0,0,.13-1.91c-.08-.88-.28-2.69-.28-2.9s.1-.11.1-.11l.08.1s.07.1.1.08,0-.11,0-.19"/><path class="cls-1" d="M19,2.76a15.38,15.38,0,0,0-2.44,1.16.06.06,0,0,0,0,.08c.2.22.83.67,1.5,1.22l.34.3a5.79,5.79,0,0,1,.69.71c.39.5.81,1.28,1.54,1.28a.92.92,0,0,0,.55-.13,1.42,1.42,0,0,0,.13-.12s.07-.08.07-.13v0c0-.16,0-.33,0-.33-.05-.51-.16-1.59-.21-2S21,3.15,21,2.89L21,2.75a.14.14,0,0,1,0-.07l.15-.39s0-.07.06,0l.23.55.13.34c0,.07.05.17,0,.19s-.1-.08-.1-.08l-.08-.1s-.1-.1-.1.11.21,2,.29,2.9a5.65,5.65,0,0,1,0,.82,1.08,1.08,0,0,1-.61.93,1.3,1.3,0,0,1-1.41-.56c-.4-.5-.5-.82-.89-1.05a1.32,1.32,0,0,1,.11,1c-.17.55-.59.68-1.1.75s-.71-.26-.67-.58.26-.7.61-.72.6.44.68.65a1.29,1.29,0,0,1-.05.88c-.14.28-.31.53-1.14,1.12s-1.19.49-1.42.44a.75.75,0,0,1-.53-.78,1.72,1.72,0,0,1,.19-.9c.06-.09.06,0,0,.16s-.18.72.24,1,.84.11,1.38-.2a8.49,8.49,0,0,0,1.13-.84c.06,0,.08-.17,0-.4s-.25-.54-.52-.61-.31.15-.31.15,0,.13.26.16a1.54,1.54,0,0,0,1.13-.29.13.13,0,0,0,.05-.11c0-.08,0-.28-.4-.77A14.53,14.53,0,0,0,17,5.08c-.2-.17-.67-.69-.67-.69s-.1-.1-.05-.39a.84.84,0,0,1,.4-.59A15.87,15.87,0,0,1,18.6,2.5s1.14-.48,1.75-.66a4.17,4.17,0,0,1,1.47-.27.22.22,0,0,1,.11.3,3.62,3.62,0,0,1-.2.45c0,.05-.22.38-.22.38l-.16.24s0,.06,0,0,0-.11,0-.11c.4-.59.49-.86.15-.86A6.52,6.52,0,0,0,19,2.76"/><path class="cls-1" d="M20,5.53s0,0,0,0h0l0,0s0,0,0,0h0l0,0-.07,0-.06,0,0,0h0s-.05,0,0-.11.05-.21.2-.15l.08.07a1,1,0,0,1,.08.11s.05.08.07.13.09.19.13.29.05,0,.05-.08a2.63,2.63,0,0,1,.08-.51c.06-.21.26-.24.37-.1a.1.1,0,0,1,0,0l0,.1s0,0,0,0-.07-.06-.14-.06-.14,0-.17.36c0,.07,0,.14,0,.2s0,.16-.08.2,0,0,0,0A2.31,2.31,0,0,0,20,5.53m-1.18-1.4A.38.38,0,0,0,18.86,4c0-.07,0-.08-.06-.12a1.39,1.39,0,0,1-.25-.23c0-.05,0-.09.06-.1a.27.27,0,0,1,.16,0c.05.05,0,.15-.08.27a3.89,3.89,0,0,1-.56.52c-.27.21-1.07.74-1.34.9,0,0,0,0,.05,0s.84-.48,1-.6a4.29,4.29,0,0,0,.8-.68c.26-.3.26-.48.24-.57s-.15-.09-.2-.07a.65.65,0,0,0-.25.2.2.2,0,0,0,0,.28l.34.32s0,0,0,0M19.31,9s0,0,0,0h0s0,0,0,0,0,0,0,0l-.05,0-.06-.05-.05,0,0,0s0,0,0-.11.07-.21.21-.13a.46.46,0,0,1,.07.07.75.75,0,0,1,.07.12l.06.14a.88.88,0,0,1,.05.15.88.88,0,0,1,.05.15.08.08,0,0,0,.06-.07,2.43,2.43,0,0,1,.13-.51.2.2,0,0,1,.38-.06s0,0,0,0l-.05.1s0,0,0,0a.22.22,0,0,0-.13-.08c-.07,0-.14,0-.2.35a1.42,1.42,0,0,0,0,.2c0,.07,0,.16-.1.19a0,0,0,0,1-.05,0A2,2,0,0,0,19.31,9m-4-1.14c-.21-.1-.18-.39-.16-.49s-.08-.05-.08-.05l-.26.12a12.51,12.51,0,0,1-1.34.52c-.72.22-1.77.42-2.27,0A.8.8,0,0,1,11,7s.06-.08,0-.09-.07,0-.07,0a1,1,0,0,0-.24.77,1.12,1.12,0,0,0,1.23,1A4.73,4.73,0,0,0,14,8.14a8.6,8.6,0,0,1,.93-.38c.13,0,.11,0,.11,0a.48.48,0,0,0,.29.54A.71.71,0,0,0,16.05,8a1.34,1.34,0,0,0,.08-.87c0-.07-.14-.3-.18-.17l-.12.35a.08.08,0,0,0,0,.09A.53.53,0,0,1,16,7.7c0,.08-.42.27-.68.11m-2.13-1.9.47.4-.38.42-.47-.41ZM12.4,6l.47.41-.37.42L12,6.37Zm1.84,2.81.47.41-.38.42-.47-.41Zm-.81.05.47.4-.37.42-.48-.41ZM11.55,3.25v0h0s0,0,0,0,0,0,0,0h0l0,0-.06-.05-.07,0,0,0h0s-.05,0,0-.11.05-.22.19-.15a.16.16,0,0,1,.08.06.81.81,0,0,1,.09.1c0,.05,0,.09.07.14a.61.61,0,0,1,.07.14l.06.14h0a.09.09,0,0,0,.05-.08,1.89,1.89,0,0,1,.07-.52.2.2,0,0,1,.36-.11s0,0,0,0a.51.51,0,0,1,0,.1s0,0,0,0-.07-.06-.14-.06-.14.05-.17.37c0,.07,0,.14,0,.21s0,.16-.08.2,0,0,0,0a2,2,0,0,0-.2-.35m-.2,1.43c0,.07,0,.17,0,.12a.66.66,0,0,1,.12-.09c.27-.17,1.38-.55,2.36-.93,1.18-.46,2.34-.87,2.39-.88a.2.2,0,0,0,.13-.1l.1-.22c-1.07.37-2,.72-2.69,1l-2,.76a.61.61,0,0,0-.21.11.64.64,0,0,0-.18.25M10.26,3.54l-.14-.33-.24-.55c0-.08-.06,0-.06,0L9.68,3a.14.14,0,0,0,0,.07l.06.13A17.42,17.42,0,0,0,9.9,5.1c.07.45.19,1.52.25,2a4.91,4.91,0,0,1,0,1.23c0,.12,0,.19,0,.18a.27.27,0,0,0,.06-.07,3.87,3.87,0,0,0,.1-1.91c-.1-.88-.33-2.69-.34-2.89s.1-.12.1-.12l.08.1s.08.1.1.08,0-.12,0-.19M8.47,7.2l-.39.19a.74.74,0,0,1-.67,0,.58.58,0,0,1-.13-.24c0-.09-.06,0-.06,0l-.14.4a.13.13,0,0,0,0,.09,1.57,1.57,0,0,1,.25.66c0,.15,0,.18,0,.18a4.19,4.19,0,0,1-1.52.89c-.67.2-.89-.12-.89-.12-.29-.27-.1-.88,0-1s0-.19,0-.19a1.78,1.78,0,0,0-.12,1.56c.26.44.81.37,1.33.1a4.75,4.75,0,0,0,1.18-.88A1.44,1.44,0,0,0,7.53,8a6.74,6.74,0,0,0,1-.39.84.84,0,0,1,.87.14.06.06,0,0,1,0,.07s-.09.11-.32,0a1,1,0,0,1-.35-.55C8.65,6.34,8.56,5,8.56,5c0-.75-.07-1.47-.06-1.6s.1-.11.1-.11l.08.1s.06.11.09.09,0-.11,0-.19L8.65,3l-.2-.57c0-.08,0,0,0,0l-.18.38a.17.17,0,0,0,0,.07L8.29,3c0,.26,0,1.4,0,1.85s.13,1.91.22,2.4a2.63,2.63,0,0,0,.25.83c.12.21.36.33.53.2a1.14,1.14,0,0,0,.35-.85c-.05-.29-.35-.49-.86-.36a3.31,3.31,0,0,0-.33.14"/><path class="cls-1" d="M6.62,5.09l.13-.27A.29.29,0,0,1,7,4.69a3.08,3.08,0,0,1,.53,0c.07,0,.18,0,.14.15a1,1,0,0,1-.37.46,1.29,1.29,0,0,1-.54.26s0,0,0-.06A1.83,1.83,0,0,1,7,5.36c.18-.11.29-.19.31-.26s-.18,0-.2,0a.69.69,0,0,0-.35,0s-.19.1-.14,0M5.31,4.42c.59-.28,2.44-.91,2.49-.93s.06,0,.08-.06l.06-.12c-1.85.62-2.48.9-2.48.9l-.11.06a.34.34,0,0,0,0,.15M4.93,6.36l.47.41L5,7.19l-.47-.41ZM1.37,9l.47.41-.38.42L1,9.4ZM.56,9,1,9.44l-.38.42L.18,9.45Zm.93-6,.14-.27a.25.25,0,0,1,.2-.14,2.31,2.31,0,0,1,.54,0c.07,0,.17,0,.14.15a1.07,1.07,0,0,1-.38.46,1.25,1.25,0,0,1-.54.25s0,0,0,0,.09,0,.27-.15.28-.18.3-.25S2,3,2,3a.69.69,0,0,0-.35,0s-.19.1-.14,0M9.74,9.81a16.09,16.09,0,0,1,1.73-.61.09.09,0,0,0,.07-.06L11.61,9a15.18,15.18,0,0,0-1.73.58l-.1.06a.21.21,0,0,0,0,.15"/><path class="cls-1" d="M3.58,4.25c.2.2.75.84,1,1.06s.34.31.59.54l.88.79c.13.11.36.35.33.51s-.49.33-1,.48A2.76,2.76,0,0,0,4.62,8a3.49,3.49,0,0,0-.87.8c-.24.29-.61.7-.94.57s-.15-.74-.05-.95.2-.46.14-.45-.18.27-.18.27a1.79,1.79,0,0,0-.19,1.08.48.48,0,0,0,.52.41.89.89,0,0,0,.53-.31c.22-.23.44-.55.67-.76a2.15,2.15,0,0,1,.46-.3,3.18,3.18,0,0,1,.58-.23,2.6,2.6,0,0,0,.9-.4,1,1,0,0,0,.34-.92C6.44,6.38,6,6,5.4,5.54s-1.09-1-1.17-1-.15-.16-.08-.17.18,0,.21,0,0-.09,0-.09a4.17,4.17,0,0,1-.62-.42c-.17-.17.18-.31.18-.31s.85-.39,1.57-.65a20.45,20.45,0,0,1,2.2-.69,3.88,3.88,0,0,1,1.4-.13.15.15,0,0,1,0,.2A3,3,0,0,1,8.6,3c0,.07,0,.09,0,.09l.25-.31a5.39,5.39,0,0,0,.44-.72c.11-.18.13-.35,0-.41s-.22-.13-.8-.07a9.65,9.65,0,0,0-1.44.32l-.62.2A19.74,19.74,0,0,0,4.11,3a1,1,0,0,0-.45.31,1.22,1.22,0,0,0-.17.5s0,.1,0,.2v.07a.11.11,0,0,0,0,.1l.05.06"/><path class="cls-1" d="M2.67,6.18l.06.06c.23.21.58.19,1,.2s.37.34.37.45a1.3,1.3,0,0,1,0,.25.82.82,0,0,1-.21.31,7,7,0,0,1-1.12.8,3,3,0,0,1-1.66.46A1.17,1.17,0,0,1,0,7.54,2.23,2.23,0,0,1,.29,6.2C.4,6,.46,6,.46,6.06a.39.39,0,0,1,0,.09A1.67,1.67,0,0,0,.32,7.7c.19.43.75.52,1.13.52a2.89,2.89,0,0,0,1.22-.38,8.68,8.68,0,0,0,1.26-.75,0,0,0,0,0,0-.06C3.69,6.89,3.26,7,3,6.9s-.55-.23-.49-.59a1.84,1.84,0,0,1,.47-1,1.41,1.41,0,0,1,.74-.5c.14,0,.22.1.22.29a.91.91,0,0,1-.12.37c0-.14-.21-.26-.5-.07A2.13,2.13,0,0,0,2.75,6l-.07.11s0,.07,0,.11"/><path class="cls-1" d="M1.25,6.73v0h0s0,0,0,0h0l0,0L1,6.68,1,6.63l0,0h0s-.05,0,0-.11,0-.21.2-.15a.24.24,0,0,1,.08.06.44.44,0,0,1,.08.11l.08.13.07.14.06.14h0a.11.11,0,0,0,.06-.08,2.19,2.19,0,0,1,.06-.52c.06-.21.26-.24.37-.1a0,0,0,0,1,0,0l0,.1a0,0,0,0,1,0,0,.18.18,0,0,0-.13-.06c-.08,0-.14,0-.17.36,0,.07,0,.14,0,.21a.29.29,0,0,1-.07.2,0,0,0,0,1-.05,0,2.37,2.37,0,0,0-.19-.35m.91-2.37v0s0,0,0,0a.16.16,0,0,0,.05.1.4.4,0,0,1,.1.35c0,.17-.11.2-.16.2A.19.19,0,0,1,2,5C2,4.92,2,4.91,1.92,5s-.09.15-.23.15-.18-.11-.2-.24,0-.18,0-.25-.05-.06,0-.09,0-.14.06-.11a.19.19,0,0,1,.06.17c0,.08,0,.35.18.34s.21-.1.2-.16a1.36,1.36,0,0,0-.07-.22.26.26,0,0,1,0-.13l0-.1s0-.06,0,0A1,1,0,0,0,2,4.68c0,.06.09.16.16.19s.11,0,.13,0,0-.08-.09-.17-.08-.13-.07-.19,0-.17,0-.14,0,0,0,0M8.24,8.53s0-.09.11-.07a.17.17,0,0,1,.11.08s0,0,0,0a.25.25,0,0,0-.21.07A.33.33,0,0,0,8.14,9a1.6,1.6,0,0,1,.15.73.14.14,0,0,0,.05-.12,1.86,1.86,0,0,0-.08-.49c-.07-.2-.12-.25-.07-.35s.2-.09.3-.09.1-.05.1-.11a.21.21,0,0,0-.15-.2.14.14,0,0,0-.2.07s0,.11,0,.1M.64,5.45s0-.08,0-.08,0,0,0,.09A1.57,1.57,0,0,1,.62,6c-.06.18-.16.23-.29.19S.08,5.84.1,5.47A2.37,2.37,0,0,1,.34,4.6,1.93,1.93,0,0,0,.55,4a.28.28,0,0,1,0-.15c0-.07.07-.19.11-.14s0,0,0,.23-.22.58-.31.82a1,1,0,0,0,0,.77c.11.21.28.16.31.06a.41.41,0,0,0,0-.17m8.77-.77a.22.22,0,0,1,0,.08c0,.06-.11.23-.16.36s-.1.36,0,.42.16-.11.16-.14,0,0,0,0a.27.27,0,0,1-.13.26c-.12.06-.23,0-.23-.26a1.17,1.17,0,0,1,.2-.55c0-.09.07-.12.06-.17s0,0,0,0,0,0,0,0"/></g></g></svg>