<svg xmlns="http://www.w3.org/2000/svg" xmlns:xlink="http://www.w3.org/1999/xlink" width="300" height="199.49" viewBox="0 0 300 199.49"><defs><style>.cls-1{fill:none;}.cls-2{isolation:isolate;}.cls-3{clip-path:url(#clip-path);}.cls-4{fill:#1d89ca;}.cls-5{clip-path:url(#clip-path-2);}.cls-6{fill:#232021;}.cls-7{clip-path:url(#clip-path-3);}.cls-8{clip-path:url(#clip-path-4);}.cls-9{clip-path:url(#clip-path-5);}.cls-10{clip-path:url(#clip-path-6);}.cls-11{clip-path:url(#clip-path-7);}.cls-12{fill:#ef4023;}.cls-13{clip-path:url(#clip-path-8);}</style><clipPath id="clip-path" transform="translate(0 -0.26)"><rect class="cls-1" x="46.28" y="0.16" width="99.28" height="124.58"/></clipPath><clipPath id="clip-path-2" transform="translate(0 -0.26)"><rect class="cls-1" x="156.49" width="99.44" height="124.42"/></clipPath><clipPath id="clip-path-3" transform="translate(0 -0.26)"><rect class="cls-1" x="204.67" y="153.76" width="38.01" height="44.48"/></clipPath><clipPath id="clip-path-4" transform="translate(0 -0.26)"><rect class="cls-1" x="159.19" y="152" width="37.85" height="45.4"/></clipPath><clipPath id="clip-path-5" transform="translate(0 -0.26)"><rect class="cls-1" x="29.29" y="137.48" width="44.81" height="60.84"/></clipPath><clipPath id="clip-path-6" transform="translate(0 -0.26)"><rect class="cls-1" x="68.9" y="154.43" width="40.62" height="43.97"/></clipPath><clipPath id="clip-path-7" transform="translate(0 -0.26)"><rect class="cls-1" y="169.37" width="53.54" height="13.51"/></clipPath><clipPath id="clip-path-8" transform="translate(0 -0.26)"><rect class="cls-1" x="18.21" y="176.5" width="15.61" height="21.99"/></clipPath></defs><g id="Layer_2" data-name="Layer 2"><g id="Layer_1-2" data-name="Layer 1"><g class="cls-2"><g class="cls-3"><path class="cls-4" d="M144.25,101.07c.16,6.7.49,13.06,1,19.76-3.6,1-7.35,1.8-10.94,2.45a119.62,119.62,0,0,1-22.86,1.63c-11.92-.16-23.52-2.28-34.29-8-16.5-9-26.62-22.7-29.56-41.47C45.79,63.52,46.28,51.6,50,40.17,56.24,22.53,68.65,11.1,86,4.74,93.79,1.8,102,.65,110.45.33,120.73.16,131,.49,141.14,3.59c1.31.17,2.94,1,4.58,1.31-.17,6.37-.66,12.9-1,19.27a4.17,4.17,0,0,1-1.8-.49A66.92,66.92,0,0,0,114,19.27c-11.43.65-21.72,4.41-29.72,12.57a37.16,37.16,0,0,0-9.8,18.29A50.78,50.78,0,0,0,75,76.74c4.41,15.19,14.37,23.84,29.56,27.43,12.9,2.94,25.14,1.8,37.72-2.28.16-.49.81-.65,2-.82" transform="translate(0 -0.26)"/></g></g><g class="cls-2"><g class="cls-5"><path class="cls-4" d="M255.93,4.9c-.16,6.37-1,12.9-1.14,18.94-2.78-1-5.06-1.63-7.51-2.29C235.19,18.12,223,17.47,211,21.39c-15.19,5.06-24,15.51-26.78,31.19-1.63,9.63-1.31,19.26,2.45,28.41,5.06,12.41,14.86,19.92,27.76,22.86,12.57,2.94,25.14,1.79,37.39-2.29a6.11,6.11,0,0,0,2.12-.65c1.15,6.37.66,13.06,1.15,19.76-4.41,1-8.66,2.12-13.07,2.77A91.41,91.41,0,0,1,221,124.59c-11.27-.49-22.21-2.29-32.33-7.35-17.64-8.66-27.92-22.7-31.19-42.13-1.79-11.59-1.3-23.19,2.29-34.13C165.64,23.84,177.88,11.92,195,5.23A71.76,71.76,0,0,1,218.38.49c10.94-.65,22,0,32.49,2.94,1.63.49,3.27,1,5.06,1.47" transform="translate(0 -0.26)"/></g></g><path class="cls-6" d="M289.85,177.25H258.63c.08,6.63,3.78,13.68,12.59,14.69A25.16,25.16,0,0,0,285,189.59a3.47,3.47,0,0,0,1.26-.59v7.05a24.93,24.93,0,0,1-5.37,1.68,34.26,34.26,0,0,1-11.67.59c-8.56-.93-14.35-5.63-17-13.85a28.5,28.5,0,0,1,.67-20.73c3.44-7.55,9.4-11.49,17.79-11.74a19.08,19.08,0,0,1,9.15,1.76c4.61,2.26,7.3,6,8.81,10.82a21,21,0,0,1,1.17,7.22,39.69,39.69,0,0,1,.09,5.45M259,171.63h23.16a19.08,19.08,0,0,0-2.1-8.39c-3.61-6.8-12.59-6.63-16.7-2.43A18.08,18.08,0,0,0,259,171.63" transform="translate(0 -0.26)"/><g class="cls-2"><g class="cls-7"><path class="cls-6" d="M204.84,153.76H213v24.58a19.85,19.85,0,0,0,.84,6.63c1.17,4.2,4,6.38,8.47,6.47,5.79.08,9.57-2.69,11.33-8.48a25.74,25.74,0,0,0,1.09-8V153.84h8.14v44h-7.38v-8.14c-.09,0-.09,0-.09-.08-.08.08-.25.5-.5.59-3.78,6.37-9.4,8.56-16.61,8a12.32,12.32,0,0,1-7.39-2.6,13,13,0,0,1-5-8.39,28.27,28.27,0,0,1-.84-6.55c-.09-8.81,0-17.79-.09-26.68-.25.16-.25.08-.08-.17" transform="translate(0 -0.26)"/></g></g><g class="cls-2"><g class="cls-8"><path class="cls-6" d="M197,197.39H188.9V172.72a22.28,22.28,0,0,0-.93-7.38c-1.26-4-4-6-8.14-6.21-5.62-.25-9.73,2.68-11.49,8.39a22.84,22.84,0,0,0-1.1,7.55v22.32H159.1V153.17h7.39v8.14c.25-.5.5-.67.59-.92,4-6.46,9.73-8.81,17.2-8.14a12.51,12.51,0,0,1,10.91,8,21.41,21.41,0,0,1,1.51,6c.08,1.68.25,3.44.25,5.2v26Z" transform="translate(0 -0.26)"/></g></g><g class="cls-2"><g class="cls-9"><path class="cls-6" d="M29.29,169.37c4-10.58,8.14-21.15,12.08-31.89h10c7.55,20.22,15.19,40.45,22.74,60.84H65.29c-6.38-17.79-12.59-35.5-19-53.29-.08,0-.08,0-.25.08-2.94,8.14-6,16.2-9.06,24.26Z" transform="translate(0 -0.26)"/></g></g><g class="cls-2"><g class="cls-10"><path class="cls-6" d="M93.73,198.48H84.17q-7.56-21.9-15.27-44h8.81c3.86,12.09,7.8,24.25,11.49,36.51h.09c4-12.26,8-24.26,12-36.51h8.14c-5.21,14.69-10.41,29.21-15.7,44" transform="translate(0 -0.26)"/></g></g><g class="cls-2"><g class="cls-11"><path class="cls-12" d="M29.29,169.37H49.17c1.52,4.44,2.94,8.81,4.37,13.51-1.51-.34-2.94-.68-4.2-.93-5-1.17-9.9-2.43-14.93-3.61-.26-.08-.51,0-.68-.08s-.08-.08-.25-.08c-2.26-.51-4.61-1.18-7-1.68-7-1.68-13.85-3.44-20.81-5-1.77-.5-3.53-.84-5.21-1.17-.08-.09-.33-.09-.5-.25.34-.51.84-.34,1.17-.34H24c1.76-.17,3.52-.17,5.29-.33" transform="translate(0 -0.26)"/></g></g><g class="cls-2"><g class="cls-13"><path class="cls-6" d="M26.69,176.5c2.26.5,4.61,1.17,7,1.68.08,0,.08.08.25.08-1.51,4-2.93,8.14-4.45,12.08-.92,2.69-1.84,5.29-2.93,8.14H18.29c.84-2.26,1.68-4.36,2.61-6.62,1.84-5.12,3.94-10.24,5.79-15.36" transform="translate(0 -0.26)"/></g></g><path class="cls-6" d="M295.72,161a4.28,4.28,0,1,1,4.28-4.28,4.35,4.35,0,0,1-4.28,4.28m-.08-7.88a3.57,3.57,0,0,0-3.61,3.6,3.57,3.57,0,0,0,7.13,0,3.46,3.46,0,0,0-3.52-3.6" transform="translate(0 -0.26)"/><path class="cls-6" d="M297.65,159h-.92c-.25-.42-.51-.76-.76-1.17a1.22,1.22,0,0,0-1.51-.68V159h-.75v-4.61c.84.08,1.67.08,2.43.08a1.25,1.25,0,0,1,1.09,1.09,1.19,1.19,0,0,1-.75,1.26c-.17.09-.26.09-.42.17a5.81,5.81,0,0,1,1.59,1.93m-3-2.52c.5-.08,1.09-.08,1.51-.17a.58.58,0,0,0,.42-.67.8.8,0,0,0-.5-.67,9.62,9.62,0,0,0-1.51-.08v1.59Z" transform="translate(0 -0.26)"/><path class="cls-6" d="M151.05,178.43H119.83c.09,6.63,3.78,13.68,12.59,14.68a25.07,25.07,0,0,0,13.76-2.35,3.38,3.38,0,0,0,1.26-.58v7a24.72,24.72,0,0,1-5.37,1.67,34,34,0,0,1-11.66.59c-8.56-.92-14.35-5.62-17-13.84a28.5,28.5,0,0,1,.67-20.73c3.44-7.55,9.4-11.5,17.79-11.75a19.32,19.32,0,0,1,9.15,1.76c4.61,2.27,7.3,6,8.81,10.83A21,21,0,0,1,151,173a39.81,39.81,0,0,1,.08,5.46m-31-5.62h23.16a19.11,19.11,0,0,0-2.09-8.4c-3.61-6.79-12.59-6.54-16.7-2.43-2.77,3.19-3.86,6.8-4.37,10.83" transform="translate(0 -0.26)"/></g></g></svg>