<svg xmlns="http://www.w3.org/2000/svg" viewBox="0 0 176.68 176.68"><defs><style>.cls-1{fill:#186bff;}.cls-2{fill:#fffeff;}</style></defs><g id="Layer_2" data-name="Layer 2"><g id="Layer_1-2" data-name="Layer 1"><rect class="cls-1" width="176.68" height="176.68" rx="18.04"/><path class="cls-2" d="M80.28,116.33,93.77,92.66l13.49,23.67ZM77,63.17,91.55,88.8,77,114.44,62,88.8ZM93.77,85,80.28,61.27h27ZM96,88.81l16.23-28.5a1.91,1.91,0,0,0-1.65-2.87H77a1.89,1.89,0,0,0-1.64,1L58.14,87.84a1.91,1.91,0,0,0,0,1.93l17.22,29.45a1.89,1.89,0,0,0,1.64,1h33.54a1.91,1.91,0,0,0,1.9-1.91,1.89,1.89,0,0,0-.25-1L96,88.8Z"/></g></g></svg>