<svg xmlns="http://www.w3.org/2000/svg" width="300" height="158.07" viewBox="0 0 300 158.07"><defs><style>.cls-1{fill:#2663f9;}.cls-2{fill:#db9e07;}.cls-3{fill:#fdbf0b;}.cls-4{fill:#547bf9;}.cls-5{fill:#fff;}</style></defs><g id="Layer_2" data-name="Layer 2"><g id="Layer_1-2" data-name="Layer 1"><g id="Layer_2-2" data-name="Layer 2"><g id="Layer_1-2-2" data-name="Layer 1-2"><polygon class="cls-1" points="0 91.14 35.4 91.14 25.63 120.98 0 91.14"/><path class="cls-2" d="M291.08,28H268.59a1.68,1.68,0,0,0-1.67,1.68v1.88a1.67,1.67,0,0,0,1.67,1.67h21.13l1.52-5.21Z"/><path class="cls-2" d="M257.06,28H246.48a1.78,1.78,0,0,0-1.85,1.68v1.88a1.77,1.77,0,0,0,1.85,1.67h10.58a1.77,1.77,0,0,0,1.86-1.67V29.71A1.77,1.77,0,0,0,257.06,28Z"/><path class="cls-2" d="M258.26,14h-7.89A1.55,1.55,0,0,0,249,15.69v1.88a1.55,1.55,0,0,0,1.38,1.67h7.89a1.54,1.54,0,0,0,1.38-1.67V15.69A1.54,1.54,0,0,0,258.26,14Z"/><path class="cls-2" d="M260.64,0h-5.46c-.53,0-1,.76-1,1.67V3.55c0,.93.43,1.68,1,1.68h5.46c.52,0,.95-.75.95-1.68V1.67C261.59.76,261.16,0,260.64,0Z"/><path class="cls-2" d="M249.09,42.05h-7.55a1.53,1.53,0,0,0-1.32,1.67V45.6a1.53,1.53,0,0,0,1.32,1.68h7.55a1.54,1.54,0,0,0,1.33-1.68V43.72A1.53,1.53,0,0,0,249.09,42.05Z"/><path class="cls-2" d="M292,0a1.67,1.67,0,0,0-1.67,1.67h0V3.55A1.68,1.68,0,0,0,292,5.23h6.49L300,0Z"/><rect class="cls-2" x="269.48" width="13.28" height="5.23" rx="1.67"/><path class="cls-2" d="M268.23,14a1.68,1.68,0,0,0-1.68,1.67h0v1.88a1.67,1.67,0,0,0,1.68,1.67h25.45L295.2,14Z"/><path class="cls-2" d="M259.71,42.05A1.67,1.67,0,0,0,258,43.72h0V45.6a1.68,1.68,0,0,0,1.67,1.68h25.46l1.53-5.23Z"/><path class="cls-2" d="M250.34,142.57a44.29,44.29,0,0,1-33.61,15.5H134a237.37,237.37,0,0,0,19.83-15.5Z"/><path class="cls-3" d="M282.41,55.72l-2.49,8.54-20.17,61.3a43.9,43.9,0,0,1-8.35,14.89H154.86a190.91,190.91,0,0,0,15.2-14.77,151.54,151.54,0,0,0,10.05-12.14l.25-.34c1.53-2.09,3-4.21,4.38-6.37,1.16-1.78,2.25-3.59,3.28-5.41q1.78-3.15,3.32-6.37l.28-.6q.94-2,1.71-4.08c.42-1.09.79-2.2,1.14-3.3,3.14-10.15,3.55-20.71,3.38-31.35Z"/><path class="cls-3" d="M279.92,64.26l1.9-5.78c.3-.91.56-1.84.81-2.76h-.22Z"/><path class="cls-3" d="M153.81,142.57A239.17,239.17,0,0,1,134,158.07H11.84c.23-.92.5-1.85.81-2.77l4.19-12.73Z"/><path class="cls-2" d="M194.46,87.07c-.34,1.1-.72,2.21-1.13,3.3q-.77,2.05-1.71,4.08l-.29.6q-1.53,3.23-3.31,6.37c-1,1.82-2.13,3.63-3.28,5.41-1.38,2.16-2.85,4.28-4.39,6.37l-.25.34a149.32,149.32,0,0,1-10,12.14,192.61,192.61,0,0,1-15.19,14.78H17.9l6.77-20.6,9.45-28.72,1.65-5a44.19,44.19,0,0,1,42-30.4H197.85C198,66.36,197.61,76.93,194.46,87.07Z"/><path class="cls-1" d="M244.26.36H167.49c.19,12-.43,23.9-5.64,35.07C151.51,57.59,130.78,77,110.6,91.14h75a40,40,0,0,0,38-27.53l20-60.74C243.81,2,244,1.2,244.26.36Z"/><path class="cls-4" d="M110.6,91.14c20.18-14.15,40.92-33.56,51.25-55.7,5.21-11.18,5.83-23.08,5.64-35.07H58.72a40,40,0,0,0-38,27.53L.73,88.64c-.27.82-.51,1.66-.73,2.5Z"/><path class="cls-5" d="M78.55,17.11a7.86,7.86,0,0,1,7,4.19l-4.28,3.33c-.95-1.43-1.9-2.06-3.09-2.06-3.72,0-7,4.36-7,9.9,0,3.72,1.43,5.86,4.91,5.86a6.46,6.46,0,0,0,4-1.82l2.62,4a11.94,11.94,0,0,1-7.92,3.24c-6,0-10.06-3.95-10.06-10.92C64.69,23.68,70.94,17.11,78.55,17.11Z"/><path class="cls-5" d="M99.3,37.46H92.21l-2.65,5.86h-7L96.05,17.58h7.6l2.46,25.74H99.46Zm-.16-4.75-.08-3C99,27.24,98.9,25,98.9,22.33h-.16c-1,2.54-1.9,4.91-3,7.37l-1.35,3Z"/><path class="cls-5" d="M111.65,35.28A7,7,0,0,0,117,38.41c1.82,0,3-.83,3-2.25,0-1.15-1.15-1.67-2.93-2.78L114.9,32a7.17,7.17,0,0,1-3.8-6.57c0-4.64,4.23-8.32,9.46-8.32a10.61,10.61,0,0,1,8,4l-4,3.72c-1.31-1.3-2.61-2.26-4.28-2.26s-2.73,1-2.73,2.22,1.11,1.55,3.17,2.85l2.37,1.47a6.24,6.24,0,0,1,3.49,6.14c0,4.71-3.89,8.55-10.06,8.55a11.48,11.48,0,0,1-9.42-4.95Z"/><path class="cls-5" d="M134.54,17.58h6.34l-2,9.66h7.68l1.9-9.66h6.33l-5.15,25.74h-6.33l2.14-10.53h-7.68l-2.06,10.53h-6.34Z"/><path class="cls-5" d="M136.75,73.13c0-12.78,8.66-21,17.74-21,7.92,0,13.31,5.28,13.31,14.57,0,12.78-8.66,21-17.74,21C142.14,87.7,136.75,82.42,136.75,73.13Zm8.66-.53c0,5,1.9,7.81,5.07,7.81,3.91,0,8.66-5.28,8.66-13.19,0-5-1.9-7.82-5.07-7.82C150.16,59.4,145.41,64.68,145.41,72.6Z"/><path class="cls-5" d="M177.41,52.75h8.13L190.29,69,192,76.72h.22a115.37,115.37,0,0,1,1.37-13l2.22-11h8L197,87.06h-8.14L184.06,70.8l-1.58-7.71h-.22A111.65,111.65,0,0,1,180.79,76l-2.22,11.08h-8Z"/><path d="M54.44,95.05h7.22c8.65,0,13.88,3.8,13.88,12.16,0,12.55-7.41,18.73-17.11,18.73H48.26Zm3.8,24.8c5.13,0,9.51-3.23,9.51-12.16,0-4.85-2.66-6.56-6.28-6.56h-.66L57.1,119.85Z"/><path d="M84.19,95.05H103l-1.23,6.37H90.46l-1,5.41H99l-1.24,6.37h-9.6l-1.33,6.37H98.54l-1.24,6.36H78Z"/><path d="M109.66,95.05h7.6l-4.94,24.52h11.21l-1.23,6.36H103.48Z"/><path d="M134.08,95.05h7.6l-6.17,30.89H127.9Z"/><path d="M145.11,95.05h8l.57,14.45c.1,3.23.19,6.5.19,9.78H154c1.38-3.28,2.71-6.51,4.09-9.78l6.27-14.45h8.36l-15.87,30.89h-9.21Z"/><path d="M176.18,95.05H195l-1.24,6.37H182.45l-1,5.41H191l-1.23,6.37h-9.61l-1.33,6.37h11.69l-1.23,6.36H170Z"/><path d="M211.82,95.05c6.17,0,10.93,2.19,10.93,8.17a11,11,0,0,1-7.46,10.88l4.61,11.84h-8l-3.56-10.65h-3.18l-2.09,10.65h-7.61l6.18-30.89Zm-5.42,14.26h2.76c4.09,0,6.08-2,6.08-4.94,0-2.28-1.62-3.33-4.46-3.33H208Z"/><path d="M231,115.1l-4.89-20H234l1,6.84c.38,2.38.66,4.37,1,6.84h.19c1.24-2.47,2.28-4.56,3.61-6.93l3.71-6.75h8.17l-13.12,20-2.18,10.84h-7.56Z"/></g></g></g></g></svg>