<svg xmlns="http://www.w3.org/2000/svg" width="300" height="266.88" viewBox="0 0 300 266.88"><defs><style>.cls-1{fill:#202a44;}.cls-2{fill:#fefefe;}.cls-3{fill:#212b45;}.cls-4{fill:#3975fc;}.cls-5{fill:#fec303;}.cls-6{fill:#232c46;}.cls-7{fill:#3a75fc;}.cls-8{fill:#222c46;}</style></defs><g id="Layer_2" data-name="Layer 2"><g id="Layer_1-2" data-name="Layer 1"><path class="cls-1" d="M26.45,214.28a1.69,1.69,0,0,1,.25.85,1.37,1.37,0,0,1-.85,1.2l-4.5,3.15a1.87,1.87,0,0,1-.9.25,1.79,1.79,0,0,1-1.4-1,5.38,5.38,0,0,0-4.55-2.6,5.35,5.35,0,0,0,0,10.7,5.44,5.44,0,0,0,4.55-2.6c.25-.35.75-1,1.4-1a1.87,1.87,0,0,1,.9.25l4.5,3.15a1.43,1.43,0,0,1,.85,1.2,1.69,1.69,0,0,1-.25.85c-2,4.15-7.25,6.6-12.5,6.6A13.47,13.47,0,0,1,0,221.58a13.86,13.86,0,0,1,14.2-14c5.1.05,10.25,2.45,12.25,6.65m21.7,25.1c-1.1,3.7-2.75,5.6-4.75,6.85a13.3,13.3,0,0,1-6.75,1.85,12.3,12.3,0,0,1-6.1-1.55,10.36,10.36,0,0,1-1.85-1.35,1.61,1.61,0,0,1-.5-1.1,2.1,2.1,0,0,1,.4-1.1l2.85-4.2a1.52,1.52,0,0,1,1.05-.6,2.13,2.13,0,0,1,1.35.5,5.36,5.36,0,0,0,3,1.1,3.08,3.08,0,0,0,3-2.05l1-3.2h-4.8a1.65,1.65,0,0,1-1.6-1.25l-6.7-22.7a4.25,4.25,0,0,1-.2-1.1,1,1,0,0,1,1.1-.95h7.8c.7,0,1.1.6,1.25,1.25l4.3,17.9h.7l4.55-17.9c.15-.6.55-1.25,1.25-1.25h7.3c.75,0,1.1.4,1.1.95a3.9,3.9,0,0,1-.2,1.1Zm25-12.5a5.38,5.38,0,1,0-5.25-5.5v.1a5.31,5.31,0,0,0,5.25,5.4h0m-5.3-16.65c1.35-1.6,4-2.6,7-2.6,6.8,0,12.8,5.15,12.8,13.75s-6,13.9-12.85,13.9c-2.35,0-5.5-.6-6.85-2.4v.4a1.17,1.17,0,0,1-1.15,1.2H60.1a1.17,1.17,0,0,1-1.2-1.15v-34.5a1.17,1.17,0,0,1,1.15-1.2H66.7a1.22,1.22,0,0,1,1.2,1.2Zm30.8,8.2h8.65a4.13,4.13,0,0,0-4.3-3.25,4.18,4.18,0,0,0-4.35,3.25M108,225c.25-.35.75-1,1.4-1a1.87,1.87,0,0,1,.9.25l4.45,2.8a1.36,1.36,0,0,1,.85,1.15,1.69,1.69,0,0,1-.25.85c-1.85,4-6.85,6.25-12.15,6.25-8.6,0-14-6.05-14-13.65,0-7.8,5.75-14,13.8-14a12.84,12.84,0,0,1,13,13v1.1c0,.75-.25,1.5-1.4,1.5H98.45a4.56,4.56,0,0,0,4.85,4.25A5.61,5.61,0,0,0,108,225m19.75,8.4a1.21,1.21,0,0,1-1.25,1.1h-6.65a1.17,1.17,0,0,1-1.2-1.15v-23.7a1.17,1.17,0,0,1,1.15-1.2h6.3a1.21,1.21,0,0,1,1.25,1.1V211a8.13,8.13,0,0,1,6.5-3.05h1.5c.55,0,1.4.2,1.4,1.6v6.5a1.55,1.55,0,0,1-1.35,1.65h-2.85c-3.45,0-4.85.9-4.85,3.9Zm23.15-25.75c5.35,0,8.65,1.85,10,2.95.75.6.9.85.9,1.2a2.64,2.64,0,0,1-.4,1.1l-2.2,3.7a.94.94,0,0,1-.95.5,3.49,3.49,0,0,1-1.75-.6,15.42,15.42,0,0,0-6.15-1.65c-1.6,0-3.05.45-3.05,1.7,0,.55.3,1,1.3,1.35,3.6,1.15,13.75.25,13.75,8.55,0,4.9-3.6,8.9-12.1,8.9-5.1,0-9.05-1.4-11.45-3.25-.75-.6-.95-.9-.95-1.55s.15-.85.7-1.5l2.4-3.25a.92.92,0,0,1,.9-.4c.85,0,1.25.6,2.5,1.3a11.81,11.81,0,0,0,5.8,1.65c1.7,0,3.1-.4,3.1-1.45,0-3.25-14.55.1-14.55-10,.05-5.8,4.8-9.3,12.15-9.3m32.8,13.85a5.25,5.25,0,1,0-5.25,5.3,5.25,5.25,0,0,0,5.25-5.3m9.2.05c0,7.65-6.4,13.75-14.45,13.75s-14.4-6.1-14.4-13.75a14.43,14.43,0,0,1,28.85,0m11.3.6c0,3.25,1.35,5.35,4.65,5.35,2.85,0,5-1.65,5-4.85v-13.1a1.21,1.21,0,0,1,1.25-1.1h6.65a1.17,1.17,0,0,1,1.2,1.15v23.7a1.17,1.17,0,0,1-1.15,1.2h-6.7a1.21,1.21,0,0,1-1.25-1.1v-.9a9.54,9.54,0,0,1-7.3,2.85c-7.25,0-11.35-4.7-11.35-11.75v-14a1.21,1.21,0,0,1,1.25-1.1H203a1.21,1.21,0,0,1,1.25,1.1Zm31.2,11.25a1.21,1.21,0,0,1-1.25,1.1H227.5a1.18,1.18,0,0,1-1.25-1.1V209.68a1.17,1.17,0,0,1,1.15-1.2h6.3a1.21,1.21,0,0,1,1.25,1.1V211A8.22,8.22,0,0,1,241.5,208H243c.6,0,1.4.2,1.4,1.6v6.5a1.55,1.55,0,0,1-1.4,1.65H240.1c-3.45,0-4.85.9-4.85,3.9Zm36.5-19.15a1.69,1.69,0,0,1,.25.85,1.43,1.43,0,0,1-.85,1.2l-4.55,3.15a1.87,1.87,0,0,1-.9.25,1.79,1.79,0,0,1-1.4-1,5.27,5.27,0,1,0-4.55,8.1,5.44,5.44,0,0,0,4.55-2.6c.25-.35.75-1,1.4-1a1.87,1.87,0,0,1,.9.25l4.55,3.15a1.5,1.5,0,0,1,.85,1.2,1.69,1.69,0,0,1-.25.85c-2,4.15-7.25,6.6-12.5,6.6a13.47,13.47,0,0,1-13.95-13.7,13.86,13.86,0,0,1,14.2-14c5.15.05,10.25,2.45,12.25,6.65m10.6,4.15h8.65a4.13,4.13,0,0,0-4.3-3.25,4.22,4.22,0,0,0-4.35,3.25m9.4,6.6c.25-.35.75-1,1.4-1a1.87,1.87,0,0,1,.9.25l4.45,2.8a1.36,1.36,0,0,1,.85,1.15,1.69,1.69,0,0,1-.25.85c-1.85,4-6.85,6.25-12.15,6.25-8.6,0-14-6.05-14-13.65,0-7.8,5.75-14,13.8-14a12.84,12.84,0,0,1,13.05,13v1.1c0,.75-.25,1.5-1.4,1.5H282.35a4.56,4.56,0,0,0,4.85,4.25,5.68,5.68,0,0,0,4.7-2.5M154,266.28c-.05.2-.1.25-.3.25h-2.4c-.2,0-.25,0-.3-.25l-6.45-17.95c-.05-.2,0-.25.2-.25h2.05c.2,0,.25.1.3.25l5.35,15.6,5.35-15.6c0-.2.15-.25.3-.25h2.05c.2,0,.25.1.2.25Zm9.05-12.7c0-.2.1-.25.25-.25h1.55c.2,0,.25,0,.25.25v12.75c0,.2-.1.25-.25.25H163.3c-.2,0-.25-.05-.25-.25Zm-.35-5.25c0-.2.1-.25.25-.25h2.25c.2,0,.25.1.25.25v2.3c0,.2-.1.25-.25.25H163c-.2,0-.25-.1-.25-.25Zm10.65,18.5c-3.1,0-5.55-1.8-5.55-4.3,0-.15,0-.25.2-.25h1.75c.2,0,.25.1.25.25.2,1.55,1.45,2.35,3.45,2.35,1.75,0,3.05-.55,3.05-1.95s-1.15-1.85-3.85-2.25c-3.15-.5-4.5-1.55-4.5-3.85s2.2-3.75,5-3.75,4.75,1.5,5.1,3.8c0,.15-.05.25-.2.25H176.5c-.2,0-.2-.05-.25-.25A3,3,0,0,0,173.1,255c-1.7,0-2.9.6-2.9,1.75,0,1.3,1.05,1.75,3.75,2.2s4.75,1.2,4.75,3.7-2.25,4.15-5.35,4.15m13.35-6.65c-1.85,0-3.3.7-3.3,2.3s1,2.4,2.8,2.4a3.91,3.91,0,0,0,4.1-3.7v-.4a10.08,10.08,0,0,0-3.6-.6m-4.8-2.95c-.1,0-.15-.05-.2-.15h0v-.25a5.13,5.13,0,0,1,5.35-3.75c3.1,0,5.25,1.85,5.25,4.6V264a3.54,3.54,0,0,0,.45,2.25.18.18,0,0,1,.05.15.22.22,0,0,1-.2.15h-2.1c-.2,0-.25-.05-.25-.25V265a5.16,5.16,0,0,1-4.35,1.9c-2.3,0-4.75-1.35-4.75-4.2s2.4-4.4,5.35-4.4a12,12,0,0,1,3.75.6v-.8c0-2-1.15-3-3.2-3a3,3,0,0,0-3.1,2,.38.38,0,0,1-.35.25h-1.7Zm26.85-9.4c4,0,6.25,2.45,6.35,5.15,0,.2-.1.25-.25.25h-1.7c-.2,0-.25-.1-.25-.25-.1-1.8-1.85-3-4.1-3s-4,1-4,2.7c0,2,2.1,2.7,4.9,3.45,3.4.9,6.05,2.15,6.05,5.05,0,3.8-2.8,5.6-6.8,5.6-3.85,0-6.8-2.35-6.8-5.85,0-.2.1-.25.25-.25h1.7c.2,0,.25.1.25.25.1,2.15,1.85,3.75,4.6,3.75s4.6-1.05,4.6-3.4c0-1.85-2.25-2.55-4.85-3.2-3.6-.9-6.1-2.2-6.1-5.35s2.85-4.9,6.15-4.85m16.05,17c2.7,0,4.55-2,4.55-4.95s-1.85-5-4.55-5-4.55,2-4.55,5,1.8,4.95,4.55,4.95m0-11.85a6.85,6.85,0,1,1-6.75,6.85A6.54,6.54,0,0,1,224.8,253m10-4.95h1.55a.24.24,0,0,1,.25.25v17.95a.24.24,0,0,1-.25.25H234.8a.24.24,0,0,1-.25-.25V248.33A.24.24,0,0,1,234.8,248.08Zm16.35,18.2c0,.2-.1.25-.25.25h-1.5c-.2,0-.25,0-.25-.25v-1.5a5.65,5.65,0,0,1-4.35,2.05c-2.75,0-4.6-1.7-4.6-4.8v-8.45c0-.2.05-.25.25-.25H242c.2,0,.25,0,.25.25v8.1c0,2.15,1.1,3.15,3,3.15,2.2,0,3.9-1.6,3.9-4.8v-6.5c0-.2.1-.25.25-.25H251c.2,0,.25.05.25.25Zm12-12.95c.2,0,.25,0,.25.25V255c0,.2,0,.25-.25.25H258.8v7.35c0,1.45.7,2.25,2.1,2.25a6.11,6.11,0,0,0,2.5-.4c.05-.05.1-.05.2-.05s.2.1.2.25v1.25c0,.25,0,.35-.2.45a8.87,8.87,0,0,1-2.8.45,3.68,3.68,0,0,1-4-4v-7.55h-2.35c-.2,0-.25-.1-.25-.25v-1.45c0-.2.05-.25.25-.25h2.35v-3.8c0-.2.1-.25.25-.25h1.55c.2,0,.25.1.25.25v3.8Zm3.65.25c0-.2.05-.25.25-.25h1.55c.2,0,.25,0,.25.25v12.75c0,.2-.05.25-.25.25h-1.55c-.2,0-.25-.05-.25-.25Zm-.4-5.25c0-.2.1-.25.25-.25h2.25c.2,0,.25.1.25.25v2.3c0,.2,0,.25-.25.25h-2.25c-.2,0-.25-.1-.25-.25Zm12.05,16.55c2.7,0,4.55-2,4.55-4.95s-1.85-5-4.55-5-4.55,2-4.55,5,1.85,4.95,4.55,4.95m0-11.85a6.85,6.85,0,1,1-6.75,6.85,6.54,6.54,0,0,1,6.75-6.85m9.4.55c0-.2.1-.25.25-.25h1.55c.2,0,.25,0,.25.25v1.5a5.65,5.65,0,0,1,4.35-2.05c2.75,0,4.6,1.7,4.6,4.8v8.45c0,.2-.05.25-.25.25h-1.55c-.2,0-.25,0-.25-.25v-8.1c0-2.15-1.1-3.15-3-3.15-2.2,0-3.9,1.6-3.9,4.8v6.5c0,.2,0,.25-.25.25h-1.5c-.2,0-.25-.05-.25-.25Zm-160.25,5.5h6l-3-8.35Zm6.8,2.1h-7.55l-1.8,5.1c0,.2-.1.25-.3.25H123c-.2,0-.3,0-.3-.25v-.15l6.55-17.8c.05-.2.05-.25.25-.25h2.25c.2,0,.2.1.25.25l6.55,17.8v.15c0,.2-.1.25-.3.25h-1.75c-.2,0-.25,0-.3-.25Z"/><path class="cls-2" d="M156.88,173.31h2.6c6.17,0,10.66-4.08,10.7-9.8s-4.32-9.77-10.39-9.9c-17.94-.38-33.4-6.72-46.32-19.22-4.45-4.31-10.54-4.36-14.5-.21s-3.65,10.09.71,14.33A85.43,85.43,0,0,0,156.88,173.31ZM105.16,42.16A11.87,11.87,0,0,0,113.45,39c4.73-3.79,9.39-7.76,14.56-10.85,9.69-5.79,20.41-8.3,31.71-8.4,6-.06,10.49-4.35,10.48-9.89,0-5.73-4.5-9.93-10.64-9.89a85.29,85.29,0,0,0-34.91,7.64A83.85,83.85,0,0,0,99.14,25.37a9.31,9.31,0,0,0-2.09,10.81A9.16,9.16,0,0,0,105.16,42.16ZM79.59,57.25a9.89,9.89,0,1,0,9.76-9.89A10,10,0,0,0,79.59,57.25ZM199.45,157.73a9.87,9.87,0,1,0-9.83,9.83A10,10,0,0,0,199.45,157.73ZM89.35,126a9.88,9.88,0,1,0-9.76-10.09A10,10,0,0,0,89.35,126Zm110.1-110.3a9.89,9.89,0,1,0-9.75,9.89A10,10,0,0,0,199.45,15.65ZM224.32,141a9.85,9.85,0,1,0-9.95,9.85A9.82,9.82,0,0,0,224.32,141ZM73.83,86.58a9.84,9.84,0,1,0,9.81-9.78A9.75,9.75,0,0,0,73.83,86.58ZM224.31,32.41a9.84,9.84,0,1,0-9.8,9.76A9.78,9.78,0,0,0,224.31,32.41Z"/><path class="cls-3" d="M156.88,173.31a85.43,85.43,0,0,1-57.2-24.8c-4.36-4.24-4.61-10.25-.71-14.33s10-4.1,14.5.21c12.92,12.5,28.38,18.84,46.32,19.22,6.07.13,10.43,4.28,10.39,9.9s-4.53,9.84-10.7,9.8Z"/><path class="cls-4" d="M105.16,42.16a9.16,9.16,0,0,1-8.11-6,9.31,9.31,0,0,1,2.09-10.81A83.85,83.85,0,0,1,124.65,7.64,85.29,85.29,0,0,1,159.56,0c6.14,0,10.64,4.16,10.64,9.89,0,5.54-4.44,9.83-10.48,9.89-11.3.1-22,2.61-31.71,8.4-5.17,3.09-9.83,7.06-14.56,10.85A11.87,11.87,0,0,1,105.16,42.16Z"/><path class="cls-5" d="M79.59,57.25a9.89,9.89,0,1,1,19.78,0,9.89,9.89,0,1,1-19.78,0Z"/><path class="cls-6" d="M199.45,157.73a9.87,9.87,0,1,1-9.91-10A9.95,9.95,0,0,1,199.45,157.73Z"/><path class="cls-5" d="M89.35,126a9.88,9.88,0,1,1,10-9.88A9.87,9.87,0,0,1,89.35,126Z"/><path class="cls-7" d="M199.45,15.65a9.89,9.89,0,0,1-19.77,0,9.89,9.89,0,1,1,19.77,0Z"/><path class="cls-8" d="M224.32,141a9.85,9.85,0,1,1-9.73-9.87A9.78,9.78,0,0,1,224.32,141Z"/><path class="cls-5" d="M73.83,86.58a9.84,9.84,0,1,1,9.65,9.92A9.78,9.78,0,0,1,73.83,86.58Z"/><path class="cls-7" d="M224.31,32.41a9.84,9.84,0,1,1-9.86-9.94A9.73,9.73,0,0,1,224.31,32.41Z"/></g></g></svg>