<svg xmlns="http://www.w3.org/2000/svg" viewBox="0 0 289.08 300.19"><defs><style>.cls-1{fill:#121212;}</style></defs><g id="Layer_2" data-name="Layer 2"><g id="Layer_1-2" data-name="Layer 1"><path class="cls-1" d="M13.2,122.61A13.21,13.21,0,0,1,1.69,102.93L43,29.13A56.56,56.56,0,0,1,92.1,0h85.84a13.23,13.23,0,0,1,0,26.45H92.1a30.1,30.1,0,0,0-26,15.61L24.76,115.85a13.2,13.2,0,0,1-11.53,6.76Z"/><path class="cls-1" d="M194.3,300.19H112.4a13.23,13.23,0,0,1,0-26.45h81.9a30,30,0,0,0,25.76-15.14l44.39-76.27a13.21,13.21,0,0,1,22.84,13.29l-44.36,76.27A56.57,56.57,0,0,1,194.3,300.19Z"/><path class="cls-1" d="M10.33,193.53,79,70.87a34,34,0,0,1,29.56-17.61H247.71c26.36,0,42.76,29.47,29.49,52.93L207.87,228.85a34,34,0,0,1-29.5,17.49H39.91c-26.3,0-42.72-29.35-29.56-52.83Z"/></g></g></svg>