<?xml version="1.0" encoding="UTF-8"?>
<svg id="Layer_2" xmlns="http://www.w3.org/2000/svg" xmlns:xlink="http://www.w3.org/1999/xlink" viewBox="0 0 400 266.67">
  <defs>
    <style>
      .cls-1 {
        fill: url(#linear-gradient);
      }
    </style>
    <linearGradient id="linear-gradient" x1="72.39" y1="260.95" x2="327.61" y2="5.72" gradientUnits="userSpaceOnUse">
      <stop offset="0" stop-color="#d58a9a"/>
      <stop offset="1" stop-color="#b56576"/>
    </linearGradient>
  </defs>
  <g id="Layer_1-2" data-name="Layer_1">
    <path class="cls-1" d="M266.67,0c-18.71,0-36.51,3.85-52.65,10.81,8.2,5.41,15.92,11.71,23.03,18.81,27.71,27.69,42.96,64.53,42.96,103.71h-13.33c0-49.35-26.81-92.44-66.67-115.48-4.51-2.63-9.19-4.97-14.01-7.04C169.84,3.85,152.04,0,133.33,0,59.69,0,0,59.69,0,133.33s59.69,133.33,133.33,133.33c18.71,0,36.51-3.85,52.65-10.81-8.2-5.41-15.92-11.71-23.03-18.81-27.71-27.69-42.96-64.53-42.96-103.71h13.33c0,49.35,26.81,92.44,66.67,115.48,4.51,2.63,9.19,4.97,14.01,7.04,16.15,6.96,33.95,10.81,52.65,10.81,73.64,0,133.33-59.69,133.33-133.33S340.31,0,266.67,0Z"/>
  </g>
</svg>