<?xml version="1.0" encoding="UTF-8"?>
<svg version="1.1" xmlns="http://www.w3.org/2000/svg" width="396" height="392">
<path d="M0 0 C130.68 0 261.36 0 396 0 C396 129.36 396 258.72 396 392 C265.32 392 134.64 392 0 392 C0 262.64 0 133.28 0 0 Z " fill="#E1251B" transform="translate(0,0)"/>
<path d="M0 0 C0.97775391 -0.020625 1.95550781 -0.04125 2.96289062 -0.0625 C20.66755038 -0.15611353 37.50817716 7.71185594 50.38671875 19.6328125 C64.44159454 34.47514313 69.27781645 51.39540343 69.02734375 71.2890625 C68.85569557 76.98863493 67.87332042 81.93175377 65.8125 87.25 C65.4721875 88.219375 65.131875 89.18875 64.78125 90.1875 C58.52082338 106.76917049 46.63091822 118.83209454 30.93359375 126.69140625 C12.81760262 134.77244091 -7.52045935 136.2015814 -26.1875 129.25 C-44.61075159 121.6693724 -57.3671467 109.59672858 -65.33618164 91.37353516 C-68.37467259 83.79429963 -69.66909749 77.03621878 -69.5 68.875 C-69.48582031 67.95307861 -69.47164062 67.03115723 -69.45703125 66.08129883 C-69.01870213 46.63558093 -62.30941058 30.7699891 -48.125 17.1875 C-34.16625975 5.29408356 -18.13098003 0.09376072 0 0 Z " fill="#FEFCFC" transform="translate(267.1875,58.75)"/>
<path d="M0 0 C1.7315332 0.0009668 1.7315332 0.0009668 3.49804688 0.00195312 C4.70396484 0.01806641 5.90988281 0.03417969 7.15234375 0.05078125 C8.96702148 0.04594727 8.96702148 0.04594727 10.81835938 0.04101562 C19.8229445 0.096382 19.8229445 0.096382 22.08984375 2.36328125 C22.36831665 4.61587524 22.36831665 4.61587524 22.40869141 7.45556641 C22.4285611 8.5165152 22.44843079 9.57746399 22.46890259 10.67056274 C22.4804538 11.81955048 22.492005 12.96853821 22.50390625 14.15234375 C22.5232724 15.32590424 22.54263855 16.49946472 22.56259155 17.70858765 C22.62252039 21.46841086 22.66882621 25.22826448 22.71484375 28.98828125 C22.75301125 31.53256567 22.79206224 34.076837 22.83203125 36.62109375 C22.9282328 42.86837366 23.01324113 49.11573197 23.08984375 55.36328125 C26.28576622 53.84059368 28.44828188 52.25122653 30.953125 49.73046875 C31.67564453 49.00601563 32.39816406 48.2815625 33.14257812 47.53515625 C33.88830078 46.7771875 34.63402344 46.01921875 35.40234375 45.23828125 C36.13646484 44.50351563 36.87058594 43.76875 37.62695312 43.01171875 C40.96718303 39.64481443 44.22701022 36.2537294 47.3046875 32.64453125 C52.10538653 27.07872296 57.35778446 21.94620944 62.56152344 16.76123047 C64.35339435 14.97477157 66.13979169 13.1829617 67.92578125 11.390625 C69.06868949 10.24837671 70.21190743 9.1064382 71.35546875 7.96484375 C71.88674377 7.43154449 72.4180188 6.89824524 72.96539307 6.3487854 C77.23752746 2.10370734 79.62056222 0.13536297 85.76603699 0.13668823 C86.51613541 0.1470108 87.26623383 0.15733337 88.0390625 0.16796875 C89.19798759 0.17221359 89.19798759 0.17221359 90.38032532 0.17654419 C92.84615618 0.18773247 95.31162281 0.21283422 97.77734375 0.23828125 C99.44986454 0.24831282 101.12239103 0.25743836 102.79492188 0.265625 C106.89336934 0.28766733 110.99154481 0.32218762 115.08984375 0.36328125 C113.52769676 4.14202226 111.18303895 6.4761341 108.27294922 9.31201172 C107.78497864 9.7906366 107.29700806 10.26926147 106.79425049 10.76239014 C105.73777216 11.7979177 104.67913558 12.83124697 103.61858749 13.86260605 C101.94041113 15.49665182 100.27036467 17.13859729 98.60256958 18.78323364 C93.86133119 23.45735393 89.11211564 28.12311407 84.34228516 32.76806641 C81.42232737 35.61270652 78.51720956 38.47179748 75.62106705 41.34067154 C74.51575301 42.42988541 73.40491178 43.51351998 72.28850937 44.59136581 C70.72760774 46.0992714 69.18626272 47.62486702 67.64794922 49.15576172 C66.32463089 50.45004593 66.32463089 50.45004593 64.97457886 51.77047729 C62.69066092 54.91243153 62.61663247 56.5605556 63.08984375 60.36328125 C64.02610746 62.307924 64.02610746 62.307924 65.51171875 63.88671875 C66.03636719 64.50675781 66.56101562 65.12679687 67.1015625 65.765625 C67.67519531 66.41660156 68.24882812 67.06757813 68.83984375 67.73828125 C70.04567214 69.16047272 71.2487317 70.58501573 72.44921875 72.01171875 C73.36670898 73.09598145 73.36670898 73.09598145 74.30273438 74.20214844 C77.02645666 77.49591752 79.5589105 80.92054891 82.08984375 84.36328125 C86.68253177 90.57033641 91.46560272 96.58917326 96.36181641 102.55883789 C100.63397073 107.77499011 104.775378 113.07488938 108.8515625 118.4453125 C110.30484458 120.33990537 111.78542291 122.21398072 113.296875 124.0625 C113.95042969 124.86300781 114.60398437 125.66351563 115.27734375 126.48828125 C115.84839844 127.17148437 116.41945313 127.8546875 117.0078125 128.55859375 C117.36488281 129.15414062 117.72195312 129.7496875 118.08984375 130.36328125 C117.75984375 131.35328125 117.42984375 132.34328125 117.08984375 133.36328125 C112.51845357 133.51243562 107.94850145 133.62086641 103.37524414 133.69287109 C101.82225858 133.722907 100.26944072 133.76375025 98.71704102 133.81591797 C84.15155585 134.29286162 84.15155585 134.29286162 79.87890625 130.79296875 C78.3972168 129.13330078 78.3972168 129.13330078 77.08984375 127.36328125 C76.62425049 126.80108887 76.15865723 126.23889648 75.67895508 125.65966797 C74.22748888 123.8529619 72.87448592 121.99885502 71.52734375 120.11328125 C70.48856556 118.69414992 69.44813344 117.27622811 68.40625 115.859375 C67.59824951 114.75698486 67.59824951 114.75698486 66.77392578 113.63232422 C63.90228153 109.76322278 60.9330598 105.97099312 57.96484375 102.17578125 C56.79284459 100.67457609 55.62096755 99.17327558 54.44921875 97.671875 C53.88654297 96.95112793 53.32386719 96.23038086 52.74414062 95.48779297 C48.83383359 90.46602617 44.96264879 85.41399013 41.08984375 80.36328125 C35.61509037 80.7576774 33.02910021 81.66120472 29.27734375 85.67578125 C28.52839844 86.45566406 27.77945313 87.23554688 27.0078125 88.0390625 C23.07607904 92.80358676 22.78708591 96.69963023 22.74609375 102.77734375 C22.73147095 103.58819427 22.71684814 104.3990448 22.70178223 105.23446655 C22.63958287 108.69749479 22.5998091 112.1606974 22.55810547 115.62402344 C22.52444809 118.15448959 22.47933237 120.6845719 22.43359375 123.21484375 C22.42831665 124.0013028 22.42303955 124.78776184 22.41760254 125.59805298 C22.31548756 131.13763744 22.31548756 131.13763744 20.08984375 133.36328125 C15.79531168 133.82292815 11.46861557 133.68727904 7.15234375 133.67578125 C5.3434668 133.69995117 5.3434668 133.69995117 3.49804688 133.72460938 C2.34369141 133.72525391 1.18933594 133.72589844 0 133.7265625 C-1.06081787 133.72954346 -2.12163574 133.73252441 -3.21459961 133.7355957 C-5.91015625 133.36328125 -5.91015625 133.36328125 -7.55481911 132.1626358 C-9.37697834 129.74352516 -9.28744083 128.21546898 -9.29110718 125.20129395 C-9.29956665 124.13290787 -9.30802612 123.06452179 -9.31674194 121.96376038 C-9.31066925 120.79171555 -9.30459656 119.61967072 -9.29833984 118.41210938 C-9.3035968 117.17778671 -9.30885376 115.94346405 -9.31427002 114.67173767 C-9.32522314 111.28526514 -9.32263962 107.89934136 -9.31313276 104.5128994 C-9.30554329 100.9708723 -9.31257979 97.42886883 -9.31729126 93.88684082 C-9.32275091 87.9383523 -9.31555179 81.98997547 -9.30126953 76.04150391 C-9.28494252 69.16191103 -9.29023089 62.28258486 -9.30674875 55.40299845 C-9.32035773 49.49888273 -9.32228619 43.59484736 -9.31443274 37.69072104 C-9.30975295 34.16332216 -9.30913966 30.63604869 -9.31904221 27.10865784 C-9.32930806 23.1771506 -9.31508399 19.24594269 -9.29833984 15.31445312 C-9.30441254 14.14240829 -9.31048523 12.97036346 -9.31674194 11.76280212 C-9.30828247 10.69441605 -9.299823 9.62602997 -9.29110718 8.52526855 C-9.2899761 7.59538872 -9.28884502 6.66550888 -9.28767967 5.70745087 C-8.40619265 0.23400215 -4.92113249 -0.01382866 0 0 Z " fill="#FEFDFC" transform="translate(67.91015625,199.63671875)"/>
<path d="M0 0 C1.15757812 -0.00257813 2.31515625 -0.00515625 3.5078125 -0.0078125 C4.72210938 -0.00007812 5.93640625 0.00765625 7.1875 0.015625 C8.40179688 0.00789062 9.61609375 0.00015625 10.8671875 -0.0078125 C12.60355469 -0.00394531 12.60355469 -0.00394531 14.375 0 C15.44105469 0.00225586 16.50710937 0.00451172 17.60546875 0.00683594 C20.1875 0.265625 20.1875 0.265625 22.1875 2.265625 C22.44578552 5.14100647 22.44578552 5.14100647 22.45874023 8.86743164 C22.46396698 9.54577057 22.46919373 10.2241095 22.47457886 10.92300415 C22.48483259 12.39894861 22.49060165 13.87492937 22.49246025 15.35090828 C22.49612137 17.69345564 22.51284466 20.03557859 22.53321838 22.3780365 C22.58862687 29.03929711 22.61918441 35.70062272 22.64379883 42.36206055 C22.65976151 46.43641821 22.69008152 50.51048057 22.72856331 54.58468437 C22.74014868 56.13184893 22.74614309 57.67906656 22.74624443 59.22627449 C22.74716178 69.51375036 23.38671635 78.01602504 28.75 87.078125 C31.15907972 91.19832677 31.15907972 91.19832677 32.08984375 93.40234375 C33.47387261 95.75174505 34.71022095 96.20590007 37.1875 97.265625 C38.4451703 98.06620084 39.69506043 98.87911033 40.9375 99.703125 C49.96966934 105.28424609 57.58623339 106.26636697 68.1875 105.265625 C74.5981232 103.74114753 79.90174644 101.13324956 85.1875 97.265625 C85.93 96.935625 86.6725 96.605625 87.4375 96.265625 C89.76755501 94.93416499 90.04278156 93.70769101 91.1875 91.265625 C91.74566406 90.1725 92.30382812 89.079375 92.87890625 87.953125 C93.50269749 86.72400569 94.12639307 85.49483783 94.75 84.265625 C95.06646484 83.64945312 95.38292969 83.03328125 95.70898438 82.3984375 C98.56706467 76.74295802 99.31164421 72.76750311 99.34521484 66.43334961 C99.35029556 65.75483444 99.35537628 65.07631927 99.36061096 64.37724304 C99.37128585 62.90840367 99.37991725 61.43954832 99.38673019 59.97068596 C99.39854658 57.6465143 99.41800373 55.32252616 99.43984985 52.99842834 C99.50139257 46.39216181 99.55559127 39.78591772 99.58886719 33.17944336 C99.60978411 29.13519812 99.64505514 25.09129383 99.68962479 21.04724312 C99.70380046 19.50629238 99.71251077 17.9652814 99.71567917 16.42426872 C99.72057525 14.27198296 99.74369471 12.12060735 99.77099609 9.96850586 C99.77908295 8.74369003 99.7871698 7.51887421 99.79550171 6.25694275 C100.1875 3.265625 100.1875 3.265625 101.55079651 1.3699646 C103.9882195 -0.27464772 105.96403791 -0.10618397 108.87890625 -0.09765625 C109.98814453 -0.09701172 111.09738281 -0.09636719 112.24023438 -0.09570312 C113.97756836 -0.0715332 113.97756836 -0.0715332 115.75 -0.046875 C116.91208984 -0.05009766 118.07417969 -0.05332031 119.27148438 -0.05664062 C127.92058054 -0.00129446 127.92058054 -0.00129446 130.1875 2.265625 C130.45492554 5.13859558 130.45492554 5.13859558 130.47802734 8.86401367 C130.48474457 9.54246841 130.49146179 10.22092316 130.49838257 10.91993713 C130.51745052 13.17456318 130.5212936 15.42889193 130.5234375 17.68359375 C130.52986825 19.25905986 130.53659682 20.83452478 130.54360962 22.4099884 C130.55561053 25.72476965 130.55928846 29.03944659 130.55810547 32.35424805 C130.55790414 36.56124127 130.58499728 40.76754464 130.61964989 44.97437572 C130.64213677 48.23735994 130.64593615 51.50018522 130.64488602 54.76323891 C130.64721743 56.31108244 130.65589891 57.85893207 130.67155075 59.40669823 C130.85587133 79.54985445 125.40603317 97.18090152 111.8515625 112.578125 C98.26275015 126.28648702 80.02912949 133.51589344 60.875 133.828125 C40.88188673 133.64659194 24.31728764 126.34617993 10.1875 112.265625 C9.55070312 111.65203125 8.91390625 111.0384375 8.2578125 110.40625 C-5.5914568 96.00300993 -8.46690333 76.08714938 -8.2734375 57.0234375 C-8.27104489 55.43684032 -8.27014947 53.85024026 -8.2706604 52.26364136 C-8.26756778 48.97782042 -8.25125908 45.69244687 -8.22412109 42.40673828 C-8.18975033 38.19230577 -8.18250552 33.97835224 -8.18401146 29.76379585 C-8.18346922 26.50563985 -8.17253208 23.24758882 -8.15800858 19.98946762 C-8.15164798 18.43370224 -8.14770341 16.87792504 -8.14622116 15.32214737 C-8.14190239 13.16393659 -8.1244449 11.00624441 -8.10302734 8.84814453 C-8.09540375 7.62177277 -8.08778015 6.395401 -8.07992554 5.13186646 C-7.57233012 -0.30849294 -4.74181343 0.01003407 0 0 Z " fill="#FEFDFD" transform="translate(205.8125,199.734375)"/>
<path d="M0 0 C0.68660202 -0.00832352 1.37320404 -0.01664703 2.08061218 -0.02522278 C4.36288075 -0.0494111 6.64486266 -0.05811339 8.92724609 -0.06469727 C10.52273643 -0.07366988 12.11822593 -0.08279184 13.7137146 -0.09205627 C17.07137082 -0.10858164 20.4289271 -0.11625054 23.78662109 -0.11914062 C28.04521261 -0.12447229 32.30283167 -0.16191615 36.5611515 -0.20788479 C39.86621293 -0.2379832 43.17105185 -0.24487147 46.47623825 -0.24586678 C48.04281353 -0.25001882 49.60939268 -0.26224594 51.17583084 -0.28338432 C71.54560209 -0.53594765 89.43806746 5.97017354 104.32568359 20.30639648 C116.71879527 34.24132835 123.46376467 51.25983896 122.73583984 69.98999023 C121.40209999 88.08118885 113.89588701 105.13937056 100.32568359 117.30639648 C84.54014652 129.53541621 67.68060158 133.79695924 47.94677734 133.70483398 C46.4016964 133.70685981 44.8566164 133.70977546 43.3115387 133.71353149 C40.1002578 133.71791906 36.88922972 133.71163235 33.67797852 133.69750977 C29.56209557 133.68028893 25.4467941 133.69036194 21.33093166 133.70822716 C18.15250737 133.71905147 14.97422193 133.71562719 11.79579353 133.70784378 C10.27713005 133.70584473 8.75845392 133.70829071 7.23980522 133.71528244 C5.126731 133.72288923 3.01461403 133.71131115 0.90161133 133.69458008 C-0.29907486 133.6921933 -1.49976105 133.68980652 -2.73683167 133.68734741 C-5.67431641 133.30639648 -5.67431641 133.30639648 -7.56204224 131.93913269 C-9.18500316 129.55674611 -9.04632512 127.69422452 -9.03759766 124.83374023 C-9.03695312 123.76961914 -9.03630859 122.70549805 -9.03564453 121.60913086 C-9.01953125 120.49860352 -9.00341797 119.38807617 -8.98681641 118.24389648 C-8.99003906 117.12950195 -8.99326172 116.01510742 -8.99658203 114.86694336 C-8.9412578 106.57333788 -8.9412578 106.57333788 -6.67431641 104.30639648 C-3.93974304 104.05484009 -3.93974304 104.05484009 -0.41137695 104.05102539 C1.56757317 104.04058701 1.56757317 104.04058701 3.58650208 104.02993774 C4.29488535 104.03061878 5.00326862 104.03129982 5.73311806 104.0320015 C7.95915901 104.03296775 10.18471824 104.02000725 12.41069031 104.00302124 C18.74112032 103.95682081 25.07150693 103.93220826 31.40209961 103.92553711 C35.2755463 103.92047139 39.14850105 103.89595442 43.02178001 103.86021042 C44.48748991 103.85051339 45.95326845 103.84802433 47.41900063 103.85338211 C61.57907061 103.90264207 74.41728761 101.61557301 85.06787109 91.68139648 C92.94676443 83.21452604 94.82785007 73.35983571 94.59912109 62.13452148 C93.95267053 53.08421366 89.67904866 45.68424465 83.32568359 39.30639648 C72.58550103 30.67966666 59.06881123 28.70956792 45.68366241 28.78997612 C43.5308496 28.80285183 41.37927304 28.79110649 39.22650146 28.77394104 C35.44621099 28.74756096 31.66623681 28.74163463 27.88586426 28.74304199 C21.79516831 28.74529483 15.70485496 28.73123442 9.61431122 28.68745613 C7.49463994 28.67762168 5.37557894 28.68632014 3.25592041 28.69615173 C1.97988953 28.68926834 0.70385864 28.68238495 -0.61083984 28.67529297 C-1.73665466 28.67625473 -2.86246948 28.67721649 -4.0223999 28.6782074 C-4.89753235 28.5555098 -5.77266479 28.43281219 -6.67431641 28.30639648 C-8.88478508 24.99069347 -8.93062313 23.91524879 -8.93994141 20.05249023 C-8.94251953 19.03348633 -8.94509766 18.01448242 -8.94775391 16.96459961 C-8.94001953 15.90176758 -8.93228516 14.83893555 -8.92431641 13.74389648 C-8.93205078 12.67719727 -8.93978516 11.61049805 -8.94775391 10.51147461 C-8.94517578 9.49375977 -8.94259766 8.47604492 -8.93994141 7.42749023 C-8.93768555 6.49348389 -8.93542969 5.55947754 -8.93310547 4.59716797 C-8.33048228 -0.7371843 -4.42179129 0.03781496 0 0 Z " fill="#FEFDFD" transform="translate(67.67431640625,58.693603515625)"/>
<path d="M0 0 C10.29688348 6.77671398 16.89988144 15.6059641 20.21875 27.45703125 C20.40530935 30.12921953 20.50562556 32.66627525 20.46875 35.33203125 C20.45751099 36.3986499 20.45751099 36.3986499 20.44604492 37.48681641 C20.21861807 48.5532291 16.75369737 58.01775374 9.15625 66.20703125 C-0.86827116 75.64678868 -12.68764292 79.00986956 -26.12109375 78.765625 C-37.92615231 77.77032124 -47.90793452 72.87562775 -56.03125 64.26953125 C-61.14041693 57.82120945 -65.48465935 49.76156938 -65.78125 41.45703125 C-65.84183594 40.58820313 -65.90242187 39.719375 -65.96484375 38.82421875 C-66.43780817 27.84571125 -63.95161339 17.88074777 -56.69921875 9.453125 C-41.47682645 -6.38932401 -19.79724559 -10.98302248 0 0 Z " fill="#E1261C" transform="translate(290.78125,89.54296875)"/>
<path d="M0 0 C0.33 0 0.66 0 1 0 C1 8.91 1 17.82 1 27 C-7.25 27 -15.5 27 -24 27 C-21.96870827 25.98435413 -19.93660238 24.96976601 -17.88671875 23.9921875 C-9.53257605 19.74834236 -4.02426729 13.90478703 -1 5 C-0.30859478 2.22111387 -0.30859478 2.22111387 0 0 Z " fill="#000000" transform="translate(395,365)"/>
<path d="M0 0 C7.92 0 15.84 0 24 0 C24 8.91 24 17.82 24 27 C23.67 27 23.34 27 23 27 C22.82984375 26.34773438 22.6596875 25.69546875 22.484375 25.0234375 C19.92326448 15.78709212 15.85902196 9.59743291 8 4 C5.3440936 2.71721528 2.8350073 1.86062722 0 1 C0 0.67 0 0.34 0 0 Z " fill="#000000" transform="translate(372,0)"/>
<path d="M0 0 C2 3 2 3 3.2265625 5.26953125 C8.27642512 14.45238199 14.10777928 18.82035763 24 22 C24 22.33 24 22.66 24 23 C16.08 23 8.16 23 0 23 C0 15.41 0 7.82 0 0 Z " fill="#000000" transform="translate(0,369)"/>
<path d="M0 0 C7.59 0 15.18 0 23 0 C20.66232161 1.55845226 18.84093666 2.50086433 16.3125 3.5625 C9.65531729 6.86652611 4.62417679 12.62629561 2 19.5625 C1.505 21.2640625 1.505 21.2640625 1 23 C0.67 23 0.34 23 0 23 C0 15.41 0 7.82 0 0 Z " fill="#000000" transform="translate(0,0)"/>
</svg>
