<?xml version="1.0" encoding="UTF-8"?>
<!DOCTYPE svg PUBLIC "-//W3C//DTD SVG 1.1//EN" "http://www.w3.org/Graphics/SVG/1.1/DTD/svg11.dtd">
<svg xmlns="http://www.w3.org/2000/svg" version="1.1" width="512px" height="450px" style="shape-rendering:geometricPrecision; text-rendering:geometricPrecision; image-rendering:optimizeQuality; fill-rule:evenodd; clip-rule:evenodd" xmlns:xlink="http://www.w3.org/1999/xlink">
<g><path style="opacity:1" fill="#cb313d" d="M 269.5,4.5 C 266.5,4.5 263.5,4.5 260.5,4.5C 260.5,72.1667 260.5,139.833 260.5,207.5C 261.5,207.5 262.5,207.5 263.5,207.5C 258.703,212.798 253.703,217.965 248.5,223C 242.232,229.113 235.565,234.613 228.5,239.5C 228.792,216.474 228.459,193.474 227.5,170.5C 227.5,165.167 227.5,159.833 227.5,154.5C 228.799,104.608 228.799,54.7746 227.5,5C 228.416,4.72158 229.082,4.22158 229.5,3.5C 243.017,1.95584 256.35,2.28917 269.5,4.5 Z"/></g>
<g><path style="opacity:1" fill="#d1353e" d="M 269.5,4.5 C 273.078,4.54877 276.411,5.21543 279.5,6.5C 277.473,6.33788 275.473,6.50454 273.5,7C 274.448,7.48278 275.448,7.64945 276.5,7.5C 276.168,69.3356 276.501,131.002 277.5,192.5C 273.561,198.108 268.894,203.108 263.5,207.5C 262.5,207.5 261.5,207.5 260.5,207.5C 260.5,139.833 260.5,72.1667 260.5,4.5C 263.5,4.5 266.5,4.5 269.5,4.5 Z"/></g>
<g><path style="opacity:0.824" fill="#e98c8b" d="M 219.5,5.5 C 216.495,7.2766 213.162,8.2766 209.5,8.5C 212.505,6.7234 215.838,5.7234 219.5,5.5 Z"/></g>
<g><path style="opacity:1" fill="#c83042" d="M 229.5,3.5 C 229.082,4.22158 228.416,4.72158 227.5,5C 228.799,54.7746 228.799,104.608 227.5,154.5C 226.089,145.545 223.423,136.878 219.5,128.5C 219.715,126.821 219.048,125.821 217.5,125.5C 217.167,124.833 216.833,124.167 216.5,123.5C 217.828,86.4703 217.828,49.4703 216.5,12.5C 218.336,9.83238 220.669,7.66571 223.5,6C 222.552,5.51722 221.552,5.35055 220.5,5.5C 223.273,4.34281 226.273,3.67615 229.5,3.5 Z"/></g>
<g><path style="opacity:1" fill="#d8373c" d="M 279.5,6.5 C 281.099,6.23219 282.432,6.56552 283.5,7.5C 284.469,8.30943 285.302,9.30943 286,10.5C 287.011,9.66337 288.178,9.33003 289.5,9.5C 293.116,10.3143 296.449,11.6477 299.5,13.5C 298.448,13.3505 297.448,13.5172 296.5,14C 297.49,65.6742 297.823,117.174 297.5,168.5C 291.957,177.382 285.29,185.382 277.5,192.5C 276.501,131.002 276.168,69.3356 276.5,7.5C 275.448,7.64945 274.448,7.48278 273.5,7C 275.473,6.50454 277.473,6.33788 279.5,6.5 Z"/></g>
<g><path style="opacity:1" fill="#ea8480" d="M 283.5,7.5 C 285.786,7.59495 287.786,8.26162 289.5,9.5C 288.178,9.33003 287.011,9.66337 286,10.5C 285.302,9.30943 284.469,8.30943 283.5,7.5 Z"/></g>
<g><path style="opacity:1" fill="#d83b3f" d="M 219.5,5.5 C 219.833,5.5 220.167,5.5 220.5,5.5C 221.552,5.35055 222.552,5.51722 223.5,6C 220.669,7.66571 218.336,9.83238 216.5,12.5C 205.479,22.1894 194.813,32.1894 184.5,42.5C 182.167,44.5 179.833,46.5 177.5,48.5C 167.404,46.5326 157.071,45.366 146.5,45C 145.402,44.2303 145.402,43.397 146.5,42.5C 146.5,41.8333 146.833,41.5 147.5,41.5C 149.027,41.573 150.027,40.9063 150.5,39.5C 152.027,39.573 153.027,38.9063 153.5,37.5C 155.027,37.573 156.027,36.9063 156.5,35.5C 172.578,23.6269 190.244,14.6269 209.5,8.5C 213.162,8.2766 216.495,7.2766 219.5,5.5 Z"/></g>
<g><path style="opacity:1" fill="#bf2a3e" d="M 216.5,12.5 C 217.828,49.4703 217.828,86.4703 216.5,123.5C 209.325,116.314 201.325,110.314 192.5,105.5C 192.196,104.85 191.863,104.183 191.5,103.5C 189.709,102.83 188.042,102.163 186.5,101.5C 187.5,101.5 188.5,101.5 189.5,101.5C 189.833,81.1557 189.5,60.8224 188.5,40.5C 187.378,41.6302 186.044,42.2969 184.5,42.5C 194.813,32.1894 205.479,22.1894 216.5,12.5 Z"/></g>
<g><path style="opacity:1" fill="#de3b3c" d="M 299.5,13.5 C 306.599,16.3761 312.599,20.7094 317.5,26.5C 315.506,63.1516 314.84,100.152 315.5,137.5C 315.5,138.833 315.5,140.167 315.5,141.5C 310.737,151.368 304.737,160.368 297.5,168.5C 297.823,117.174 297.49,65.6742 296.5,14C 297.448,13.5172 298.448,13.3505 299.5,13.5 Z"/></g>
<g><path style="opacity:1" fill="#e64641" d="M 317.5,26.5 C 319.633,28.0905 321.299,30.0905 322.5,32.5C 322.427,34.0269 323.094,35.0269 324.5,35.5C 333.878,50.0543 337.378,66.0543 335,83.5C 333.188,102.43 327.688,120.096 318.5,136.5C 317.609,137.11 316.609,137.443 315.5,137.5C 314.84,100.152 315.506,63.1516 317.5,26.5 Z"/></g>
<g><path style="opacity:0.42" fill="#f4b2b0" d="M 322.5,32.5 C 323.906,32.9731 324.573,33.9731 324.5,35.5C 323.094,35.0269 322.427,34.0269 322.5,32.5 Z"/></g>
<g><path style="opacity:0.753" fill="#e99697" d="M 156.5,35.5 C 156.027,36.9063 155.027,37.573 153.5,37.5C 153.973,36.0937 154.973,35.427 156.5,35.5 Z"/></g>
<g><path style="opacity:0.773" fill="#ea9493" d="M 153.5,37.5 C 153.027,38.9063 152.027,39.573 150.5,39.5C 150.973,38.0937 151.973,37.427 153.5,37.5 Z"/></g>
<g><path style="opacity:0.745" fill="#e9989a" d="M 150.5,39.5 C 150.027,40.9063 149.027,41.573 147.5,41.5C 147.973,40.0937 148.973,39.427 150.5,39.5 Z"/></g>
<g><path style="opacity:1" fill="#d1353d" d="M 146.5,42.5 C 145.402,43.397 145.402,44.2303 146.5,45C 157.071,45.366 167.404,46.5326 177.5,48.5C 173.54,53.7954 169.207,58.7954 164.5,63.5C 159.167,69.1667 153.833,74.8333 148.5,80.5C 147.347,79.6868 147.347,78.6868 148.5,77.5C 135.244,75.4953 121.911,74.6619 108.5,75C 107.529,76.4813 106.196,77.3146 104.5,77.5C 106.5,75.1667 108.5,72.8333 110.5,70.5C 110.833,69.5 111.5,68.8333 112.5,68.5C 114.749,67.9202 116.415,66.5869 117.5,64.5C 120.46,61.3552 123.793,58.6885 127.5,56.5C 129.749,55.9202 131.415,54.5869 132.5,52.5C 134.404,52.2624 135.738,51.2624 136.5,49.5C 139.275,46.3954 142.608,44.0621 146.5,42.5 Z"/></g>
<g><path style="opacity:0.729" fill="#e88f8f" d="M 136.5,49.5 C 135.738,51.2624 134.404,52.2624 132.5,52.5C 133.262,50.7376 134.596,49.7376 136.5,49.5 Z"/></g>
<g><path style="opacity:1" fill="#b82640" d="M 186.5,101.5 C 185.167,101.5 183.833,101.5 182.5,101.5C 178.418,101.108 174.418,100.442 170.5,99.5C 167.695,98.6805 164.695,98.1805 161.5,98C 162.793,97.51 164.127,97.3433 165.5,97.5C 165.828,85.9877 165.495,74.6544 164.5,63.5C 169.207,58.7954 173.54,53.7954 177.5,48.5C 179.833,46.5 182.167,44.5 184.5,42.5C 186.044,42.2969 187.378,41.6302 188.5,40.5C 189.5,60.8224 189.833,81.1557 189.5,101.5C 188.5,101.5 187.5,101.5 186.5,101.5 Z"/></g>
<g><path style="opacity:0.976" fill="#e27677" d="M 132.5,52.5 C 131.415,54.5869 129.749,55.9202 127.5,56.5C 128.585,54.4131 130.251,53.0798 132.5,52.5 Z"/></g>
<g><path style="opacity:0.91" fill="#e48182" d="M 117.5,64.5 C 116.415,66.5869 114.749,67.9202 112.5,68.5C 113.585,66.4131 115.251,65.0798 117.5,64.5 Z"/></g>
<g><path style="opacity:1" fill="#cb313d" d="M 148.5,80.5 C 139.834,90.6687 131.334,101.002 123,111.5C 122.51,112.793 122.343,114.127 122.5,115.5C 117.017,120.313 112.683,125.98 109.5,132.5C 108.883,132.611 108.383,132.944 108,133.5C 104.728,132.949 101.561,132.116 98.5,131C 86.1648,130.368 73.8314,129.702 61.5,129C 59.9769,127.212 58.3102,127.045 56.5,128.5C 56.5,127.833 56.5,127.167 56.5,126.5C 56.8333,125.5 57.5,124.833 58.5,124.5C 59.9063,124.027 60.573,123.027 60.5,121.5C 60.8333,120.5 61.5,119.833 62.5,119.5C 64.2624,118.738 65.2624,117.404 65.5,115.5C 65.8333,114.5 66.5,113.833 67.5,113.5C 68.9063,113.027 69.573,112.027 69.5,110.5C 71.5,107.833 73.8333,105.5 76.5,103.5C 78.5869,102.415 79.9202,100.749 80.5,98.5C 83.5,94.8333 86.8333,91.5 90.5,88.5C 94.7706,85.8991 98.4372,82.5658 101.5,78.5C 102.609,78.4431 103.609,78.1098 104.5,77.5C 106.196,77.3146 107.529,76.4813 108.5,75C 121.911,74.6619 135.244,75.4953 148.5,77.5C 147.347,78.6868 147.347,79.6868 148.5,80.5 Z"/></g>
<g><path style="opacity:1" fill="#b42c43" d="M 164.5,63.5 C 165.495,74.6544 165.828,85.9877 165.5,97.5C 164.127,97.3433 162.793,97.51 161.5,98C 164.695,98.1805 167.695,98.6805 170.5,99.5C 152.628,99.4572 136.628,104.791 122.5,115.5C 122.343,114.127 122.51,112.793 123,111.5C 131.334,101.002 139.834,90.6687 148.5,80.5C 153.833,74.8333 159.167,69.1667 164.5,63.5 Z"/></g>
<g><path style="opacity:1" fill="#dc6667" d="M 110.5,70.5 C 108.5,72.8333 106.5,75.1667 104.5,77.5C 103.609,78.1098 102.609,78.4431 101.5,78.5C 103.9,75.0969 106.9,72.4302 110.5,70.5 Z"/></g>
<g><path style="opacity:0.871" fill="#e28183" d="M 101.5,78.5 C 98.4372,82.5658 94.7706,85.8991 90.5,88.5C 93.5628,84.4342 97.2294,81.1009 101.5,78.5 Z"/></g>
<g><path style="opacity:0.71" fill="#e6969a" d="M 80.5,98.5 C 79.9202,100.749 78.5869,102.415 76.5,103.5C 77.0798,101.251 78.4131,99.5846 80.5,98.5 Z"/></g>
<g><path style="opacity:1" fill="#d5757c" d="M 182.5,101.5 C 183.833,101.5 185.167,101.5 186.5,101.5C 188.042,102.163 189.709,102.83 191.5,103.5C 191.863,104.183 192.196,104.85 192.5,105.5C 189.011,104.342 185.678,103.009 182.5,101.5 Z"/></g>
<g><path style="opacity:0.682" fill="#e8a6a8" d="M 69.5,110.5 C 69.573,112.027 68.9063,113.027 67.5,113.5C 67.427,111.973 68.0937,110.973 69.5,110.5 Z"/></g>
<g><path style="opacity:0.863" fill="#e28e91" d="M 65.5,115.5 C 65.2624,117.404 64.2624,118.738 62.5,119.5C 62.7376,117.596 63.7376,116.262 65.5,115.5 Z"/></g>
<g><path style="opacity:0.788" fill="#e49599" d="M 60.5,121.5 C 60.573,123.027 59.9063,124.027 58.5,124.5C 58.427,122.973 59.0937,121.973 60.5,121.5 Z"/></g>
<g><path style="opacity:0.933" fill="#e49597" d="M 217.5,125.5 C 219.048,125.821 219.715,126.821 219.5,128.5C 218.599,127.71 217.932,126.71 217.5,125.5 Z"/></g>
<g><path style="opacity:0.522" fill="#e5a4aa" d="M 56.5,126.5 C 56.5,127.167 56.5,127.833 56.5,128.5C 55.8333,128.833 55.1667,129.167 54.5,129.5C 54.427,127.973 55.0937,126.973 56.5,126.5 Z"/></g>
<g><path style="opacity:0.91" fill="#df8a8f" d="M 54.5,129.5 C 54.2624,131.404 53.2624,132.738 51.5,133.5C 51.7376,131.596 52.7376,130.262 54.5,129.5 Z"/></g>
<g><path style="opacity:1" fill="#c73143" d="M 109.5,132.5 C 102.407,148.057 99.7407,164.39 101.5,181.5C 100.672,175.347 100.172,169.013 100,162.5C 96.9189,163.146 93.7522,163.479 90.5,163.5C 73.4772,162.315 56.3106,160.648 39,158.5C 37.4672,158.773 35.9672,159.106 34.5,159.5C 35.0787,156.669 36.412,154.336 38.5,152.5C 39.9063,152.027 40.573,151.027 40.5,149.5C 41.9063,149.027 42.573,148.027 42.5,146.5C 43.9063,146.027 44.573,145.027 44.5,143.5C 45.9063,143.027 46.573,142.027 46.5,140.5C 47.7859,137.883 49.4525,135.55 51.5,133.5C 53.2624,132.738 54.2624,131.404 54.5,129.5C 55.1667,129.167 55.8333,128.833 56.5,128.5C 58.3102,127.045 59.9769,127.212 61.5,129C 73.8314,129.702 86.1648,130.368 98.5,131C 101.561,132.116 104.728,132.949 108,133.5C 108.383,132.944 108.883,132.611 109.5,132.5 Z"/></g>
<g><path style="opacity:1" fill="#f28c83" d="M 318.5,136.5 C 317.89,138.434 316.89,140.101 315.5,141.5C 315.5,140.167 315.5,138.833 315.5,137.5C 316.609,137.443 317.609,137.11 318.5,136.5 Z"/></g>
<g><path style="opacity:0.569" fill="#e1949b" d="M 46.5,140.5 C 46.573,142.027 45.9063,143.027 44.5,143.5C 44.427,141.973 45.0937,140.973 46.5,140.5 Z"/></g>
<g><path style="opacity:0.569" fill="#e1939a" d="M 44.5,143.5 C 44.573,145.027 43.9063,146.027 42.5,146.5C 42.427,144.973 43.0937,143.973 44.5,143.5 Z"/></g>
<g><path style="opacity:0.537" fill="#e1979e" d="M 42.5,146.5 C 42.573,148.027 41.9063,149.027 40.5,149.5C 40.427,147.973 41.0937,146.973 42.5,146.5 Z"/></g>
<g><path style="opacity:0.431" fill="#e4a8ad" d="M 40.5,149.5 C 40.573,151.027 39.9063,152.027 38.5,152.5C 38.427,150.973 39.0937,149.973 40.5,149.5 Z"/></g>
<g><path style="opacity:1" fill="#be2a3e" d="M 101.5,181.5 C 102.879,187.067 103.879,192.734 104.5,198.5C 104.5,199.833 104.5,201.167 104.5,202.5C 75.8089,200.885 47.1423,198.885 18.5,196.5C 18.5,195.167 18.5,193.833 18.5,192.5C 22.1043,181.96 26.771,171.96 32.5,162.5C 33.9063,162.027 34.573,161.027 34.5,159.5C 35.9672,159.106 37.4672,158.773 39,158.5C 56.3106,160.648 73.4772,162.315 90.5,163.5C 93.7522,163.479 96.9189,163.146 100,162.5C 100.172,169.013 100.672,175.347 101.5,181.5 Z"/></g>
<g><path style="opacity:0.365" fill="#e5acb1" d="M 34.5,159.5 C 34.573,161.027 33.9063,162.027 32.5,162.5C 32.427,160.973 33.0937,159.973 34.5,159.5 Z"/></g>
<g><path style="opacity:0.82" fill="#e2949a" d="M 224.5,188.5 C 224.59,191.152 223.924,193.485 222.5,195.5C 222.41,192.848 223.076,190.515 224.5,188.5 Z"/></g>
<g><path style="opacity:1" fill="#c83444" d="M 227.5,170.5 C 228.459,193.474 228.792,216.474 228.5,239.5C 223.421,244.915 217.754,249.582 211.5,253.5C 210.761,253.631 210.094,253.464 209.5,253C 210.833,245 210.833,237 209.5,229C 212.806,224.186 215.473,219.019 217.5,213.5C 217.03,212.537 216.363,212.537 215.5,213.5C 215.557,212.391 215.89,211.391 216.5,210.5C 219.469,208.38 220.802,205.38 220.5,201.5C 220.595,199.214 221.262,197.214 222.5,195.5C 223.924,193.485 224.59,191.152 224.5,188.5C 225.271,182.331 226.271,176.331 227.5,170.5 Z"/></g>
<g><path style="opacity:0.851" fill="#df979f" d="M 16.5,197.5 C 16.2766,201.162 15.2766,204.495 13.5,207.5C 13.7234,203.838 14.7234,200.505 16.5,197.5 Z"/></g>
<g><path style="opacity:0.8" fill="#de969e" d="M 104.5,198.5 C 105.924,200.515 106.59,202.848 106.5,205.5C 105.833,204.5 105.167,203.5 104.5,202.5C 104.5,201.167 104.5,199.833 104.5,198.5 Z"/></g>
<g><path style="opacity:0.816" fill="#e19fa6" d="M 106.5,205.5 C 107.871,207.936 108.871,210.603 109.5,213.5C 107.345,211.383 106.345,208.716 106.5,205.5 Z"/></g>
<g><path style="opacity:1" fill="#da7377" d="M 220.5,201.5 C 220.802,205.38 219.469,208.38 216.5,210.5C 217.463,207.256 218.796,204.256 220.5,201.5 Z"/></g>
<g><path style="opacity:0.655" fill="#dc939d" d="M 13.5,207.5 C 13.5905,210.152 12.9238,212.485 11.5,214.5C 11.4095,211.848 12.0762,209.515 13.5,207.5 Z"/></g>
<g><path style="opacity:1" fill="#d27177" d="M 112.5,222.5 C 113.931,223.78 114.598,225.447 114.5,227.5C 112.744,226.448 112.077,224.781 112.5,222.5 Z"/></g>
<g><path style="opacity:1" fill="#c33947" d="M 211.5,253.5 C 205.478,258.85 199.145,263.85 192.5,268.5C 191.883,268.389 191.383,268.056 191,267.5C 190.667,264.167 190.333,260.833 190,257.5C 189.617,258.056 189.117,258.389 188.5,258.5C 188.738,256.596 189.738,255.262 191.5,254.5C 192.906,254.027 193.573,253.027 193.5,251.5C 194.906,251.027 195.573,250.027 195.5,248.5C 196.906,248.027 197.573,247.027 197.5,245.5C 198.906,245.027 199.573,244.027 199.5,242.5C 200.906,242.027 201.573,241.027 201.5,239.5C 202.584,236.996 203.917,234.663 205.5,232.5C 206.906,232.027 207.573,231.027 207.5,229.5C 209.659,223.849 212.326,218.516 215.5,213.5C 216.363,212.537 217.03,212.537 217.5,213.5C 215.473,219.019 212.806,224.186 209.5,229C 210.833,237 210.833,245 209.5,253C 210.094,253.464 210.761,253.631 211.5,253.5 Z"/></g>
<g><path style="opacity:0.361" fill="#e7acb2" d="M 207.5,229.5 C 207.573,231.027 206.906,232.027 205.5,232.5C 205.427,230.973 206.094,229.973 207.5,229.5 Z"/></g>
<g><path style="opacity:1" fill="#b82640" d="M 18.5,192.5 C 18.5,193.833 18.5,195.167 18.5,196.5C 47.1423,198.885 75.8089,200.885 104.5,202.5C 105.167,203.5 105.833,204.5 106.5,205.5C 106.345,208.716 107.345,211.383 109.5,213.5C 110.696,216.421 111.696,219.421 112.5,222.5C 112.077,224.781 112.744,226.448 114.5,227.5C 118.085,233.668 121.418,240.001 124.5,246.5C 124.5,247.167 124.5,247.833 124.5,248.5C 85.82,246.008 47.1533,243.341 8.5,240.5C 8.80155,237.941 8.46822,235.607 7.5,233.5C 8.09634,226.892 9.42967,220.558 11.5,214.5C 12.9238,212.485 13.5905,210.152 13.5,207.5C 15.2766,204.495 16.2766,201.162 16.5,197.5C 16.7959,195.597 17.4625,193.93 18.5,192.5 Z"/></g>
<g><path style="opacity:0.463" fill="#e2a0a8" d="M 201.5,239.5 C 201.573,241.027 200.906,242.027 199.5,242.5C 199.427,240.973 200.094,239.973 201.5,239.5 Z"/></g>
<g><path style="opacity:0.42" fill="#e3a9b0" d="M 199.5,242.5 C 199.573,244.027 198.906,245.027 197.5,245.5C 197.427,243.973 198.094,242.973 199.5,242.5 Z"/></g>
<g><path style="opacity:0.435" fill="#e4a9b0" d="M 197.5,245.5 C 197.573,247.027 196.906,248.027 195.5,248.5C 195.427,246.973 196.094,245.973 197.5,245.5 Z"/></g>
<g><path style="opacity:0.463" fill="#de9fa6" d="M 124.5,246.5 C 125.906,246.973 126.573,247.973 126.5,249.5C 125.833,249.167 125.167,248.833 124.5,248.5C 124.5,247.833 124.5,247.167 124.5,246.5 Z"/></g>
<g><path style="opacity:0.49" fill="#e29fa8" d="M 195.5,248.5 C 195.573,250.027 194.906,251.027 193.5,251.5C 193.427,249.973 194.094,248.973 195.5,248.5 Z"/></g>
<g><path style="opacity:0.608" fill="#dc8f99" d="M 193.5,251.5 C 193.573,253.027 192.906,254.027 191.5,254.5C 191.427,252.973 192.094,251.973 193.5,251.5 Z"/></g>
<g><path style="opacity:1" fill="#b1233e" d="M 7.5,233.5 C 8.46822,235.607 8.80155,237.941 8.5,240.5C 47.1533,243.341 85.82,246.008 124.5,248.5C 125.167,248.833 125.833,249.167 126.5,249.5C 132.418,258.093 138.752,266.427 145.5,274.5C 145.427,276.027 146.094,277.027 147.5,277.5C 154.201,284.203 161.201,290.536 168.5,296.5C 168.53,297.497 168.03,298.164 167,298.5C 117.592,293.788 68.0915,290.121 18.5,287.5C 16.0363,287.59 13.8697,288.257 12,289.5C 11.6174,288.944 11.1174,288.611 10.5,288.5C 6.58616,270.341 5.58616,252.007 7.5,233.5 Z"/></g>
<g><path style="opacity:1" fill="#c44653" d="M 192.5,268.5 C 186.133,273.523 179.466,278.19 172.5,282.5C 171.167,282.5 170.5,281.833 170.5,280.5C 172.942,277.271 175.608,274.271 178.5,271.5C 179.906,271.027 180.573,270.027 180.5,268.5C 182.817,264.854 185.484,261.52 188.5,258.5C 189.117,258.389 189.617,258.056 190,257.5C 190.333,260.833 190.667,264.167 191,267.5C 191.383,268.056 191.883,268.389 192.5,268.5 Z"/></g>
<g><path style="opacity:0.737" fill="#df9ca4" d="M 180.5,268.5 C 180.573,270.027 179.906,271.027 178.5,271.5C 178.427,269.973 179.094,268.973 180.5,268.5 Z"/></g>
<g><path style="opacity:0.655" fill="#e0a6b0" d="M 145.5,274.5 C 146.906,274.973 147.573,275.973 147.5,277.5C 146.094,277.027 145.427,276.027 145.5,274.5 Z"/></g>
<g><path style="opacity:0.659" fill="#e1a5ad" d="M 411.5,285.5 C 411.5,284.167 410.833,283.5 409.5,283.5C 410.848,282.399 412.348,281.399 414,280.5C 414.28,282.672 413.447,284.339 411.5,285.5 Z"/></g>
<g><path style="opacity:0.737" fill="#da919a" d="M 170.5,280.5 C 170.5,281.833 171.167,282.5 172.5,282.5C 163.229,289.229 162.562,288.563 170.5,280.5 Z"/></g>
<g><path style="opacity:1" fill="#ac2241" d="M 168.5,296.5 C 169.833,297.5 171.167,298.5 172.5,299.5C 173.13,302.705 175.13,304.371 178.5,304.5C 185.167,308.5 191.833,312.5 198.5,316.5C 198.821,318.048 199.821,318.715 201.5,318.5C 213.498,324.332 225.831,329.332 238.5,333.5C 239.469,334.309 240.302,335.309 241,336.5C 242.356,335.62 243.856,335.286 245.5,335.5C 249.606,335.74 253.606,336.407 257.5,337.5C 262.599,338.904 267.932,339.571 273.5,339.5C 276.686,339.498 279.686,339.165 282.5,338.5C 283.5,338.5 284.5,338.5 285.5,338.5C 290.453,338.877 295.119,338.211 299.5,336.5C 322.357,331.237 344.024,322.904 364.5,311.5C 365.167,311.5 365.833,311.5 366.5,311.5C 372.116,313.359 378.116,314.693 384.5,315.5C 383.754,316.736 383.421,318.07 383.5,319.5C 374.927,330.743 365.261,341.077 354.5,350.5C 354.5,349.5 354.5,348.5 354.5,347.5C 329.87,345.81 305.37,343.81 281,341.5C 279.564,341.559 278.231,341.892 277,342.5C 265.562,341.079 254.062,339.746 242.5,338.5C 241.106,338.621 239.772,338.954 238.5,339.5C 169.69,333.746 100.857,328.08 32,322.5C 28.0288,323.788 24.1954,323.455 20.5,321.5C 18.5947,317.784 17.2613,313.784 16.5,309.5C 16.33,308.178 16.6634,307.011 17.5,306C 16.3094,305.302 15.3094,304.469 14.5,303.5C 14.2865,301.856 14.6198,300.356 15.5,299C 14.3094,298.302 13.3094,297.469 12.5,296.5C 11.525,293.933 10.8583,291.267 10.5,288.5C 11.1174,288.611 11.6174,288.944 12,289.5C 13.8697,288.257 16.0363,287.59 18.5,287.5C 68.0915,290.121 117.592,293.788 167,298.5C 168.03,298.164 168.53,297.497 168.5,296.5 Z"/></g>
<g><path style="opacity:1" fill="#b73649" d="M 409.5,283.5 C 410.833,283.5 411.5,284.167 411.5,285.5C 403.27,297.731 393.936,309.065 383.5,319.5C 383.421,318.07 383.754,316.736 384.5,315.5C 378.116,314.693 372.116,313.359 366.5,311.5C 366.833,310.833 367.167,310.167 367.5,309.5C 381.213,300.472 395.213,291.805 409.5,283.5 Z"/></g>
<g><path style="opacity:1" fill="#ce7a86" d="M 12.5,296.5 C 13.3094,297.469 14.3094,298.302 15.5,299C 14.6198,300.356 14.2865,301.856 14.5,303.5C 13.3882,301.401 12.7215,299.067 12.5,296.5 Z"/></g>
<g><path style="opacity:0.996" fill="#d27e88" d="M 172.5,299.5 C 174.54,301.177 176.54,302.844 178.5,304.5C 175.13,304.371 173.13,302.705 172.5,299.5 Z"/></g>
<g><path style="opacity:1" fill="#cb7380" d="M 14.5,303.5 C 15.3094,304.469 16.3094,305.302 17.5,306C 16.6634,307.011 16.33,308.178 16.5,309.5C 15.2616,307.786 14.595,305.786 14.5,303.5 Z"/></g>
<g><path style="opacity:0.753" fill="#d7909e" d="M 367.5,309.5 C 367.167,310.167 366.833,310.833 366.5,311.5C 365.833,311.5 365.167,311.5 364.5,311.5C 364.973,310.094 365.973,309.427 367.5,309.5 Z"/></g>
<g><path style="opacity:0.925" fill="#d58b96" d="M 198.5,316.5 C 199.71,316.932 200.71,317.599 201.5,318.5C 199.821,318.715 198.821,318.048 198.5,316.5 Z"/></g>
<g><path style="opacity:1" fill="#a71d41" d="M 20.5,321.5 C 24.1954,323.455 28.0288,323.788 32,322.5C 100.857,328.08 169.69,333.746 238.5,339.5C 239.772,338.954 241.106,338.621 242.5,338.5C 254.062,339.746 265.562,341.079 277,342.5C 278.231,341.892 279.564,341.559 281,341.5C 305.37,343.81 329.87,345.81 354.5,347.5C 354.5,348.5 354.5,349.5 354.5,350.5C 335.362,370.804 315.362,390.304 294.5,409C 253.19,444.578 206.19,455.411 153.5,441.5C 151.485,440.076 149.152,439.41 146.5,439.5C 139.084,437.287 132.084,434.287 125.5,430.5C 125.586,429.504 125.252,428.671 124.5,428C 120.781,425.636 116.781,424.136 112.5,423.5C 109.669,422.921 107.336,421.588 105.5,419.5C 105.027,418.094 104.027,417.427 102.5,417.5C 102.027,416.094 101.027,415.427 99.5,415.5C 99.0269,414.094 98.0269,413.427 96.5,413.5C 96.0269,412.094 95.0269,411.427 93.5,411.5C 90.4669,409.984 87.8003,407.984 85.5,405.5C 85.0269,404.094 84.0269,403.427 82.5,403.5C 81.5,403.167 80.8333,402.5 80.5,401.5C 79.7377,399.738 78.4044,398.738 76.5,398.5C 57.0222,382.186 41.3556,362.852 29.5,340.5C 29.7148,338.821 29.0481,337.821 27.5,337.5C 24.6193,332.405 22.2859,327.072 20.5,321.5 Z"/></g>
<g><path style="opacity:1" fill="#ce7b87" d="M 238.5,333.5 C 241.067,333.721 243.401,334.388 245.5,335.5C 243.856,335.286 242.356,335.62 241,336.5C 240.302,335.309 239.469,334.309 238.5,333.5 Z"/></g>
<g><path style="opacity:0.945" fill="#d28693" d="M 27.5,337.5 C 29.0481,337.821 29.7148,338.821 29.5,340.5C 28.5987,339.71 27.9321,338.71 27.5,337.5 Z"/></g>
<g><path style="opacity:0.863" fill="#d48e9c" d="M 299.5,336.5 C 295.119,338.211 290.453,338.877 285.5,338.5C 289.98,337.479 294.647,336.813 299.5,336.5 Z"/></g>
<g><path style="opacity:0.455" fill="#d595a3" d="M 257.5,337.5 C 265.816,338.185 274.149,338.518 282.5,338.5C 279.686,339.165 276.686,339.498 273.5,339.5C 267.932,339.571 262.599,338.904 257.5,337.5 Z"/></g>
<g><path style="opacity:0.024" fill="#f6f6f6" d="M 478.5,353.5 C 478.56,352.957 478.893,352.624 479.5,352.5C 480.823,362.659 480.823,372.659 479.5,382.5C 479.827,372.652 479.494,362.986 478.5,353.5 Z"/></g>
<g><path style="opacity:1" fill="#5f6061" d="M 478.5,353.5 C 479.494,362.986 479.827,372.652 479.5,382.5C 484.651,383.327 489.984,383.827 495.5,384C 497.568,386.642 499.235,389.475 500.5,392.5C 500.414,393.496 500.748,394.329 501.5,395C 493.989,395.171 486.655,395.671 479.5,396.5C 480.833,409.167 480.833,421.833 479.5,434.5C 485.5,435.167 491.5,435.833 497.5,436.5C 493.928,441.759 489.261,445.426 483.5,447.5C 477.78,446.14 472.78,443.474 468.5,439.5C 468.176,412.759 468.509,386.092 469.5,359.5C 471.975,356.759 474.975,354.759 478.5,353.5 Z"/></g>
<g><path style="opacity:0.725" fill="#7f7f7f" d="M 469.5,359.5 C 468.509,386.092 468.176,412.759 468.5,439.5C 467.833,426.338 467.5,413.004 467.5,399.5C 467.501,385.816 468.167,372.483 469.5,359.5 Z"/></g>
<g><path style="opacity:1" fill="#5e5f61" d="M 388.5,393.5 C 389.469,408.785 389.802,424.119 389.5,439.5C 386.709,441.735 383.709,443.735 380.5,445.5C 378.515,429.2 377.848,412.534 378.5,395.5C 365.5,395.5 352.5,395.5 339.5,395.5C 338.669,411.662 338.169,427.995 338,444.5C 337.329,443.748 336.496,443.414 335.5,443.5C 332.536,441.038 329.703,438.371 327,435.5C 326.333,422.167 326.333,408.833 327,395.5C 329.5,391.833 332,388.167 334.5,384.5C 350.49,383.334 366.49,383.167 382.5,384C 384.636,387.11 386.636,390.277 388.5,393.5 Z"/></g>
<g><path style="opacity:1" fill="#5e5f61" d="M 459.5,391.5 C 459.806,401.25 459.473,410.916 458.5,420.5C 455.567,422.645 452.567,424.812 449.5,427C 441.167,427.667 432.833,427.667 424.5,427C 421.784,423.729 419.451,420.229 417.5,416.5C 427.653,415.506 437.986,415.172 448.5,415.5C 448.5,408.833 448.5,402.167 448.5,395.5C 435.323,395.171 422.323,395.505 409.5,396.5C 409.5,409.167 409.5,421.833 409.5,434.5C 426.026,434.838 442.359,435.838 458.5,437.5C 456.636,440.723 454.636,443.89 452.5,447C 437.833,447.667 423.167,447.667 408.5,447C 404.912,444.623 401.412,442.123 398,439.5C 397.333,423.5 397.333,407.5 398,391.5C 406.833,383.991 417.166,381.324 429,383.5C 435.833,383.667 442.667,383.833 449.5,384C 453.08,386.277 456.414,388.777 459.5,391.5 Z"/></g>
<g><path style="opacity:0.417" fill="#b5b6b7" d="M 459.5,391.5 C 460.166,396.155 460.499,400.988 460.5,406C 460.494,411.216 459.827,416.049 458.5,420.5C 459.473,410.916 459.806,401.25 459.5,391.5 Z"/></g>
<g><path style="opacity:0.365" fill="#b9b9ba" d="M 500.5,392.5 C 501.812,393.145 502.812,394.145 503.5,395.5C 495.528,396.498 487.528,396.831 479.5,396.5C 486.655,395.671 493.989,395.171 501.5,395C 500.748,394.329 500.414,393.496 500.5,392.5 Z"/></g>
<g><path style="opacity:0.666" fill="#8c8c8d" d="M 339.5,395.5 C 339.5,395.833 339.5,396.167 339.5,396.5C 339.833,413.18 339.499,429.847 338.5,446.5C 337.145,445.812 336.145,444.812 335.5,443.5C 336.496,443.414 337.329,443.748 338,444.5C 338.169,427.995 338.669,411.662 339.5,395.5 Z"/></g>
<g><path style="opacity:0.325" fill="#bfc0c0" d="M 339.5,396.5 C 339.5,396.167 339.5,395.833 339.5,395.5C 352.5,395.5 365.5,395.5 378.5,395.5C 377.848,412.534 378.515,429.2 380.5,445.5C 379.828,446.267 378.995,446.934 378,447.5C 377.5,430.503 377.333,413.503 377.5,396.5C 364.833,396.5 352.167,396.5 339.5,396.5 Z"/></g>
<g><path style="opacity:0.318" fill="#c4c4c4" d="M 388.5,393.5 C 389.117,393.611 389.617,393.944 390,394.5C 390.828,409.672 390.661,424.672 389.5,439.5C 389.802,424.119 389.469,408.785 388.5,393.5 Z"/></g>
<g><path style="opacity:0.808" fill="#d896a4" d="M 76.5,398.5 C 78.4044,398.738 79.7377,399.738 80.5,401.5C 78.5956,401.262 77.2623,400.262 76.5,398.5 Z"/></g>
<g><path style="opacity:0.725" fill="#d999a6" d="M 82.5,403.5 C 84.0269,403.427 85.0269,404.094 85.5,405.5C 83.9731,405.573 82.9731,404.906 82.5,403.5 Z"/></g>
<g><path style="opacity:0.576" fill="#d28d9a" d="M 93.5,411.5 C 95.0269,411.427 96.0269,412.094 96.5,413.5C 94.9731,413.573 93.9731,412.906 93.5,411.5 Z"/></g>
<g><path style="opacity:0.608" fill="#d08595" d="M 96.5,413.5 C 98.0269,413.427 99.0269,414.094 99.5,415.5C 97.9731,415.573 96.9731,414.906 96.5,413.5 Z"/></g>
<g><path style="opacity:0.118" fill="#d4d4d5" d="M 409.5,396.5 C 422.323,395.505 435.323,395.171 448.5,395.5C 448.5,402.167 448.5,408.833 448.5,415.5C 437.986,415.172 427.653,415.506 417.5,416.5C 416.957,416.44 416.624,416.107 416.5,415.5C 426.812,414.501 437.145,414.168 447.5,414.5C 447.5,408.5 447.5,402.5 447.5,396.5C 434.833,396.5 422.167,396.5 409.5,396.5 Z"/></g>
<g><path style="opacity:0.569" fill="#d28b99" d="M 99.5,415.5 C 101.027,415.427 102.027,416.094 102.5,417.5C 100.973,417.573 99.9731,416.906 99.5,415.5 Z"/></g>
<g><path style="opacity:0.471" fill="#d79aa7" d="M 102.5,417.5 C 104.027,417.427 105.027,418.094 105.5,419.5C 103.973,419.573 102.973,418.906 102.5,417.5 Z"/></g>
<g><path style="opacity:1" fill="#bc5263" d="M 112.5,423.5 C 116.781,424.136 120.781,425.636 124.5,428C 125.252,428.671 125.586,429.504 125.5,430.5C 120.68,428.926 116.347,426.593 112.5,423.5 Z"/></g>
<g><path style="opacity:0.565" fill="#9d9d9d" d="M 409.5,434.5 C 426.513,434.167 443.513,434.501 460.5,435.5C 460.145,436.522 459.478,437.189 458.5,437.5C 442.359,435.838 426.026,434.838 409.5,434.5 Z"/></g>
<g><path style="opacity:0.564" fill="#a1a2a2" d="M 479.5,434.5 C 486.2,434.17 492.866,434.503 499.5,435.5C 499.043,436.298 498.376,436.631 497.5,436.5C 491.5,435.833 485.5,435.167 479.5,434.5 Z"/></g>
<g><path style="opacity:0.82" fill="#d48f9d" d="M 146.5,439.5 C 149.152,439.41 151.485,440.076 153.5,441.5C 150.848,441.59 148.515,440.924 146.5,439.5 Z"/></g>
</svg>
