<svg width="115" height="39" fill="none" xmlns="http://www.w3.org/2000/svg"><path fill-rule="evenodd" clip-rule="evenodd" d="M19.829 7.959v1.99c0 1.08-.857 1.959-1.926 1.99H9.916c-3.286 0-5.949 2.673-5.949 5.97 0 3.295 2.663 5.968 5.949 5.968s5.948-2.673 5.948-5.969v-2.045a1.985 1.985 0 011.981-1.933c1.075 0 1.952.861 1.981 1.933V29.05c0 5.494-4.439 9.949-9.913 9.949S0 34.545 0 29.05v-.054a1.985 1.985 0 011.98-1.933c1.076 0 1.953.861 1.982 1.933v.055c0 3.296 2.662 5.968 5.948 5.968 3.286 0 5.948-2.672 5.948-5.968v-3.184a9.855 9.855 0 01-5.948 1.99C4.44 27.858 0 23.404 0 17.909c0-5.494 4.439-9.95 9.913-9.95h9.916zm12.29 0c5.474 0 9.913 4.455 9.913 9.95 0 .681-.068 1.345-.198 1.99H26.51a5.948 5.948 0 009.796 2.256c.356-.35.845-.566 1.385-.566 1.096 0 1.984.89 1.984 1.99 0 .61-.273 1.153-.701 1.517a9.858 9.858 0 01-6.854 2.759c-5.474 0-9.913-4.455-9.913-9.95 0-5.494 4.438-9.946 9.913-9.946zm50.761 0c5.475 0 9.913 4.455 9.913 9.95 0 .681-.069 1.345-.198 1.99H77.271a5.948 5.948 0 009.796 2.256c.356-.35.845-.566 1.385-.566 1.096 0 1.984.89 1.984 1.99 0 .61-.273 1.153-.702 1.517a9.858 9.858 0 01-6.853 2.759c-5.475 0-9.913-4.455-9.913-9.95 0-5.494 4.436-9.946 9.912-9.946zM70.588 0v25.867c0 1.098-.888 1.99-1.984 1.99a1.986 1.986 0 01-1.983-1.99 9.855 9.855 0 01-5.949 1.99c-5.474 0-9.913-4.454-9.913-9.949 0-5.494 4.44-9.95 9.913-9.95 2.231 0 4.292.74 5.949 1.991V1.99c0-1.097.888-1.99 1.983-1.99h1.984zM115 7.959v17.908c0 1.098-.888 1.99-1.984 1.99a1.986 1.986 0 01-1.983-1.99 9.856 9.856 0 01-5.949 1.99c-5.474 0-9.913-4.454-9.913-9.949 0-5.494 4.44-9.95 9.913-9.95 2.231 0 4.293.74 5.949 1.991 0-1.097.888-1.99 1.983-1.99H115zm-66.62 0v17.908c0 1.098-.888 1.99-1.983 1.99a1.986 1.986 0 01-1.984-1.99V9.95c0-1.097.888-1.99 1.984-1.99h1.983zm12.291 3.98c-3.286 0-5.948 2.673-5.948 5.97 0 3.295 2.662 5.968 5.948 5.968 3.286 0 5.949-2.673 5.949-5.969 0-3.296-2.663-5.968-5.949-5.968zm44.416 0c-3.286 0-5.948 2.673-5.948 5.97 0 3.295 2.662 5.968 5.948 5.968 3.286 0 5.948-2.673 5.948-5.969 0-3.296-2.665-5.968-5.948-5.968zm-72.968 0a5.95 5.95 0 00-5.609 3.982H37.73a5.947 5.947 0 00-5.61-3.981zm50.761 0a5.95 5.95 0 00-5.609 3.982H88.49a5.953 5.953 0 00-5.61-3.981zM46.398 1.99c1.095 0 1.983.89 1.983 1.99 0 1.099-.888 1.991-1.983 1.991a1.986 1.986 0 01-1.984-1.99c0-1.1.888-1.99 1.984-1.99z" fill="#FF4D00"/></svg>