<?xml version="1.0" encoding="UTF-8"?>
<!DOCTYPE svg PUBLIC "-//W3C//DTD SVG 1.1//EN" "http://www.w3.org/Graphics/SVG/1.1/DTD/svg11.dtd">
<svg xmlns="http://www.w3.org/2000/svg" version="1.1" width="79px" height="101px" style="shape-rendering:geometricPrecision; text-rendering:geometricPrecision; image-rendering:optimizeQuality; fill-rule:evenodd; clip-rule:evenodd" xmlns:xlink="http://www.w3.org/1999/xlink">
<g><path style="opacity:1" fill="#18104c" d="M -0.5,-0.5 C 2.5,-0.5 5.5,-0.5 8.5,-0.5C 8.5,33.1667 8.5,66.8333 8.5,100.5C 5.5,100.5 2.5,100.5 -0.5,100.5C -0.5,66.8333 -0.5,33.1667 -0.5,-0.5 Z"/></g>
<g><path style="opacity:0.943" fill="#181054" d="M 10.5,-0.5 C 13.5,-0.5 16.5,-0.5 19.5,-0.5C 19.5,11.8333 19.5,24.1667 19.5,36.5C 22.1656,36.933 24.8323,37.433 27.5,38C 34.6676,42.0827 41.6676,46.4161 48.5,51C 54.6564,53.0969 60.9897,53.9302 67.5,53.5C 67.5,69.1667 67.5,84.8333 67.5,100.5C 64.5,100.5 61.5,100.5 58.5,100.5C 58.5,87.5 58.5,74.5 58.5,61.5C 55.059,61.6989 51.7256,61.1989 48.5,60C 42.5,56 36.5,52 30.5,48C 24.295,46.1221 17.9616,44.9554 11.5,44.5C 10.5007,29.5148 10.1673,14.5148 10.5,-0.5 Z"/></g>
<g><path style="opacity:0.987" fill="#181054" d="M 23.5,-0.5 C 26.5,-0.5 29.5,-0.5 32.5,-0.5C 32.1707,5.53675 32.5041,11.5368 33.5,17.5C 37.1667,20.1667 40.8333,22.8333 44.5,25.5C 45.498,16.8589 45.8314,8.19221 45.5,-0.5C 48.5,-0.5 51.5,-0.5 54.5,-0.5C 54.5,12.1667 54.5,24.8333 54.5,37.5C 52.0733,37.477 49.74,36.977 47.5,36C 42.1667,32.3333 36.8333,28.6667 31.5,25C 28.978,23.6591 26.3113,22.8257 23.5,22.5C 23.5,14.8333 23.5,7.16667 23.5,-0.5 Z"/></g>
<g><path style="opacity:0.957" fill="#181054" d="M 58.5,-0.5 C 61.5,-0.5 64.5,-0.5 67.5,-0.5C 67.5,16.5 67.5,33.5 67.5,50.5C 58.9686,51.5701 50.9686,50.0701 43.5,46C 37.7992,41.1484 31.4659,37.315 24.5,34.5C 23.52,31.9135 23.1866,29.2469 23.5,26.5C 26.6883,26.6178 29.6883,27.4511 32.5,29C 38.1559,33.4962 44.1559,37.4962 50.5,41C 53.1677,41.567 55.8344,42.067 58.5,42.5C 58.5,28.1667 58.5,13.8333 58.5,-0.5 Z"/></g>
<g><path style="opacity:0.975" fill="#181054" d="M 69.5,-0.5 C 72.5,-0.5 75.5,-0.5 78.5,-0.5C 78.5,33.1667 78.5,66.8333 78.5,100.5C 75.5,100.5 72.5,100.5 69.5,100.5C 69.5,66.8333 69.5,33.1667 69.5,-0.5 Z"/></g>
<g><path style="opacity:0.922" fill="#181054" d="M 19.5,100.5 C 16.5,100.5 13.5,100.5 10.5,100.5C 10.5,83.1667 10.5,65.8333 10.5,48.5C 17.7038,47.945 24.7038,48.7783 31.5,51C 38.0987,56.6035 45.432,60.9368 53.5,64C 54.4438,66.7191 54.7771,69.5525 54.5,72.5C 51.3527,72.2634 48.3527,71.4301 45.5,70C 38.3119,62.6435 29.6452,58.1435 19.5,56.5C 19.5,71.1667 19.5,85.8333 19.5,100.5 Z"/></g>
<g><path style="opacity:0.994" fill="#181054" d="M 54.5,100.5 C 51.5,100.5 48.5,100.5 45.5,100.5C 45.6662,94.4908 45.4995,88.4908 45,82.5C 40.8211,79.7433 36.8211,76.7433 33,73.5C 32.5002,82.4938 32.3336,91.4938 32.5,100.5C 29.5,100.5 26.5,100.5 23.5,100.5C 23.1675,87.4829 23.5009,74.4829 24.5,61.5C 34.1667,66.8333 43.8333,72.1667 53.5,77.5C 54.4975,85.1378 54.8308,92.8045 54.5,100.5 Z"/></g>
</svg>
