<svg xmlns="http://www.w3.org/2000/svg" viewBox="0 0 285.89 99.18"><defs><style>.cls-1{fill:#06345a;}.cls-2{fill:#033259;}.cls-3{fill:#05335a;}.cls-4{fill:#05345a;}.cls-5{fill:#06355a;}.cls-6{fill:#06355b;}.cls-7{fill:#fb4e05;}.cls-8{fill:#08365c;}.cls-9{fill:#033258;}.cls-10{fill:#fb5611;}.cls-11{fill:#0f3c61;}.cls-12{fill:#f1f3f5;}</style></defs><g id="Layer_2" data-name="Layer 2"><g id="Layer_1-2" data-name="Layer 1"><path class="cls-1" d="M191.67,71.48V84.72h-9.45V37.23c7.73.34,15.39.18,22.91,1.16s11.58,7.69,11.09,16.33c-.06,1.12-.17,2.24-.32,3.36-.9,6.85-5.2,11.47-12.07,12.5C200,71.15,196.08,71.17,191.67,71.48Zm.3-25.65V62.9c2.78,0,5.28.09,7.77,0,3.47-.16,5.69-1.93,6.27-5.29a21.39,21.39,0,0,0,.12-6.29c-.47-3.6-2.37-5.25-6-5.44C197.52,45.72,194.89,45.83,192,45.83Z"/><path class="cls-2" d="M92.09,85.58V99.13H83v-49c3.09.24,6.37-.82,9.73.87,2.46-.5,5.36-1.49,8.28-1.58,5.78-.18,9.61,2.63,11.28,8.11a33.47,33.47,0,0,1,.32,18.92c-1.62,5.9-5.31,8.67-11.89,9.09C98,85.72,95.2,85.58,92.09,85.58Zm.14-8.35c1.89.08,3.61.25,5.33.21,3.57-.08,5.62-1.43,6.07-4.9a34.26,34.26,0,0,0-.14-10.06c-.66-3.92-2.79-5.16-6.81-4.72a30.16,30.16,0,0,0-4.45,1.13Z"/><path class="cls-3" d="M148.35,71.39h-20c.08,4.23,1.2,5.72,4.89,5.88,4.73.19,9.48,0,14.47,0v6.38c-6.19,1.62-12.53,2.69-19.08,1.42-5-1-8-4.1-9.17-8.87a31.47,31.47,0,0,1,.4-17.42,12.52,12.52,0,0,1,11.86-9.35,26.19,26.19,0,0,1,6.74.26c7.12,1.42,11.16,7.38,10.67,15.48C149,67.18,148.65,69.13,148.35,71.39Zm-8.6-7.16c.2-2.74.19-5.27-2.47-6.6a6.81,6.81,0,0,0-7.13.32c-2.13,1.5-2.33,3.84-1.85,6.28Z"/><path class="cls-4" d="M273.79,99.18h-9.05l3.53-14.12h-6.34c-2.86-11.6-5.67-23-8.56-34.61h9.15c2.1,8.67,4.24,17.56,6.39,26.44l1,.07c2.08-4,2.38-8.57,3.53-12.86,1.18-4.46,2.18-9,3.3-13.67h9.18C281.87,66.65,277.87,82.75,273.79,99.18Z"/><path class="cls-5" d="M64.36,99.12H55.28c1.21-4.81,2.36-9.38,3.6-14.27H52.43c-2.85-11.58-5.64-22.95-8.51-34.58h9.14c2.16,8.94,4.31,17.81,6.45,26.69h1.37l6.45-26.71h9.15Z"/><path class="cls-6" d="M239.73,63l-.48-4.65c-5.39-2.64-10.95,0-16.63-.86-.13-1.92-.27-4-.4-6A43.84,43.84,0,0,1,240,49.55c5.42.58,8.7,3.82,8.89,9.45.29,8.73.08,17.49.08,26.74l-7.21-1.94c-4.29.66-8.09,1.66-11.9,1.72-5.77.07-9-3.23-9.61-9-.89-8.11,2.27-12,10.4-12.78C233.53,63.51,236.39,63.28,239.73,63Zm.18,6.7c-2,.1-3.72.08-5.43.3-4.61.6-5.75,3-3.56,7.45,3,1.46,5.91.34,9-.46Z"/><path class="cls-7" d="M67.74,0H84.9V17.88L66.19,36.62V18.91H48.87Z"/><path class="cls-8" d="M18.76,65.6l-9.57.73V84.74H0v-47H9.15V56.23h9.6V65.6Z"/><path class="cls-9" d="M164.53,61.53V84.69h-9V50.28h8.7c.14.95.27,1.9.43,3l10.74-4.2v9.44Z"/><path class="cls-10" d="M18.76,65.6v.08l9.67-9.55h9.1v10.8l-9,8.23.14-.06L27.6,66.19Z"/><path class="cls-11" d="M28.36,56.13h.06V37.74h9v9.19Z"/><path class="cls-8" d="M28.69,75.1l-.14.06h8.81V84H28Z"/><path class="cls-12" d="M139.75,64.23H128.3c-.48-2.44-.28-4.78,1.85-6.28a6.81,6.81,0,0,1,7.13-.32C139.94,59,140,61.49,139.75,64.23Z"/></g></g></svg>