<?xml version="1.0" encoding="utf-8"?>
<!-- Generator: Adobe Illustrator 19.2.1, SVG Export Plug-In . SVG Version: 6.00 Build 0)  -->
<svg version="1.1" id="layer" xmlns="http://www.w3.org/2000/svg" xmlns:xlink="http://www.w3.org/1999/xlink" x="0px" y="0px"
	 viewBox="0 0 652 652" style="enable-background:new 0 0 652 652;" xml:space="preserve">
<style type="text/css">
	.st0{fill:#3333FF;}
</style>
<path class="st0" d="M34.3,572.3l32.6-158.7h53.3L87.6,572.3H34.3z M194.6,520.3h33.8l-8.8-58.1L194.6,520.3z M120.2,572.3
	l80.4-158.7H253l33,158.7h-49.3l-2.8-18.9h-52.5l-8.4,18.9H120.2z M335,572.3l18.3-119.4h-46.5l8-40.1h142.8l-8,40.1h-44.1
	l-17.9,119.4H335z M513.7,520.3h33.8l-8.7-58.1L513.7,520.3z M439.3,572.3l80.3-158.7h52.5l33,158.7h-49.7l-2.4-18.9h-52.6
	l-8.3,18.9H439.3z M720.7,234.1H470.9c-9.1,44.7-41,81.7-104.1,107.5c7.1,21.1,31.7,40.8,57.2,40.8h135.5c20.7,0,36.9-17,43.7-30.4
	H465.3c-8.3-1.5-8.8-8-0.4-8.8h135.5c17.5,0,33.4-14.7,42.5-30.5H485.2c-8-1.2-8-7.7,0-8.9h158.9c15.8,0,30.5-18.1,36.5-30.4H506.2
	c-8.7-1.2-8.7-8.9,0-9.3h177.6C697.7,264.1,711.2,249.5,720.7,234.1 M-79.3,234.1h249.8c9.2,44.7,40.9,81.7,104.1,107.5
	c-7.2,21.1-31.8,40.8-57.3,40.8H82c-20.7,0-37-17-43.7-30.4h137.8c8.4-1.5,8.8-8,0.4-8.8H41c-17.5,0-33.4-14.7-42.5-30.5h157.7
	c8-1.2,8-7.7,0-8.9H-2.7c-15.9,0-30.5-18.1-36.5-30.4h174.4c8.7-1.2,8.7-8.9,0-9.3H-42.4C-56.3,264.1-69.8,249.5-79.3,234.1
	 M239.6,100.4c9.2,7.7,19.5,14.6,30.6,18.9c9.5-18.1,22.6-33.5,37.8-47C282.9,75.4,259.5,84.7,239.6,100.4 M195.5,189h55.7
	c1.2-22.3,6-42,15.1-62c-12.4-5.4-23.1-12-33.4-20.4C209.8,128.9,197.2,157.8,195.5,189 M316.3,138.1V189h-55.6
	c0.4-20.1,5.1-40.5,13.9-59C287.7,134.7,302,137.8,316.3,138.1 M401.7,100.4c-9.1,7.7-19.9,14.6-30.6,18.9
	c-10-18.5-22.3-33.2-37.8-47C358.4,75.4,381.9,84.7,401.7,100.4 M445.9,189h-55.6c-0.8-22-6-42.4-14.7-62
	c11.9-5.4,23-12.4,32.9-20.4C432.3,129.7,444.6,158.6,445.9,189 M325.5,138.1V189h55.2c0-20.5-5.1-40.1-13.9-59
	C353.7,134.7,339.4,137.8,325.5,138.1 M239.6,286.5c9.2-6.9,19.8-14.6,30.6-18.5c10,18.1,22.3,33.1,37.8,46.6
	C282.9,311.5,259.1,302.3,239.6,286.5 M195.5,197.8h55.7c1.2,22.4,6,42,15.1,62.4c-12.4,5.4-23.1,11.9-33.4,20.4
	C210.2,258.4,197.2,229.4,195.5,197.8 M316.3,248.8v-50.9h-55.6c0.4,20.4,5.1,40.9,13.9,59C287.7,252.3,302,249.1,316.3,248.8
	 M401.7,286.5c-8.8-7.3-19.9-14.3-30.6-18.5c-10,18.1-22.3,33.1-37.8,46.6C358.4,311.5,381.9,302.3,401.7,286.5 M445.9,197.8h-55.6
	c-0.8,22.4-5.6,42.4-14.7,62.4c11.9,5.4,22.6,11.9,32.9,20.4C431.2,258.4,444.6,228.7,445.9,197.8 M325.5,248.8v-50.9h55.2
	c0,20.4-5.1,40.4-13.9,59C354,252.3,339,249.1,325.5,248.8 M316.3,77.3c-15.1,11.9-28.6,28.1-37.4,45.1c11.9,3.8,24.6,6.9,37.4,6.9
	V77.3z M325.5,77.3c14.7,11.9,28.3,27.7,37,45.1c-11.9,4.2-24.6,6.9-37,6.9V77.3z M316.3,309.5c-15.1-11.5-28.6-27.7-37.4-45
	c11.9-4.3,24.6-6.5,37.4-6.5V309.5z M325.5,310c14.7-12,28.3-28.1,37-45.5c-11.9-3.9-24.6-6.5-37-6.5V310z"/>
</svg>
