<svg xmlns="http://www.w3.org/2000/svg" width="39.9" height="29.83" viewBox="0 0 39.9 29.83"><defs><style>.cls-1{fill:#fff;}.cls-2{fill:#034991;}.cls-3{fill:#ffed00;}</style></defs><g id="Layer_2" data-name="Layer 2"><g id="Layer_1-2" data-name="Layer 1"><rect class="cls-1" width="39.9" height="29.83"/><rect class="cls-2" width="39.9" height="7.92"/><rect class="cls-2" y="8.69" width="39.9" height="12.45"/><rect class="cls-2" y="21.91" width="39.9" height="7.92"/><rect class="cls-1" x="33.57" y="6.02" width="1.17" height="0.73"/><rect class="cls-1" x="32.07" y="6.02" width="1.17" height="0.73"/><polygon class="cls-1" points="15.63 4.65 14.91 4.65 14.91 3.62 13.46 3.62 13.46 4.65 3.01 4.65 2.87 4.38 3.87 3.09 3.87 2.17 2.44 2.17 0.87 4.21 1.77 6.13 17.08 6.13 17.08 3.62 15.63 3.62 15.63 4.65"/><rect class="cls-1" x="15.8" y="2.28" width="1.17" height="0.73"/><rect class="cls-1" x="4.78" y="2.5" width="1.17" height="0.73"/><rect class="cls-1" x="6.31" y="2.5" width="1.17" height="0.73"/><polygon class="cls-1" points="38.12 3.33 33.84 3.33 33.19 2.79 37.73 2.79 37.26 1.95 31.55 1.95 31.46 2.25 33.42 3.88 36.8 3.88 36.8 4.31 33.15 4.31 31.91 3.28 29.44 3.28 29.44 5.47 25.37 5.47 25.37 4.57 28.8 4.57 28.8 3.28 23.25 3.28 23.25 6.53 30.9 6.53 30.9 4.8 31.77 5.52 38.18 5.52 39.07 4.6 39.07 4.31 38.12 3.33"/><rect class="cls-1" x="18.5" y="4.02" width="2.71" height="1.18"/><polygon class="cls-3" points="34.62 19.91 27.3 14.4 34.49 9.99 21.6 9.99 15.3 13.86 15.3 9.99 6.31 9.99 6.31 19.91 15.3 19.91 15.3 14.75 21.06 19.91 34.62 19.91"/><path class="cls-1" d="M4.51,28.76V23.85H5.8v.58a2,2,0,0,1,.66-.53,1.89,1.89,0,0,1,.84-.18,1.59,1.59,0,0,1,1.21.42,1.79,1.79,0,0,1,.41,1.27v3.35H7.61v-3A1.25,1.25,0,0,0,7.43,25a.72.72,0,0,0-.58-.22.94.94,0,0,0-.73.28,1,1,0,0,0-.28.75v2.92Z"/><path class="cls-1" d="M21.55,24.28a2.24,2.24,0,0,0-1.74-.68,2.13,2.13,0,0,0-1.69.7,2.81,2.81,0,0,0-.61,1.9,2.86,2.86,0,0,0,.62,1.94,2.1,2.1,0,0,0,1.69.72,2.43,2.43,0,0,0,1.47-.43,2.08,2.08,0,0,0,.8-1.22H20.78a1.07,1.07,0,0,1-.33.41,1.08,1.08,0,0,1-.56.13.9.9,0,0,1-.73-.3,1.37,1.37,0,0,1-.29-.87h3.28a.68.68,0,0,0,0-.14v-.2A2.84,2.84,0,0,0,21.55,24.28Zm-2.68,1.44a1.11,1.11,0,0,1,.29-.75.87.87,0,0,1,.67-.26,1,1,0,0,1,.71.26,1.11,1.11,0,0,1,.26.75Z"/><path class="cls-1" d="M35.21,29.37h-.43l-.31,0a1.51,1.51,0,0,1-1-.28A1.67,1.67,0,0,1,33.16,28V25.35h-.65v-.92h.65V23.08h1.3v1.35h.75v.92h-.75v2.72c0,.13,0,.21.09.25a.68.68,0,0,0,.35.06h.32v1Z"/></g></g></svg>