<svg xmlns="http://www.w3.org/2000/svg" width="284.93" height="58.78" viewBox="0 0 284.93 58.78"><defs><style>.cls-1{fill:#ff5a00;}.cls-2{fill:#eb001b;}.cls-3{fill:#f79e1b;}.cls-4{fill:#1b1c69;}.cls-5{fill:#84b740;}.cls-6{fill:#259bd6;}</style></defs><g id="Layer_2" data-name="Layer 2"><g id="Layer_1-2" data-name="Layer 1"><rect id="rect19" class="cls-1" x="230.37" y="8.53" width="23.22" height="41.72"/><path class="cls-2" d="M231.92,29.39A26.62,26.62,0,0,1,242,8.53a26.54,26.54,0,1,0,0,41.72A26.48,26.48,0,0,1,231.92,29.39Z"/><path id="path22" class="cls-3" d="M284.93,29.39A26.51,26.51,0,0,1,242,50.25a26.59,26.59,0,0,0,0-41.72,26.51,26.51,0,0,1,42.91,20.86Z"/><g id="g4158"><polygon id="polygon9" class="cls-4" points="133.8 44.33 126.1 44.33 130.92 14.55 138.61 14.55 133.8 44.33"/><path id="path11" class="cls-4" d="M161.71,15.28A19,19,0,0,0,154.8,14c-7.6,0-13,4.06-13,9.85-.06,4.28,3.84,6.65,6.75,8.08s4,2.41,4,3.71c0,2-2.41,2.91-4.62,2.91A15.35,15.35,0,0,1,140.7,37l-1-.48-1.08,6.68a23.28,23.28,0,0,0,8.59,1.59c8.08,0,13.34-4,13.4-10.17,0-3.39-2-6-6.46-8.11-2.7-1.36-4.34-2.28-4.34-3.67s1.39-2.57,4.43-2.57A13.14,13.14,0,0,1,160,21.39l.7.32,1.05-6.43Z"/><path id="path13" class="cls-4" d="M171.94,33.78,175,25.45c0,.06.64-1.75,1-2.85l.54,2.56s1.45,7.13,1.77,8.62Zm9.5-19.23h-5.95c-1.84,0-3.23.54-4,2.47L160,44.33h8.08s1.33-3.68,1.61-4.47h9.89c.22,1,.92,4.47.92,4.47h7.12l-6.21-29.78Z"/><path id="path15" class="cls-4" d="M119.67,14.55l-7.54,20.3-.82-4.11c-1.4-4.75-5.77-9.92-10.65-12.48l6.91,26h8.14l12.1-29.74Z"/><path id="path17" class="cls-4" d="M105.13,14.55H92.74l-.12.6c9.66,2.47,16.06,8.43,18.69,15.59l-2.7-13.69c-.44-1.9-1.8-2.44-3.48-2.5Z"/></g><rect class="cls-5" y="33.92" width="83.21" height="24.86"/><rect class="cls-6" width="83.21" height="24.88"/></g></g></svg>