<svg xmlns="http://www.w3.org/2000/svg" width="183.21" height="46.67" viewBox="0 0 183.21 46.67"><defs><style>.cls-1{fill:#ff5a00;}.cls-2{fill:#eb001b;}.cls-3{fill:#f79e1b;}.cls-4{fill:#1b1c69;}</style></defs><g id="Layer_2" data-name="Layer 2"><g id="Layer_1-2" data-name="Layer 1"><rect id="rect19" class="cls-1" x="135.25" y="4.99" width="20.42" height="36.68"/><path class="cls-2" d="M136.6,23.33A23.43,23.43,0,0,1,145.48,5a23.33,23.33,0,1,0-14.39,41.68,23.18,23.18,0,0,0,14.39-5A23.31,23.31,0,0,1,136.6,23.33Z"/><path id="path22" class="cls-3" d="M183.21,23.33a23.32,23.32,0,0,1-37.73,18.35,23.39,23.39,0,0,0,0-36.69,23.32,23.32,0,0,1,37.73,18.34Z"/><g id="g4158"><polygon id="polygon9" class="cls-4" points="41.18 38.27 33.48 38.27 38.3 8.49 46 8.49 41.18 38.27"/><path id="path11" class="cls-4" d="M69.09,9.22A19,19,0,0,0,62.19,8c-7.61,0-13,4.06-13,9.85-.07,4.28,3.83,6.66,6.74,8.08s4,2.41,4,3.71c0,2-2.41,2.91-4.63,2.91a15.31,15.31,0,0,1-7.22-1.58l-1-.48L46,37.13a23.41,23.41,0,0,0,8.58,1.58c8.08,0,13.34-4,13.4-10.17,0-3.39-2-6-6.46-8.1-2.69-1.37-4.34-2.29-4.34-3.68s1.39-2.56,4.43-2.56a12.87,12.87,0,0,1,5.74,1.14l.7.31,1-6.43Z"/><path id="path13" class="cls-4" d="M79.32,27.72C80,26,82.4,19.39,82.4,19.39s.63-1.74,1-2.85L84,19.11s1.46,7.12,1.77,8.61ZM88.83,8.49h-6c-1.83,0-3.23.54-4,2.47L67.41,38.27h8.08s1.33-3.68,1.62-4.47H87c.22,1.05.92,4.47.92,4.47H95L88.83,8.49Z"/><path id="path15" class="cls-4" d="M27.05,8.49,19.51,28.8l-.82-4.12C17.3,19.93,12.93,14.77,8.05,12.2l6.9,26h8.14L35.2,8.49Z"/><path id="path17" class="cls-4" d="M12.51,8.49H.13L0,9.1c9.66,2.47,16.06,8.42,18.69,15.58L16,11c-.45-1.9-1.81-2.44-3.49-2.51Z"/></g></g></g></svg>