<svg xmlns="http://www.w3.org/2000/svg" viewBox="0 0 483.69 82.05"><defs><style>.cls-1{fill:#0018ff;}.cls-2{fill:none;}</style></defs><g id="Layer_2" data-name="Layer 2"><g id="Layer_1-2" data-name="Layer 1"><path d="M65.27,27.59c-2.51-3.33-6.76-5-12.72-5.08A18.64,18.64,0,0,0,45,24.44a15.72,15.72,0,0,0-7,7.2,13.58,13.58,0,0,0-5.43-7,15.55,15.55,0,0,0-7.89-2.11q-10.12,0-14.94,7.91H9.59V23.63H1.5v47h8.63V46.93a23.88,23.88,0,0,1,3-12.1q2.84-5.13,9.4-5.31a7.81,7.81,0,0,1,4.32,1.08,7.23,7.23,0,0,1,2.56,3.15A14.81,14.81,0,0,1,30.69,38c.12,1.59.18,3.12.18,4.58v28H39.5V46.93a24.17,24.17,0,0,1,2.93-12.1q2.9-5.13,9.42-5.31a7.85,7.85,0,0,1,4.33,1.08,7.55,7.55,0,0,1,2.61,3.15A15.78,15.78,0,0,1,60.06,38c.12,1.59.18,3.12.18,4.58v28h8.63V40.45Q69,32.53,65.27,27.59Z"/><path d="M66.47,26.68C63.67,23,59,21.07,52.55,21a20.32,20.32,0,0,0-8.21,2.08,16.21,16.21,0,0,0-6.14,5.38,13.93,13.93,0,0,0-4.85-5.15A17.08,17.08,0,0,0,24.71,21C19,21,14.48,22.77,11.09,26.25V22.13H0v50H11.63V46.93a22.58,22.58,0,0,1,2.79-11.38C16,32.61,18.7,31.13,22.5,31a6.4,6.4,0,0,1,3.48.82A5.82,5.82,0,0,1,28,34.41a13.5,13.5,0,0,1,1.16,3.74c.11,1.53.17,3,.17,4.41V72.08H41V46.93a22.76,22.76,0,0,1,2.74-11.37c1.66-3,4.33-4.43,8.11-4.54a6.46,6.46,0,0,1,3.49.82,6.07,6.07,0,0,1,2.09,2.54,13.68,13.68,0,0,1,1.13,3.77c.12,1.52.18,3,.18,4.41V72.08H70.37V40.47C70.44,34.88,69.12,30.25,66.47,26.68Zm.9,42.4H61.74V42.56c0-1.5-.07-3.08-.19-4.7v-.12a17.24,17.24,0,0,0-1.39-4.62A9,9,0,0,0,57,29.34,9.4,9.4,0,0,0,51.82,28h0c-4.9.14-8.49,2.18-10.68,6.07A25.65,25.65,0,0,0,38,46.93V69.08H32.37V42.56c0-1.49-.06-3.07-.19-4.69v-.12a16.13,16.13,0,0,0-1.42-4.61,8.84,8.84,0,0,0-3.11-3.8A9.4,9.4,0,0,0,22.47,28h0c-4.92.14-8.51,2.18-10.66,6.06A25.53,25.53,0,0,0,8.63,46.93V69.08H3V25.13H8.09v6.79h2.53l.44-.72C14,26.36,18.46,24,24.71,24a14.08,14.08,0,0,1,7.1,1.89,12.08,12.08,0,0,1,4.82,6.27l1.19,3.11,1.54-3a14.3,14.3,0,0,1,6.25-6.52A17.35,17.35,0,0,1,52.53,24c5.45,0,9.34,1.56,11.54,4.47s3.36,7,3.3,12Z"/><path d="M111.69,23.63,98.78,62.49H98.6L86,23.63H76.74L92.5,67.44c.3.81.66,1.7,1.08,2.69a10.74,10.74,0,0,1,.54,2.3A78.38,78.38,0,0,1,91,82.05h8.54c.67-1.72,3-8.76,3.59-10.43l17.31-48Z"/><path d="M110.61,22.13,98.7,58,87.05,22.13H74.61L91.09,68c.31.81.67,1.72,1.09,2.7a10.63,10.63,0,0,1,.44,1.82,97.69,97.69,0,0,1-3.29,9.57h3.26a75.08,75.08,0,0,0,3-9.62v-.14A12,12,0,0,0,95,69.66l0-.11c-.41-1-.76-1.84-1-2.62l-15-41.8h6L97.51,64h2.35l12.91-38.86h5.51l-16.61,46c-.59,1.8-3,9-3.77,10.9h3.22c.6-1.55,2.9-8.44,3.39-9.92l18-50Z"/><path d="M198.87,70.58a65,65,0,0,1-.36-9.22v-20q0-18.81-18.84-18.89c-.72,0-8.43,0-9.12.11l-1.05,1.6-2.77,4.25-1.17,1.8c1.8-.48,10.7-.73,12.71-.75q6.48,0,9.14,3c1.64,2,2.47,5.11,2.47,9.21q-4.59-.16-9.18-.17h-.36a31.35,31.35,0,0,0-13.85,3.32,15.54,15.54,0,0,0-5.44,4.68,12.44,12.44,0,0,0-2.2,7.47q.08,7.55,4.85,11.15,4.62,3.51,12.19,3.51a16.36,16.36,0,0,0,9.39-2.61,18,18,0,0,0,5-4.59h.1v6.07Zm-30.8-13.53A6.88,6.88,0,0,1,170,52a11.12,11.12,0,0,1,4.5-2.56,28.55,28.55,0,0,1,5.44-1.21q2.7-.18,4.41-.18c1.85.12,3.7.18,5.53.18v4.18a12.24,12.24,0,0,1-3.2,8.72c-2.21,2.34-5.5,3.54-9.84,3.6a9.37,9.37,0,0,1-5.81-2A6.55,6.55,0,0,1,168.07,57.05Z"/><path d="M189.88,46.69c-1.8,0-3.63-.06-5.53-.18-1.18,0-2.65.06-4.59.19a30.36,30.36,0,0,0-5.7,1.27,12.59,12.59,0,0,0-5.12,2.93,8.37,8.37,0,0,0-2.37,6.18,8,8,0,0,0,3.59,6.81,10.86,10.86,0,0,0,6.7,2.3c4.74-.06,8.41-1.43,10.92-4.07a13.78,13.78,0,0,0,3.6-9.75V46.69Zm-1.5,5.68a10.72,10.72,0,0,1-2.78,7.69c-1.92,2-4.88,3.08-8.76,3.13a7.88,7.88,0,0,1-4.9-1.71l-.07-.06a5.06,5.06,0,0,1-2.3-4.37,5.38,5.38,0,0,1,1.46-4A9.73,9.73,0,0,1,175,50.83,27.18,27.18,0,0,1,180,49.68c1.77-.11,3.21-.17,4.21-.18,1.37.09,2.76.15,4.13.17Zm1.5-5.68c-1.8,0-3.63-.06-5.53-.18-1.18,0-2.65.06-4.59.19a30.36,30.36,0,0,0-5.7,1.27,12.59,12.59,0,0,0-5.12,2.93,8.37,8.37,0,0,0-2.37,6.18,8,8,0,0,0,3.59,6.81,10.86,10.86,0,0,0,6.7,2.3c4.74-.06,8.41-1.43,10.92-4.07a13.78,13.78,0,0,0,3.6-9.75V46.69Zm-1.5,5.68a10.72,10.72,0,0,1-2.78,7.69c-1.92,2-4.88,3.08-8.76,3.13a7.88,7.88,0,0,1-4.9-1.71l-.07-.06a5.06,5.06,0,0,1-2.3-4.37,5.38,5.38,0,0,1,1.46-4A9.73,9.73,0,0,1,175,50.83,27.18,27.18,0,0,1,180,49.68c1.77-.11,3.21-.17,4.21-.18,1.37.09,2.76.15,4.13.17Zm12.35,19.71-.39-1.81c-.15-.69-.33-2.79-.33-8.91v-20c0-13.28-7-20.33-20.37-20.39-.36,0-7.71,0-8.07,0l-1,1.57-1.05,1.6c1-.12,9.08-.19,10.16-.21,11.68,0,17.35,5.74,17.35,17.39v20c0,4,.08,6.35.18,7.72h-5.27V63h-2.41l-.44.67a17,17,0,0,1-4.65,4.2,15.07,15.07,0,0,1-8.53,2.33c-4.68,0-8.48-1.08-11.29-3.21s-4.2-5.38-4.25-10a10.82,10.82,0,0,1,1.92-6.59,14.1,14.1,0,0,1,4.88-4.21,30,30,0,0,1,13.19-3.17h.36c3,0,6.08.06,9.12.17l1.56.06V41.75q0-6.66-2.85-10.21C186.47,29.21,183,28,178.26,28c-1.57,0-10.07.17-11.53.45l-1.17,1.8-1.29,2c2.17-.79,11.51-1.2,14-1.23,3.85,0,6.55.84,8,2.46,1.21,1.5,1.92,3.76,2.09,6.72-2.55-.08-5.11-.12-7.63-.12h-.36a33.06,33.06,0,0,0-14.55,3.5,17.11,17.11,0,0,0-6,5.12,14,14,0,0,0-2.48,8.36c.06,5.51,1.89,9.65,5.44,12.34,3.34,2.53,7.75,3.81,13.13,3.81a18,18,0,0,0,10.2-2.86,32.34,32.34,0,0,0,2.8-2.11v3.84Zm-21-25.38a30.36,30.36,0,0,0-5.7,1.27,12.59,12.59,0,0,0-5.12,2.93,8.37,8.37,0,0,0-2.37,6.18,8,8,0,0,0,3.59,6.81,10.86,10.86,0,0,0,6.7,2.3c4.74-.06,8.41-1.43,10.92-4.07a13.78,13.78,0,0,0,3.6-9.75V46.69h-1.5c-1.8,0-3.63-.06-5.53-.18C183.17,46.51,181.7,46.57,179.76,46.7Zm8.62,5.67a10.72,10.72,0,0,1-2.78,7.69c-1.92,2-4.88,3.08-8.76,3.13a7.88,7.88,0,0,1-4.9-1.71l-.07-.06a5.06,5.06,0,0,1-2.3-4.37,5.38,5.38,0,0,1,1.46-4A9.73,9.73,0,0,1,175,50.83,27.18,27.18,0,0,1,180,49.68c1.77-.11,3.21-.17,4.21-.18,1.37.09,2.76.15,4.13.17Zm1.5-5.68c-1.8,0-3.63-.06-5.53-.18-1.18,0-2.65.06-4.59.19a30.36,30.36,0,0,0-5.7,1.27,12.59,12.59,0,0,0-5.12,2.93,8.37,8.37,0,0,0-2.37,6.18,8,8,0,0,0,3.59,6.81,10.86,10.86,0,0,0,6.7,2.3c4.74-.06,8.41-1.43,10.92-4.07a13.78,13.78,0,0,0,3.6-9.75V46.69Zm-1.5,5.68a10.72,10.72,0,0,1-2.78,7.69c-1.92,2-4.88,3.08-8.76,3.13a7.88,7.88,0,0,1-4.9-1.71l-.07-.06a5.06,5.06,0,0,1-2.3-4.37,5.38,5.38,0,0,1,1.46-4A9.73,9.73,0,0,1,175,50.83,27.18,27.18,0,0,1,180,49.68c1.77-.11,3.21-.17,4.21-.18,1.37.09,2.76.15,4.13.17Zm1.5-5.68c-1.8,0-3.63-.06-5.53-.18-1.18,0-2.65.06-4.59.19a30.36,30.36,0,0,0-5.7,1.27,12.59,12.59,0,0,0-5.12,2.93,8.37,8.37,0,0,0-2.37,6.18,8,8,0,0,0,3.59,6.81,10.86,10.86,0,0,0,6.7,2.3c4.74-.06,8.41-1.43,10.92-4.07a13.78,13.78,0,0,0,3.6-9.75V46.69Zm-1.5,5.68a10.72,10.72,0,0,1-2.78,7.69c-1.92,2-4.88,3.08-8.76,3.13a7.88,7.88,0,0,1-4.9-1.71l-.07-.06a5.06,5.06,0,0,1-2.3-4.37,5.38,5.38,0,0,1,1.46-4A9.73,9.73,0,0,1,175,50.83,27.18,27.18,0,0,1,180,49.68c1.77-.11,3.21-.17,4.21-.18,1.37.09,2.76.15,4.13.17Z"/><path d="M426.32,70.58a65,65,0,0,1-.36-9.22v-20q0-18.81-18.84-18.89c-.72,0-8.43,0-9.12.11L397,24.22l-2.77,4.25L393,30.27c1.8-.48,10.7-.73,12.71-.75q6.48,0,9.14,3c1.64,2,2.47,5.11,2.47,9.21q-4.59-.16-9.18-.17h-.36a31.35,31.35,0,0,0-13.85,3.32,15.54,15.54,0,0,0-5.44,4.68,12.44,12.44,0,0,0-2.2,7.47q.07,7.55,4.85,11.15,4.62,3.51,12.19,3.51a16.36,16.36,0,0,0,9.39-2.61,18,18,0,0,0,5-4.59h.1v6.07Zm-30.8-13.53A6.88,6.88,0,0,1,397.45,52,11.12,11.12,0,0,1,402,49.4a28.55,28.55,0,0,1,5.44-1.21q2.7-.18,4.41-.18c1.85.12,3.7.18,5.53.18v4.18a12.24,12.24,0,0,1-3.2,8.72c-2.21,2.34-5.5,3.54-9.84,3.6a9.37,9.37,0,0,1-5.81-2A6.55,6.55,0,0,1,395.52,57.05Z"/><path d="M417.33,46.69c-1.8,0-3.63-.06-5.53-.18-1.18,0-2.65.06-4.59.19a30.36,30.36,0,0,0-5.7,1.27,12.59,12.59,0,0,0-5.12,2.93A8.37,8.37,0,0,0,394,57.08a8,8,0,0,0,3.59,6.81,10.86,10.86,0,0,0,6.7,2.3c4.74-.06,8.41-1.43,10.92-4.07a13.78,13.78,0,0,0,3.6-9.75V46.69Zm-1.5,5.68a10.72,10.72,0,0,1-2.78,7.69c-1.92,2-4.88,3.08-8.76,3.13a7.88,7.88,0,0,1-4.9-1.71l-.07-.06a5.06,5.06,0,0,1-2.3-4.37,5.38,5.38,0,0,1,1.46-4,9.73,9.73,0,0,1,3.93-2.22,27.18,27.18,0,0,1,5.08-1.15c1.77-.11,3.21-.17,4.21-.18,1.37.09,2.76.15,4.13.17Zm1.5-5.68c-1.8,0-3.63-.06-5.53-.18-1.18,0-2.65.06-4.59.19a30.36,30.36,0,0,0-5.7,1.27,12.59,12.59,0,0,0-5.12,2.93A8.37,8.37,0,0,0,394,57.08a8,8,0,0,0,3.59,6.81,10.86,10.86,0,0,0,6.7,2.3c4.74-.06,8.41-1.43,10.92-4.07a13.78,13.78,0,0,0,3.6-9.75V46.69Zm-1.5,5.68a10.72,10.72,0,0,1-2.78,7.69c-1.92,2-4.88,3.08-8.76,3.13a7.88,7.88,0,0,1-4.9-1.71l-.07-.06a5.06,5.06,0,0,1-2.3-4.37,5.38,5.38,0,0,1,1.46-4,9.73,9.73,0,0,1,3.93-2.22,27.18,27.18,0,0,1,5.08-1.15c1.77-.11,3.21-.17,4.21-.18,1.37.09,2.76.15,4.13.17Zm12.35,19.71-.39-1.81c-.15-.69-.33-2.79-.33-8.91v-20c0-13.28-7-20.33-20.37-20.39-.36,0-7.71,0-8.07,0l-1,1.57L397,24.22c1-.12,9.08-.19,10.16-.21,11.68,0,17.35,5.74,17.35,17.39v20c0,4,.08,6.35.18,7.72h-5.27V63H417l-.44.67a17,17,0,0,1-4.65,4.2,15.07,15.07,0,0,1-8.53,2.33c-4.68,0-8.48-1.08-11.29-3.21s-4.2-5.38-4.25-10a10.82,10.82,0,0,1,1.92-6.59,14.1,14.1,0,0,1,4.88-4.21,30,30,0,0,1,13.19-3.17h.36c3,0,6.08.06,9.12.17l1.56.06V41.75q0-6.66-2.85-10.21c-2.06-2.33-5.51-3.52-10.27-3.52-1.57,0-10.07.17-11.53.45L393,30.27l-1.29,2c2.17-.79,11.51-1.2,14-1.23,3.85,0,6.55.84,8,2.46,1.21,1.5,1.92,3.76,2.09,6.72-2.55-.08-5.11-.12-7.63-.12h-.36a33.06,33.06,0,0,0-14.55,3.5,17.11,17.11,0,0,0-6,5.12,14,14,0,0,0-2.48,8.36c.06,5.51,1.89,9.65,5.44,12.34,3.34,2.53,7.75,3.81,13.13,3.81a18,18,0,0,0,10.2-2.86,32.34,32.34,0,0,0,2.8-2.11v3.84Zm-21-25.38a30.36,30.36,0,0,0-5.7,1.27,12.59,12.59,0,0,0-5.12,2.93A8.37,8.37,0,0,0,394,57.08a8,8,0,0,0,3.59,6.81,10.86,10.86,0,0,0,6.7,2.3c4.74-.06,8.41-1.43,10.92-4.07a13.78,13.78,0,0,0,3.6-9.75V46.69h-1.5c-1.8,0-3.63-.06-5.53-.18C410.62,46.51,409.15,46.57,407.21,46.7Zm8.62,5.67a10.72,10.72,0,0,1-2.78,7.69c-1.92,2-4.88,3.08-8.76,3.13a7.88,7.88,0,0,1-4.9-1.71l-.07-.06a5.06,5.06,0,0,1-2.3-4.37,5.38,5.38,0,0,1,1.46-4,9.73,9.73,0,0,1,3.93-2.22,27.18,27.18,0,0,1,5.08-1.15c1.77-.11,3.21-.17,4.21-.18,1.37.09,2.76.15,4.13.17Zm1.5-5.68c-1.8,0-3.63-.06-5.53-.18-1.18,0-2.65.06-4.59.19a30.36,30.36,0,0,0-5.7,1.27,12.59,12.59,0,0,0-5.12,2.93A8.37,8.37,0,0,0,394,57.08a8,8,0,0,0,3.59,6.81,10.86,10.86,0,0,0,6.7,2.3c4.74-.06,8.41-1.43,10.92-4.07a13.78,13.78,0,0,0,3.6-9.75V46.69Zm-1.5,5.68a10.72,10.72,0,0,1-2.78,7.69c-1.92,2-4.88,3.08-8.76,3.13a7.88,7.88,0,0,1-4.9-1.71l-.07-.06a5.06,5.06,0,0,1-2.3-4.37,5.38,5.38,0,0,1,1.46-4,9.73,9.73,0,0,1,3.93-2.22,27.18,27.18,0,0,1,5.08-1.15c1.77-.11,3.21-.17,4.21-.18,1.37.09,2.76.15,4.13.17Zm1.5-5.68c-1.8,0-3.63-.06-5.53-.18-1.18,0-2.65.06-4.59.19a30.36,30.36,0,0,0-5.7,1.27,12.59,12.59,0,0,0-5.12,2.93A8.37,8.37,0,0,0,394,57.08a8,8,0,0,0,3.59,6.81,10.86,10.86,0,0,0,6.7,2.3c4.74-.06,8.41-1.43,10.92-4.07a13.78,13.78,0,0,0,3.6-9.75V46.69Zm-1.5,5.68a10.72,10.72,0,0,1-2.78,7.69c-1.92,2-4.88,3.08-8.76,3.13a7.88,7.88,0,0,1-4.9-1.71l-.07-.06a5.06,5.06,0,0,1-2.3-4.37,5.38,5.38,0,0,1,1.46-4,9.73,9.73,0,0,1,3.93-2.22,27.18,27.18,0,0,1,5.08-1.15c1.77-.11,3.21-.17,4.21-.18,1.37.09,2.76.15,4.13.17Z"/><path d="M231,64.69a6.69,6.69,0,0,1-5.08-2.2,8.14,8.14,0,0,1-2.21-6.16V30.6h12.46v-7H223.73V10l-8.63,2.75V23.63H204.48v7H215.1V58q.27,13.67,14.25,13.67h.18a16.28,16.28,0,0,0,4.05-.5q1.93-.45,3.33-.81V63Q235,64.6,231,64.69Z"/><path d="M231,63.19A5.28,5.28,0,0,1,227,61.41a6.7,6.7,0,0,1-1.74-5.08V32.1h12.46v-10H225.23V8l-11.63,3.7V22.13H203v10H213.6v26c.19,9.9,5.64,15.14,15.75,15.14h.18a17.37,17.37,0,0,0,4.39-.54c1.3-.3,2.43-.57,3.36-.81l1.13-.29V60.87S233.27,63.14,231,63.19Zm4.39,6c-.66.17-1.39.34-2.2.53a14.72,14.72,0,0,1-3.68.45h-.18c-8.53,0-12.59-3.88-12.75-12.17V29.1H206v-4H216.6V13.84l5.63-1.79V25.13h12.46v4H222.23V56.33c0,3.11.9,5.55,2.61,7.18a8.18,8.18,0,0,0,6.21,2.68,14.46,14.46,0,0,0,4.36-.68Z"/><path d="M285.21,29.43q-6.37-6.83-17.31-6.92-11,.09-17.32,6.92-6.57,6.7-6.65,17.68a24.22,24.22,0,0,0,6.74,17.22q6.44,7.15,17.23,7.38,10.74-.22,17.31-7.38a24.71,24.71,0,0,0,6.53-17.22Q291.64,36.13,285.21,29.43ZM279,59q-3.56,5.62-11.11,5.71-7.56-.09-11.16-5.71a20.87,20.87,0,0,1-3.59-11.87,19.91,19.91,0,0,1,4-12.28q3.78-5.13,10.8-5.31a13.26,13.26,0,0,1,10.84,5.31,20.5,20.5,0,0,1,3.78,12.28A21.18,21.18,0,0,1,279,59Z"/><path d="M279.93,33.93c-2.85-3.79-6.89-5.78-12.07-5.91-5.14.13-9.17,2.12-12,5.91a21.37,21.37,0,0,0-4.26,13.18,22.38,22.38,0,0,0,3.84,12.69c2.68,4.18,6.85,6.33,12.43,6.39s9.71-2.22,12.34-6.39A22.77,22.77,0,0,0,284,47.11,22,22,0,0,0,279.93,33.93Zm-12,29.26c-4.54,0-7.78-1.69-9.91-5l0,0a19.41,19.41,0,0,1-3.34-11,18.51,18.51,0,0,1,3.66-11.39,11.51,11.51,0,0,1,9.55-4.7,11.74,11.74,0,0,1,9.66,4.68A19.16,19.16,0,0,1,281,47.11a19.82,19.82,0,0,1-3.28,11.07C275.64,61.5,272.42,63.14,267.92,63.19Zm12-29.26c-2.85-3.79-6.89-5.78-12.07-5.91-5.14.13-9.17,2.12-12,5.91a21.37,21.37,0,0,0-4.26,13.18,22.38,22.38,0,0,0,3.84,12.69c2.68,4.18,6.85,6.33,12.43,6.39s9.71-2.22,12.34-6.39A22.77,22.77,0,0,0,284,47.11,22,22,0,0,0,279.93,33.93Zm-12,29.26c-4.54,0-7.78-1.69-9.91-5l0,0a19.41,19.41,0,0,1-3.34-11,18.51,18.51,0,0,1,3.66-11.39,11.51,11.51,0,0,1,9.55-4.7,11.74,11.74,0,0,1,9.66,4.68A19.16,19.16,0,0,1,281,47.11a19.82,19.82,0,0,1-3.28,11.07C275.64,61.5,272.42,63.14,267.92,63.19Zm18.39-34.78c-4.53-4.85-10.72-7.34-18.42-7.4S254,23.56,249.5,28.4s-7,11-7.07,18.72a25.73,25.73,0,0,0,7.13,18.22c4.55,5.06,10.71,7.71,18.37,7.87,7.56-.16,13.74-2.81,18.38-7.86a26.28,26.28,0,0,0,6.93-18.26C293.17,39.42,290.84,33.13,286.31,28.41Zm-18.38,41.8c-6.83-.14-12.11-2.39-16.18-6.92a22.82,22.82,0,0,1-6.32-16.17c0-6.88,2.15-12.48,6.22-16.64l0,0c4-4.28,9.28-6.39,16.21-6.44s12.23,2.16,16.24,6.46,6.05,9.76,6.11,16.62a23.38,23.38,0,0,1-6.13,16.23C280,67.81,274.67,70.07,267.93,70.21ZM267.86,28c-5.14.13-9.17,2.12-12,5.91a21.37,21.37,0,0,0-4.26,13.18,22.38,22.38,0,0,0,3.84,12.69c2.68,4.18,6.85,6.33,12.43,6.39s9.71-2.22,12.34-6.39A22.77,22.77,0,0,0,284,47.11a22,22,0,0,0-4.09-13.18C277.08,30.14,273,28.15,267.86,28Zm.06,35.17c-4.54,0-7.78-1.69-9.91-5l0,0a19.41,19.41,0,0,1-3.34-11,18.51,18.51,0,0,1,3.66-11.39,11.51,11.51,0,0,1,9.55-4.7,11.74,11.74,0,0,1,9.66,4.68A19.16,19.16,0,0,1,281,47.11a19.82,19.82,0,0,1-3.28,11.07C275.64,61.5,272.42,63.14,267.92,63.19Z"/><path d="M339.48,29.43q-6.39-6.83-17.32-6.92-11,.09-17.31,6.92-6.57,6.7-6.66,17.68a24.19,24.19,0,0,0,6.75,17.22q6.42,7.15,17.22,7.38,10.75-.22,17.32-7.38A24.7,24.7,0,0,0,346,47.11Q345.91,36.13,339.48,29.43ZM333.27,59q-3.56,5.62-11.11,5.71Q314.6,64.6,311,59a20.8,20.8,0,0,1-3.6-11.87,19.86,19.86,0,0,1,4-12.28q3.78-5.13,10.79-5.31A13.26,13.26,0,0,1,333,34.83a20.5,20.5,0,0,1,3.78,12.28A21.18,21.18,0,0,1,333.27,59Z"/><path d="M334.2,33.93A14.78,14.78,0,0,0,322.12,28c-5.14.13-9.16,2.12-11.95,5.91a21.37,21.37,0,0,0-4.26,13.18,22.38,22.38,0,0,0,3.84,12.69c2.68,4.18,6.85,6.33,12.43,6.39s9.71-2.22,12.35-6.39a22.77,22.77,0,0,0,3.75-12.69A22.1,22.1,0,0,0,334.2,33.93Zm-12,29.26c-4.54,0-7.78-1.69-9.91-5l0,0a19.49,19.49,0,0,1-3.34-11,18.46,18.46,0,0,1,3.67-11.39,11.49,11.49,0,0,1,9.54-4.7,11.72,11.72,0,0,1,9.66,4.68,19.16,19.16,0,0,1,3.5,11.41A19.82,19.82,0,0,1,332,58.18C329.91,61.5,326.68,63.14,322.18,63.19Zm12-29.26A14.78,14.78,0,0,0,322.12,28c-5.14.13-9.16,2.12-11.95,5.91a21.37,21.37,0,0,0-4.26,13.18,22.38,22.38,0,0,0,3.84,12.69c2.68,4.18,6.85,6.33,12.43,6.39s9.71-2.22,12.35-6.39a22.77,22.77,0,0,0,3.75-12.69A22.1,22.1,0,0,0,334.2,33.93Zm-12,29.26c-4.54,0-7.78-1.69-9.91-5l0,0a19.49,19.49,0,0,1-3.34-11,18.46,18.46,0,0,1,3.67-11.39,11.49,11.49,0,0,1,9.54-4.7,11.72,11.72,0,0,1,9.66,4.68,19.16,19.16,0,0,1,3.5,11.41A19.82,19.82,0,0,1,332,58.18C329.91,61.5,326.68,63.14,322.18,63.19Zm18.39-34.78c-4.53-4.85-10.72-7.34-18.42-7.4s-13.89,2.55-18.39,7.39-7,11-7.07,18.72a25.73,25.73,0,0,0,7.13,18.22c4.56,5.06,10.72,7.71,18.37,7.87,7.56-.16,13.75-2.81,18.39-7.86a26.23,26.23,0,0,0,6.92-18.26C347.44,39.42,345.1,33.13,340.57,28.41Zm-18.38,41.8c-6.82-.14-12.1-2.39-16.17-6.92a22.82,22.82,0,0,1-6.33-16.17c.06-6.88,2.15-12.48,6.23-16.64l0,0c4-4.28,9.28-6.39,16.2-6.44s12.23,2.16,16.25,6.46,6,9.76,6.1,16.62a23.38,23.38,0,0,1-6.13,16.23C334.25,67.81,328.93,70.07,322.19,70.21ZM322.12,28c-5.14.13-9.16,2.12-11.95,5.91a21.37,21.37,0,0,0-4.26,13.18,22.38,22.38,0,0,0,3.84,12.69c2.68,4.18,6.85,6.33,12.43,6.39s9.71-2.22,12.35-6.39a22.77,22.77,0,0,0,3.75-12.69,22.1,22.1,0,0,0-4.08-13.18A14.78,14.78,0,0,0,322.12,28Zm.06,35.17c-4.54,0-7.78-1.69-9.91-5l0,0a19.49,19.49,0,0,1-3.34-11,18.46,18.46,0,0,1,3.67-11.39,11.49,11.49,0,0,1,9.54-4.7,11.72,11.72,0,0,1,9.66,4.68,19.16,19.16,0,0,1,3.5,11.41A19.82,19.82,0,0,1,332,58.18C329.91,61.5,326.68,63.14,322.18,63.19Z"/><path d="M374.1,22.51A12.22,12.22,0,0,0,367,24.8a16.49,16.49,0,0,0-5.17,6.07h-.18V23.63h-8.1v47h8.64V49.22q0-9,3.6-14a10.8,10.8,0,0,1,8.3-5.12v-7.6Z"/><path d="M374.13,31.61v-3a12.24,12.24,0,0,0-9.52,5.76C362,38,360.73,43,360.73,49.22V69.08h-5.64V25.13h5.1v7.24h2.59l.42-.82A15.15,15.15,0,0,1,367.89,26a10.63,10.63,0,0,1,6.21-2h0V21h0a13.77,13.77,0,0,0-7.93,2.57,17.21,17.21,0,0,0-3,2.68V22.13h-11.1v50h11.64V49.22c0-5.62,1.11-10,3.34-13.15a9.3,9.3,0,0,1,7.16-4.46Z"/><path d="M464.6,22.51a19.18,19.18,0,0,0-8.72,1.93,17,17,0,0,0-6.39,5.89h-.18V1.5h-8.64V70.58h8.64V48.86q0-8.78,3.51-14t10.79-5.31q10.31.45,9.94,16.73V70.58h8.64V42.7Q482.42,22.87,464.6,22.51Z"/><path d="M464.6,21a20.78,20.78,0,0,0-9.43,2.11,18.79,18.79,0,0,0-4.36,3.2V0H439.17V72.08h11.64V48.86c0-5.52,1.1-10,3.25-13.19s5.2-4.59,9.49-4.65c2.18.1,8.83.39,8.5,15.23V72.08h11.64V42.72C483.84,28.77,477.25,21.26,464.6,21Zm16.09,48.07h-5.64V46.29c.26-11.78-3.57-17.92-11.46-18.27-5.35.07-9.4,2.08-12,6-2.49,3.74-3.76,8.74-3.76,14.86V69.08h-5.64V3h5.64V31.83h2.5l.44-.69a15.46,15.46,0,0,1,5.8-5.36,17.74,17.74,0,0,1,8-1.77c11,.22,16.26,6.33,16.12,18.69Z"/><path class="cls-1" d="M167.6,20.33l-8.74,13.4s-17.32.16-28,18.24c0,0,11.15-13.87,20.34-12.06-.3,6.48-.45,13.11-.45,13.11s-17.33.45-26.37,20.19H113.81S113.81,19.72,167.6,20.33Z"/><polyline class="cls-2" points="172.04 20.32 171.57 21.05 170.55 22.62 169.5 24.22 166.73 28.47 165.56 30.27 164.27 32.25 164.1 32.51"/><polyline class="cls-2" points="374.13 32.01 374.4 31.61 374.41 31.59"/><path d="M388.9,21,382,31.61h-5.92c-.35,0-.7-.05-1-.05s-.43,0-.64,0l-.18,0h-.1V21Z"/><path d="M376.09,31.61h-1.86l.18,0c.21,0,.42,0,.64,0S375.74,31.58,376.09,31.61Z"/><polyline class="cls-2" points="381.63 32.19 382.01 31.61 388.9 21.01 389.28 20.43"/></g></g></svg>