<svg xmlns="http://www.w3.org/2000/svg" xmlns:xlink="http://www.w3.org/1999/xlink" width="48" height="12.34" viewBox="0 0 48 12.34"><defs><style>.cls-1{fill:#ff585d;}.cls-2{fill:url(#linear-gradient);}</style><linearGradient id="linear-gradient" y1="723.27" x2="46.12" y2="723.27" gradientTransform="translate(0 -717.1)" gradientUnits="userSpaceOnUse"><stop offset="0" stop-color="#002e5d"/><stop offset="1" stop-color="#ff585d"/></linearGradient></defs><g id="Layer_2" data-name="Layer 2"><g id="Layer_1-2" data-name="Layer 1"><g id="Layer_2-2" data-name="Layer 2"><g id="Layer_1-2-2" data-name="Layer 1-2"><path class="cls-1" d="M46.56,1.83h-.13V1h-.29V.91h.72V1h-.3v.8Zm1-.2h0l-.32-.51v.71h-.13V.91h.14l.32.5.33-.5H48v.93h-.13V1.12Z"/><path class="cls-2" d="M33.42.92a1.36,1.36,0,0,0-.79.64.45.45,0,0,1-.4.24A.39.39,0,0,1,32,1.73a.46.46,0,0,1-.17-.63h0A2.31,2.31,0,0,1,33.15,0a.46.46,0,0,1,.58.3h0A.48.48,0,0,1,33.42.92Zm8.23,2.79a.47.47,0,0,0,.28-.09A.45.45,0,0,0,42,3h0a.71.71,0,0,1-.14-.42.73.73,0,0,1,.71-.72h1.1a.46.46,0,0,0,.47-.46A.47.47,0,0,0,43.69.9h-1.1A1.65,1.65,0,0,0,41,2.54a1.69,1.69,0,0,0,.34,1A.38.38,0,0,0,41.65,3.71Zm2.47-.28h-.56a.46.46,0,0,0-.46.46.47.47,0,0,0,.46.47h.56a1.09,1.09,0,1,1,0,2.17h-2.7a.47.47,0,1,0,0,.93h2.7a2,2,0,0,0,0-4Zm-11.9-.88a.45.45,0,0,0-.47.46h0V7a.47.47,0,0,0,.94,0h0V3A.47.47,0,0,0,32.22,2.55ZM16.34,4.18A3.27,3.27,0,1,1,13.07.91h0A3.28,3.28,0,0,1,16.34,4.18Zm-.92,0a2.34,2.34,0,1,0-2.34,2.34h0A2.34,2.34,0,0,0,15.42,4.18Zm8.15,0a.47.47,0,0,1-.47.46H18a2.35,2.35,0,0,0,2.3,1.89.47.47,0,1,1,0,.93,3.27,3.27,0,1,1,3.28-3.28Zm-1-.47a2.35,2.35,0,0,0-4.61,0Zm-14,0H7.7a.47.47,0,1,0,0,.93h.9a.47.47,0,0,0,.47-.46h0a.48.48,0,0,0-.47-.47Zm7.28,4.9a.47.47,0,0,0-.46.46h0a2.35,2.35,0,0,1-4.7,0,.46.46,0,0,0-.46-.47h0a.46.46,0,0,0-.46.45v0a3.27,3.27,0,0,0,6.54,0,.47.47,0,0,0-.46-.47Zm8.4-4.43V7a.47.47,0,0,0,.93,0h0V4.18a2.34,2.34,0,1,1,4.68,0V5.35a.47.47,0,1,0,.93,0V4.18a3.27,3.27,0,1,0-6.54,0ZM0,4.18V5.35a.47.47,0,0,0,.47.47.47.47,0,0,0,.46-.47V4.18a2.34,2.34,0,1,1,4.68,0V7a.47.47,0,0,0,.47.46A.46.46,0,0,0,6.54,7h0V4.18A3.27,3.27,0,1,0,0,4.17ZM39.7.91a.46.46,0,0,0-.47.46h0V4.18a2.34,2.34,0,1,1-4.68,0h0V2.29a.47.47,0,1,0-.93,0V4.18a3.27,3.27,0,1,0,6.54,0V1.37A.46.46,0,0,0,39.7.91Z"/></g></g></g></g></svg>