<svg xmlns="http://www.w3.org/2000/svg" width="812.31" height="296.44" viewBox="0 0 812.31 296.44"><defs><style>.cls-1{fill:#0e589e;}.cls-2{fill:#02539b;}.cls-3{fill:#e21b38;}.cls-4{fill:#029f5f;}.cls-5{fill:#0c579e;}.cls-6{fill:#88939a;}.cls-7{fill:#69737b;}.cls-8{fill:#ad152c;}.cls-9{fill:#677179;}.cls-10{fill:#0fac78;}.cls-11{fill:#0d569d;}.cls-12{fill:#07844f;}.cls-13{fill:#0fac79;}.cls-14{fill:#08549c;}.cls-15{fill:#1b5ea2;}.cls-16{fill:#e88587;}.cls-17{fill:#2a6aa9;}.cls-18{fill:#ced1d4;}.cls-19{fill:#003a8d;}.cls-20{fill:#e95369;}</style></defs><g id="Layer_2" data-name="Layer 2"><g id="Layer_1-2" data-name="Layer 1"><path class="cls-1" d="M183.63,203.71q0,41.13,0,82.24c0,1.49-.13,3-.2,4.47l-1.81,3.95H148.33c-6.32,0-12.67-.24-19,.19-6.74.47-11.05-2.64-14.14-8.1-4.32-7.63-8.53-15.33-12.82-23q-27.78-49.52-55.62-99c-1.14-2-1.74-4.85-5.64-5.14-.16,1.82-.46,3.67-.46,5.51q-.06,39.38,0,78.76c0,14.62.11,29.24.15,43.86,0,2.46.45,5.12-3,6.88H3.66C.68,292.71.82,290.28.8,288Q.71,276.77.72,265.55v-155a6,6,0,0,1,5.8-3.18c18.47,0,36.94,0,55.42,0,4,0,6.5,1.87,8.36,5.19C76,122.76,81.81,133,87.54,143.18Q113,188.57,138.37,234c1,1.86,1.76,4,5.34,3.36V193.7c-.08-11.72-.22-23.44-.23-35.16,0-14.37.05-28.74.1-43.11,0-1.48.16-3,.25-4.43,0-2.92,2.09-3.57,4.37-3.59,10.12-.07,20.24-.11,30.36,0,3.55,0,4.93,1.57,5,5.37.1,5.46-.06,10.92-.07,16.39q-.06,26.82-.1,53.63C183.48,189.77,183.63,196.74,183.63,203.71Z"/><path class="cls-2" d="M585.87,179.09a84.46,84.46,0,0,0-9.28-27.67c-11.93-21.6-30.72-34.56-54-41.39-16.73-4.91-33.88-6.18-51.28-5.31-14.68.73-29.06,2.74-42.8,8.19-25,9.94-42.66,27-51.2,52.92-4.78,14.53-5.95,29.41-4.93,44.55a94.59,94.59,0,0,0,9.75,37c11.33,22.33,30.12,35.58,53.47,43a140.28,140.28,0,0,0,44,6.1c20.55-.1,40.56-2.94,59.28-12.06,20.62-10.05,35.33-25.54,42.82-47.35C588.18,218.12,589,198.69,585.87,179.09Zm-60.18,61.29c-7.42,13.41-18.94,20.77-33.84,23.25-12.14,2-24.08,1.46-35.68-3C444,256,435.93,247.27,431.24,235.28c-3.15-8.09-4.46-16.51-5.2-25.18a111,111,0,0,1,3-37.82,47.39,47.39,0,0,1,39.49-35.2c11.87-1.71,23.45-1.08,34.68,3.33s19.09,12.24,24.17,23.07c4.4,9.37,6.87,21.9,6.88,41.69C534.1,214.45,532.55,228,525.69,240.38Z"/><path class="cls-2" d="M365.43,234.58c-1.4-11.38-6.3-20.74-15.95-27.46-7.75-5.4-16.38-8.43-25.51-10.34-1.85-.39-3.67-.93-5.49-1.41,0-.36,0-.72,0-1.09a26.91,26.91,0,0,1,3.24-1.58c3.1-1.09,6.39-1.76,9.34-3.16,11.05-5.21,19.79-12.71,22.8-25.16,2.59-10.75,2.09-21.46-2.59-31.51a37.74,37.74,0,0,0-8.72-11.81c-5.68-5.13-12.78-8.09-20.25-10-12.63-3.29-25.52-4-38.49-4q-35.68.06-71.38,0c-3,0-6-.19-8.81,2.38V140q0,37.38,0,74.74c0,19.93.13,39.86.19,59.78v14.89c.49,4.23,1.2,4.93,6.13,4.93q38.18.07,76.36,0c13.12,0,26.17-1,39-4,10.78-2.57,20.54-7.14,28.11-15.68C363.55,263.1,367.28,249.69,365.43,234.58ZM254.62,133.82c.81-.43,1.53-1.15,2.24-1.13,9.88.23,19.82-1.49,29.64,1.18,9.45,2.57,14.52,8.32,16.12,17.95a32.42,32.42,0,0,1-1.33,16.58c-3.55,9.9-11.31,14.35-21.3,15.27-6.27.57-12.58.66-18.87.81a49.16,49.16,0,0,1-6.5-.74Zm57.3,116.38c-4.13,12.59-14.05,17.29-26.15,18.19-8.86.66-17.8.4-26.7.43-1.4,0-2.8-.6-4.68-1,0-7.93.06-15.53,0-23.13-.08-7.95-.42-15.89-.4-23.83,0-3.84-1.17-8.08,2.53-11.12.69-.34,1.37-1,2.06-1q10.4-.1,20.8,0c.7,0,1.4.6,2.11.91,3.29.39,6.61.6,9.86,1.21,10.79,2,19.43,7.95,21.51,20.76C313.87,237.92,313.92,244.11,311.92,250.2Z"/><path class="cls-3" d="M700.81,243.55q5-6.47,10.09-12.94c5-3.43,7.82-8.58,9.89-13.9a62.34,62.34,0,0,0,3.87-30,49.36,49.36,0,0,0-4.75-17.3,104.72,104.72,0,0,0-14.6-21.11c-7.8-9-16.88-16.55-25.91-24.16-6.39-5.4-13.24-10.25-19.93-15.28-3.18-2.4-6.46-4.67-9.69-7l-2.7,2.9c.13-1.88.23-3.27.3-4.34l-4.14-3.64-7.51,1.46.14,0-1.09-1.07.07.14L633.25,96c-7.5-7.28-12.37-15.49-9-26.41a25.16,25.16,0,0,1,9.42-13.05c4.34-3.16,9.22-5.58,14.14-8.5.07,7.53,4,12.68,8.31,17.47,10.07,11.27,22.11,20.34,34,29.61,12.47,9.74,24.76,19.71,37.12,29.58-1.39,2.54-3.18,4.61-6.21,5.2-.4-.21-.79-.43-.17-.09-.7-.11-.24,0,.22,0l-.45,1.31,7.23,6.78,9.6,10.26L739,144.8l-.08.09,2.06-2.17c3,.83,5,3,6.48,5.52a54.39,54.39,0,0,1,7.67,25.23c.49,10.59-3.84,19.44-9.53,27.84-7.94,11.7-17.92,21.6-28.27,31.11-4.82,4.43-10.18,8.26-15.3,12.37Z"/><path class="cls-4" d="M682.92,164.85l7.13,7.87a24.47,24.47,0,0,0,1.81,3.35c7.57,10,9.54,20.94,5.53,32.89-3.64,10.86-10.38,19.74-18.14,27.89a211.42,211.42,0,0,1-34.35,28.81c-1,.72-1.59,2.19-2.37,3.31l-.19-.17.12.22c-1.5-.82-2.24-.25-2.44,1.33l-1.93,1.11-.57-.44-.23,1-1.21.48-1.55-.42,1.49-2.73q11.06-10.17,22.11-20.33c2.3-2.12,4.54-4.3,6.8-6.45l2.59-3.39h.2l.88-.92,0-.14c2.28.13,2-1.52,2-2.92l.05-.1c.84-.35,2-.47,2.47-1.09a36.55,36.55,0,0,0,8.29-32.34c-1.92-8.68-6.66-16.13-12.33-22.89-9.73-11.57-21.38-21.07-33.38-30.15-4.79-3.62-9.49-7.36-14.4-11.16v6.15l-2-1.35-1.53,1.23-.06-.18L616,141.9l0,0V139.4H612.7l-.07-.09c.28-1.59-.31-2.28-2-1.88l0-.09-1.59-1.44a27.2,27.2,0,0,1-10.16-14.66,16.92,16.92,0,0,1,2-14.14c3.22-5.14,7-10.06,13.17-12.17.35.69,1,1.37,1,2.06.09,6,2.93,10.82,6.7,15,7.18,8,15.41,14.93,23.79,21.66,9.08,7.3,18,14.78,27,22.16,2.47,2,5,4,7.5,6h0l.86,1C681.59,163.5,682.26,164.17,682.92,164.85Z"/><path class="cls-1" d="M173.22,29.88c0-1.45-.13-2.89-.21-4.56l-7,1.14c0,10.58.06,20.95,0,31.31,0,3.77.27,7.68-2.76,11.19-6.08,3.25-12.79,1.17-20.06,1.46,2-4,3.58-7.17,5.16-10.4s3.14-6.47,4.62-9.51c-8.73-10.94-23.27-11-35-.42l11,20.17C117,71.65,109,71,104.79,68.17a30.42,30.42,0,0,0,0-4.26c-.58-4.22-1.91-8.11-5.85-10.46-8.44-5-22.68-2.15-23.92,10.63-.4,4.15-2.23,5.89-6.46,6.3-3.88.38-7.83.08-12.18.08-.28-2.66-.66-4.58-.67-6.5-.06-11.29,0-22.58,0-33.88,0-1.44-.14-2.89-.22-4.38l-6.69.81c0,14.53-.1,28.63.06,42.73.05,4.82,3,7.89,7.7,8,6.74.15,13.58,1,20.05-1.41,9.4,9.23,19.76,9.31,26.85.36a64.87,64.87,0,0,0,8.34,1.11c15.31.11,30.61.27,45.91,0,11.28-.22,15.37-4.74,15.59-16v-1Q173.23,45.08,173.22,29.88ZM97.67,71C94.79,75.7,90.78,77.11,86.13,75c-3.57-1.6-5.09-6.59-3.56-11.65,1.25-4.09,4.53-6.14,8.7-5.42C96.55,58.87,98,61.86,97.67,71Zm29.42-19.11c6-3,11.55-3,17.89-.14-2.94,6.11-5.64,11.69-8.75,18.16Z"/><path class="cls-5" d="M564.07,26.17l6.7-1.15c.12,1.57.29,2.83.3,4.09,0,11.14.08,22.27,0,33.4C571,72,566.12,76.5,556.57,77A28.81,28.81,0,0,1,542,74.09c-8.13,4.61-16.42,3.51-24.81.13-8,4.09-16.13,3.73-24.55,0-3.47,2.57-7.62,3.07-12,2.87s-9,0-13.47-.06c-9.71-.19-15.43-5.7-15.79-15.38-.2-5.14,0-10.29,0-15l6.79-6.54c.77,8.37-1.1,17.21,1.43,25.36,2.28,3.68,5.34,4.76,9.15,4.66,4.31-.12,8.63.12,12.95.21,5.06.1,7.48-1.83,7.65-6.94.25-7.28.06-14.58.06-21.87V26.3l7.43-1.21V68.32c3.56,2.16,7.74,2,11.85,1.59,3.29-.33,5.22-2.33,5.5-6,.42-5.45.37-10.94.49-16.41,0-1.94,0-3.88,0-6l6.46-.51V68.23c4.23,2.49,8.56,2.19,12.79,1.47,3.33-.57,5.33-3.76,5.38-8,.09-6.63,0-13.25,0-20.25L546,41V68.12c3.89,2.69,8.31,2.48,12.73,1.62a5.68,5.68,0,0,0,4.5-4.82,42.45,42.45,0,0,0,.84-7.36C564.13,47.27,564.07,37,564.07,26.17Z"/><path class="cls-6" d="M663.27,20.39c.28,5.25,0,10.62,1,15.72,1.07,5.34,4.31,9.84,8.19,13.81,7.07,7.21,15.06,13.25,23.1,19.3C705.93,77,716,85.21,726,93.44c6.87,5.65,13.84,11.27,20.08,17.57,10.08,10.16,19.79,20.79,25.6,34.13,6.95,16,8.29,32.06-.37,48q-3.52,6.48-7.36,12.79a11.11,11.11,0,0,1-2.52,2.22l-.73-.61c2.22-6.31,4.4-12.64,6.65-18.94,2.93-8.21,2.65-16.66,1.17-25A65.88,65.88,0,0,0,755.77,134a169.55,169.55,0,0,0-16-17.88C725.63,102.61,709.64,91.28,694,79.51a323.78,323.78,0,0,1-25-21c-5.95-5.51-10.68-12.35-11.58-20.63-.7-6.44,0-13,5-18.15C662.78,20,663,20.18,663.27,20.39Z"/><path class="cls-1" d="M400.72,26.39c0,11,0,21.58,0,32.21a41.44,41.44,0,0,1-.46,5.44,6.58,6.58,0,0,1-5.75,6c-2.18.38-4.48.08-7.06.08V48.33C380,45.64,373,44.58,366.49,49.69c-4.72,3.72-6.19,12-3.68,18.94,2.85,8,9.6,8.69,16.69,8.56-.64,6.7-3,8.13-15,9l3.43,6.54c5-.16,9.69-.18,14-3.1,4.43-3,5-7.76,6.06-12.65,2.38,0,4.53,0,6.67,0,6.49-.14,12.75-4.61,12.56-11.95l.06-38.81C404.9,24.34,402.86,26.18,400.72,26.39ZM380.19,70.08h-7.07c-4.84-4.09-5.92-7.87-3.76-12.39,1.91-4,4.55-5.06,10.83-4Z"/><path class="cls-7" d="M786.79,97.08l-1.09,2.53-.87-.58-5.42,3.38c-3.25-2.57-6.13-4.75-8.9-7-8.21-6.83-16.35-13.76-24.58-20.56-9.36-7.75-18.62-15.64-28.25-23-9.09-7-17.16-15-25.06-23.25-4.43-4.61-8.42-9.65-10.2-16C681.15,8,681.22,3.77,685.64,0c1.18,10.52,7.55,17.39,14.17,24.26,12.24,12.7,26.08,23.46,40.08,34.08q16.47,12.5,32.54,25.49C777.41,87.88,781.9,92.54,786.79,97.08Z"/><path class="cls-8" d="M635.73,98.26l7.51-1.46,4.14,3.64c-.07,1.07-.17,2.46-.3,4.34l2.7-2.9c3.23,2.32,6.51,4.59,9.69,7,6.69,5,13.54,9.88,19.93,15.28,9,7.61,18.11,15.18,25.91,24.16a104.72,104.72,0,0,1,14.6,21.11,49.36,49.36,0,0,1,4.75,17.3,62.34,62.34,0,0,1-3.87,30c-2.07,5.32-4.9,10.47-9.89,13.9,1.08-2.36,2.08-4.77,3.26-7.09,8.22-16.09,7.75-32.35.46-48.47-6.42-14.19-16.23-25.88-28.35-35.62q-25.07-20.16-50.16-40.28C635.89,99,635.86,98.56,635.73,98.26Z"/><path class="cls-9" d="M802.28,116.69a63.75,63.75,0,0,1,9.79,40,64.62,64.62,0,0,1-6.17,21.67,102.68,102.68,0,0,1-20.31,28.71,223,223,0,0,1-34.93,28.59,38.82,38.82,0,0,1-4.45,2.28l-.61-.87a8.73,8.73,0,0,1,1.29-1.64A222.75,222.75,0,0,0,774,210.73c8.31-9.11,15.68-19,21.16-30.07,5.57-11.25,8.77-23.18,7.39-35.79-.58-5.29-2.58-10.46-4.23-15.59a71.43,71.43,0,0,0-3.65-8C796.72,118.93,799,117,802.28,116.69Z"/><path class="cls-10" d="M642.53,269c.78-1.12,1.32-2.59,2.37-3.31a211.42,211.42,0,0,0,34.35-28.81c7.76-8.15,14.5-17,18.14-27.89,4-12,2-22.87-5.53-32.89a24.47,24.47,0,0,1-1.81-3.35l6-2.44c.91.81,2.88,1.88,3.88,3.54,9.13,15,9.7,30.21.84,45.65-7.81,13.64-19.16,23.88-31.65,32.92-7.8,5.65-16.19,10.51-24.33,15.69A12.65,12.65,0,0,1,642.53,269Z"/><path class="cls-11" d="M17.65,56.13l10-.91c4.92-4,3.23-9.21,4.05-14.28l6.34-.87c.55,6.29.58,12-2.31,17.36a8.21,8.21,0,0,0-.73,4.7c.59,4.21,1.53,8.37,2.45,13.19C33.66,75.9,30,76.68,26.27,77a80.83,80.83,0,0,1-11.95.15C5.73,76.51,1,72,.23,63.38-.23,58.45.15,53.45.15,47.81l6.93-5.76c0,1.43,0,2.91,0,4.39.19,5.62.24,11.26.67,16.87a7.15,7.15,0,0,0,6.66,7c4.69.49,9.48.12,14.8.12l-1.09-7.72-7.81-.44Z"/><path class="cls-12" d="M617.76,143.5l1.53-1.23,2,1.35v-6.15c4.91,3.8,9.61,7.54,14.4,11.16,12,9.08,23.65,18.58,33.38,30.15,5.67,6.76,10.41,14.21,12.33,22.89A36.55,36.55,0,0,1,673.06,234c-.51.62-1.63.74-2.47,1.09.85-1.76,1.63-3.57,2.57-5.28,6.89-12.56,5.76-24.66-1.91-36.47-7-10.76-16-19.55-26-27.53C636.06,158.43,626.92,150.94,617.76,143.5Z"/><path class="cls-13" d="M680.07,161.79c-2.5-2-5-3.94-7.5-6-9-7.38-17.93-14.86-27-22.16C637.18,126.94,629,120,621.77,112c-3.77-4.2-6.61-9-6.7-15,0-.69-.68-1.37-1-2.06L619,92c.09,5.68,2.81,9.9,6.21,13.39a252.85,252.85,0,0,0,19.54,18.36c10,8.28,20.4,16,30.61,24,3,2.33,5.94,4.69,8.79,7.17a11.35,11.35,0,0,1,1.76,2.81l-3.64,2.34-.85-.81Z"/><path class="cls-1" d="M587.14,25V76.7h-6.37V26.16Z"/><path class="cls-14" d="M189.18,25.33V77.1h-6.41V26.51Z"/><path class="cls-14" d="M424,24.92V76.86h-6.55V26.49Z"/><path class="cls-15" d="M482.7,45c-.8,1.82-1.24,2.83-1.74,4h-16.6l4.45-5c-1-3.38-.82-7,2.94-9.56,3.08-2.07,6.23-1.29,10.33,2.3l-1.91,2.24-5.85-2c-2.46,2.8-2.54,5.16-.64,8.07Z"/><path class="cls-16" d="M727.81,138l-7.23-6.78.45-1.31,0,.06c3-.59,4.82-2.66,6.21-5.2,1.63,1.58,3.52,3,4.82,4.77,2.4,3.32,1.92,4.51-1.69,6.36A14.13,14.13,0,0,0,727.81,138Z"/><path class="cls-15" d="M38.16,32H31.53V24h6.63Z"/><path class="cls-6" d="M802.28,116.69c-3.24.35-5.56,2.24-7.63,4.55l-4-6.12,7-5.07Z"/><path class="cls-11" d="M287.36,24.89v8h-6.67v-8Z"/><path class="cls-14" d="M514.42,32.72V24.63h6.69v8.09Z"/><path class="cls-17" d="M233.88,94.73h-6V86.62h6Z"/><path class="cls-17" d="M244.15,94.64H238v-8.1l6.16-.43Z"/><path class="cls-1" d="M540.34,94.54V86.39h6.56v8.15Z"/><path class="cls-15" d="M18.12,86.94V94.8h-6V86.94Z"/><path class="cls-15" d="M22.16,87h6v7.72h-6Z"/><path class="cls-1" d="M352.48,53c-1.92-7.93-7.2-12.72-15.37-12.72-6.29,0-11.47,2.83-16,6.83-2.68,2.35-5,5.11-8.11,8.29V27.81l-7.6,1.2V70.45c-6.42-.4-12.6,1.2-18.14-1.85V41.19c-2.43.54-5.17-1.3-6.58,2q-.06,10.44-.11,20.88c-.18.29-.37.56-.52.85-2.48,4.94-4.86,6.18-10.34,5.39-4.17-.6-4.94-1.64-6.25-7.57-.93-4.18-1.93-8.36-3.16-12.47a12,12,0,0,0-10.35-8.84c-4.34-.58-8.81-.12-13.53-.12,2.54,9.74,4.94,18.91,7.45,28.5-4.1.23-7.56.65-11,.6C225,70.27,221.68,66.88,221.61,59c-.05-5.75,0-11.5,0-18.09l-7.09,7.45c0,4.43-.21,8.92,0,13.39.52,9,5.2,14.39,13.49,15.12A83.14,83.14,0,0,0,242,76.68a93.65,93.65,0,0,0,10-1.82c-2.16-9.22-4.19-17.84-6.24-26.59h6a51.05,51.05,0,0,1,2.8,6.57c1.15,4.15,1.92,8.41,2.91,12.6,1.46,6.21,4.76,9.1,11,9.58,5,.37,10,.27,13.79-2.23l10.19,2.09h45.87c7.1-.26,12.35-4.4,13.83-11.18A27.47,27.47,0,0,0,352.48,53Zm-7.4,9.66c-.76,5.51-3.93,8-9.53,8-7.28.09-14.57,0-22.79,0,4.64-10.58,10.6-18.75,20.77-23,4.8-2,9.58.23,10.9,5.29A25.55,25.55,0,0,1,345.08,62.62Z"/><path class="cls-6" d="M680.07,161.79l1.3-2.52.85.81,3.64-2.34,2.72,3.47-5.66,3.64c-.66-.68-1.33-1.35-2-2l-.86-1Z"/><path class="cls-13" d="M636,269.35l-1.49,2.73,1.55.42L627,277.62l-.64-.92Z"/><path class="cls-18" d="M725.94,249.52l8.27-6.16.91,1.35c-1.93,3.3-5.43,4.22-9.07,4.93Z"/><path class="cls-19" d="M203.76,274.53v0Z"/><path class="cls-18" d="M755,216.67l2.44-6c2.07,3.57,1.81,4.09-2.46,6Z"/><path class="cls-20" d="M700.81,243.55l1.25,1.24c-1.3,1.8-2.53,3.71-6.35,3.61Z"/><path class="cls-18" d="M664,16.68c-.09-2.88,2.09-4.07,4-5.44l0,0-3.44,6A.55.55,0,0,1,664,16.68Z"/><path class="cls-12" d="M612.7,139.4h3.38v2.54Z"/><path class="cls-20" d="M692.53,250.57l3.06-2.2.8,1-2.87,2.44Z"/><path class="cls-9" d="M745,239l-3.29,1.89-.59-1,3.3-1.86Z"/><path class="cls-12" d="M667.52,239.18l-2.59,3.39Z"/><path class="cls-12" d="M670.54,235.2c0,1.4.31,3.05-2,2.92Z"/><path class="cls-20" d="M687.82,256.09l-1.76,1.63-.61-.7,1.85-1.53Z"/><path class="cls-10" d="M640,270.35c.2-1.58.94-2.15,2.44-1.33Z"/><path class="cls-12" d="M610.68,137.43c1.64-.4,2.23.29,2,1.88Z"/><path class="cls-6" d="M664.6,17.24l-1.33,3.15c-.24-.21-.49-.41-.74-.61l1.5-3.1A.55.55,0,0,0,664.6,17.24Z"/><path class="cls-12" d="M609.05,135.9l1.59,1.44Z"/><path class="cls-12" d="M616,141.9l1.66,1.42Z"/><path class="cls-18" d="M755,216.65c-.34.66-.67,1.33-1,2l0,0,1-2Z"/><path class="cls-20" d="M689.24,253.84l1.2-.64.26.49-1.21.63Z"/><path class="cls-6" d="M761.47,208.11l-.94,1.43-.62-.33c.28-.57.56-1.14.83-1.71Z"/><path class="cls-8" d="M633.25,96l1.6,1.34Z"/><path class="cls-3" d="M739,144.8c-.27,0-.54-.08-.16,0l.08.12Z"/><path class="cls-18" d="M668.06,11.24c.16-.18.32-.36.14-.15l-.16.13Z"/><path class="cls-18" d="M754,218.64l-.16.18.19-.15Z"/><path class="cls-12" d="M668.6,238.26l-.88.92Z"/><path class="cls-8" d="M634.78,97.23l1.09,1.07Z"/><path class="cls-18" d="M726.05,249.64l-.48.63-.23-.24.6-.51Z"/><polygon class="cls-18" points="723.48 251.28 723.36 250.98 723.66 251.01 723.48 251.28"/><polygon class="cls-18" points="721.49 252.27 721.38 251.97 721.67 252.01 721.49 252.27"/><path class="cls-10" d="M637.29,272l.23-1,.57.44Z"/><path class="cls-19" d="M281.46,209.63l-25,.08c.68-.34,1.37-1,2.06-1q10.4-.1,20.79,0C280.06,208.73,280.76,209.32,281.46,209.63Z"/><path class="cls-16" d="M721,129.87c-.46-.07-.92-.14-.22,0-.62-.34-.23-.12.17.09Z"/><path class="cls-13" d="M680.06,161.8l.86,1Z"/></g></g></svg>