<svg xmlns="http://www.w3.org/2000/svg" id="Layer_1" data-name="Layer 1" viewBox="0 0 444.26 76.18"><defs><style>.cls-2{fill:#016eaf}</style></defs><path d="M113.77 45.65v1.92c0 .64-.04 1.28-.12 1.92H68.32c.08 2.39.62 4.64 1.62 6.75 1 2.11 2.34 3.94 4.03 5.49 1.68 1.55 3.63 2.77 5.83 3.64 2.2.88 4.55 1.31 7.03 1.31 3.85 0 7.17-.84 9.98-2.52 2.8-1.68 5.01-3.73 6.61-6.13l7.94 6.37c-3.05 4.04-6.63 7.01-10.76 8.92-4.13 1.91-8.72 2.86-13.77 2.86-4.33 0-8.34-.72-12.02-2.16-3.69-1.44-6.85-3.47-9.5-6.07-2.65-2.6-4.73-5.75-6.25-9.44-1.52-3.69-2.28-7.77-2.28-12.26s.74-8.48 2.23-12.2c1.49-3.73 3.55-6.91 6.2-9.56 2.65-2.65 5.78-4.71 9.4-6.19 3.61-1.48 7.51-2.22 11.69-2.22s7.97.68 11.39 2.04c3.41 1.36 6.3 3.33 8.68 5.89 2.37 2.57 4.2 5.67 5.48 9.32 1.28 3.65 1.93 7.76 1.93 12.32Zm-11.54-4.57c-.08-2.24-.46-4.35-1.14-6.31-.68-1.96-1.68-3.67-3.01-5.11-1.32-1.44-2.97-2.58-4.93-3.43-1.97-.84-4.27-1.26-6.91-1.26-2.41 0-4.67.42-6.79 1.26-2.12.84-3.97 1.98-5.53 3.43a18.09 18.09 0 0 0-3.85 5.11c-1 1.97-1.58 4.07-1.74 6.31h33.91ZM227.89 17.63l-12.98 43.9-13.96-43.9h-11.9l-13.7 43.9-12.99-43.9H150.1l18.99 56.99h11.79l13.94-42.8h.24l14.07 42.8h11.78l18.88-56.99h-11.9zM300.14 46.01c0 4.41-.78 8.46-2.34 12.14-1.56 3.69-3.73 6.87-6.49 9.56-2.77 2.69-6.03 4.77-9.8 6.25-3.77 1.48-7.81 2.22-12.14 2.22s-8.38-.74-12.14-2.22c-3.77-1.48-7.01-3.57-9.74-6.25-2.73-2.68-4.87-5.87-6.43-9.56-1.56-3.69-2.34-7.73-2.34-12.14s.78-8.43 2.34-12.08c1.56-3.65 3.71-6.79 6.43-9.44 2.72-2.65 5.97-4.71 9.74-6.19 3.77-1.48 7.81-2.22 12.14-2.22s8.37.74 12.14 2.22c3.77 1.48 7.03 3.55 9.8 6.19 2.76 2.65 4.93 5.79 6.49 9.44 1.56 3.65 2.34 7.68 2.34 12.08Zm-11.79.06c0-2.72-.42-5.31-1.27-7.79-.85-2.48-2.07-4.65-3.68-6.53-1.61-1.88-3.6-3.38-5.97-4.5-2.37-1.12-5.09-1.68-8.14-1.68s-5.77.56-8.14 1.68c-2.37 1.12-4.36 2.62-5.97 4.5-1.61 1.88-2.83 4.06-3.68 6.53-.84 2.48-1.27 5.08-1.27 7.79s.42 5.32 1.27 7.79c.84 2.48 2.07 4.68 3.68 6.59 1.61 1.92 3.6 3.44 5.97 4.56 2.37 1.12 5.09 1.68 8.14 1.68s5.77-.56 8.14-1.68c2.37-1.12 4.36-2.64 5.97-4.56 1.61-1.92 2.83-4.12 3.68-6.59.84-2.48 1.27-5.07 1.27-7.79ZM343.6 0h11.3v74.62h-11.3zM145.58 26.26v-8.63h-14.22V0h-11.18v57.79c0 5.93 1.42 10.38 4.27 13.35 2.84 2.97 6.95 4.45 12.32 4.45 1.76 0 3.47-.14 5.11-.42 1.33-.23 2.55-.54 3.7-.9v-9.33c-.85.35-1.77.63-2.8.82-1.2.22-2.33.33-3.37.33-2.81 0-4.85-.74-6.13-2.22-1.28-1.48-1.92-3.94-1.92-7.37V26.27h14.22ZM334.02 16.07c-3.85 0-7.32 1.02-10.4 3.07-3.09 2.04-5.79 4.75-7.39 8.12v-9.61h-10.7v56.98h11.3V44.69c0-2.4.32-4.71.96-6.91.64-2.2 1.62-4.15 2.95-5.83 1.32-1.68 2.98-3.02 4.99-4.03 2-1 4.37-1.5 7.09-1.5 1.83 0 3.54.2 5.14.59V16.44c-1.11-.24-2.41-.37-3.94-.37ZM49.6 30.26c-.84-2.8-2.15-5.25-3.91-7.33-1.76-2.08-3.97-3.75-6.61-4.99-2.65-1.24-5.81-1.86-9.5-1.86-2.09 0-4.09.28-6.01.84-1.92.56-3.69 1.34-5.29 2.34-1.6 1-3.03 2.16-4.27 3.49-1.24 1.32-2.58 2.75-3.31 4.27s0-9.37 0-9.37H0v56.98h11.31v-30.3c0-5.69 1.42-10.24 4.27-13.65 2.84-3.41 6.51-5.11 11-5.11 2.65 0 4.81.48 6.49 1.44 1.68.96 3.01 2.25 3.97 3.85.96 1.6 1.62 3.45 1.98 5.53.36 2.08.54 4.29.54 6.61v31.62h11.3V39.27c0-3.2-.42-6.21-1.26-9.02Z" class="cls-2"/><path d="M378.95 17.64h13.97l-24.05 28.67 23.76 28.32h-13.97L354.9 46.31l24.05-28.67z" class="cls-2"/><path d="M420.21 17.64h-13.97l24.05 28.67-23.76 28.32h13.97l23.76-28.32-24.05-28.67z" style="fill:#e54360"/></svg>