<svg xmlns="http://www.w3.org/2000/svg" xmlns:xlink="http://www.w3.org/1999/xlink" width="48" height="19.46" viewBox="0 0 48 19.46"><defs><style>.cls-1,.cls-14,.cls-15,.cls-8,.cls-9{fill:none;}.cls-1{stroke:#00b451;}.cls-1,.cls-14,.cls-15,.cls-9{stroke-linecap:round;stroke-linejoin:round;}.cls-1,.cls-9{stroke-width:0.59px;}.cls-2{fill:url(#radial-gradient);}.cls-3{fill:url(#radial-gradient-2);}.cls-4{fill:url(#radial-gradient-3);}.cls-5{fill:url(#radial-gradient-4);}.cls-6{fill:#00b451;}.cls-7{fill:#df1612;}.cls-14,.cls-15,.cls-8,.cls-9{stroke:#df1612;}.cls-8{stroke-miterlimit:10;stroke-width:0.55px;}.cls-10{fill:url(#radial-gradient-5);}.cls-11{fill:url(#radial-gradient-6);}.cls-12{fill:url(#radial-gradient-7);}.cls-13{fill:url(#radial-gradient-8);}.cls-14{stroke-width:0.18px;}.cls-15{stroke-width:0.3px;}</style><radialGradient id="radial-gradient" cx="15.75" cy="241.2" r="0.79" gradientTransform="matrix(1, 0, 0, -1, 0, 243.17)" gradientUnits="userSpaceOnUse"><stop offset="0.1" stop-color="#84dca6"/><stop offset="0.82" stop-color="#00b451"/></radialGradient><radialGradient id="radial-gradient-2" cx="7.51" cy="226.33" r="0.79" xlink:href="#radial-gradient"/><radialGradient id="radial-gradient-3" cx="5.13" cy="242.39" r="0.79" xlink:href="#radial-gradient"/><radialGradient id="radial-gradient-4" cx="0.79" cy="233.78" r="0.79" xlink:href="#radial-gradient"/><radialGradient id="radial-gradient-5" cx="9.85" cy="239.91" r="0.79" gradientTransform="matrix(1, 0, 0, -1, 0, 243.17)" gradientUnits="userSpaceOnUse"><stop offset="0.1" stop-color="#f1997a"/><stop offset="0.82" stop-color="#df1612"/></radialGradient><radialGradient id="radial-gradient-6" cx="3.14" cy="238.18" r="0.79" xlink:href="#radial-gradient-5"/><radialGradient id="radial-gradient-7" cx="2.13" cy="229.1" r="0.79" xlink:href="#radial-gradient-5"/><radialGradient id="radial-gradient-8" cx="13.32" cy="224.49" r="0.79" xlink:href="#radial-gradient-5"/></defs><g id="Layer_2" data-name="Layer 2"><g id="Layer_1-2" data-name="Layer 1"><line class="cls-1" x1="11.48" y1="7.24" x2="15.43" y2="2.47"/><line class="cls-1" x1="5.36" y1="1.19" x2="7.32" y2="6.51"/><line class="cls-1" x1="1.17" y1="9.45" x2="4.55" y2="9.88"/><line class="cls-1" x1="8.15" y1="13.55" x2="7.69" y2="16.08"/><circle class="cls-2" cx="15.74" cy="1.97" r="0.78"/><circle class="cls-3" cx="7.51" cy="16.85" r="0.78"/><circle class="cls-4" cx="5.13" cy="0.78" r="0.78"/><circle class="cls-5" cx="0.78" cy="9.4" r="0.78"/><path class="cls-6" d="M20,13.27c.31,0,.48-.56.48-1.53a6.34,6.34,0,0,0-.14-1.58,1.16,1.16,0,0,0-1.19-.89,1.32,1.32,0,0,0-1.35,1,6.74,6.74,0,0,0-.17,1.78c0,.73.17,1.13.5,1.2H16.54q.45-.07.45-1V11c0-1.13-.44-1.7-1.31-1.7a1.31,1.31,0,0,0-1.3.78,3.73,3.73,0,0,0-.24,1.52c0,.06,0,.14,0,.27s0,.2,0,.26c0,.73.14,1.11.43,1.15H13.08c.33-.09.49-.66.49-1.73,0-.24,0-.52,0-.86l0-.56c0-.37-.14-.59-.42-.65v0a5.61,5.61,0,0,0,1-.31q0,.42-.06,1.26A1.86,1.86,0,0,1,15.91,9a1.54,1.54,0,0,1,1.61,1.18A1.72,1.72,0,0,1,19.29,9a1.59,1.59,0,0,1,1.52.74,3.34,3.34,0,0,1,.28,1.59v.76a2.64,2.64,0,0,0,.05.65.54.54,0,0,0,.38.48H20Z"/><path class="cls-6" d="M21.53,13.44H20a.18.18,0,0,1-.18-.16.16.16,0,0,1,.15-.17c.06,0,.32-.11.32-1.37a5.82,5.82,0,0,0-.14-1.53,1,1,0,0,0-1-.77,1.16,1.16,0,0,0-1.18.9,6.31,6.31,0,0,0-.17,1.73c0,.35.05,1,.37,1a.17.17,0,0,1,.14.17.18.18,0,0,1-.18.17H16.53a.17.17,0,0,1-.18-.17.19.19,0,0,1,.15-.17c.26,0,.3-.53.3-.82V11c0-1.37-.65-1.54-1.12-1.54a1.16,1.16,0,0,0-1.15.68,3.61,3.61,0,0,0-.22,1.45c0,.06,0,.15,0,.27s0,.2,0,.25c0,.6.11,1,.29,1a.17.17,0,0,1,0,.33H13.07a.17.17,0,0,1-.18-.16A.17.17,0,0,1,13,13.1c.09,0,.37-.2.37-1.57,0-.23,0-.52,0-.85l0-.56c0-.43-.21-.48-.28-.49a.17.17,0,0,1-.14-.17.19.19,0,0,1,.14-.17A6.87,6.87,0,0,0,14,9a.21.21,0,0,1,.17,0,.17.17,0,0,1,.07.15c0,.13,0,.29,0,.49a2,2,0,0,1,1.67-.76,1.68,1.68,0,0,1,1.63.9,1.88,1.88,0,0,1,1.76-.9A1.75,1.75,0,0,1,21,9.7a3.45,3.45,0,0,1,.3,1.67v.77a4,4,0,0,0,0,.61c.07.31.21.34.26.35a.17.17,0,0,1,.14.17A.18.18,0,0,1,21.53,13.44Zm-1.14-.33h.68a1.28,1.28,0,0,1-.1-.28,3.74,3.74,0,0,1,0-.69v-.75a3.26,3.26,0,0,0-.26-1.51,1.21,1.21,0,0,0-.88-.61,1.41,1.41,0,0,1,.67.86,6,6,0,0,1,.15,1.62A3.23,3.23,0,0,1,20.39,13.11Zm-3.39,0h.6a2.16,2.16,0,0,1-.2-1,7.75,7.75,0,0,1,.14-1.68h0a.16.16,0,0,1-.16-.12,1.35,1.35,0,0,0-1-1c.45.2.81.69.81,1.73v1.28A2,2,0,0,1,17,13.11Zm-3.5,0h.61a2.29,2.29,0,0,1-.17-1c0-.06,0-.15,0-.27s0-.2,0-.26a5,5,0,0,1,.08-1h0a.19.19,0,0,1-.15-.18c0-.41,0-.75.05-1l-.39.12a.86.86,0,0,1,.18.6l0,.56c0,.33,0,.62,0,.85A3.49,3.49,0,0,1,13.5,13.11Z"/><path class="cls-6" d="M26.08,13.27a5.48,5.48,0,0,1-.22-.8,1.69,1.69,0,0,1-1.63.91,2.92,2.92,0,0,1-1.29-.28,1,1,0,0,1-.69-.95c0-.92,1.19-1.38,3.57-1.36v-.22a1.24,1.24,0,0,0-1.43-1.38,2.23,2.23,0,0,0-1.05.24,1.06,1.06,0,0,0-.6.78h0l-.28-.74a5.83,5.83,0,0,1,2.07-.42,2,2,0,0,1,1.64.57,2,2,0,0,1,.35,1.3c0,.11,0,.45-.06,1a2.94,2.94,0,0,0,0,.85.6.6,0,0,0,.42.47v0Zm-.26-2.36h-.36c-1.63,0-2.43.41-2.43,1.24a1,1,0,0,0,.36.8,1.61,1.61,0,0,0,2.14-.27,2.45,2.45,0,0,0,.29-1.31Z"/><path class="cls-6" d="M24.24,13.55h0a3,3,0,0,1-1.38-.3,1.21,1.21,0,0,1-.78-1.1,1.07,1.07,0,0,1,.36-.81c.51-.48,1.57-.72,3.21-.72v-.06c0-.82-.39-1.21-1.24-1.21a2.13,2.13,0,0,0-1,.21.87.87,0,0,0-.51.65.17.17,0,0,1-.12.14h0a.17.17,0,0,1-.21-.1l-.28-.75a.15.15,0,0,1,.09-.2,6,6,0,0,1,2.14-.43,2.2,2.2,0,0,1,1.78.63,2.14,2.14,0,0,1,.39,1.41q0,.16-.06,1a3.07,3.07,0,0,0,0,.8.39.39,0,0,0,.3.34.18.18,0,0,1,.12.16v0a.17.17,0,0,1-.18.16h-.82a.16.16,0,0,1-.16-.11,2.71,2.71,0,0,1-.14-.43A1.85,1.85,0,0,1,24.24,13.55Zm2-.44h.22a.87.87,0,0,1-.13-.29,3,3,0,0,1,0-.9c0-.56.06-.9.06-1A1.81,1.81,0,0,0,26,9.72a1.14,1.14,0,0,0-.42-.32A1.5,1.5,0,0,1,26,10.56v.22s0,0,0,.06a.13.13,0,0,1,0,.06v.47a3.46,3.46,0,0,1-.11.92.2.2,0,0,1,.15.13A5.32,5.32,0,0,0,26.21,13.11Zm-.75-2c-2.26,0-2.26.82-2.26,1.08a.84.84,0,0,0,.3.68,1.45,1.45,0,0,0,1.89-.23,2.34,2.34,0,0,0,.25-1.22v-.31Zm-2.18.18a1.57,1.57,0,0,0-.59.33.7.7,0,0,0-.26.57A.88.88,0,0,0,23,13l.19.08a1.15,1.15,0,0,1-.37-.88A1,1,0,0,1,23.28,11.25Zm-.62-1.69.06.18A1.79,1.79,0,0,1,23,9.45Z"/><path class="cls-6" d="M31.11,13.29v0c.3-.09.45-.38.45-.89V11c0-1.14-.49-1.72-1.45-1.72a1.32,1.32,0,0,0-1.31,1,5.36,5.36,0,0,0-.22,1.75c0,.7.16,1.11.47,1.21v0H27.55c.31-.09.47-.51.47-1.27,0-.09,0-.24,0-.43v-.44c0-1.05-.15-1.6-.46-1.66v0a5.39,5.39,0,0,0,1-.3c0,.4,0,.79-.06,1.2a1.86,1.86,0,0,1,1.83-1.3,1.66,1.66,0,0,1,1.55.71,3,3,0,0,1,.29,1.53c0,.09,0,.22,0,.38s0,.3,0,.38a3,3,0,0,0,.08.8.56.56,0,0,0,.42.41v0h-.91Z"/><path class="cls-6" d="M31.11,13.46a.17.17,0,0,1-.16-.12v0a.17.17,0,0,1,0-.14.16.16,0,0,1,.1-.08c.21-.06.32-.3.32-.73V11c0-1.38-.73-1.54-1.27-1.54a1.14,1.14,0,0,0-1.14.91,5.65,5.65,0,0,0-.21,1.7c0,.61.13,1,.35,1a.17.17,0,0,1,.12.16v0a.18.18,0,0,1-.18.17H27.55a.18.18,0,0,1-.18-.17.18.18,0,0,1,.12-.17c.22-.06.35-.45.35-1.1v-.44c0-.19,0-.34,0-.44,0-1.37-.26-1.49-.32-1.5a.17.17,0,0,1-.14-.17v0a.18.18,0,0,1,.14-.17,4.43,4.43,0,0,0,1-.29.2.2,0,0,1,.17,0,.18.18,0,0,1,.08.15l0,.47a1.94,1.94,0,0,1,1.62-.75,1.82,1.82,0,0,1,1.7.8,3.27,3.27,0,0,1,.31,1.62c0,.08,0,.21,0,.38s0,.3,0,.38a2.59,2.59,0,0,0,.08.75.38.38,0,0,0,.28.3.17.17,0,0,1,.14.17v0a.16.16,0,0,1-.06.12.17.17,0,0,1-.13.05q-1,0-1.53,0ZM28,13.13h.62a2.14,2.14,0,0,1-.21-1.08,7.14,7.14,0,0,1,.16-1.54h-.07a.16.16,0,0,1-.14-.16c0-.32,0-.63,0-.94L28,9.55a3.05,3.05,0,0,1,.27,1.6v.44c0,.19,0,.34,0,.44A2.23,2.23,0,0,1,28,13.13Zm3.78,0h.42a.58.58,0,0,1-.09-.21,2.61,2.61,0,0,1-.1-.85c0-.08,0-.21,0-.38s0-.3,0-.38a3,3,0,0,0-.27-1.46,1.22,1.22,0,0,0-.84-.56c.47.22.84.7.84,1.72v1.39a1.36,1.36,0,0,1-.16.73Z"/><path class="cls-7" d="M38.94,13.46,34.21,8.69v3.17c0,.78.23,1.24.69,1.41H33.3c.32,0,.53-.3.64-.73a4.07,4.07,0,0,0,.09-1V9a.73.73,0,0,0-.59-.76v0h1.35l4,4c0-.12,0-.34,0-.65s0-.68,0-.88c0-1.49-.25-2.32-.74-2.5h0l.72,0,.84,0v0a.83.83,0,0,0-.54.39,5.8,5.8,0,0,0-.15,1.63c0,.26,0,.6,0,1v2.26Z"/><path class="cls-7" d="M38.94,13.62a.19.19,0,0,1-.13,0L34.4,9.11v2.75c0,.7.19,1.12.56,1.26a.16.16,0,0,1,.12.15.18.18,0,0,1-.18.18H33.3a.18.18,0,0,1-.18-.15.17.17,0,0,1,.15-.18c.24,0,.41-.24.5-.61a4.25,4.25,0,0,0,.09-1V9a.57.57,0,0,0-.47-.6.17.17,0,0,1-.12-.16v0a.17.17,0,0,1,0-.13.17.17,0,0,1,.13,0,9.84,9.84,0,0,0,1.33,0,.16.16,0,0,1,.14.05l3.67,3.74c0-.07,0-.15,0-.24,0-.38,0-.68,0-.87,0-1.74-.35-2.24-.63-2.35a.15.15,0,0,1-.11-.15h0a.17.17,0,0,1,0-.13.17.17,0,0,1,.13,0,9.89,9.89,0,0,0,1.54,0,.18.18,0,0,1,.18.12v0a.18.18,0,0,1-.12.21.66.66,0,0,0-.43.3,5.59,5.59,0,0,0-.13,1.56c0,.26,0,.6,0,1v2.26a.16.16,0,0,1-.11.15Zm-5.06-.51h.51a1.37,1.37,0,0,1-.27-.54h0A1.44,1.44,0,0,1,33.88,13.11Zm.33-4.6a.24.24,0,0,1,.14.05L38.76,13v-.66a.18.18,0,0,1-.13-.06l-3.9-4-.72,0a.76.76,0,0,1,.12.19h0Zm4.33-.16a2.15,2.15,0,0,1,.28.66,1.55,1.55,0,0,1,.1-.5.56.56,0,0,1,.1-.15Z"/><path class="cls-7" d="M42.75,13.38h0A2.51,2.51,0,0,1,41,12.77a2,2,0,0,1-.72-1.55A2,2,0,0,1,41,9.69a2.41,2.41,0,0,1,1.67-.63,2.73,2.73,0,0,1,1.49.44A1.61,1.61,0,0,1,45,10.68H41.13a5.13,5.13,0,0,0-.06.54,2.12,2.12,0,0,0,.44,1.35,1.57,1.57,0,0,0,1.33.62,2.07,2.07,0,0,0,2.1-1.51l.13.11A1.9,1.9,0,0,1,44.23,13,2.72,2.72,0,0,1,42.75,13.38Zm0-4.17a1.5,1.5,0,0,0-1.54,1.33h3a1.23,1.23,0,0,0-.42-1A1.53,1.53,0,0,0,42.7,9.21Z"/><path class="cls-7" d="M42.76,13.55h0a2.78,2.78,0,0,1-1.83-.65,2.15,2.15,0,0,1-.77-1.68,2.18,2.18,0,0,1,.75-1.65,2.58,2.58,0,0,1,1.79-.68,2.89,2.89,0,0,1,1.59.46,1.76,1.76,0,0,1,.9,1.3.16.16,0,0,1,0,.13.19.19,0,0,1-.13.06H41.28c0,.24,0,.34,0,.38a1.92,1.92,0,0,0,.41,1.25,1.39,1.39,0,0,0,1.19.56,1.9,1.9,0,0,0,1.93-1.41.19.19,0,0,1,.13-.1.18.18,0,0,1,.16,0l.13.11a.14.14,0,0,1,.06.15,2,2,0,0,1-.91,1.28,2.87,2.87,0,0,1-1.58.46Zm-1.35-4-.27.22a1.88,1.88,0,0,0,0,2.84,2.32,2.32,0,0,0,.55.35,1.82,1.82,0,0,1-.34-.34,2.22,2.22,0,0,1-.47-1.45,4.69,4.69,0,0,1,.05-.57.08.08,0,0,1,0-.07.11.11,0,0,1,0-.08A2.59,2.59,0,0,1,41.41,9.6Zm3,.91h.43a1.51,1.51,0,0,0-.72-.88s0,0,0,0A1.4,1.4,0,0,1,44.37,10.51Zm-3-.13H44a1.11,1.11,0,0,0-.36-.69,1.37,1.37,0,0,0-.95-.33A1.28,1.28,0,0,0,41.4,10.38Z"/><path class="cls-7" d="M47.75,9.53h-.82c0,.22,0,.56,0,1s0,.8,0,1a4,4,0,0,0,.09,1,.92.92,0,0,0,.58.74v0h-.93l-.26-.16v0l0-.07-.06-.13a5.8,5.8,0,0,1-.05-.61.82.82,0,0,0,0,.21c0-1.33,0-2.34,0-3h-.67l0-.13a1.88,1.88,0,0,0,1.24-1.26H47c0,.13,0,.53,0,1.2h.89Z"/><path class="cls-7" d="M47.57,13.46h-.93a.19.19,0,0,1-.1,0l-.21-.13a.25.25,0,0,1-.1-.08h0a.06.06,0,0,0,0,0h0l-.09-.2s0-.07-.05-.41a1.11,1.11,0,0,1,0-.26.19.19,0,0,1,0-.07c0-1.09,0-1.94,0-2.55h-.51a.2.2,0,0,1-.13-.06.17.17,0,0,1,0-.13l0-.14a.15.15,0,0,1,.12-.13,1.7,1.7,0,0,0,1.13-1.14A.16.16,0,0,1,46.87,8h.06a.18.18,0,0,1,.14,0,.16.16,0,0,1,.06.12c0,.13,0,.48,0,1h.71a.21.21,0,0,1,.14.07.16.16,0,0,1,0,.15l-.07.2a.19.19,0,0,1-.17.11h-.64c0,.22,0,.5,0,.85s0,.78,0,1a3.8,3.8,0,0,0,.08.93.79.79,0,0,0,.47.62.15.15,0,0,1,.11.15v0A.17.17,0,0,1,47.57,13.46Zm-.88-.33h.39a1.39,1.39,0,0,1-.27-.56,4.31,4.31,0,0,1-.09-1c0-.23,0-.57,0-1s0-.79,0-1a.15.15,0,0,1,0-.1.16.16,0,0,1,0-.1c0-.22,0-.41,0-.57a1.9,1.9,0,0,1-.62.58h.16a.18.18,0,0,1,.18.17c0,.66,0,1.67,0,3a1.57,1.57,0,0,0,0,.37l.06.16Z"/><path class="cls-7" d="M23.93,6.23h.4v.29H20.14A3.33,3.33,0,0,1,19,6.37a.78.78,0,0,1-.56-.59,1.1,1.1,0,0,1,0-.18,1,1,0,0,1,.44-.77,2.88,2.88,0,0,1,1.25-.57,3.67,3.67,0,0,1,.75-.08,4.05,4.05,0,0,1,.71.09L21.49,5h-.06a.9.9,0,0,0-.49-.55,1.12,1.12,0,0,0-.48-.1l-.33,0a1.37,1.37,0,0,0-.67.33,1,1,0,0,0-.31.68v.09a.61.61,0,0,0,.16.44.92.92,0,0,0,.35.2,3.82,3.82,0,0,0,.95.11h2.67V4.52a1.7,1.7,0,0,0,0-.41A.3.3,0,0,0,23,3.9v0a5.18,5.18,0,0,0,1-.22c0,.36,0,.73,0,1.12V6.23ZM20.56,2.87a.4.4,0,0,1,.12-.29A.39.39,0,0,1,21,2.47a.41.41,0,0,1,.28.11.44.44,0,0,1,.11.29.38.38,0,0,1-.11.28.39.39,0,0,1-.28.12.38.38,0,0,1-.28-.11A.37.37,0,0,1,20.56,2.87Zm1,0a.44.44,0,0,1,.11-.29A.41.41,0,0,1,22,2.47a.38.38,0,0,1,.28.11.4.4,0,0,1,.12.29.35.35,0,0,1-.12.28.36.36,0,0,1-.28.12.41.41,0,0,1-.28-.11A.36.36,0,0,1,21.57,2.87Z"/><path class="cls-7" d="M25.25,6.51h-1V6.22h1Z"/><path class="cls-7" d="M25.16,6.23h1.41a1,1,0,0,1-.21-.38,2.75,2.75,0,0,1,0-.5V4.52a1.19,1.19,0,0,0,0-.41A.29.29,0,0,0,26,3.9v0a5.23,5.23,0,0,0,1-.22c0,.36,0,.73,0,1.12v.48c0,.39,0,.63,0,.71a.62.62,0,0,0,.37.54v0H25.15V6.23Zm.16-3.36a.4.4,0,0,1,.12-.29.39.39,0,0,1,.28-.11.41.41,0,0,1,.28.11.4.4,0,0,1,.12.29.35.35,0,0,1-.12.28.36.36,0,0,1-.28.12.39.39,0,0,1-.28-.11A.34.34,0,0,1,25.32,2.87Z"/><path class="cls-6" d="M30.27,7.24a2.05,2.05,0,0,1-.87-.14,1.44,1.44,0,0,1-.46-.43A2.05,2.05,0,0,1,28.5,5.3V5a1.77,1.77,0,0,0-.06-.64.44.44,0,0,0-.23-.16V4.18c.2,0,.41,0,.6,0l.53,0v.05a.4.4,0,0,0-.27.24,1.37,1.37,0,0,0-.06.41c0,.13,0,.27,0,.4a2.38,2.38,0,0,0,.29,1.23,1.07,1.07,0,0,0,1.92,0,2.38,2.38,0,0,0,.29-1.23v-.4a1.07,1.07,0,0,0-.06-.41.38.38,0,0,0-.27-.24V4.18l.56,0,.6,0v.05a.4.4,0,0,0-.23.16,1.77,1.77,0,0,0-.06.64V5.3a1.91,1.91,0,0,1-.49,1.42A1.7,1.7,0,0,1,30.27,7.24Zm-.34-3.8A.38.38,0,0,1,30,3.15.36.36,0,0,1,30.3,3a.39.39,0,0,1,.27.11.46.46,0,0,1,.1.29.37.37,0,0,1-.1.28.36.36,0,0,1-.27.12A.36.36,0,0,1,30,3.73.38.38,0,0,1,29.93,3.44Z"/><path class="cls-6" d="M32.84,6.51v0c.18-.05.28-.21.33-.47,0-.08,0-.29,0-.64v-3a2.82,2.82,0,0,0,0-.4.28.28,0,0,0-.27-.19V1.76a3.36,3.36,0,0,0,.82-.22c0,.32,0,.7,0,1.12V6.23h.45v.29h-1.3Z"/><path class="cls-6" d="M35.67,6.51H34V6.22h1.63Z"/><path class="cls-6" d="M38.51,6.23H39v.29h-.67l-.13.15a1.31,1.31,0,0,1-1,.39,1.26,1.26,0,0,1-1-.39,1.58,1.58,0,0,1-.12-.15h-.72V6.23H36a2,2,0,0,1-.1-.61,1.36,1.36,0,0,1,.39-1,1.42,1.42,0,0,1,1.93,0,1.46,1.46,0,0,1,.38,1A1.78,1.78,0,0,1,38.51,6.23Zm-2-.6a2.05,2.05,0,0,0,.16.89.67.67,0,0,0,.64.44.66.66,0,0,0,.63-.44,2.2,2.2,0,0,0,.16-.88,2,2,0,0,0-.16-.87.68.68,0,0,0-1.27,0A1.92,1.92,0,0,0,36.47,5.63Z"/><path class="cls-6" d="M39.34,6.51H38.4V6.22h.94Z"/><path class="cls-6" d="M40.2,6.51h-.94V6.22h.94Z"/><path class="cls-6" d="M40.11,6.51V6.22h1a1.3,1.3,0,0,1-.55-1.15,1.42,1.42,0,0,1,.38-1,1.34,1.34,0,0,1,1-.37,1.63,1.63,0,0,1,1,.31l-.11.79h0c-.15-.61-.41-.92-.76-.92a.81.81,0,0,0-.68.41,1.45,1.45,0,0,0-.25.83,1.65,1.65,0,0,0,.51,1.15h1.21A.41.41,0,0,0,43,6.05c0,.31-.13.46-.31.46Z"/><path class="cls-6" d="M8.52,7.4a2.7,2.7,0,0,1,2.83,2.54,2.7,2.7,0,0,1-2.83,2.54A2.69,2.69,0,0,1,5.69,10,2.71,2.71,0,0,1,8.52,7.4m0-.89A3.58,3.58,0,0,0,4.8,9.94a3.58,3.58,0,0,0,3.72,3.43,3.58,3.58,0,0,0,3.72-3.43A3.59,3.59,0,0,0,8.52,6.51Z"/><ellipse class="cls-8" cx="8.52" cy="9.95" rx="3.72" ry="3.43"/><line class="cls-9" x1="10.39" y1="13.03" x2="12.9" y2="18.15"/><line class="cls-9" x1="5.6" y1="12.08" x2="2.53" y2="13.83"/><line class="cls-9" x1="3.44" y1="5.35" x2="5.6" y2="7.24"/><line class="cls-9" x1="9.84" y1="3.43" x2="9.45" y2="6.29"/><circle class="cls-10" cx="9.84" cy="3.27" r="0.78"/><circle class="cls-11" cx="3.14" cy="4.99" r="0.78"/><circle class="cls-12" cx="2.13" cy="14.07" r="0.78"/><circle class="cls-13" cx="13.32" cy="18.68" r="0.78"/><rect class="cls-7" x="7.19" y="9.54" width="2.55" height="0.41"/><path class="cls-7" d="M7.24,8.41c.22.29.45.56.69.83s.48.54.73.79a8.86,8.86,0,0,0,.79.72,3.7,3.7,0,0,0,.44.29,1.4,1.4,0,0,0,.46.16h0a.15.15,0,0,1,.14.16.16.16,0,0,1-.17.13h0a1.36,1.36,0,0,1-.56-.21A4.84,4.84,0,0,1,9.29,11a9.51,9.51,0,0,1-.79-.76c-.25-.26-.49-.55-.71-.83s-.45-.57-.66-.86a.08.08,0,0,1,0-.11s.08,0,.1,0Z"/><path class="cls-7" d="M10.05,8.41c-.22.29-.43.58-.66.86s-.46.56-.71.83a9.45,9.45,0,0,1-.79.76,5.4,5.4,0,0,1-.46.33,1.5,1.5,0,0,1-.57.21.15.15,0,0,1-.16-.13.16.16,0,0,1,.13-.17h0A1.14,1.14,0,0,0,7.3,11a3,3,0,0,0,.44-.29,7.66,7.66,0,0,0,.79-.72c.26-.25.5-.52.74-.79s.46-.55.68-.83h0s.07,0,.11,0A.15.15,0,0,1,10.05,8.41Z"/><line class="cls-14" x1="8.24" y1="8.64" x2="8.65" y2="8.64"/><path class="cls-15" d="M8.46,8.79V10a.27.27,0,0,1-.27.27H7.61"/></g></g></svg>