<svg width="164" height="36" viewBox="0 0 164 36" fill="none" xmlns="http://www.w3.org/2000/svg">
<path fill-rule="evenodd" clip-rule="evenodd" d="M140.644 0.123139C139.817 0.261411 138.762 0.800133 138.106 1.41814C137.073 2.39295 136.96 2.78429 135.754 9.55754C134.707 15.4447 133.479 22.3135 132.768 26.2637L132.452 28.0249H139.132C146.214 28.0249 146.708 27.9882 148.06 27.3626C149.477 26.707 150.712 25.1113 150.943 23.6392L151.035 23.0521H144.796C139.02 23.0521 138.556 23.0347 138.556 22.8177C138.556 22.6887 139.468 17.5342 140.583 11.3632C141.698 5.19237 142.611 0.10753 142.611 0.0636037C142.611 -0.0442787 141.431 -0.00864026 140.644 0.123139ZM7.39367 8.04815C6.20035 8.46946 5.08365 9.46941 4.59976 10.5503C4.37144 11.0603 0 34.907 0 35.6424C0 35.8822 0.159109 35.8985 2.50673 35.8985H5.01347L5.15887 35.1733C5.34609 34.2387 6.43146 28.2107 6.43146 28.1052C6.43146 28.061 8.33714 28.0249 10.6664 28.0249C15.1833 28.0249 15.8453 27.9506 17.1838 27.2928C18.4622 26.6646 19.6643 25.0271 19.9164 23.5701L20.0062 23.0521H13.7081C8.33308 23.0521 7.41017 23.0231 7.41017 22.8542C7.41017 22.7452 7.56312 21.8284 7.75005 20.8167C7.93685 19.8049 8.31826 17.7029 8.59761 16.1454C8.87682 14.588 9.32157 12.1195 9.58596 10.6598C9.85035 9.20032 10.0666 7.97273 10.0666 7.9317C10.0666 7.78058 7.88232 7.87562 7.39367 8.04815ZM13.7699 8.10589C11.7557 8.79393 10.6056 10.0523 10.1254 12.0935L9.95199 12.8302H15.5928C18.9909 12.8302 21.3789 12.8848 21.599 12.9675C21.8134 13.048 22.0478 13.3019 22.1665 13.5823C22.3829 14.0944 22.3141 14.5755 20.8939 22.4841C20.6293 23.9572 20.4129 25.2114 20.4129 25.2715C20.4129 25.3316 20.9817 25.1923 21.6768 24.9619C24.1257 24.1505 25.5967 22.7845 26.262 20.7038C26.3471 20.4379 26.6386 18.7596 26.9097 16.9742C27.1809 15.1888 27.4658 13.35 27.543 12.8879C27.8875 10.8245 27.5422 9.39703 26.5102 8.61933C25.54 7.88819 25.3718 7.86968 19.7138 7.86802C15.0995 7.86664 14.3868 7.8951 13.7699 8.10589ZM38.3092 8.14236C37.0132 8.47567 35.1821 9.32962 34.0462 10.1305C32.8997 10.9387 31.0926 12.8522 30.4419 13.9467C29.7169 15.1663 29.1187 16.7536 28.9283 17.9628C28.7148 19.3186 28.8398 21.3787 29.2042 22.5095C29.9554 24.8407 31.9252 26.7798 34.3944 27.6188C35.7613 28.0833 38.106 28.155 39.3811 27.7713C40.4525 27.4489 41.4788 26.86 42.2564 26.1212C42.5433 25.8486 42.8179 25.6649 42.8667 25.713C42.9153 25.7612 42.8618 26.301 42.7477 26.9127L42.5404 28.0249H45.0974H47.6545L47.735 27.645C48.1661 25.6135 50.6125 11.4645 50.6114 11.0096C50.6098 10.2372 50.0832 9.12808 49.4794 8.62513C48.5746 7.87148 48.4635 7.8567 43.7314 7.86498C39.8603 7.87175 39.2372 7.90352 38.3092 8.14236ZM53.6208 8.16819C53.5805 8.33906 53.1315 10.7168 52.6228 13.4518C51.5879 19.0165 51.4769 20.4589 51.9419 22.2924C52.6368 25.0311 54.5629 26.9768 57.26 27.6642C60.1341 28.3966 62.6694 27.8387 64.5122 26.0683C64.9705 25.628 65.3774 25.2993 65.4165 25.3378C65.5707 25.4903 65.1064 27.1712 64.7028 27.9216C63.3294 30.4747 60.4205 31.3671 56.0754 30.568C55.504 30.463 55.0272 30.3917 55.0159 30.4097C55.0044 30.4276 54.8517 31.5203 54.6763 32.8378C54.4651 34.4248 54.4045 35.2796 54.4965 35.3705C54.5729 35.446 55.3504 35.6318 56.2243 35.7835C58.8383 36.2372 61.7848 35.9664 63.8974 35.0782C65.6887 34.3251 67.339 32.9673 68.4957 31.295C69.1382 30.3657 69.9559 28.587 70.3797 27.1961C70.5764 26.5503 71.4652 22.0437 72.3545 17.1814C73.244 12.3191 74.0052 8.23214 74.0462 8.09912C74.1151 7.87479 73.9287 7.85739 71.4546 7.85739C69.9883 7.85739 68.7887 7.89372 68.7887 7.93806C68.7887 8.39321 67.054 17.2503 66.8779 17.6944C66.3123 19.121 64.8673 20.7636 63.629 21.3877C62.774 21.8187 61.0515 22.2233 60.0721 22.2233C58.195 22.2233 57.0477 20.9643 57.0451 18.9016C57.0447 18.5561 57.4533 16.0105 57.9531 13.2446C58.4529 10.4788 58.8619 8.13504 58.8619 8.03655C58.8619 7.8962 58.3018 7.85739 56.278 7.85739C53.7134 7.85739 53.6935 7.85974 53.6208 8.16819ZM78.3667 7.95919C78.2133 7.99745 77.8216 8.20977 77.4961 8.43092C76.3493 9.21055 76.3729 9.12463 74.6707 18.7009C73.8198 23.4872 73.0908 27.5431 73.0507 27.7141L72.9778 28.0249H75.5671C76.9911 28.0249 78.1563 27.9828 78.1563 27.9314C78.1563 27.4619 80.7293 13.566 80.8522 13.3715C81.1566 12.8903 81.6789 12.8037 83.9828 12.8524C86.0726 12.8966 86.2398 12.9207 86.99 13.2847C88.484 14.0095 89.2202 15.1799 89.3112 16.9742C89.3618 17.9709 89.2419 18.8606 88.5172 22.8591C88.0477 25.45 87.6637 27.6723 87.6637 27.7974C87.6637 28.0002 87.9363 28.0249 90.1777 28.0249C92.6704 28.0249 92.6922 28.0223 92.7631 27.7141C92.835 27.4012 93.8298 21.9194 94.3736 18.839C94.7302 16.8205 95.2311 15.7187 96.2473 14.7184C97.5168 13.4688 99.463 12.6859 100.647 12.9486C102.595 13.3809 103.899 15.1318 103.897 17.3107C103.896 17.8816 103.579 20.0348 103.132 22.4996C102.712 24.8168 102.324 27.0078 102.271 27.3688L102.173 28.0249H104.702C107.211 28.0249 107.233 28.0223 107.307 27.7141C107.38 27.4109 108.806 19.5906 109.064 18.0793C109.26 16.929 109.217 14.6659 108.98 13.6712C108.366 11.0975 106.602 9.12325 104.126 8.2385C103.374 7.96969 102.982 7.92687 101.296 7.92963C99.6404 7.93226 99.1763 7.98267 98.2896 8.25618C96.6221 8.77059 94.8757 9.71681 93.8647 10.6535L93.4246 11.0614L92.4666 10.101C91.4184 9.05003 90.0358 8.28823 88.6705 8.00892C87.9336 7.85822 78.9444 7.81484 78.3667 7.95919ZM144.888 8.05478C142.956 8.66133 141.445 10.3917 141.112 12.3813L141.036 12.8302H146.798H152.559L152.987 13.2525C153.381 13.6426 153.408 13.7295 153.338 14.3921C153.273 15.0171 151.669 24.2689 151.486 25.081C151.418 25.383 151.419 25.3828 152.572 24.9979C154.126 24.4787 154.726 24.1599 155.589 23.3926C156.372 22.6971 156.869 21.9631 157.225 20.9755C157.577 19.9995 158.857 11.478 158.749 10.8273C158.546 9.594 157.979 8.77736 156.942 8.22455C156.399 7.93529 156.222 7.92562 150.93 7.89814C146.696 7.87603 145.345 7.91112 144.888 8.05478ZM122.093 8.14153C119.378 8.49418 116.815 9.68573 114.792 11.536C111.244 14.7819 110.034 19.691 111.882 23.3456C112.457 24.4811 113.991 26.0656 115.062 26.6298C116.575 27.4265 117.37 27.6322 119.243 27.7129C123.054 27.8767 126.01 26.7321 128.781 24.019C131.038 21.8093 132.091 19.6269 132.23 16.8712C132.32 15.0873 132.122 14.0516 131.415 12.5957C129.895 9.46457 126.05 7.62767 122.093 8.14153ZM38.9334 12.9712C37.9869 13.157 36.7739 13.8093 35.9164 14.5936C33.9981 16.3483 33.413 19.2156 34.581 21.1387C35.1431 22.064 35.8876 22.5743 37.1058 22.8687C39.8561 23.5334 42.9683 21.7792 44.0346 18.9638C44.3185 18.2141 44.8821 15.2603 44.8783 14.5415C44.8754 13.9746 44.6007 13.5093 44.0539 13.1451C43.6119 12.8509 43.4464 12.8312 41.5392 12.8454C40.4163 12.8537 39.2437 12.9103 38.9334 12.9712ZM121.149 13.1536C119.97 13.4564 119.156 13.8882 118.357 14.6345C117.421 15.5093 116.841 16.3891 116.548 17.3792C115.861 19.6996 116.772 21.7353 118.847 22.5139C122.303 23.8116 126.342 21.4334 126.95 17.7425C127.373 15.1731 125.641 13.1809 122.85 13.0288C122.288 12.9982 121.542 13.0529 121.149 13.1536ZM158.507 25.2124C158.345 25.3719 158.559 25.5385 158.925 25.5385C159.314 25.5385 159.316 25.5799 159.014 27.5069C158.964 27.827 158.989 28.0249 159.08 28.0249C159.229 28.0249 159.305 27.7492 159.461 26.6436C159.606 25.6179 159.651 25.5385 160.097 25.5385C160.368 25.5385 160.507 25.4683 160.507 25.3313C160.507 25.1673 160.308 25.1241 159.552 25.1241C159.026 25.1241 158.556 25.1639 158.507 25.2124ZM161.162 25.4349C160.988 26.1601 160.77 27.9168 160.845 27.9907C161.002 28.1452 161.09 27.9023 161.252 26.8737C161.342 26.3036 161.455 25.7982 161.504 25.7507C161.552 25.7032 161.668 26.0866 161.761 26.6028C161.978 27.8061 162.04 28.0249 162.169 28.0249C162.226 28.0249 162.54 27.4901 162.867 26.8364C163.193 26.1826 163.493 25.6804 163.534 25.7202C163.574 25.7599 163.53 26.2652 163.435 26.843C163.281 27.7876 163.31 28.2021 163.516 27.9984C163.587 27.9285 163.995 25.6501 164 25.2968C164.001 25.2019 163.872 25.1241 163.712 25.1241C163.486 25.1241 163.309 25.3658 162.908 26.2274C162.626 26.8342 162.355 27.3315 162.308 27.3325C162.26 27.3334 162.146 26.9458 162.055 26.4709C161.964 25.9961 161.857 25.4989 161.818 25.3658C161.714 25.0153 161.251 25.064 161.162 25.4349Z" fill="#377EF1"/>
</svg>
