<svg xmlns="http://www.w3.org/2000/svg" width="254.11" height="299.82" viewBox="0 0 254.11 299.82"><defs><style>.cls-1{fill:#003087;}.cls-2{fill:#0070E0;}.cls-3{fill:#001c64;}</style></defs><g id="Layer_2" data-name="Layer 2"><g id="Layer_1-2" data-name="Layer 1"><path class="cls-1" d="M72.19,289.66l5.2-33-11.58-.27H10.54L49,12.84A3.25,3.25,0,0,1,50,10.93a3.15,3.15,0,0,1,2-.76h93.2c30.93,0,52.29,6.44,63.43,19.15a43.61,43.61,0,0,1,10.17,19c1.69,7.19,1.72,15.78.07,26.27l-.12.76v6.72l5.22,3a36.59,36.59,0,0,1,10.59,8.06,37.58,37.58,0,0,1,8.58,19.26c1.26,7.9.84,17.3-1.22,27.94-2.39,12.24-6.24,22.9-11.45,31.62a65,65,0,0,1-18.13,19.87,73.47,73.47,0,0,1-24.42,11,121.55,121.55,0,0,1-30.52,3.53h-7.26a21.84,21.84,0,0,0-21.57,18.41l-.54,3-9.18,58.17-.42,2.14a1.84,1.84,0,0,1-.58,1.24,1.5,1.5,0,0,1-1,.35Z"/><path class="cls-2" d="M229,76.18h0c-.28,1.77-.59,3.59-1,5.46-12.29,63.1-54.34,84.9-108,84.9H92.66a13.29,13.29,0,0,0-13.13,11.24h0l-14,88.79-4,25.16a7,7,0,0,0,6.9,8.09H117A11.66,11.66,0,0,0,128.49,290l.48-2.47,9.13-57.94.59-3.18a11.66,11.66,0,0,1,11.52-9.86h7.26c47,0,83.76-19.07,94.51-74.27,4.49-23.06,2.17-42.32-9.71-55.86A46.41,46.41,0,0,0,229,76.18Z"/><path class="cls-3" d="M216.14,71.05c-1.88-.55-3.82-1-5.81-1.49s-4-.83-6.15-1.16a150.91,150.91,0,0,0-24.1-1.76H107a11.52,11.52,0,0,0-5,1.14,11.66,11.66,0,0,0-6.48,8.71L80,174.91l-.45,2.87a13.29,13.29,0,0,1,13.13-11.24H120c53.7,0,95.75-21.81,108-84.9.37-1.87.67-3.69,1-5.46a65.47,65.47,0,0,0-10.1-4.27C218,71.61,217.07,71.33,216.14,71.05Z"/><path class="cls-1" d="M95.52,76.49A11.65,11.65,0,0,1,107,66.65h73.05a150.91,150.91,0,0,1,24.1,1.76q3.16.5,6.15,1.16c2,.45,3.93.94,5.81,1.49l2.76.85A66.46,66.46,0,0,1,229,76.18c3.66-23.32,0-39.2-12.64-53.58C202.46,6.78,177.38,0,145.28,0H52.08A13.31,13.31,0,0,0,38.92,11.26L.1,257.31A8,8,0,0,0,8,266.57H65.53L80,174.91Z"/></g></g></svg>