<svg xmlns="http://www.w3.org/2000/svg" width="266.74" height="300" viewBox="0 0 266.74 300"><defs><style>.cls-1{fill:#a6c307;}</style></defs><g id="Layer_2" data-name="Layer 2"><g id="Layer_1-2" data-name="Layer 1"><path class="cls-1" d="M213.77,75.33l-42.92,0a8.48,8.48,0,0,0-8.48,8.48v6h3c19.39,0,26.59,3.19,26.59,20.85v25.09h21.82a8.48,8.48,0,0,0,8.48-8.47V83.81a8.47,8.47,0,0,0-8.47-8.48M218,30.48H196.3A4.28,4.28,0,0,1,192,26.19V4.27A4.28,4.28,0,0,1,196.31,0H218a4.28,4.28,0,0,1,4.28,4.27V26.2A4.28,4.28,0,0,1,218,30.48m42.48,44.87H228.55a6.3,6.3,0,0,1-6.29-6.3V36.77a6.3,6.3,0,0,1,6.3-6.3l31.88,0a6.29,6.29,0,0,1,6.29,6.29V69.06a6.29,6.29,0,0,1-6.3,6.29m-89.6,60.37a8.48,8.48,0,0,1-8.48-8.48l0-37.46h-3.13c-19.38,0-26.59,3.2-26.59,20.85v41.31c0,.09,0,.18,0,.26v9.06c0,.31,0,.6,0,.93v57.72c0,7.05-1.35,12.66-4.16,17-5.28,8.15-15.74,11.85-32.48,11.87s-27.2-3.72-32.48-11.86c-2.81-4.36-4.17-10-4.17-17V162.19c0-.33,0-.62,0-.93V152.2c0-.08,0-.17,0-.26V110.63c0-17.65-7.21-20.85-26.59-20.85h-6.1C7.21,89.78,0,93,0,110.63V219.91c0,17.58,4,32.46,11.62,44.46C26.42,287.62,55.08,300,95.82,300h.3c40.74,0,69.4-12.38,84.19-35.63,7.66-12,11.62-26.88,11.62-44.46V135.73h-21.1"/></g></g></svg>