<svg xmlns="http://www.w3.org/2000/svg" viewBox="0 0 360.58 76.05"><defs><style>.cls-1{fill:#d6a4a7;}.cls-2{fill:#a94b5b;}.cls-3{fill:#8e1838;}</style></defs><g id="Layer_2" data-name="Layer 2"><g id="Layer_1-2" data-name="Layer 1"><polygon class="cls-1" points="89.09 0 66.77 49.02 151.9 9.19 89.09 0"/><polygon class="cls-2" points="55.78 3.65 33.45 52.67 118.58 12.84 55.78 3.65"/><polygon class="cls-3" points="22.33 7.09 0 56.11 85.14 16.28 22.33 7.09"/><path d="M192.77,67.08a33.73,33.73,0,0,0,10-24.14c0-18.26-14.2-33.11-31.64-33.11s-31.63,14.85-31.63,33.11,14.19,33.11,31.63,33.11h32.72v-9Zm-21.63,0c-12.5,0-22.66-10.83-22.66-24.14S158.64,18.8,171.14,18.8,193.8,29.63,193.8,42.94,183.64,67.08,171.14,67.08Z"/><polygon points="309.23 75.9 287.56 30.1 266.77 75.9 256.61 75.9 287.4 8.85 319.34 75.9 309.23 75.9"/><polygon points="360.58 8.85 336.31 41.28 336.22 75.92 327.25 75.89 327.33 41.3 302.88 8.85 313.75 8.85 331.73 34.24 350.88 8.85 360.58 8.85"/><path d="M249.3,8.06H212.61V75.91h9V47.43H249.3a16.22,16.22,0,0,0,16.2-16.2v-7A16.21,16.21,0,0,0,249.3,8.06Zm7.23,23.17a7.23,7.23,0,0,1-7.23,7.22H221.58V17H249.3a7.23,7.23,0,0,1,7.23,7.22Z"/></g></g></svg>