<?xml version="1.0" standalone="no"?>
<!DOCTYPE svg PUBLIC "-//W3C//DTD SVG 20010904//EN"
 "http://www.w3.org/TR/2001/REC-SVG-20010904/DTD/svg10.dtd">
<svg version="1.0" xmlns="http://www.w3.org/2000/svg"
 width="4097.000000pt" height="4097.000000pt" viewBox="0 0 4097.000000 4097.000000"
 preserveAspectRatio="xMidYMid meet">

<g transform="translate(0.000000,4097.000000) scale(0.100000,-0.100000)"
fill="#000000" stroke="none">
<path d="M5670 20820 c-621 -51 -1030 -205 -1367 -515 -314 -289 -513 -713
-592 -1260 -39 -267 -42 -417 -39 -1790 l3 -1320 21 -46 c129 -278 538 -234
601 64 10 49 13 339 13 1397 0 827 4 1377 10 1445 29 309 89 537 197 747 183
354 478 541 978 620 125 20 177 22 490 22 313 0 365 -2 490 -22 328 -52 531
-133 728 -292 242 -195 378 -498 444 -990 14 -110 17 -298 22 -1540 l6 -1415
23 -43 c35 -66 88 -119 150 -149 75 -37 191 -39 264 -6 69 32 131 94 162 163
l27 59 -4 1448 c-3 1027 -7 1473 -15 1533 -53 385 -122 640 -237 875 -136 279
-320 489 -575 660 -291 193 -610 298 -1055 345 -134 14 -614 21 -745 10z"/>
<path d="M11047 20820 c-271 -25 -539 -85 -752 -169 -744 -295 -1200 -943
-1319 -1871 -41 -313 -41 -719 0 -1025 102 -785 461 -1370 1060 -1730 478
-287 1123 -386 1852 -284 274 38 704 137 809 186 139 64 210 246 154 393 -39
101 -111 166 -220 196 -74 21 -91 18 -351 -49 -347 -89 -625 -127 -937 -127
-452 0 -806 99 -1094 306 -103 75 -289 266 -357 369 -146 219 -241 494 -289
835 -25 176 -25 661 0 840 105 752 435 1207 1014 1400 222 73 408 100 703 100
105 0 234 -5 288 -11 674 -73 1098 -416 1199 -970 24 -132 24 -390 0 -479 -51
-190 -145 -273 -390 -344 -139 -40 -292 -61 -917 -127 -646 -68 -659 -70 -734
-143 -73 -72 -91 -115 -91 -226 0 -80 4 -103 24 -144 50 -101 147 -167 256
-174 57 -3 1103 103 1308 133 732 108 1105 425 1186 1009 16 111 14 386 -4
518 -52 392 -206 723 -459 986 -319 331 -719 518 -1260 588 -143 18 -540 26
-679 14z"/>
<path d="M16170 20820 c-594 -57 -1043 -257 -1400 -626 -351 -362 -556 -822
-634 -1420 -39 -293 -39 -725 -1 -1019 65 -503 220 -905 484 -1250 64 -85 232
-256 321 -328 302 -244 674 -395 1115 -453 182 -24 581 -24 760 0 687 92 1197
401 1547 936 241 369 368 809 400 1392 33 600 -64 1162 -276 1593 -216 438
-527 752 -947 955 -208 100 -448 169 -709 205 -137 19 -526 27 -660 15z m540
-640 c47 -6 128 -20 182 -30 597 -121 1005 -533 1163 -1175 48 -196 66 -350
72 -617 14 -602 -83 -1026 -315 -1378 -70 -106 -270 -308 -371 -375 -276 -182
-592 -265 -1006 -265 -416 0 -730 82 -1000 262 -93 62 -269 233 -343 333 -247
336 -366 824 -349 1430 12 408 74 704 207 982 227 476 617 752 1169 828 118
16 476 19 591 5z"/>
</g>
</svg>
