<?xml version="1.0" encoding="UTF-8"?>
<svg width="166px" height="52px" viewBox="0 0 166 52" version="1.1" xmlns="http://www.w3.org/2000/svg" xmlns:xlink="http://www.w3.org/1999/xlink">
    <!-- Generator: Sketch 53.2 (72643) - https://sketchapp.com -->
    <title>Group 28</title>
    <desc>Created with Sketch.</desc>
    <defs>
        <polygon id="path-1" points="0.0476775229 0.407182609 21.7403081 0.407182609 21.7403081 19.2173913 0.0476775229 19.2173913"></polygon>
        <polygon id="path-3" points="0 0.120108696 18.0593836 0.120108696 18.0593836 33.2051087 0 33.2051087"></polygon>
        <polygon id="path-5" points="0 51.7979913 165.713324 51.7979913 165.713324 -0.000226086957 0 -0.000226086957"></polygon>
    </defs>
    <g id="Design" stroke="none" stroke-width="1" fill="none" fill-rule="evenodd">
        <g id="SkipCash---Landing-page---Consumer---2800" transform="translate(-700.000000, -51.000000)">
            <g id="Group-28" transform="translate(700.000000, 51.000000)">
                <g id="Group-3" transform="translate(3.965870, 32.580600)">
                    <mask id="mask-2" fill="white">
                        <use xlink:href="#path-1"></use>
                    </mask>
                    <g id="Clip-2"></g>
                    <path d="M18.1211379,1.82757391 L16.6968239,0.407182609 L2.86783413,14.2035739 L2.86726758,14.2041391 L0.508141297,16.5577043 C-0.475394539,17.5389217 0.220898976,19.2176174 1.6123529,19.2176174 L4.94821638,19.2176174 L10.9502778,19.2176174 L15.316701,19.2176174 L15.3172676,19.2176174 C16.5563188,19.216487 17.7426805,18.8321391 18.7466123,18.1058348 L18.9494382,17.9600087 L19.1075065,17.7667043 C20.9861959,15.4815304 21.9113768,12.6017478 21.7142164,9.65753043 C21.5193222,6.75683478 20.2468444,3.97992174 18.1211379,1.82757391" id="Fill-1" fill="#017DFB" mask="url(#mask-2)"></path>
                </g>
                <path d="M30.4016253,0 L27.0657618,0 L21.0642669,0 L16.6972771,0 C15.4576594,0.000565217391 14.2718642,0.384913043 13.2673659,1.11121739 L13.0645399,1.2576087 L12.9064717,1.45034783 C11.0283488,3.73552174 10.1026014,6.61586957 10.3003283,9.56008696 C10.494656,12.4602174 11.7671338,15.2376957 13.8928403,17.3900435 L15.3171543,18.8104348 L29.146144,5.01347826 L29.1467106,5.01347826 L31.5058369,2.65991304 C32.4899392,1.67813043 31.7930792,0 30.4016253,0" id="Fill-4" fill="#017DFB"></path>
                <path d="M18.2196614,36.0171217 C16.9449174,34.7374696 13.5342689,31.3196 13.0685625,30.8776 L13.0419345,30.8516 C10.8935659,28.7320348 9.8635727,25.8279478 10.1417502,22.6746 C10.3989652,19.7614696 11.7275317,16.9557304 13.8832655,14.7734261 L15.3189106,13.3451217 L29.1462007,27.1398174 C29.9909311,27.9831217 30.2413474,29.2390348 29.7841392,30.3406435 C29.4124805,31.2353826 28.6385693,31.8729478 27.720187,32.0803826 L19.2853474,37.0870783 L18.2196614,36.0171217 Z" id="Fill-6" fill="#0D3498"></path>
                <g id="Group-10" transform="translate(0.000000, 0.363209)">
                    <mask id="mask-4" fill="white">
                        <use xlink:href="#path-3"></use>
                    </mask>
                    <g id="Clip-9"></g>
                    <path d="M16.623172,17.1438913 L18.0593836,15.715587 L16.6430014,14.3031087 C16.6418683,14.3019783 16.6413017,14.3008478 16.6401686,14.2997174 L16.6350696,14.2946304 C14.5093631,12.1428478 13.2368853,9.36536957 13.0419911,6.46467391 C12.9241481,4.70628261 13.1502027,2.29619565 14.368858,0.120108696 L13.2686123,0.7475 C13.0176294,0.928369565 12.7808102,1.12958696 12.5649536,1.34436957 L1.29508328,12.5876739 C-0.432336519,14.311587 -0.431769966,17.1167609 1.29621638,18.8401087 L6.74702184,24.2786304 L13.0419911,30.4881087 L15.7659775,33.2051087 C13.6289399,31.0872391 12.6046123,28.1899348 12.8822232,25.0450652 C13.1394382,22.1319348 14.4674382,19.3261957 16.623172,17.1438913" id="Fill-8" fill="#0851C0" mask="url(#mask-4)"></path>
                </g>
                <path d="M15.8087522,33.6108217 L15.7656942,33.5684304 C15.7713597,33.5735174 15.7764587,33.5797348 15.7821242,33.585387 L15.8087522,33.6108217 Z" id="Fill-11" fill="#0851C0"></path>
                <path d="M18.9200908,17.1138217 L18.9631488,17.1567783 C18.9569167,17.1511261 18.9523843,17.1449087 18.9467188,17.1392565 L18.9200908,17.1138217 Z" id="Fill-13" fill="#0851C0"></path>
                <path d="M19.3623986,34.2894783 L17.926187,35.7177826 L19.3425693,37.1302609 C19.3437024,37.1313913 19.3442689,37.1325217 19.345402,37.133087 L19.350501,37.1381739 C21.4762075,39.2905217 22.7486853,42.0674348 22.9435795,44.9686957 C23.0614225,46.727087 22.8353679,49.1371739 21.6167126,51.3132609 L22.7169584,50.6858696 C22.9679413,50.5044348 23.2047604,50.3037826 23.4206171,50.089 L34.6904874,38.8456957 C36.4179072,37.1212174 36.4173406,34.3166087 34.6893543,32.5932609 L29.2385488,27.1547391 L22.9435795,20.9452609 L20.2195932,18.2282609 C22.3566307,20.3461304 23.3809584,23.2434348 23.1033474,26.3883043 C22.8461324,29.3014348 21.5181324,32.1071739 19.3623986,34.2894783" id="Fill-15" fill="#0851C0"></path>
                <path d="M50.5656962,33.1181783 C49.4099283,32.896613 48.4592526,32.5908304 47.7125358,32.2008304 L47.7125358,27.9707435 C48.6722765,28.4670043 49.6728089,28.8400478 50.713,29.087613 C51.7526246,29.3368739 52.7435256,29.4600913 53.6862696,29.4600913 C54.5570614,29.4600913 55.2148294,29.3272652 55.6590068,29.0610478 C56.1031843,28.7953957 56.3258396,28.4144391 56.3258396,27.917613 C56.3258396,27.5451348 56.2057304,27.2212652 55.9660785,26.9460043 C55.7258601,26.6718739 55.3745973,26.4186565 54.9128567,26.1880478 C54.4499829,25.9580043 53.7304608,25.6386565 52.7525904,25.2305696 C51.0280034,24.5031348 49.7747884,23.6965696 48.9929454,22.8097435 C48.2099693,21.9223522 47.8190478,20.8320478 47.8190478,19.5371348 C47.8190478,18.4728304 48.1170546,17.5243957 48.7125017,16.6907 C49.3079488,15.8570043 50.1390819,15.2092652 51.205901,14.7480478 C52.2727201,14.2873957 53.4993072,14.0562217 54.8862287,14.0562217 C56.0238669,14.0562217 57.0368635,14.1455261 57.925785,14.3224391 C58.815273,14.5004826 59.6679352,14.7836565 60.4860375,15.1742217 L60.4860375,19.2974826 C58.9212184,18.4818739 57.3484676,18.073787 55.7660853,18.073787 C54.9128567,18.073787 54.2329932,18.2117 53.7259283,18.4858304 C53.21943,18.7616565 52.9656143,19.1561783 52.9656143,19.6699609 C52.9656143,20.1843087 53.2233959,20.6008739 53.7395256,20.9202217 C54.2550887,21.2395696 55.2057645,21.674787 56.592686,22.2241783 C57.8543993,22.7390913 58.8373686,23.2438304 59.5393276,23.7406565 C60.2412867,24.2369174 60.7523174,24.8140043 61.0729863,25.4696565 C61.3925222,26.1264391 61.5528567,26.9595696 61.5528567,27.9707435 C61.5528567,29.6912652 60.9262491,31.0342217 59.6724676,32.0007435 C58.4192526,32.9678304 56.5484949,33.4510913 54.0590614,33.4510913 C52.8862969,33.4510913 51.7214642,33.3403087 50.5656962,33.1181783" id="Fill-17" fill="#0D3498"></path>
                <polygon id="Fill-19" fill="#0D3498" points="63.4187986 13.3913565 68.1121229 13.3913565 68.1121229 25.4163565 72.3255768 20.2819217 77.7123618 20.2819217 72.6190512 26.4540957 78.4058225 33.0518783 73.0190375 33.0518783 68.1121229 27.4387043 68.1121229 33.0518783 63.4187986 33.0518783"></polygon>
                <mask id="mask-6" fill="white">
                    <use xlink:href="#path-5"></use>
                </mask>
                <g id="Clip-22"></g>
                <path d="M79.8986894,33.0519913 L84.5920137,33.0519913 L84.5920137,20.2820348 L79.8986894,20.2820348 L79.8986894,33.0519913 Z M80.4590102,17.8877739 C79.9791399,17.4265565 79.7389215,16.8409913 79.7389215,16.1316435 C79.7389215,15.4403826 79.9791399,14.8593391 80.4590102,14.3890783 C80.9388805,13.9193826 81.5343276,13.683687 82.2459181,13.683687 C82.9388123,13.683687 83.529727,13.9193826 84.0186621,14.3890783 C84.5075973,14.8593391 84.7517816,15.4403826 84.7517816,16.1316435 C84.7517816,16.8234696 84.5075973,17.404513 84.0186621,17.8742087 C83.529727,18.3444696 82.9388123,18.5790348 82.2459181,18.5790348 C81.5343276,18.5790348 80.9388805,18.3489913 80.4590102,17.8877739 L80.4590102,17.8877739 Z" id="Fill-21" fill="#0D3498" mask="url(#mask-6)"></path>
                <path d="M97.3124294,28.9546739 C97.8993782,28.3871957 98.1928526,27.6162391 98.1928526,26.6401087 C98.1928526,25.6651087 97.8993782,24.8975435 97.3124294,24.3391087 C96.7260471,23.7806739 95.9527024,23.5014565 94.9923952,23.5014565 C94.2808048,23.5014565 93.6417331,23.6834565 93.072914,24.0463261 C92.5035283,24.4103261 92.0944771,24.9020652 91.846327,25.5232391 L91.846327,27.7846739 C92.0944771,28.4052826 92.5035283,28.897587 93.072914,29.2610217 C93.6417331,29.6250217 94.2808048,29.8064565 94.9923952,29.8064565 C95.9527024,29.8064565 96.7260471,29.5227174 97.3124294,28.9546739 L97.3124294,28.9546739 Z M87.1524362,20.2819783 L91.6854259,20.2819783 L91.6854259,21.5588043 C92.8768867,20.4413696 94.3878833,19.8829348 96.2189823,19.8829348 C97.5526478,19.8829348 98.7350437,20.1621522 99.76617,20.7211522 C100.79673,21.279587 101.596702,22.0686304 102.165522,23.0888478 C102.734341,24.1090652 103.019317,25.2926304 103.019317,26.6401087 C103.019317,27.9706304 102.734341,29.1547609 102.165522,30.1919348 C101.596702,31.2291087 100.801262,32.0322826 99.7792007,32.5997609 C98.7571392,33.1672391 97.5702109,33.4509783 96.2189823,33.4509783 C95.3657536,33.4509783 94.5527502,33.3226739 93.7794055,33.0649348 C93.0054942,32.8083261 92.3613235,32.4578913 91.846327,32.0141957 L91.846327,38.8781957 L87.1524362,38.8781957 L87.1524362,20.2819783 Z" id="Fill-23" fill="#0D3498" mask="url(#mask-6)"></path>
                <path d="M109.165736,32.2803 C107.627545,31.5003 106.441183,30.3783435 105.606084,28.9149957 C104.769852,27.4516478 104.352302,25.7356478 104.352302,23.7669957 C104.352302,21.7983435 104.769852,20.0823435 105.606084,18.6189957 C106.441183,17.1556478 107.627545,16.0297348 109.165736,15.2406913 C110.70336,14.4516478 112.485736,14.0565609 114.512862,14.0565609 C115.845961,14.0565609 117.036855,14.189387 118.085545,14.4556043 C119.134801,14.7218217 120.103606,15.1389522 120.992528,15.7064304 L120.992528,20.1756043 C120.210118,19.5549957 119.326296,19.1028217 118.338794,18.8190826 C117.352425,18.5353435 116.219319,18.3934739 114.93891,18.3934739 C113.107811,18.3934739 111.694828,18.8682565 110.698828,19.8161261 C109.703395,20.7656913 109.205395,22.0820826 109.205395,23.7669957 C109.205395,25.4524739 109.707927,26.773387 110.712425,27.7308652 C111.716924,28.6889087 113.125941,29.1676478 114.93891,29.1676478 C116.219319,29.1676478 117.366023,29.0173 118.379586,28.7154739 C119.392582,28.414213 120.33476,27.9354739 121.206118,27.2786913 L121.206118,31.7218652 C119.517224,32.8749087 117.285572,33.4508652 114.512862,33.4508652 C112.485736,33.4508652 110.70336,33.0608652 109.165736,32.2803" id="Fill-24" fill="#0D3498" mask="url(#mask-6)"></path>
                <path d="M130.753441,30.2451783 C131.233878,30.023613 131.597605,29.7359174 131.847455,29.3809609 L131.847455,28.2629609 C131.082608,27.7491783 130.21125,27.4920043 129.23338,27.4920043 C128.611304,27.4920043 128.130868,27.6248304 127.793202,27.8904826 C127.456103,28.1567 127.28727,28.5472652 127.28727,29.0610478 C127.28727,29.5403522 127.451004,29.9128304 127.780171,30.1790478 C128.109339,30.4452652 128.584676,30.5780913 129.207318,30.5780913 C129.758008,30.5780913 130.273571,30.4673087 130.753441,30.2451783 M123.940642,32.2935261 C122.953141,31.5225696 122.46024,30.4452652 122.46024,29.0610478 C122.46024,27.6248304 122.935577,26.5203957 123.88682,25.7494391 C124.838062,24.9779174 126.202322,24.5918739 127.980165,24.5918739 C128.673625,24.5918739 129.367086,24.667613 130.05998,24.8179609 C130.753441,24.9688739 131.349455,25.1683957 131.847455,25.4165261 L131.847455,25.1503087 C131.847455,23.7847435 130.726813,23.1019609 128.487229,23.1019609 C126.92241,23.1019609 125.491298,23.403787 124.193891,24.0068739 L124.193891,20.7873957 C124.762711,20.5217435 125.508861,20.3041348 126.433475,20.1357 C127.358089,19.9672652 128.31783,19.8830478 129.31383,19.8830478 C131.695618,19.8830478 133.496124,20.3578304 134.713646,21.3062652 C135.931168,22.2552652 136.540779,23.5807 136.540779,25.2837 L136.540779,33.0520478 L132.140362,33.0520478 L132.140362,31.9611783 C131.660492,32.4229609 131.055414,32.7858304 130.326827,33.0520478 C129.597673,33.3182652 128.762008,33.4510913 127.820397,33.4510913 C126.220451,33.4510913 124.927011,33.0650478 123.940642,32.2935261" id="Fill-25" fill="#0D3498" mask="url(#mask-6)"></path>
                <path d="M140.700184,33.1452522 C139.579542,32.9417739 138.69062,32.6529478 138.033419,32.2804696 L138.033419,28.8484696 C138.762006,29.2740783 139.63733,29.624513 140.659958,29.8992087 C141.68202,30.1744696 142.620231,30.3118174 143.47346,30.3118174 C144.095535,30.3118174 144.548777,30.2677304 144.833754,30.1789913 C145.117597,30.0902522 145.260368,29.9127739 145.260368,29.6471217 C145.260368,29.4340348 145.166887,29.2610783 144.980491,29.1282522 C144.793528,28.9948609 144.455296,28.8529913 143.966928,28.7026435 C143.477426,28.5517304 142.913139,28.3872522 142.272934,28.2103391 C141.188552,27.8904261 140.335324,27.5626 139.713248,27.2257304 C139.090607,26.8894261 138.628866,26.4632522 138.326894,25.9489043 C138.023788,25.4339913 137.873651,24.7873826 137.873651,24.0068174 C137.873651,22.6231652 138.420375,21.590513 139.513255,20.9071652 C140.606702,20.2249478 142.104668,19.8829913 144.006586,19.8829913 C144.931201,19.8829913 145.904539,19.9807739 146.9266,20.1757739 C147.948661,20.3707739 148.717474,20.6279478 149.233603,20.9472957 L149.233603,24.3256 C148.699911,23.9712087 147.993419,23.6784261 147.112996,23.4478174 C146.233706,23.2177739 145.410504,23.1019043 144.646791,23.1019043 C144.041713,23.1019043 143.570907,23.1595565 143.233808,23.2748609 C142.895576,23.3901652 142.726743,23.5902522 142.726743,23.8739913 C142.726743,24.1396435 142.895576,24.343687 143.233808,24.4855565 C143.570907,24.6279913 144.175419,24.8043391 145.046777,25.0174261 C145.615597,25.1598609 145.855815,25.2214696 145.7663,25.2033826 C146.903938,25.5052087 147.784361,25.8420783 148.407003,26.2145565 C149.029078,26.5870348 149.469289,27.0262087 149.727071,27.531513 C149.984286,28.0373826 150.11346,28.6806 150.11346,29.4600348 C150.11346,30.6842957 149.5843,31.6553391 148.526545,32.3737304 C147.468791,33.0915565 145.935132,33.4510348 143.926702,33.4510348 C142.895576,33.4510348 141.820259,33.3487304 140.700184,33.1452522" id="Fill-26" fill="#0D3498" mask="url(#mask-6)"></path>
                <path d="M151.446446,13.3913565 L156.13977,13.3913565 L156.13977,21.585313 C156.708589,21.0178348 157.361825,20.5922261 158.100043,20.308487 C158.837695,20.0247478 159.615572,19.8828783 160.433108,19.8828783 C162.228514,19.8828783 163.557647,20.3486174 164.419941,21.2795304 C165.282234,22.2110087 165.713381,23.4748348 165.713381,25.0704435 L165.713381,33.0518783 L161.01949,33.0518783 L161.01949,25.6825739 C161.01949,24.2457913 160.361722,23.5279652 159.046753,23.5279652 C158.442241,23.5279652 157.890985,23.665313 157.392985,23.9400087 C156.894985,24.2152696 156.477435,24.6363565 156.13977,25.2032696 L156.13977,33.0518783 L151.446446,33.0518783 L151.446446,13.3913565 Z" id="Fill-27" fill="#0D3498" mask="url(#mask-6)"></path>
            </g>
        </g>
    </g>
</svg>