<?xml version="1.0" encoding="UTF-8"?>
<!DOCTYPE svg PUBLIC "-//W3C//DTD SVG 1.1//EN" "http://www.w3.org/Graphics/SVG/1.1/DTD/svg11.dtd">
<svg xmlns="http://www.w3.org/2000/svg" version="1.1" width="48px" height="55px" style="shape-rendering:geometricPrecision; text-rendering:geometricPrecision; image-rendering:optimizeQuality; fill-rule:evenodd; clip-rule:evenodd" xmlns:xlink="http://www.w3.org/1999/xlink">
<g><path style="opacity:1" fill="#fefcfc" d="M -0.5,-0.5 C 15.5,-0.5 31.5,-0.5 47.5,-0.5C 47.5,17.8333 47.5,36.1667 47.5,54.5C 31.5,54.5 15.5,54.5 -0.5,54.5C -0.5,51.5 -0.5,48.5 -0.5,45.5C 1.5,46.1667 3.5,46.8333 5.5,47.5C 5.97306,48.9063 6.97306,49.573 8.5,49.5C 8.83333,49.5 9.16667,49.5 9.5,49.5C 10.209,50.404 11.209,50.7373 12.5,50.5C 12.307,46.4338 12.6403,42.4338 13.5,38.5C 14.2223,39.5511 15.2223,40.2178 16.5,40.5C 19.9373,43.552 23.9373,45.552 28.5,46.5C 28.6107,47.1174 28.944,47.6174 29.5,48C 34.6842,48.8163 39.6842,48.6497 44.5,47.5C 43.5863,44.272 43.2529,40.9387 43.5,37.5C 43.5,36.5 43.5,35.5 43.5,34.5C 40.3995,36.2289 37.0662,37.5623 33.5,38.5C 28.1563,38.666 22.8229,38.4994 17.5,38C 15.8807,37.7645 14.8807,36.9311 14.5,35.5C 16.4077,34.5144 17.4077,32.8477 17.5,30.5C 18.1667,29.5 18.8333,28.5 19.5,27.5C 22.0147,26.9254 22.5147,25.9254 21,24.5C 19.5405,24.8082 18.3739,25.4749 17.5,26.5C 16.5084,26.3284 15.8417,26.6618 15.5,27.5C 13.9731,27.427 12.9731,28.0937 12.5,29.5C 7.13926,32.8607 2.80592,37.1941 -0.5,42.5C -0.5,28.1667 -0.5,13.8333 -0.5,-0.5 Z"/></g>
<g><path style="opacity:1" fill="#f04a4d" d="M 30.5,17.5 C 31.4591,23.1385 31.6258,28.8051 31,34.5C 30.7216,33.5842 30.2216,32.9175 29.5,32.5C 29.5674,31.0413 29.2341,29.7079 28.5,28.5C 28.573,26.9731 27.9063,25.9731 26.5,25.5C 26.573,23.9731 25.9063,22.9731 24.5,22.5C 24.1667,21.8333 23.8333,21.1667 23.5,20.5C 22.7377,18.7376 21.4044,17.7376 19.5,17.5C 17.5177,16.5088 15.5177,15.5088 13.5,14.5C 16.9516,11.6007 20.6183,8.93406 24.5,6.5C 27.793,9.4163 29.793,13.083 30.5,17.5 Z"/></g>
<g><path style="opacity:1" fill="#f68b8c" d="M 19.5,17.5 C 21.4044,17.7376 22.7377,18.7376 23.5,20.5C 21.5956,20.2624 20.2623,19.2624 19.5,17.5 Z"/></g>
<g><path style="opacity:1" fill="#f9b1b2" d="M 24.5,22.5 C 25.9063,22.9731 26.573,23.9731 26.5,25.5C 25.0937,25.0269 24.427,24.0269 24.5,22.5 Z"/></g>
<g><path style="opacity:1" fill="#f6898a" d="M 19.5,27.5 C 19.1583,26.6618 18.4916,26.3284 17.5,26.5C 18.3739,25.4749 19.5405,24.8082 21,24.5C 22.5147,25.9254 22.0147,26.9254 19.5,27.5 Z"/></g>
<g><path style="opacity:1" fill="#f8a5a7" d="M 26.5,25.5 C 27.9063,25.9731 28.573,26.9731 28.5,28.5C 27.0937,28.0269 26.427,27.0269 26.5,25.5 Z"/></g>
<g><path style="opacity:1" fill="#f68586" d="M 15.5,27.5 C 15.0269,28.9063 14.0269,29.573 12.5,29.5C 12.9731,28.0937 13.9731,27.427 15.5,27.5 Z"/></g>
<g><path style="opacity:1" fill="#f04b4d" d="M 17.5,26.5 C 18.4916,26.3284 19.1583,26.6618 19.5,27.5C 18.8333,28.5 18.1667,29.5 17.5,30.5C 15.7497,31.6594 14.7497,33.326 14.5,35.5C 13.596,36.209 13.2627,37.209 13.5,38.5C 12.8826,38.6107 12.3826,38.944 12,39.5C 12.0835,43.3113 11.2501,46.6446 9.5,49.5C 9.16667,49.5 8.83333,49.5 8.5,49.5C 8.02694,48.0937 7.02694,47.427 5.5,47.5C 3.5,46.8333 1.5,46.1667 -0.5,45.5C -0.5,44.5 -0.5,43.5 -0.5,42.5C 2.80592,37.1941 7.13926,32.8607 12.5,29.5C 14.0269,29.573 15.0269,28.9063 15.5,27.5C 15.8417,26.6618 16.5084,26.3284 17.5,26.5 Z"/></g>
<g><path style="opacity:1" fill="#f9aeaf" d="M 30.5,17.5 C 31.2216,17.9175 31.7216,18.5842 32,19.5C 32.4994,25.1569 32.6661,30.8236 32.5,36.5C 31.5,36.5 30.5,36.5 29.5,36.5C 29.5,35.1667 29.5,33.8333 29.5,32.5C 30.2216,32.9175 30.7216,33.5842 31,34.5C 31.6258,28.8051 31.4591,23.1385 30.5,17.5 Z"/></g>
<g><path style="opacity:1" fill="#fcc9ca" d="M 17.5,30.5 C 17.4077,32.8477 16.4077,34.5144 14.5,35.5C 14.7497,33.326 15.7497,31.6594 17.5,30.5 Z"/></g>
<g><path style="opacity:1" fill="#f04649" d="M 43.5,37.5 C 43.2529,40.9387 43.5863,44.272 44.5,47.5C 39.1053,47.7335 33.772,47.4002 28.5,46.5C 23.9373,45.552 19.9373,43.552 16.5,40.5C 22.003,40.7365 27.6696,40.4032 33.5,39.5C 37.0254,39.6541 39.8587,38.3208 42,35.5C 42.2784,36.4158 42.7784,37.0825 43.5,37.5 Z"/></g>
<g><path style="opacity:1" fill="#fcd3d3" d="M 14.5,35.5 C 14.8807,36.9311 15.8807,37.7645 17.5,38C 22.8229,38.4994 28.1563,38.666 33.5,38.5C 33.5,38.8333 33.5,39.1667 33.5,39.5C 27.6696,40.4032 22.003,40.7365 16.5,40.5C 15.2223,40.2178 14.2223,39.5511 13.5,38.5C 13.2627,37.209 13.596,36.209 14.5,35.5 Z"/></g>
<g><path style="opacity:1" fill="#f57e7f" d="M 43.5,37.5 C 42.7784,37.0825 42.2784,36.4158 42,35.5C 39.8587,38.3208 37.0254,39.6541 33.5,39.5C 33.5,39.1667 33.5,38.8333 33.5,38.5C 37.0662,37.5623 40.3995,36.2289 43.5,34.5C 43.5,35.5 43.5,36.5 43.5,37.5 Z"/></g>
<g><path style="opacity:1" fill="#f69093" d="M 13.5,38.5 C 12.6403,42.4338 12.307,46.4338 12.5,50.5C 11.209,50.7373 10.209,50.404 9.5,49.5C 11.2501,46.6446 12.0835,43.3113 12,39.5C 12.3826,38.944 12.8826,38.6107 13.5,38.5 Z"/></g>
<g><path style="opacity:1" fill="#f79092" d="M 28.5,46.5 C 33.772,47.4002 39.1053,47.7335 44.5,47.5C 39.6842,48.6497 34.6842,48.8163 29.5,48C 28.944,47.6174 28.6107,47.1174 28.5,46.5 Z"/></g>
<g><path style="opacity:1" fill="#f89fa1" d="M 5.5,47.5 C 7.02694,47.427 8.02694,48.0937 8.5,49.5C 6.97306,49.573 5.97306,48.9063 5.5,47.5 Z"/></g>
</svg>
