<svg width="42" height="28" viewBox="0 0 42 28" fill="none" xmlns="http://www.w3.org/2000/svg">
<g clip-path="url(#clip0_799_5921)">
<mask id="mask0_799_5921" style="mask-type:luminance" maskUnits="userSpaceOnUse" x="0" y="8" width="42" height="12">
<path d="M42 8.68353H0V19.3164H42V8.68353Z" fill="white"/>
</mask>
<g mask="url(#mask0_799_5921)">
<path d="M27.7342 12.86C27.7342 13.9788 26.9297 14.6907 25.6445 14.6907H23.4995V8.76401H25.7832C26.865 8.76401 27.5308 9.33726 27.5308 10.2526C27.5308 10.7889 27.2441 11.205 26.7726 11.4269C27.3828 11.658 27.7342 12.1665 27.7342 12.86ZM25.6815 9.63313H24.5073V11.094H25.6723C26.2086 11.094 26.5414 10.8074 26.5414 10.3636C26.5414 9.89202 26.2363 9.63313 25.6815 9.63313ZM26.7263 12.86C26.7263 12.2867 26.3195 11.9631 25.5983 11.9631H24.5073V13.8308H25.5891C26.2918 13.8216 26.7263 13.4517 26.7263 12.86Z" fill="#03BB86"/>
<path d="M31.9965 11.7598V14.6908H31.0258V14.1914C30.7391 14.5891 30.2768 14.811 29.6758 14.811C28.8344 14.811 28.252 14.2932 28.252 13.535C28.252 12.8508 28.6773 12.37 29.3892 12.2868L31.0258 12.0834V11.88C31.0258 11.6396 30.8963 11.5101 30.6744 11.5101H28.6218V10.641H30.7114C31.5343 10.641 31.9965 11.0386 31.9965 11.7598ZM31.0258 13.3593V12.8415L29.7775 13.0172C29.4262 13.0635 29.2412 13.2484 29.2412 13.535C29.2412 13.8494 29.4817 14.0343 29.9162 14.0343C30.397 14.0343 30.8593 13.7569 31.0258 13.3593Z" fill="#03BB86"/>
<path d="M37.017 12.1018V14.6907H36.0277V12.3422C36.0277 11.8152 35.778 11.4269 35.1955 11.4269C34.7609 11.4269 34.2802 11.7135 34.086 12.1203V14.6907H33.0967V10.641H34.086V11.1495C34.4189 10.7519 34.9089 10.53 35.4914 10.53C36.4438 10.53 37.017 11.1587 37.017 12.1018Z" fill="#03BB86"/>
<path d="M39.4951 12.9709H39.0421V14.6907H38.0527V8.76401H39.0421V12.1758H39.4858L40.6046 10.6409H41.7419L40.3088 12.5271L41.8158 14.6907H40.6508L39.4951 12.9709Z" fill="#03BB86"/>
<path d="M3.35249 19.2859C4.41578 19.2859 5.28491 18.9531 5.84892 18.3983C6.27423 17.973 6.5239 17.3997 6.5239 16.7432C6.5239 16.1422 6.30199 15.606 5.89512 15.1899C5.4883 14.7831 4.89657 14.478 4.15689 14.3393L2.93642 14.0989C2.42789 14.0064 2.15051 13.7475 2.15051 13.4054C2.15051 12.9431 2.59432 12.6288 3.30626 12.6288C3.75007 12.6288 4.12915 12.7675 4.3788 13.0263C4.53598 13.202 4.64693 13.4239 4.67467 13.6736L6.43139 13.276C6.38519 12.7675 6.14478 12.3236 5.78416 11.9631C5.21094 11.3898 4.33256 11.0292 3.28777 11.0292C2.32618 11.0292 1.52178 11.3436 0.967019 11.8521C0.495473 12.2959 0.227338 12.8969 0.227338 13.5626C0.227338 14.1451 0.421504 14.6351 0.800593 15.0143C1.17968 15.3933 1.73444 15.6799 2.45563 15.8556L3.65761 16.1422C4.2586 16.281 4.52673 16.5029 4.52673 16.9004C4.52673 17.3904 4.08292 17.6771 3.36174 17.6771C2.84396 17.6771 2.40939 17.5014 2.14126 17.2148C1.9471 17.0206 1.84539 16.771 1.8269 16.4844L0.0239258 16.8819C0.0701561 17.4182 0.319798 17.8898 0.698884 18.2688C1.29988 18.9068 2.26146 19.2859 3.35249 19.2859Z" fill="#4F008C"/>
<path d="M17.8318 19.2859C18.9968 19.2859 19.903 18.8606 20.5224 18.2596C21.0124 17.7881 21.3083 17.2333 21.4748 16.66L19.6255 16.0405C19.5423 16.3272 19.3852 16.623 19.1355 16.8634C18.8397 17.1501 18.4236 17.3535 17.8411 17.3535C17.3048 17.3535 16.7963 17.1501 16.4357 16.7802C16.0751 16.4012 15.8532 15.8464 15.8532 15.1529C15.8532 14.4595 16.0751 13.9047 16.4357 13.5256C16.7963 13.165 17.2863 12.9709 17.8226 12.9709C18.3958 12.9709 18.7842 13.165 19.0708 13.4424C19.3112 13.6828 19.4499 13.9787 19.5423 14.2838L21.4193 13.6551C21.2806 13.1003 20.9755 12.5455 20.5317 12.0925C19.903 11.473 18.9783 11.0292 17.7671 11.0292C16.6483 11.0292 15.6313 11.4545 14.9101 12.185C14.1796 12.9246 13.7451 13.9509 13.7451 15.1529C13.7451 16.3549 14.2074 17.3812 14.9471 18.1209C15.659 18.8606 16.6853 19.2859 17.8318 19.2859Z" fill="#4F008C"/>
<path d="M9.26984 19.0455V12.9616H7.18945V11.1216H13.4213V12.9616H11.3317V19.0455H9.26984Z" fill="#4F008C"/>
</g>
</g>
<defs>
<clipPath id="clip0_799_5921">
<rect width="42" height="10.6329" fill="white" transform="translate(0 8.68353)"/>
</clipPath>
</defs>
</svg>
