<svg xmlns="http://www.w3.org/2000/svg" width="105" height="31" fill="none"><path fill="#4F008C" d="M10.227 30.989c2.774.1 5.48-.872 7.552-2.713a6.962 6.962 0 0 0 2.085-5.065 6.603 6.603 0 0 0-1.933-4.732 9.994 9.994 0 0 0-5.318-2.593l-3.73-.723c-1.511-.302-2.418-1.07-2.418-2.125 0-1.402 1.36-2.367 3.535-2.367a4.613 4.613 0 0 1 3.293 1.206c.503.547.82 1.238.907 1.974l5.377-1.205a6.536 6.536 0 0 0-1.994-4.01 10.724 10.724 0 0 0-7.553-2.833c-2.601-.082-5.14.81-7.115 2.502A7.04 7.04 0 0 0 .65 13.52a6.017 6.017 0 0 0 1.737 4.431 10.46 10.46 0 0 0 5.06 2.578l3.67.874c1.844.422 2.66 1.1 2.66 2.306 0 1.507-1.345 2.366-3.566 2.366a5.025 5.025 0 0 1-3.73-1.402 3.327 3.327 0 0 1-.967-2.215L0 23.664a6.867 6.867 0 0 0 2.085 4.25 11.15 11.15 0 0 0 8.127 3.014l.015.06Zm40.77-.06a11.471 11.471 0 0 0 8.218-3.15 10.546 10.546 0 0 0 2.915-4.869l-5.665-1.884a5.47 5.47 0 0 1-1.51 2.517 5.566 5.566 0 0 1-3.943 1.507 6.053 6.053 0 0 1-4.305-1.733 7.044 7.044 0 0 1-1.737-4.929 6.969 6.969 0 0 1 1.782-4.974 6.05 6.05 0 0 1 4.26-1.688 5.192 5.192 0 0 1 3.822 1.507 6.133 6.133 0 0 1 1.51 2.563l5.756-1.93a10.967 10.967 0 0 0-2.704-4.777 11.786 11.786 0 0 0-8.474-3.226 12.29 12.29 0 0 0-8.747 3.512 13.172 13.172 0 0 0 .091 18.087 12.492 12.492 0 0 0 8.746 3.527l-.015-.06Zm-19.517.06a8.185 8.185 0 0 0 5.076-1.508v-5.154c-.95.65-2.08.987-3.233.964a2.711 2.711 0 0 1-2.415-.759 2.698 2.698 0 0 1-.727-2.42V0h-6.36v6.526h12.765v6.165H23.822v10.957a7.36 7.36 0 0 0 1.888 5.26 7.948 7.948 0 0 0 5.8 2.08"/><path fill="#03BB86" d="M68.343 22.88V6.532h2.752v1.293a4.44 4.44 0 0 1 3.61-1.62c3.165 0 5.443 2.542 5.443 6.183 0 3.642-2.204 6.258-5.444 6.258a4.42 4.42 0 0 1-3.61-1.65v5.945l-2.75-.06Zm2.752-11.89v2.973a3.43 3.43 0 0 0 1.251 1.53 3.406 3.406 0 0 0 1.885.58c1.834 0 3.047-1.382 3.047-3.612 0-2.229-1.213-3.582-3.047-3.582a3.317 3.317 0 0 0-1.892.56 3.34 3.34 0 0 0-1.244 1.536M82.015 14.399a3.251 3.251 0 0 1 .938-2.424 3.751 3.751 0 0 1 2.498-1.108l4.934-.582v-.581a.856.856 0 0 0-.035-.414.906.906 0 0 0-.228-.356.993.993 0 0 0-.373-.227 1.052 1.052 0 0 0-.442-.05h-6.245V6.2h6.245c2.499 0 3.888 1.134 3.888 3.17v8.3h-2.81v-1.454a4.718 4.718 0 0 1-1.804 1.347c-.71.304-1.49.44-2.272.397-.542.053-1.09 0-1.609-.158a3.965 3.965 0 0 1-1.4-.753 3.642 3.642 0 0 1-.95-1.22 3.408 3.408 0 0 1-.335-1.474v.044Zm5.013 1.41a3.847 3.847 0 0 0 1.981-.5 3.485 3.485 0 0 0 1.376-1.419v-1.454l-3.763.495c-1.046.13-1.562.64-1.562 1.453 0 .814.734 1.454 2.03 1.454M95.533 20.346h1.842c.285.032.571-.059.8-.254.228-.195.383-.48.433-.799l.338-1.053L95.06 6.2h2.628l2.41 8.378 2.316-8.378H105l-4.266 13.826c-.582 1.907-1.355 2.914-3.223 2.914h-1.978v-2.594Z"/></svg>