<svg xmlns="http://www.w3.org/2000/svg" width="475.83" height="156.68" viewBox="0 0 475.83 156.68"><g id="Layer_2" data-name="Layer 2"><g id="Layer_1-2" data-name="Layer 1"><path d="M268.13,112c-.2,1.69-.38,3.26-.61,5.18h-20V2.22h20.05V44.59c10.91-7.51,22-9.4,33.82-6.28,8.67,2.28,15.5,7.39,20.76,14.57,11.43,15.61,10.39,38.51-2.34,52.93S287.85,122.72,268.13,112Zm43.2-34.29A21.93,21.93,0,0,0,289,55.9a22.27,22.27,0,0,0-22.28,22c-.06,12.24,10.22,22.25,22.7,22.11A22,22,0,0,0,311.33,77.75Z"/><path d="M179.72,44.34c20.29-13.19,41.58-7,52.67,6.2,12.43,14.78,13,37.7,1,53.38-12.2,15.92-30.89,18.88-53.42,8.23l-.49,5.1H159.71V2.32h20ZM201.28,100a22.07,22.07,0,1,0-.11-44.14c-12.44,0-22.77,10.22-22.5,22.36A22.51,22.51,0,0,0,201.28,100Z"/><path d="M149.24,117.3H129.32l-.67-5.63c-9.64,7.28-20.15,8.78-31.34,6.16a37.66,37.66,0,0,1-21.79-13.91,43.15,43.15,0,0,1,1.66-54.13C87.9,37.51,108.64,31.11,128.6,44l.7-5.19h19.94ZM85.55,77.58a22.28,22.28,0,1,0,22.5-21.68A22.05,22.05,0,0,0,85.55,77.58Z"/><path d="M337.72,156.54c.89-2.13,1.46-3.62,2.12-5,5.94-12.75,11.81-25.53,17.91-38.2a7.84,7.84,0,0,0-.15-7.84c-10.45-20.49-31-61.63-31-61.63l-2.49-5.19h23.24s14.31,28.54,20.46,41c.85,1.73,1.75,3.44,3,5.86,6.32-13.91,22.12-47.25,22.12-47.25h6.66l14.95.12-1.78,4.57s-33.79,72.6-50.53,109c-1.61,3.5-3.41,5-7.4,4.74C349.37,156.24,343.91,156.54,337.72,156.54Z"/><path d="M17.86,56.45H0V38.55H17.55V2.29H39V38.23H64.83V56.42H45.48c-6.35,0-6.35,0-6.35,6.54,0,7.46-.07,14.91,0,22.37.14,11.47,4.1,15.19,15.52,14.74,2.12-.08,4.25-.19,6.66-.29.6,3.21,1.13,6.1,1.67,9s1,5.49,1.65,8.72c-11.72,2.25-23,2.75-33.52-3.3C21.22,108.52,18.2,99.06,17.92,88.5S17.86,67.64,17.86,56.45Z"/><path d="M445.36,23.1H423.83c.5-8,4.38-13.67,10.6-18.73C438.09,10.64,441.53,16.55,445.36,23.1Z"/><path d="M449.87,21.14,439,2.38c7.33-3.2,14.21-3.14,21.78,0C457.16,8.59,453.74,14.47,449.87,21.14Z"/><path d="M454.15,28.46h21.57C475,36.11,471.44,41.86,465,47Z"/><path d="M449.88,30.48c3.91,6.75,7.27,12.54,10.88,18.75-7.4,3.31-14.28,2.94-21.83.15Z"/><path d="M445.22,28.28c-3.68,6.3-7.1,12.18-10.74,18.43-6.33-4.86-9.93-10.55-10.7-18.43Z"/><path d="M454.18,23.12l10.75-18.4a26.08,26.08,0,0,1,10.9,18.4Zm17.73-3.54-5.79-9.66c-2.11,3.66-3.69,6.41-5.57,9.66Z"/></g></g></svg>