<?xml version="1.0" encoding="utf-8"?>
<!-- Generator: Adobe Illustrator 26.0.3, SVG Export Plug-In . SVG Version: 6.00 Build 0)  -->
<svg version="1.1" id="Layer_1" xmlns="http://www.w3.org/2000/svg" xmlns:xlink="http://www.w3.org/1999/xlink" x="0px" y="0px"
	 viewBox="0 0 935.4 398.1" style="enable-background:new 0 0 935.4 398.1;" xml:space="preserve">
<style type="text/css">
	.st0{fill:#292929;}
</style>
<g>
	<g>
		<polygon class="st0" points="870.4,114.4 811.5,339.5 811.4,340 857.2,340 916.4,114.4 		"/>
	</g>
	<g>
		<path class="st0" d="M141.1,242.4c-6.1,3.2-14.3,5.1-22.1,5.1c-16.5,0-25.9-2.6-26.9-16l0,0v-0.9c0-0.5-0.1-1.1-0.1-1.6v-38.9
			l0.1-4.6v-27.4H92v-11.7l0.1-4.6v-26.4l-41,5.4c27.8-5.4,43.7-27.3,43.7-49.2V58.2H48.5v63l-2.6,0.7v116.7
			c1.5,32.8,23.1,52.3,58.6,52.3c12.5,0,26.3-2.9,36.9-7.6l0.2-0.1v-40.9L141.1,242.4z"/>
	</g>
	<g>
		<polygon class="st0" points="148.3,106 19,125.8 19,158.6 148.3,138.6 		"/>
	</g>
	<g>
		<polygon class="st0" points="148.3,153.8 19,173.8 19,205.1 148.3,185.1 		"/>
	</g>
	<g>
		<g>
			<path class="st0" d="M293.5,168.9c-1.8-36.4-24.6-58-61.7-58c-21.3,0-38.9,8.2-50.8,23.8c-11.9,15.5-18.2,38.4-18.2,66.1
				s6.3,50.6,18.2,66.1c11.9,15.6,29.5,23.8,50.8,23.8c37.1,0,59.8-21.7,61.7-58.3v54.9h46V114.8l-46.1,7.1 M295.9,200.8
				c0,32.3-16.9,53.1-43.1,53.1c-27,0-43.2-19.9-43.2-53.1c0-33.5,16.1-53.4,43.2-53.4c13.1,0,24.1,5.1,31.7,14.8
				C291.9,171.8,295.9,185.1,295.9,200.8z"/>
		</g>
	</g>
	<g>
		<g>
			<path class="st0" d="M473.9,111c-37.1,0-59.9,21.6-61.7,58.1V64.6L366,71.7v215.7h46.1v-54.9c1.8,36.7,24.6,58.4,61.7,58.4
				c43.4,0,69.3-33.6,69.3-89.9S517.2,111,473.9,111z M453,253.9c-26.2,0-43.2-20.8-43.2-53.1c0-15.8,3.9-29.2,11.4-38.6
				c7.6-9.7,18.6-14.8,31.7-14.8c27,0,43.2,20,43.2,53.4C496.1,234.1,480,253.9,453,253.9z"/>
		</g>
		<g>
			<path class="st0" d="M668.7,111c-37.1,0-59.9,21.6-61.7,58.1V64.6l-46.1,7.1v215.7H607v-54.9c1.8,36.7,24.6,58.4,61.7,58.4
				c43.4,0,69.3-33.6,69.3-89.9S712,111,668.7,111z M647.8,253.9c-26.2,0-43.2-20.8-43.2-53.1c0-15.8,3.9-29.2,11.4-38.6
				c7.6-9.7,18.6-14.8,31.7-14.8c27,0,43.2,20,43.2,53.4C690.9,234.1,674.8,253.9,647.8,253.9z"/>
		</g>
	</g>
	<g>
		<polygon class="st0" points="738,114.4 787.2,114.4 827.2,287.1 783.2,287.1 		"/>
	</g>
</g>
</svg>
