<svg width="1024" height="468" viewBox="0 0 1024 468" fill="none" xmlns="http://www.w3.org/2000/svg">
<path d="M0 234.076C0 104.985 104.649 0.336914 233.739 0.336914H790.261C919.351 0.336914 1024 104.985 1024 234.076V234.076C1024 363.167 919.351 467.815 790.261 467.815H233.739C104.649 467.815 0 363.167 0 234.076V234.076Z" fill="#131D2B"/>
<path d="M222.59 304.104V177.981C222.596 172.733 223.976 167.578 226.594 163.028C229.211 158.479 232.974 154.695 237.508 152.052L318.877 104.64C323.439 101.962 328.627 100.538 333.917 100.511C339.207 100.485 344.409 101.858 348.997 104.49C353.585 107.123 357.395 110.922 360.041 115.502C362.687 120.082 364.075 125.281 364.065 130.57V131.221L284.811 177.33C280.287 179.967 276.534 183.744 273.926 188.285C271.318 192.825 269.946 197.97 269.947 203.206V328.569L267.561 329.979C263.011 332.619 257.847 334.013 252.588 334.022C247.328 334.032 242.159 332.656 237.6 330.033C233.042 327.41 229.254 323.632 226.619 319.081C223.984 314.529 222.595 309.363 222.59 304.104Z" fill="#0E6FF7"/>
<path d="M283.336 178.274C277.226 182.389 272.792 188.558 270.84 195.661C270.259 198.138 269.949 200.67 269.916 203.214V328.78L267.58 330.192C263.027 332.84 257.857 334.24 252.59 334.25C247.324 334.261 242.148 332.883 237.585 330.254C233.021 327.625 229.232 323.839 226.6 319.278C223.967 314.716 222.584 309.541 222.591 304.275V249.941C222.591 209.897 273.719 184.468 283.336 178.274Z" fill="#CAD1DB"/>
<path d="M493.419 307.321C484.874 308.997 476.496 309.709 468.286 309.458C460.076 309.206 452.745 307.615 446.294 304.682C439.843 301.75 434.984 297.143 431.717 290.859C428.785 285.246 427.193 279.549 426.942 273.769C426.774 267.904 426.69 261.286 426.69 253.913V133.902H453.08V252.657C453.08 258.102 453.122 262.836 453.206 266.857C453.373 270.878 454.253 274.271 455.845 277.036C458.861 282.23 463.636 285.204 470.171 285.958C476.789 286.628 484.539 286.335 493.419 285.079V307.321ZM400.677 192.714V171.602H493.419V192.714H400.677Z" fill="white"/>
<path d="M542.768 311.091C532.715 311.091 524.296 309.248 517.51 305.562C510.724 301.792 505.571 296.849 502.053 290.734C498.618 284.534 496.9 277.748 496.9 270.376C496.9 263.506 498.115 257.474 500.545 252.28C502.974 247.085 506.577 242.687 511.352 239.085C516.127 235.399 521.992 232.424 528.945 230.162C534.977 228.403 541.805 226.853 549.429 225.513C557.053 224.172 565.053 222.916 573.431 221.743C581.893 220.57 590.27 219.397 598.564 218.224L589.014 223.502C589.181 212.862 586.919 204.987 582.228 199.877C577.62 194.683 569.661 192.086 558.351 192.086C551.23 192.086 544.695 193.761 538.747 197.112C532.799 200.38 528.652 205.825 526.306 213.449L501.801 205.909C505.152 194.264 511.519 185.006 520.903 178.137C530.369 171.267 542.936 167.832 558.602 167.832C570.75 167.832 581.306 169.926 590.27 174.115C599.318 178.22 605.937 184.755 610.126 193.719C612.304 198.159 613.644 202.851 614.147 207.794C614.65 212.737 614.901 218.057 614.901 223.753V307.321H591.653V276.282L596.177 280.303C590.564 290.692 583.401 298.441 574.688 303.551C566.059 308.578 555.419 311.091 542.768 311.091ZM547.418 289.603C554.874 289.603 561.283 288.304 566.645 285.707C572.007 283.026 576.321 279.633 579.589 275.528C582.856 271.423 584.992 267.15 585.998 262.71C587.422 258.689 588.218 254.165 588.385 249.138C588.637 244.111 588.762 240.09 588.762 237.074L597.308 240.216C589.014 241.472 581.474 242.603 574.688 243.609C567.902 244.614 561.744 245.619 556.215 246.625C550.769 247.546 545.91 248.677 541.637 250.018C538.035 251.274 534.81 252.782 531.961 254.542C529.197 256.301 526.976 258.437 525.301 260.951C523.709 263.464 522.913 266.522 522.913 270.124C522.913 273.643 523.793 276.91 525.552 279.926C527.312 282.858 529.992 285.204 533.595 286.964C537.197 288.723 541.805 289.603 547.418 289.603Z" fill="white"/>
<path d="M632.453 307.321V133.91H658.717V307.321H632.453Z" fill="white"/>
<path d="M701.505 367.641L727.769 296.137L728.146 317.249L668.957 171.602H696.352L740.587 284.073H732.544L774.768 171.602H801.409L726.512 367.641H701.505Z" fill="white"/>
</svg>
