<?xml version="1.0" standalone="no"?>
<!DOCTYPE svg PUBLIC "-//W3C//DTD SVG 20010904//EN"
 "http://www.w3.org/TR/2001/REC-SVG-20010904/DTD/svg10.dtd">
<svg version="1.0" xmlns="http://www.w3.org/2000/svg"
 width="255.000000pt" height="84.000000pt" viewBox="0 0 255.000000 84.000000"
 preserveAspectRatio="xMidYMid meet">

<g transform="translate(0.000000,84.000000) scale(0.100000,-0.100000)"
fill="#000000" stroke="none">
<path d="M300 585 c0 -43 -1 -45 -30 -45 -27 0 -30 -3 -30 -30 0 -26 3 -30 29
-30 l29 0 4 -95 c3 -87 5 -97 30 -121 21 -21 39 -28 82 -32 l56 -4 0 36 c0 31
-3 36 -23 36 -38 0 -47 19 -47 101 0 83 4 88 68 89 24 0 25 3 16 38 -5 18 -13
22 -45 22 -39 0 -39 0 -39 40 l0 40 -50 0 -50 0 0 -45z"/>
<path d="M615 534 c-27 -14 -44 -31 -45 -45 0 -3 14 -15 30 -27 l30 -23 31 23
c28 21 32 21 57 7 19 -10 28 -24 30 -48 3 -31 2 -33 -20 -27 -13 4 -50 10 -83
13 -52 4 -64 2 -87 -17 -23 -18 -28 -29 -28 -66 0 -49 22 -79 65 -90 35 -9 88
3 118 26 33 26 37 25 37 -5 0 -23 4 -25 45 -25 l45 0 0 115 c0 82 -4 124 -15
144 -27 54 -145 79 -210 45z m125 -194 c-6 -12 -27 -28 -46 -38 -32 -15 -38
-15 -62 -1 -15 8 -28 25 -30 37 -3 21 0 22 73 22 73 0 75 -1 65 -20z"/>
<path d="M1494 531 c-46 -28 -48 -36 -13 -66 30 -24 32 -25 50 -9 21 19 74 23
89 8 5 -5 13 -25 16 -43 l7 -33 -34 8 c-19 5 -63 9 -97 9 -55 0 -66 -3 -83
-24 -29 -36 -25 -87 11 -123 28 -28 35 -30 81 -26 29 3 62 14 79 27 37 27 40
26 40 -4 0 -22 4 -25 40 -25 l40 0 0 123 c0 137 -8 159 -66 183 -48 20 -123
18 -160 -5z m136 -179 c0 -5 -11 -19 -25 -32 -32 -30 -91 -33 -111 -5 -28 38
-18 45 61 45 41 0 75 -4 75 -8z"/>
<path d="M2085 541 c-11 -5 -28 -17 -37 -28 -17 -19 -17 -21 12 -48 29 -28 30
-28 50 -10 21 19 74 25 89 9 5 -5 11 -22 13 -39 3 -28 1 -30 -27 -25 -16 3
-59 5 -93 5 -55 0 -66 -3 -83 -24 -50 -61 0 -151 84 -151 30 0 55 8 80 24 l36
25 3 -22 c2 -18 11 -23 46 -25 l42 -3 0 123 c0 138 -8 160 -66 184 -36 15
-117 18 -149 5z m115 -201 c-23 -43 -110 -57 -130 -21 -19 37 -12 41 65 41 72
0 75 -1 65 -20z"/>
<path d="M1024 511 c-18 -11 -34 -25 -37 -33 -3 -7 -6 -1 -6 15 -1 25 -4 27
-46 27 l-45 0 0 -145 0 -145 45 0 45 0 0 93 c0 78 3 97 18 110 25 22 48 21 72
-3 17 -17 20 -33 20 -110 l0 -90 45 0 45 0 0 94 c0 100 10 126 50 126 40 0 50
-26 50 -126 l0 -94 45 0 45 0 0 105 c0 123 -14 170 -57 186 -38 14 -90 3 -119
-26 l-24 -24 -29 30 c-35 34 -72 38 -117 10z"/>
<path d="M1923 518 c-13 -6 -25 -19 -28 -29 -9 -27 -25 -23 -25 6 0 23 -4 25
-45 25 l-45 0 0 -145 0 -145 45 0 45 0 0 83 c0 97 10 117 66 126 38 6 39 8 39
46 0 43 -13 52 -52 33z"/>
</g>
</svg>
