<?xml version="1.0" standalone="no"?>
<!DOCTYPE svg PUBLIC "-//W3C//DTD SVG 20010904//EN"
 "http://www.w3.org/TR/2001/REC-SVG-20010904/DTD/svg10.dtd">
<svg version="1.0" xmlns="http://www.w3.org/2000/svg"
 width="1080.000000pt" height="1080.000000pt" viewBox="0 0 1080.000000 1080.000000"
 preserveAspectRatio="xMidYMid meet">

<g transform="translate(0.000000,1080.000000) scale(0.100000,-0.100000)"
fill="#000000" stroke="none">
<path d="M5073 10589 c-1629 -104 -3103 -959 -4009 -2324 -483 -730 -760
-1526 -846 -2435 -29 -309 -12 -839 38 -1180 190 -1307 869 -2488 1906 -3317
783 -626 1708 -1001 2733 -1109 210 -23 760 -26 960 -6 425 42 785 116 1160
239 1852 604 3207 2189 3520 4114 50 311 59 438 59 829 0 391 -9 518 -59 829
-161 993 -600 1905 -1279 2660 -352 392 -807 758 -1275 1025 -874 501 -1901
739 -2908 675z m702 -760 c1284 -100 2481 -782 3247 -1849 448 -624 718 -1343
805 -2140 20 -190 23 -646 5 -835 -70 -724 -286 -1363 -667 -1973 -274 -438
-666 -865 -1086 -1182 -627 -473 -1358 -768 -2142 -865 -669 -83 -1409 1
-2040 230 -1289 467 -2291 1497 -2721 2797 -97 295 -170 648 -201 978 -21 218
-16 733 9 930 66 522 199 970 426 1435 569 1167 1637 2035 2895 2353 483 123
954 161 1470 121z"/>
<path d="M5155 9170 c-749 -55 -1432 -308 -2020 -750 -762 -571 -1278 -1405
-1449 -2342 -80 -434 -80 -924 0 -1356 187 -1017 766 -1895 1624 -2467 1215
-808 2774 -845 4034 -95 270 160 494 336 731 574 619 620 984 1389 1086 2286
17 149 17 609 0 760 -41 368 -118 682 -248 1010 -410 1037 -1257 1839 -2312
2190 -387 128 -714 185 -1126 194 -110 3 -254 1 -320 -4z m589 -835 c785 -92
1503 -496 1989 -1120 237 -304 434 -702 528 -1064 212 -818 67 -1687 -395
-2381 -736 -1102 -2072 -1578 -3346 -1193 -47 14 -143 49 -215 78 -394 158
-721 379 -1025 691 -467 480 -754 1096 -820 1763 -13 135 -13 448 1 587 55
558 274 1095 629 1544 98 124 340 368 460 464 442 352 985 577 1538 635 137
15 517 12 656 -4z"/>
</g>
</svg>
