<svg xmlns="http://www.w3.org/2000/svg" width="2000" height="976" viewBox="0 0 2000 976" role="img" aria-label="Telr logo">
  <path d="M 1028.0 282.0 L 976.0 262.0 L 917.0 255.0 L 852.0 260.0 L 784.0 278.0 L 727.0 304.0 L 673.0 340.0 L 622.0 388.0 L 588.0 432.0 L 553.0 493.0 L 526.0 562.0 L 511.0 631.0 L 508.0 706.0 L 516.0 774.0 L 535.0 834.0 L 560.0 875.0 L 597.0 910.0 L 634.0 931.0 L 687.0 948.0 L 792.0 957.0 L 897.0 944.0 L 925.0 929.0 L 943.0 909.0 L 954.0 888.0 L 957.0 867.0 L 939.0 850.0 L 877.0 868.0 L 823.0 876.0 L 745.0 871.0 L 697.0 850.0 L 669.0 823.0 L 651.0 790.0 L 640.0 739.0 L 641.0 689.0 L 645.0 673.0 L 793.0 664.0 L 900.0 638.0 L 974.0 602.0 L 1035.0 551.0 L 1062.0 515.0 L 1083.0 472.0 L 1094.0 432.0 L 1096.0 387.0 L 1091.0 361.0 L 1077.0 329.0 L 1053.0 300.0 Z
    M 951.0 355.0 L 964.0 376.0 L 969.0 395.0 L 969.0 422.0 L 966.0 439.0 L 959.0 460.0 L 947.0 483.0 L 927.0 510.0 L 904.0 533.0 L 876.0 556.0 L 836.0 584.0 L 807.0 601.0 L 774.0 617.0 L 730.0 633.0 L 706.0 639.0 L 665.0 645.0 L 648.0 644.0 L 652.0 616.0 L 666.0 553.0 L 681.0 505.0 L 692.0 477.0 L 706.0 448.0 L 724.0 419.0 L 741.0 398.0 L 759.0 380.0 L 784.0 360.0 L 816.0 342.0 L 841.0 333.0 L 866.0 328.0 L 896.0 328.0 L 911.0 331.0 L 931.0 339.0 Z
    M 1967.0 244.0 L 1948.0 240.0 L 1911.0 252.0 L 1864.0 277.0 L 1834.0 301.0 L 1787.0 357.0 L 1717.0 471.0 L 1755.0 306.0 L 1749.0 279.0 L 1729.0 263.0 L 1696.0 259.0 L 1648.0 265.0 L 1633.0 273.0 L 1621.0 287.0 L 1612.0 314.0 L 1612.0 365.0 L 1603.0 436.0 L 1529.0 837.0 L 1511.0 903.0 L 1515.0 930.0 L 1536.0 951.0 L 1562.0 959.0 L 1595.0 957.0 L 1622.0 944.0 L 1639.0 926.0 L 1650.0 899.0 L 1663.0 788.0 L 1691.0 630.0 L 1709.0 556.0 L 1730.0 501.0 L 1764.0 445.0 L 1814.0 396.0 L 1861.0 370.0 L 1928.0 350.0 L 1968.0 323.0 L 1983.0 301.0 L 1988.0 280.0 L 1981.0 257.0 Z
    M 1715.0 471.0 L 1716.0 470.0 L 1717.0 472.0 L 1716.0 473.0 Z
    M 748.0 43.0 L 725.0 34.0 L 90.0 35.0 L 49.0 47.0 L 19.0 74.0 L 10.0 97.0 L 13.0 117.0 L 23.0 131.0 L 43.0 141.0 L 134.0 129.0 L 320.0 129.0 L 213.0 690.0 L 158.0 904.0 L 160.0 927.0 L 178.0 948.0 L 211.0 959.0 L 265.0 955.0 L 297.0 937.0 L 316.0 909.0 L 413.0 375.0 L 469.0 129.0 L 731.0 128.0 L 757.0 114.0 L 770.0 92.0 L 767.0 65.0 Z
    M 1345.0 28.0 L 1274.0 40.0 L 1254.0 56.0 L 1244.0 78.0 L 1233.0 203.0 L 1143.0 683.0 L 1128.0 788.0 L 1130.0 859.0 L 1138.0 886.0 L 1151.0 909.0 L 1167.0 926.0 L 1193.0 942.0 L 1245.0 955.0 L 1323.0 954.0 L 1368.0 945.0 L 1388.0 934.0 L 1407.0 916.0 L 1421.0 886.0 L 1417.0 867.0 L 1401.0 856.0 L 1339.0 870.0 L 1308.0 870.0 L 1290.0 863.0 L 1267.0 839.0 L 1256.0 803.0 L 1263.0 737.0 L 1342.0 301.0 L 1391.0 80.0 L 1390.0 62.0 L 1383.0 48.0 L 1367.0 34.0 Z" fill="#006E4F" fill-rule="evenodd"/>
</svg>
