<?xml version="1.0" encoding="UTF-8"?>
<svg id="Layer_2" data-name="Layer 2" xmlns="http://www.w3.org/2000/svg" viewBox="0 0 914.1 291.49">
  <defs>
    <style>
      .cls-1 {
        fill: #3fa167;
      }
    </style>
  </defs>
  <g id="Layer_1-2" data-name="Layer 1">
    <g>
      <path class="cls-1" d="M143.57,44.98l113.87,63.09c13.29,7.46,29.7-2.15,29.7-17.39h0c0-7.27-3.95-13.96-10.32-17.47L143.91,0,0,81.61v28.92h29.51l114.06-65.55Z"/>
      <path class="cls-1" d="M66.49,153.71v-26.14c0-4.37-3.58-7.95-7.95-7.95h-.2c-4.37,0-7.95,3.58-7.95,7.95v26.14c-7.99,3.2-13.64,11.01-13.64,20.14s5.65,16.94,13.64,20.14v89.55c0,4.37,3.58,7.95,7.95,7.95h.2c4.37,0,7.95-3.58,7.95-7.95v-89.55c7.99-3.2,13.64-11.01,13.64-20.14s-5.65-16.94-13.64-20.14ZM66.49,184.69c-2.25,1.67-5.03,2.68-8.05,2.68s-5.8-1-8.05-2.68c-3.31-2.46-5.47-6.4-5.47-10.84s2.15-8.38,5.47-10.84c2.25-1.67,5.03-2.68,8.05-2.68s5.8,1,8.05,2.68c3.31,2.46,5.47,6.4,5.47,10.84s-2.15,8.38-5.47,10.84Z"/>
      <path class="cls-1" d="M236.74,153.71v-26.14c0-4.37-3.58-7.95-7.95-7.95h-.2c-4.37,0-7.95,3.58-7.95,7.95v26.14c-7.99,3.2-13.64,11.01-13.64,20.14s5.65,16.94,13.64,20.14v89.55c0,4.37,3.58,7.95,7.95,7.95h.2c4.37,0,7.95-3.58,7.95-7.95v-89.55c7.99-3.2,13.64-11.01,13.64-20.14s-5.65-16.94-13.64-20.14ZM236.74,184.69c-2.25,1.67-5.03,2.68-8.05,2.68s-5.8-1-8.05-2.68c-3.31-2.46-5.47-6.4-5.47-10.84s2.15-8.38,5.47-10.84c2.25-1.67,5.03-2.68,8.05-2.68s5.8,1,8.05,2.68c3.31,2.46,5.47,6.4,5.47,10.84s-2.15,8.38-5.47,10.84Z"/>
      <path class="cls-1" d="M151.61,214.2v-86.62c0-4.37-3.58-7.95-7.95-7.95h-.2c-4.37,0-7.95,3.58-7.95,7.95v86.62c-7.99,3.2-13.64,11.01-13.64,20.14s5.65,16.94,13.64,20.14v29.06c0,4.37,3.58,7.95,7.95,7.95h.2c4.37,0,7.95-3.58,7.95-7.95v-29.06c7.99-3.2,13.64-11.01,13.64-20.14s-5.65-16.94-13.64-20.14ZM151.61,245.17c-2.25,1.67-5.03,2.68-8.05,2.68s-5.8-1-8.05-2.68c-3.31-2.46-5.47-6.4-5.47-10.84s2.15-8.38,5.47-10.84c2.25-1.67,5.03-2.68,8.05-2.68s5.8,1,8.05,2.68c3.31,2.46,5.47,6.4,5.47,10.84s-2.15,8.38-5.47,10.84Z"/>
      <path class="cls-1" d="M390.76,81.85c2.53,0,4.07,1.4,4.07,3.93v7.44c0,2.67-1.54,4.07-4.07,4.07h-21.21v72.61c0,2.53-1.4,3.93-4.07,3.93h-8.71c-2.53,0-4.07-1.4-4.07-3.93v-72.61h-21.21c-2.53,0-4.07-1.4-4.07-4.07v-7.44c0-2.53,1.55-3.93,4.07-3.93h59.27Z"/>
      <path class="cls-1" d="M452.84,81.85c2.67,0,4.07,1.4,4.07,3.93v7.44c0,2.67-1.4,4.07-4.07,4.07h-30.48v22.19h27.67c2.67,0,4.07,1.4,4.07,3.93v7.3c0,2.53-1.4,4.07-4.07,4.07h-27.67v23.6h30.48c2.67,0,4.07,1.4,4.07,4.07v7.44c0,2.53-1.4,3.93-4.07,3.93h-43.26c-2.53,0-3.93-1.4-3.93-3.93v-84.13c0-2.53,1.4-3.93,3.93-3.93h43.26Z"/>
      <path class="cls-1" d="M514.78,83.75c2.39.54,3.65,1.9,3.51,4.2v7.05c-.14,2.57-1.83,3.93-4.49,3.39-5.9-1.08-12.22-1.9-16.85-1.9-8.85,0-12.08,3.39-12.08,9.48v2.85c0,4.88,1.54,6.77,8.85,9.08l12.36,3.93c13.2,4.2,18.12,10.57,18.12,24.25v2.57c0,16.26-8.85,25.2-31.18,25.2-5.34,0-12.5-.95-19.38-2.57-2.53-.54-3.65-1.9-3.65-4.2l.14-7.32c0-2.71,1.54-4.06,4.35-3.39,6.32,1.63,13.2,2.57,18.12,2.57,10.96,0,14.75-3.52,14.75-9.75v-3.52c0-4.74-1.83-7.18-7.3-8.94l-13.62-4.34c-13.76-4.34-18.4-10.16-18.4-24.12v-1.35c0-16.12,8.57-25.06,28.65-25.06,4.78,0,11.66.68,18.12,1.9Z"/>
      <path class="cls-1" d="M579.46,83.75c2.39.54,3.65,1.9,3.51,4.2v7.05c-.14,2.57-1.83,3.93-4.49,3.39-5.9-1.08-12.22-1.9-16.85-1.9-8.85,0-12.08,3.39-12.08,9.48v2.85c0,4.88,1.54,6.77,8.85,9.08l12.36,3.93c13.2,4.2,18.12,10.57,18.12,24.25v2.57c0,16.26-8.85,25.2-31.18,25.2-5.34,0-12.5-.95-19.38-2.57-2.53-.54-3.65-1.9-3.65-4.2l.14-7.32c0-2.71,1.55-4.06,4.36-3.39,6.32,1.63,13.2,2.57,18.12,2.57,10.96,0,14.75-3.52,14.75-9.75v-3.52c0-4.74-1.83-7.18-7.3-8.94l-13.62-4.34c-13.76-4.34-18.4-10.16-18.4-24.12v-1.35c0-16.12,8.57-25.06,28.65-25.06,4.78,0,11.66.68,18.12,1.9Z"/>
      <g>
        <path class="cls-1" d="M384.44,220.76v3.06c0,18.37-10.21,28.87-31.79,28.87-4.96,0-9.62-.44-16.77-1.46v37.77c0,1.6-.87,2.48-2.48,2.48h-3.5c-1.6,0-2.48-.87-2.48-2.48v-91.58c0-1.6.58-2.33,1.89-2.48,5.83-.29,13.12-.58,22.31-.73,22.46-.15,32.81,9.33,32.81,26.54ZM335.88,202.09v41.71c6.56,1.02,11.23,1.46,16.33,1.46,16.19,0,23.77-7.58,23.77-21.73v-2.33c0-12.98-7.44-19.54-24.64-19.54-6.42,0-11.81.29-15.46.44Z"/>
        <path class="cls-1" d="M426.15,195.97c1.6,0,2.48.73,2.77,2.04l29.46,90.7c.58,1.6-.15,2.77-2.04,2.77h-4.23c-1.46,0-2.33-.73-2.77-2.04l-6.85-21.87h-38.94l-6.56,21.87c-.44,1.31-1.31,2.04-2.77,2.04h-3.79c-1.9,0-2.62-1.17-2.04-2.77l28.58-90.7c.29-1.31,1.31-2.04,2.77-2.04h6.42ZM405.73,259.84h34.56l-17.5-56-17.06,56Z"/>
        <path class="cls-1" d="M516.71,195.97c1.9,0,2.62,1.17,1.9,2.92l-26.69,59.79v30.33c0,1.6-.87,2.48-2.48,2.48h-3.5c-1.6,0-2.48-.87-2.48-2.48v-30.33l-26.69-59.79c-.73-1.75,0-2.92,1.9-2.92h4.52c1.46,0,2.33.58,2.92,1.9l21.73,51.62,21.73-51.62c.58-1.31,1.46-1.9,2.92-1.9h4.23Z"/>
        <path class="cls-1" d="M606.98,291.49c-1.61,0-2.48-.87-2.48-2.48l-.73-81.23-24.65,71.75c-.29,1.31-1.17,2.04-2.77,2.04h-6.42c-1.46,0-2.33-.73-2.77-2.04l-24.64-71.75-.73,81.23c0,1.6-.87,2.48-2.48,2.48h-3.36c-1.6,0-2.48-.87-2.48-2.48l.87-90.56c0-1.6.87-2.48,2.48-2.48h8.02c1.6,0,2.48.73,2.77,2.04l25.67,75.68,25.52-75.68c.29-1.31,1.17-2.04,2.77-2.04h8.02c1.6,0,2.48.87,2.48,2.48l.87,90.56c0,1.6-1.02,2.48-2.62,2.48h-3.35Z"/>
        <path class="cls-1" d="M681.21,195.97c1.6,0,2.48.87,2.48,2.48v2.77c0,1.6-.87,2.48-2.48,2.48h-36.6v35.44h33.69c1.6,0,2.48.87,2.48,2.48v2.62c0,1.6-.87,2.48-2.48,2.48h-33.69v37.04h36.6c1.6,0,2.48.87,2.48,2.48v2.77c0,1.6-.87,2.48-2.48,2.48h-42.58c-1.6,0-2.48-.87-2.48-2.48v-90.56c0-1.6.87-2.48,2.48-2.48h42.58Z"/>
        <path class="cls-1" d="M756.45,291.49c-1.46,0-2.33-.58-2.92-1.9l-39.08-83.41v82.83c0,1.6-.87,2.48-2.48,2.48h-3.36c-1.6,0-2.48-.87-2.48-2.48v-90.56c0-1.6.87-2.48,2.48-2.48h8.75c1.46,0,2.33.58,2.92,1.9l38.5,82.98v-82.39c0-1.6.87-2.48,2.48-2.48h3.35c1.61,0,2.48.87,2.48,2.48v90.56c0,1.6-.87,2.48-2.48,2.48h-8.17Z"/>
        <path class="cls-1" d="M847.6,195.97c1.46,0,2.48.87,2.48,2.48v2.77c0,1.6-1.02,2.48-2.48,2.48h-26.25v85.31c0,1.6-1.02,2.48-2.48,2.48h-3.5c-1.6,0-2.48-.87-2.48-2.48v-85.31h-26.25c-1.61,0-2.48-.87-2.48-2.48v-2.77c0-1.6.87-2.48,2.48-2.48h60.96Z"/>
        <path class="cls-1" d="M905.06,197.8c1.6.28,2.33,1.13,2.19,2.53v2.67c0,1.69-1.02,2.39-2.77,2.11-5.25-.98-11.08-1.83-16.48-1.83-13.85,0-18.67,5.35-18.67,15.47v3.66c0,7.6,2.62,11.25,13.71,14.77l14,4.5c12.4,3.94,17.06,10.13,17.06,23.07v2.67c0,15.9-8.17,24.06-29.46,24.06-5.25,0-12.98-.98-19.4-2.53-1.6-.28-2.19-1.13-2.19-2.53l.14-2.95c0-1.69,1.02-2.39,2.62-2.11,5.98,1.55,12.98,2.53,18.67,2.53,15.31,0,21.15-5.06,21.15-15.47v-4.78c0-7.6-3.21-11.68-12.1-14.49l-15.6-4.92c-12.25-4.08-17.06-9.71-17.06-22.37v-2.11c0-15.76,7.87-23.77,27.12-23.77,4.52,0,11.23.7,17.06,1.83Z"/>
      </g>
    </g>
  </g>
</svg>