<svg xmlns="http://www.w3.org/2000/svg" width="215" height="40" viewBox="0 0 215 40" fill="none"><g id="Group 4528"><path id="Vector" d="M29.7291 3.95312C21.5195 3.95312 14.8624 10.6072 14.8624 18.8197H14.8242V39.7465H29.7291V33.6863C37.9386 33.6863 44.5957 27.0322 44.5957 18.8197C44.5957 10.6072 37.9416 3.95312 29.7291 3.95312Z" fill="#7F69FF"></path><path id="Vector_2" d="M29.7685 18.8185V3.95482H20.4298C17.5688 3.95482 15.2165 6.11307 14.9019 8.8888V0H0V18.8008C0 18.8008 0 18.8008 0 18.8038V18.8185C0.0117616 27.0281 6.65704 33.6822 14.8666 33.7027V18.8185H29.7714H29.7685Z" fill="#85D0FF"></path><g id="Group"><path id="Vector_3" d="M179.28 24.1753L175.619 30.3883L171.897 24.1753H170.465V33.5522H172.123V27.4215L175.205 32.4966H175.996L179.065 27.3244V33.5522H180.739L180.712 24.1753H179.28Z" fill="black"></path><path id="Vector_4" d="M188.022 26.7805C187.446 26.463 186.787 26.3042 186.046 26.3042C185.305 26.3042 184.661 26.463 184.091 26.7805C183.52 27.0981 183.067 27.5303 182.738 28.0743C182.409 28.6183 182.244 29.2534 182.244 29.9767C182.244 30.7001 182.409 31.3117 182.738 31.8674C183.067 32.4202 183.523 32.8583 184.097 33.1729C184.673 33.4905 185.323 33.6493 186.046 33.6493C186.769 33.6493 187.434 33.4905 188.016 33.1729C188.595 32.8554 189.051 32.4232 189.375 31.8733C189.701 31.3234 189.863 30.6913 189.863 29.9767C189.863 29.2622 189.698 28.6183 189.375 28.0743C189.048 27.5303 188.595 27.0981 188.022 26.7805ZM187.901 31.1617C187.719 31.5057 187.466 31.7704 187.146 31.9527C186.825 32.135 186.458 32.2261 186.046 32.2261C185.634 32.2261 185.296 32.135 184.973 31.9527C184.652 31.7704 184.397 31.5057 184.208 31.1617C184.02 30.8177 183.929 30.4207 183.929 29.9738C183.929 29.5269 184.023 29.124 184.208 28.7888C184.397 28.4536 184.649 28.1949 184.973 28.0126C185.293 27.8303 185.658 27.7362 186.058 27.7362C186.458 27.7362 186.822 27.8273 187.143 28.0126C187.463 28.1949 187.716 28.4536 187.899 28.7888C188.081 29.124 188.175 29.518 188.175 29.9738C188.175 30.4296 188.084 30.8177 187.899 31.1617H187.901Z" fill="black"></path><path id="Vector_5" d="M197.032 26.76C196.488 26.4571 195.868 26.3042 195.171 26.3042C194.58 26.3042 194.05 26.4365 193.577 26.7012C193.312 26.8482 193.083 27.0423 192.88 27.2746V23.6138H191.219V33.5552H192.812V32.6319C193.021 32.8878 193.265 33.0995 193.55 33.2553C194.033 33.5199 194.574 33.6523 195.174 33.6523C195.87 33.6523 196.491 33.4994 197.035 33.1965C197.579 32.8936 198.011 32.4673 198.329 31.9174C198.646 31.3676 198.805 30.7236 198.805 29.9797C198.805 29.2358 198.646 28.6036 198.329 28.0508C198.011 27.498 197.582 27.0687 197.035 26.7659L197.032 26.76ZM196.817 31.1617C196.629 31.5058 196.376 31.7704 196.062 31.9527C195.744 32.135 195.379 32.2262 194.971 32.2262C194.562 32.2262 194.221 32.135 193.9 31.9527C193.58 31.7704 193.324 31.5058 193.136 31.1617C192.948 30.8177 192.857 30.4208 192.857 29.9738C192.857 29.5269 192.951 29.1241 193.136 28.7889C193.324 28.4536 193.58 28.1949 193.9 28.0126C194.221 27.8303 194.58 27.7362 194.971 27.7362C195.362 27.7362 195.744 27.8273 196.062 28.0126C196.379 28.1949 196.629 28.4536 196.817 28.7889C197.005 29.1241 197.1 29.5181 197.1 29.9738C197.1 30.4296 197.005 30.8177 196.817 31.1617Z" fill="black"></path><path id="Vector_6" d="M200.968 23.2109C200.656 23.2109 200.397 23.308 200.197 23.505C199.997 23.702 199.895 23.9343 199.895 24.2018C199.895 24.4871 199.994 24.7311 200.197 24.9252C200.397 25.1222 200.656 25.2192 200.968 25.2192C201.279 25.2192 201.55 25.1192 201.747 24.9193C201.944 24.7194 202.041 24.4753 202.041 24.1901C202.041 23.9049 201.941 23.6696 201.738 23.4873C201.538 23.305 201.279 23.2139 200.968 23.2139V23.2109Z" fill="black"></path><path id="Vector_7" d="M201.8 26.3984H200.139V33.5524H201.8V26.3984Z" fill="black"></path><path id="Vector_8" d="M205.402 23.6138H203.74V33.5552H205.402V23.6138Z" fill="black"></path><path id="Vector_9" d="M213.587 28.0596C213.276 27.5068 212.846 27.0746 212.302 26.7658C211.759 26.4571 211.138 26.3042 210.441 26.3042C209.744 26.3042 209.092 26.463 208.533 26.7805C207.974 27.0981 207.536 27.5303 207.219 28.0802C206.901 28.63 206.742 29.2622 206.742 29.9767C206.742 30.6913 206.904 31.3234 207.23 31.8733C207.557 32.4232 208.015 32.8554 208.609 33.1729C209.203 33.4905 209.897 33.6493 210.694 33.6493C211.317 33.6493 211.876 33.5523 212.361 33.3553C212.846 33.1582 213.255 32.873 213.587 32.4967L212.676 31.4528C212.426 31.7116 212.141 31.9086 211.817 32.0438C211.497 32.1762 211.135 32.2438 210.732 32.2438C210.259 32.2438 209.844 32.1526 209.489 31.9674C209.13 31.7851 208.856 31.5293 208.665 31.197C208.545 30.9882 208.465 30.7589 208.421 30.5119H214.031C214.04 30.4413 214.046 30.359 214.052 30.2649C214.058 30.1708 214.058 30.0914 214.058 30.0297C214.058 29.2711 213.902 28.6153 213.59 28.0596H213.587ZM208.63 28.6771C208.8 28.3566 209.042 28.1096 209.359 27.9332C209.677 27.7597 210.035 27.6715 210.438 27.6715C210.841 27.6715 211.206 27.7597 211.512 27.9332C211.814 28.1067 212.053 28.3537 212.229 28.6712C212.352 28.8947 212.426 29.1387 212.458 29.4004H208.406C208.445 29.1358 208.515 28.8947 208.633 28.6771H208.63Z" fill="black"></path></g><path id="Vector_10" d="M2.36328 26.8593C4.88614 30.7789 9.19969 33.437 14.1454 33.6869L14.8658 33.7046V18.8203C9.42904 18.8203 4.70971 22.0841 2.36328 26.8593Z" fill="url(#paint0_linear_1391_43388)"></path><g id="Group_2"><path id="Vector_11" d="M63.2042 23.7084V0H56.7324L56.7266 24.5787C56.7266 30.5477 59.9139 33.738 65.4184 33.738C65.8771 33.738 74.3307 33.7263 74.3307 33.7263V28.2277H66.7415C64.0275 28.1189 63.2042 26.3459 63.2042 23.7084Z" fill="black"></path><path id="Vector_12" d="M131.15 9.06824C130.821 8.81537 130.486 8.56838 130.133 8.34197C127.898 6.90706 125.302 6.14844 122.626 6.14844C114.94 6.14844 108.686 12.3997 108.686 20.08C108.686 27.7603 114.94 34.0204 122.626 34.0204C125.305 34.0204 127.901 33.2588 130.133 31.818C130.486 31.5916 130.824 31.3446 131.153 31.0918L131.359 32.3679L131.565 33.6587H138.122V6.51011H131.562L131.15 9.06824ZM130.033 26.0725C128.351 27.9191 125.957 28.9776 123.464 28.9776C118.562 28.9776 114.575 24.9875 114.575 20.08C114.575 15.1725 118.562 11.1912 123.464 11.1912C125.952 11.1912 128.345 12.2468 130.033 14.0875C130.124 14.1875 130.212 14.2874 130.297 14.3903C130.333 14.4345 130.368 14.4786 130.403 14.5227C130.453 14.5844 130.503 14.6462 130.55 14.7079C130.586 14.755 130.618 14.802 130.653 14.8461C130.697 14.9079 130.744 14.9696 130.788 15.0314C130.821 15.0784 130.853 15.1284 130.883 15.1754C130.924 15.2401 130.968 15.3019 131.006 15.3666C131.035 15.4165 131.065 15.4665 131.094 15.5136C131.132 15.5783 131.171 15.643 131.209 15.7076C131.238 15.7576 131.265 15.8106 131.291 15.8605C131.327 15.9252 131.362 15.9929 131.394 16.0576C131.421 16.1105 131.447 16.1634 131.471 16.2163C131.503 16.284 131.535 16.3486 131.565 16.4163C131.588 16.4692 131.612 16.5251 131.635 16.578C131.665 16.6456 131.691 16.7133 131.721 16.7809C131.741 16.8368 131.765 16.8897 131.785 16.9455C131.812 17.0161 131.835 17.0837 131.862 17.1543C131.882 17.2102 131.9 17.2661 131.918 17.319C131.941 17.3895 131.962 17.4601 131.982 17.5307C132 17.5866 132.015 17.6424 132.032 17.6983C132.053 17.7689 132.07 17.8424 132.088 17.9159C132.103 17.9717 132.118 18.0276 132.129 18.0864C132.147 18.1599 132.162 18.2334 132.176 18.3069C132.188 18.3628 132.2 18.4216 132.212 18.4775C132.226 18.5539 132.238 18.6275 132.25 18.7039C132.259 18.7598 132.267 18.8156 132.276 18.8715C132.288 18.9509 132.297 19.0303 132.303 19.1097C132.309 19.1626 132.315 19.2155 132.32 19.2685C132.329 19.3567 132.332 19.4449 132.338 19.5331C132.338 19.5772 132.344 19.6242 132.347 19.6683C132.353 19.8007 132.356 19.933 132.356 20.0682C132.356 20.0682 132.356 20.0682 132.356 20.0712C132.356 20.2064 132.353 20.3388 132.347 20.474C132.347 20.5181 132.341 20.5622 132.338 20.6063C132.332 20.6945 132.326 20.7857 132.32 20.8739C132.315 20.9268 132.309 20.9798 132.303 21.0327C132.294 21.1121 132.285 21.1915 132.276 21.2709C132.267 21.3267 132.259 21.3826 132.25 21.4385C132.238 21.512 132.226 21.5884 132.212 21.6619C132.2 21.7207 132.188 21.7766 132.176 21.8354C132.162 21.9089 132.147 21.9795 132.129 22.053C132.115 22.1118 132.1 22.1677 132.088 22.2265C132.07 22.2971 132.053 22.3676 132.032 22.4382C132.018 22.497 132 22.5529 131.982 22.6117C131.962 22.6822 131.941 22.7499 131.918 22.8175C131.9 22.8734 131.879 22.9322 131.859 22.988C131.835 23.0557 131.812 23.1233 131.785 23.1909C131.765 23.2468 131.741 23.3027 131.721 23.3615C131.694 23.4291 131.668 23.4938 131.638 23.5614C131.615 23.6173 131.591 23.6732 131.565 23.7261C131.535 23.7937 131.503 23.8584 131.471 23.926C131.444 23.979 131.421 24.0319 131.391 24.0848C131.356 24.1524 131.321 24.2171 131.285 24.2848C131.259 24.3347 131.232 24.3847 131.203 24.4347C131.165 24.5023 131.124 24.57 131.085 24.6376C131.059 24.6847 131.03 24.7317 131 24.7787C130.956 24.8493 130.909 24.9199 130.865 24.9875C130.838 25.0287 130.812 25.0698 130.783 25.111C130.73 25.1875 130.674 25.2639 130.618 25.3404C130.594 25.3727 130.571 25.4051 130.547 25.4374C130.477 25.5315 130.403 25.6226 130.327 25.7167C130.318 25.7285 130.306 25.7432 130.297 25.755C130.209 25.8608 130.121 25.9637 130.027 26.0666L130.033 26.0725Z" fill="black"></path><path id="Vector_13" d="M162.287 6.50146L154.901 25.5081L154.142 23.6322L147.253 6.51029H140.305L151.496 34.3028L149.37 39.7455H156.28L169.206 6.50146H162.287Z" fill="black"></path><path id="Vector_14" d="M93.032 6.15137C90.365 6.15137 87.7657 6.90411 85.5222 8.34784C85.1694 8.58307 84.8371 8.82124 84.5078 9.10352L84.0843 6.50421H84.0373H77.5449V6.50715V39.7483H84.0373V30.686C84.202 30.8506 84.3431 30.9683 84.5078 31.0623C84.8371 31.3446 85.1694 31.5799 85.5222 31.818C87.7657 33.2559 90.3386 34.0145 93.032 34.0145C100.727 34.0145 106.961 27.7809 106.961 20.0829C106.961 12.385 100.727 6.15431 93.032 6.15431V6.15137ZM92.1822 28.9835C89.7034 28.9835 87.2953 27.9191 85.6163 26.0784C85.5222 25.9843 85.4516 25.8902 85.3575 25.7726C85.0253 25.3727 84.743 24.9463 84.4842 24.4965C84.3402 24.2847 84.2225 24.0495 84.1284 23.8113C84.1049 23.7408 84.0608 23.6937 84.0344 23.6232V23.5967C83.9403 23.385 83.8462 23.1498 83.7756 22.9145C83.705 22.7263 83.655 22.5587 83.608 22.3706C83.5639 22.2 83.5227 22.0295 83.4874 21.8589C83.4963 21.8795 83.5051 21.903 83.511 21.9236C83.4904 21.8236 83.4669 21.7237 83.4463 21.6237C83.4286 21.512 83.4081 21.4032 83.3934 21.2885C83.3228 20.8857 83.3022 20.4858 83.3022 20.0829C83.3022 19.6801 83.3257 19.2802 83.3934 18.8803C83.4404 18.501 83.511 18.1482 83.6051 17.7953C83.6521 17.6071 83.6992 17.4395 83.7727 17.2513C83.8432 17.0161 83.9373 16.7809 84.0314 16.5692V16.5398C84.0432 16.5104 84.0549 16.4868 84.0696 16.4633C84.0755 16.4545 84.0785 16.4427 84.0843 16.4339C84.099 16.4074 84.1138 16.3839 84.1255 16.3516C84.199 16.1722 84.2872 15.9958 84.3872 15.8252C84.4166 15.7723 84.446 15.7194 84.4784 15.6665C84.7401 15.2195 85.0194 14.7961 85.3517 14.3903C85.4457 14.2727 85.5163 14.1786 85.6104 14.0845C87.3129 12.2439 89.6976 11.2059 92.1763 11.2059C97.0868 11.2059 101.08 15.1725 101.08 20.0829C101.08 24.9934 97.0897 28.9864 92.1763 28.9864L92.1822 28.9835Z" fill="black"></path><path id="Vector_15" d="M73.9375 6.50391H66.6277C64.737 6.50391 63.2051 8.03585 63.2051 9.92652V12.0142H73.9375V6.50391Z" fill="black"></path></g></g><defs><linearGradient id="paint0_linear_1391_43388" x1="14.8658" y1="26.2624" x2="2.36328" y2="26.2624" gradientUnits="userSpaceOnUse"><stop stop-color="#7D70FA"></stop><stop offset="1" stop-color="#7FD2FD"></stop></linearGradient></defs></svg>