<?xml version="1.0" encoding="UTF-8"?>
<!DOCTYPE svg PUBLIC "-//W3C//DTD SVG 1.1//EN" "http://www.w3.org/Graphics/SVG/1.1/DTD/svg11.dtd">
<svg xmlns="http://www.w3.org/2000/svg" version="1.1" width="1000px" height="1000px" style="shape-rendering:geometricPrecision; text-rendering:geometricPrecision; image-rendering:optimizeQuality; fill-rule:evenodd; clip-rule:evenodd" xmlns:xlink="http://www.w3.org/1999/xlink">
<g><path style="opacity:1" fill="#fefefe" d="M -0.5,-0.5 C 332.833,-0.5 666.167,-0.5 999.5,-0.5C 999.5,332.833 999.5,666.167 999.5,999.5C 666.167,999.5 332.833,999.5 -0.5,999.5C -0.5,666.167 -0.5,332.833 -0.5,-0.5 Z"/></g>
<g><path style="opacity:1" fill="#1e1e1e" d="M 630.5,468.5 C 628.211,471.942 626.211,475.609 624.5,479.5C 604.177,513.008 574.51,532.508 535.5,538C 512.148,540.581 491.148,534.914 472.5,521C 461.925,510.342 454.591,497.842 450.5,483.5C 450.829,480.772 450.163,478.438 448.5,476.5C 447.691,429.518 447.191,382.518 447,335.5C 445.597,329.525 442.763,324.358 438.5,320C 424.452,308.995 409.452,307.662 393.5,316C 386.951,320.551 382.784,326.717 381,334.5C 380.075,367.523 380.409,400.523 382,433.5C 388.177,461.064 402.677,482.898 425.5,499C 436.896,504.698 448.229,510.364 459.5,516C 466.307,522.856 465.974,529.356 458.5,535.5C 453.067,536.652 447.734,536.152 442.5,534C 413.744,523.409 391.078,505.242 374.5,479.5C 373.532,476.9 372.199,474.566 370.5,472.5C 364.02,459.617 359.52,445.951 357,431.5C 356.333,396.833 356.333,362.167 357,327.5C 364.184,303.991 380.018,290.491 404.5,287C 429.91,285.018 449.744,294.518 464,315.5C 467.326,321.812 469.66,328.479 471,335.5C 471.333,379.167 471.667,422.833 472,466.5C 473.326,485.666 482.16,500.166 498.5,510C 510.47,514.127 522.803,515.627 535.5,514.5C 538.495,514.706 541.162,514.04 543.5,512.5C 575.062,503.945 597.396,484.611 610.5,454.5C 611.924,452.485 612.59,450.152 612.5,447.5C 615.014,439.781 616.847,431.781 618,423.5C 618.968,387.128 618.634,350.794 617,314.5C 610.21,300.839 599.044,293.839 583.5,293.5C 573.424,293.579 564.924,297.245 558,304.5C 554.858,309.118 552.524,314.118 551,319.5C 550.5,370.166 550.333,420.832 550.5,471.5C 549.232,473.905 548.565,476.572 548.5,479.5C 546.96,481.838 546.294,484.505 546.5,487.5C 543.319,495.19 538.653,501.857 532.5,507.5C 525.488,511.139 519.655,509.805 515,503.5C 514.333,499.833 514.333,496.167 515,492.5C 521.033,486.769 524.7,479.769 526,471.5C 526.333,419.833 526.667,368.167 527,316.5C 532.339,289.83 548.505,274.33 575.5,270C 609.287,267.791 631.454,282.624 642,314.5C 642.667,350.833 642.667,387.167 642,423.5C 640.822,432.221 639.322,440.888 637.5,449.5C 635.317,455.903 632.984,462.236 630.5,468.5 Z"/></g>
<g><path style="opacity:1" fill="#727272" d="M 612.5,447.5 C 612.59,450.152 611.924,452.485 610.5,454.5C 610.41,451.848 611.076,449.515 612.5,447.5 Z"/></g>
<g><path style="opacity:1" fill="#bbbbbb" d="M 630.5,468.5 C 629.757,472.937 627.757,476.603 624.5,479.5C 626.211,475.609 628.211,471.942 630.5,468.5 Z"/></g>
<g><path style="opacity:1" fill="#9d9d9d" d="M 370.5,472.5 C 372.199,474.566 373.532,476.9 374.5,479.5C 372.058,477.879 370.725,475.546 370.5,472.5 Z"/></g>
<g><path style="opacity:1" fill="#959595" d="M 550.5,471.5 C 550.706,474.495 550.04,477.162 548.5,479.5C 548.565,476.572 549.232,473.905 550.5,471.5 Z"/></g>
<g><path style="opacity:1" fill="#616161" d="M 448.5,476.5 C 450.163,478.438 450.829,480.772 450.5,483.5C 449.388,481.401 448.721,479.067 448.5,476.5 Z"/></g>
<g><path style="opacity:1" fill="#7f7f7f" d="M 548.5,479.5 C 548.435,482.428 547.768,485.095 546.5,487.5C 546.294,484.505 546.96,481.838 548.5,479.5 Z"/></g>
<g><path style="opacity:1" fill="#6b6b6b" d="M 543.5,512.5 C 541.162,514.04 538.495,514.706 535.5,514.5C 537.838,512.96 540.505,512.294 543.5,512.5 Z"/></g>
<g><path style="opacity:1" fill="#1d1d1d" d="M 749.5,583.5 C 749.5,593.833 749.5,604.167 749.5,614.5C 757.174,614.334 764.841,614.5 772.5,615C 773.451,618.057 773.784,621.223 773.5,624.5C 765.981,624.175 758.648,624.508 751.5,625.5C 750.169,632.468 749.503,639.802 749.5,647.5C 749.5,655.008 749.834,662.341 750.5,669.5C 753.006,682.001 760.673,688.334 773.5,688.5C 773.5,692.167 773.5,695.833 773.5,699.5C 758.484,699.654 747.651,692.988 741,679.5C 740.587,676.768 739.92,674.101 739,671.5C 738.5,642.169 738.333,612.835 738.5,583.5C 742.167,583.5 745.833,583.5 749.5,583.5 Z"/></g>
<g><path style="opacity:1" fill="#7a7a7a" d="M 343.5,613.5 C 338.13,613.392 332.797,613.725 327.5,614.5C 330.356,612.994 333.523,612.328 337,612.5C 339.361,612.504 341.527,612.837 343.5,613.5 Z"/></g>
<g><path style="opacity:1" fill="#787878" d="M 385.5,613.5 C 382.15,613.335 378.817,613.502 375.5,614C 374.944,614.383 374.611,614.883 374.5,615.5C 373.226,614.811 373.226,613.977 374.5,613C 378.358,612.19 382.024,612.357 385.5,613.5 Z"/></g>
<g><path style="opacity:1" fill="#a7a7a7" d="M 535.5,613.5 C 537.304,612.838 539.304,612.505 541.5,612.5C 544.814,612.343 547.814,613.009 550.5,614.5C 545.537,613.746 540.537,613.413 535.5,613.5 Z"/></g>
<g><path style="opacity:1" fill="#9a9a9a" d="M 749.5,583.5 C 750.494,593.319 750.827,603.319 750.5,613.5C 758.174,613.334 765.841,613.5 773.5,614C 774.82,617.601 774.82,621.101 773.5,624.5C 773.784,621.223 773.451,618.057 772.5,615C 764.841,614.5 757.174,614.334 749.5,614.5C 749.5,604.167 749.5,593.833 749.5,583.5 Z"/></g>
<g><path style="opacity:1" fill="#202020" d="M 834.5,619.5 C 835.585,621.587 837.251,622.92 839.5,623.5C 840.122,624.627 840.955,625.627 842,626.5C 842.667,627.833 842.667,629.167 842,630.5C 839.651,631.84 837.317,633.174 835,634.5C 832.154,631.706 828.987,629.206 825.5,627C 823.091,625.293 820.425,624.46 817.5,624.5C 815.696,623.838 813.696,623.505 811.5,623.5C 808.473,623.287 805.807,623.953 803.5,625.5C 796.579,627.671 794.079,632.337 796,639.5C 797.122,641.624 798.622,643.457 800.5,645C 805.304,647.213 810.304,648.713 815.5,649.5C 817.515,650.924 819.848,651.59 822.5,651.5C 822.833,651.5 823.167,651.5 823.5,651.5C 825.89,653.02 828.557,654.02 831.5,654.5C 849.785,663.33 852.451,675.664 839.5,691.5C 828.677,699.091 816.677,701.591 803.5,699C 794.63,696.287 787.63,691.121 782.5,683.5C 783.824,680.336 786.157,678.336 789.5,677.5C 793.674,680.834 798.008,684.001 802.5,687C 810.37,689.147 818.037,688.981 825.5,686.5C 828.313,686.975 830.313,685.975 831.5,683.5C 837.082,676.863 836.749,670.697 830.5,665C 818.278,661.959 806.278,658.292 794.5,654C 785.018,646.55 782.185,637.05 786,625.5C 794.297,615.114 805.13,610.947 818.5,613C 824.339,614.108 829.673,616.275 834.5,619.5 Z"/></g>
<g><path style="opacity:1" fill="#434343" d="M 216.5,613.5 C 213.223,613.216 210.057,613.549 207,614.5C 206.832,632.671 206.332,650.671 205.5,668.5C 205.333,650.164 205.5,631.83 206,613.5C 209.601,612.18 213.101,612.18 216.5,613.5 Z"/></g>
<g><path style="opacity:1" fill="#989898" d="M 351.5,615.5 C 355.13,615.701 357.797,617.368 359.5,620.5C 356.701,618.836 354.034,617.169 351.5,615.5 Z"/></g>
<g><path style="opacity:1" fill="#a4a4a4" d="M 559.5,619.5 C 561.749,620.08 563.415,621.413 564.5,623.5C 562.251,622.92 560.585,621.587 559.5,619.5 Z"/></g>
<g><path style="opacity:1" fill="#a4a4a4" d="M 834.5,619.5 C 836.749,620.08 838.415,621.413 839.5,623.5C 837.251,622.92 835.585,621.587 834.5,619.5 Z"/></g>
<g><path style="opacity:1" fill="#adadad" d="M 817.5,624.5 C 812.797,624.437 808.13,624.771 803.5,625.5C 805.807,623.953 808.473,623.287 811.5,623.5C 813.696,623.505 815.696,623.838 817.5,624.5 Z"/></g>
<g><path style="opacity:1" fill="#6d6d6d" d="M 596.5,623.5 C 595.581,626.089 593.914,628.089 591.5,629.5C 592.419,626.911 594.086,624.911 596.5,623.5 Z"/></g>
<g><path style="opacity:1" fill="#7b7b7b" d="M 751.5,625.5 C 750.517,640.088 750.184,654.755 750.5,669.5C 749.834,662.341 749.5,655.008 749.5,647.5C 749.503,639.802 750.169,632.468 751.5,625.5 Z"/></g>
<g><path style="opacity:1" fill="#6f6f6f" d="M 308.5,627.5 C 308.733,629.062 309.4,630.395 310.5,631.5C 307.691,631.042 307.024,629.709 308.5,627.5 Z"/></g>
<g><path style="opacity:1" fill="#1f1f1f" d="M 343.5,613.5 C 346.067,614.475 348.733,615.142 351.5,615.5C 354.034,617.169 356.701,618.836 359.5,620.5C 362.852,623.695 365.685,627.362 368,631.5C 368.667,647.5 368.667,663.5 368,679.5C 367.07,681.936 365.903,684.269 364.5,686.5C 348.69,701.659 331.357,703.492 312.5,692C 297.936,676.409 299.603,662.742 317.5,651C 320.833,650 324.167,649 327.5,648C 336.833,647.667 346.167,647.333 355.5,647C 359.866,637.875 357.533,630.875 348.5,626C 340.343,622.457 332.343,622.791 324.5,627C 321.392,629.4 318.392,631.9 315.5,634.5C 313.308,634.243 311.641,633.243 310.5,631.5C 309.4,630.395 308.733,629.062 308.5,627.5C 313.192,620.814 319.526,616.481 327.5,614.5C 332.797,613.725 338.13,613.392 343.5,613.5 Z"/></g>
<g><path style="opacity:1" fill="#1f1f1f" d="M 258.5,697.5 C 253.238,697.195 248.072,697.529 243,698.5C 242.5,708.161 242.334,717.828 242.5,727.5C 239.038,728.482 235.371,728.815 231.5,728.5C 231.5,689.833 231.5,651.167 231.5,612.5C 248.462,610.449 264.462,613.282 279.5,621C 301.522,638.835 304.355,659.335 288,682.5C 280.088,691.372 270.255,696.372 258.5,697.5 Z"/></g>
<g><path style="opacity:1" fill="#f9f9f9" d="M 242.5,623.5 C 254.999,622.133 266.332,624.966 276.5,632C 289.833,647.673 289.833,663.34 276.5,679C 266.49,686.832 255.156,689.665 242.5,687.5C 242.5,666.167 242.5,644.833 242.5,623.5 Z"/></g>
<g><path style="opacity:1" fill="#a4a4a4" d="M 444.5,631.5 C 444.585,634.649 443.585,637.316 441.5,639.5C 441.733,636.458 442.733,633.792 444.5,631.5 Z"/></g>
<g><path style="opacity:1" fill="#6f6f6f" d="M 569.5,631.5 C 571.585,633.684 572.585,636.351 572.5,639.5C 570.415,637.316 569.415,634.649 569.5,631.5 Z"/></g>
<g><path style="opacity:1" fill="#1f1f1f" d="M 670.5,642.5 C 669.503,660.993 669.17,679.659 669.5,698.5C 666.167,698.5 662.833,698.5 659.5,698.5C 659.5,678.833 659.5,659.167 659.5,639.5C 664.257,620.918 676.257,612.085 695.5,613C 710.108,616.273 719.608,625.106 724,639.5C 724.5,659.497 724.667,679.497 724.5,699.5C 720.833,699.5 717.167,699.5 713.5,699.5C 713.667,679.497 713.5,659.497 713,639.5C 706.804,627.319 696.971,622.486 683.5,625C 676.277,628.718 671.944,634.552 670.5,642.5 Z"/></g>
<g><path style="opacity:1" fill="#c1c1c1" d="M 560.5,639.5 C 561.332,658.996 561.832,678.662 562,698.5C 565.394,699.456 568.894,699.789 572.5,699.5C 568.767,700.821 564.934,700.821 561,699.5C 560.5,679.503 560.333,659.503 560.5,639.5 Z"/></g>
<g><path style="opacity:1" fill="#1e1e1e" d="M 535.5,613.5 C 540.537,613.413 545.537,613.746 550.5,614.5C 553.688,615.925 556.688,617.592 559.5,619.5C 560.585,621.587 562.251,622.92 564.5,623.5C 566.181,626.203 567.847,628.869 569.5,631.5C 569.415,634.649 570.415,637.316 572.5,639.5C 572.5,659.5 572.5,679.5 572.5,699.5C 568.894,699.789 565.394,699.456 562,698.5C 561.832,678.662 561.332,658.996 560.5,639.5C 558.077,632.576 553.41,627.742 546.5,625C 541.5,624.333 536.5,624.333 531.5,625C 524.736,628.596 520.403,634.096 518.5,641.5C 517.503,660.326 517.17,679.326 517.5,698.5C 514.167,698.5 510.833,698.5 507.5,698.5C 507.83,679.326 507.497,660.326 506.5,641.5C 501.418,627.282 491.418,621.782 476.5,625C 472.266,627.732 468.933,631.232 466.5,635.5C 464.461,636.911 463.461,638.911 463.5,641.5C 463.5,660.833 463.5,680.167 463.5,699.5C 460.167,699.5 456.833,699.5 453.5,699.5C 452.513,679.576 452.179,659.576 452.5,639.5C 456.628,622.699 467.295,614.032 484.5,613.5C 488.889,613.545 493.223,614.045 497.5,615C 502.86,618.349 507.86,622.182 512.5,626.5C 518.274,618.781 525.94,614.447 535.5,613.5 Z"/></g>
<g><path style="opacity:1" fill="#7d7d7d" d="M 466.5,635.5 C 466.008,637.819 465.008,639.819 463.5,641.5C 463.461,638.911 464.461,636.911 466.5,635.5 Z"/></g>
<g><path style="opacity:1" fill="#525252" d="M 659.5,639.5 C 659.5,659.167 659.5,678.833 659.5,698.5C 662.833,698.5 666.167,698.5 669.5,698.5C 669.17,679.659 669.503,660.993 670.5,642.5C 670.5,661.5 670.5,680.5 670.5,699.5C 666.5,699.5 662.5,699.5 658.5,699.5C 658.17,679.326 658.503,659.326 659.5,639.5 Z"/></g>
<g><path style="opacity:1" fill="#7b7b7b" d="M 452.5,639.5 C 452.179,659.576 452.513,679.576 453.5,699.5C 452.168,689.856 451.501,679.856 451.5,669.5C 451.5,659.328 451.834,649.328 452.5,639.5 Z"/></g>
<g><path style="opacity:1" fill="#888888" d="M 815.5,649.5 C 818.152,649.41 820.485,650.076 822.5,651.5C 819.848,651.59 817.515,650.924 815.5,649.5 Z"/></g>
<g><path style="opacity:1" fill="#999999" d="M 823.5,651.5 C 826.716,651.345 829.383,652.345 831.5,654.5C 828.557,654.02 825.89,653.02 823.5,651.5 Z"/></g>
<g><path style="opacity:1" fill="#f5f5f5" d="M 329.5,657.5 C 338.833,657.5 348.167,657.5 357.5,657.5C 362.273,677.365 354.606,687.699 334.5,688.5C 319.873,687.74 313.706,680.407 316,666.5C 319.826,662.348 324.326,659.348 329.5,657.5 Z"/></g>
<g><path style="opacity:1" fill="#565656" d="M 506.5,641.5 C 507.497,660.326 507.83,679.326 507.5,698.5C 510.833,698.5 514.167,698.5 517.5,698.5C 517.17,679.326 517.503,660.326 518.5,641.5C 518.5,660.833 518.5,680.167 518.5,699.5C 514.5,699.5 510.5,699.5 506.5,699.5C 506.5,680.167 506.5,660.833 506.5,641.5 Z"/></g>
<g><path style="opacity:1" fill="#1f1f1f" d="M 385.5,613.5 C 394.478,635.26 402.978,657.26 411,679.5C 411.414,679.957 411.914,680.291 412.5,680.5C 421.641,658.561 430.475,636.561 439,614.5C 442.73,613.54 446.563,613.207 450.5,613.5C 448.816,619.555 446.816,625.555 444.5,631.5C 442.733,633.792 441.733,636.458 441.5,639.5C 432.518,662.016 423.518,684.682 414.5,707.5C 407.563,722.445 395.897,729.445 379.5,728.5C 379.5,725.167 379.5,721.833 379.5,718.5C 389.116,718.777 396.949,715.11 403,707.5C 404.156,703.582 404.656,699.582 404.5,695.5C 404.483,691.466 403.483,687.799 401.5,684.5C 392.759,661.358 383.759,638.358 374.5,615.5C 374.611,614.883 374.944,614.383 375.5,614C 378.817,613.502 382.15,613.335 385.5,613.5 Z"/></g>
<g><path style="opacity:1" fill="#242424" d="M 205.5,668.5 C 206.332,650.671 206.832,632.671 207,614.5C 210.057,613.549 213.223,613.216 216.5,613.5C 217.662,632.662 217.829,651.996 217,671.5C 212.797,687.747 202.464,697.081 186,699.5C 167.161,699.236 155.495,689.902 151,671.5C 150.333,652.167 150.333,632.833 151,613.5C 154.667,612.167 158.333,612.167 162,613.5C 162.333,632.833 162.667,652.167 163,671.5C 171.147,690.103 183.481,693.436 200,681.5C 202.383,677.401 204.216,673.067 205.5,668.5 Z"/></g>
<g><path style="opacity:1" fill="#1f1f1f" d="M 639.5,695.5 C 636.603,696.129 633.936,697.129 631.5,698.5C 606.295,702.176 590.462,691.509 584,666.5C 581.577,653.009 584.077,640.676 591.5,629.5C 593.914,628.089 595.581,626.089 596.5,623.5C 599.785,619.724 603.785,616.89 608.5,615C 619.894,612.229 630.894,613.229 641.5,618C 651.345,625.777 653.178,635.277 647,646.5C 641.531,652.652 634.698,656.319 626.5,657.5C 615.854,658.499 605.187,658.832 594.5,658.5C 595.111,672.936 602.111,682.769 615.5,688C 626.693,690.382 635.693,687.049 642.5,678C 647.027,677.933 650.361,679.933 652.5,684C 648.915,688.756 644.582,692.589 639.5,695.5 Z"/></g>
<g><path style="opacity:1" fill="#f5f5f5" d="M 617.5,623.5 C 624.453,622.656 630.786,624.156 636.5,628C 639.769,631.453 640.269,635.286 638,639.5C 634.316,644.176 629.483,646.676 623.5,647C 614.173,647.5 604.839,647.666 595.5,647.5C 598.433,635.242 605.766,627.242 617.5,623.5 Z"/></g>
<g><path style="opacity:1" fill="#797979" d="M 831.5,683.5 C 830.313,685.975 828.313,686.975 825.5,686.5C 827.456,685.508 829.456,684.508 831.5,683.5 Z"/></g>
<g><path style="opacity:1" fill="#999999" d="M 401.5,684.5 C 403.483,687.799 404.483,691.466 404.5,695.5C 402.926,692.093 401.926,688.427 401.5,684.5 Z"/></g>
<g><path style="opacity:1" fill="#8c8c8c" d="M 639.5,695.5 C 637.383,697.655 634.716,698.655 631.5,698.5C 633.936,697.129 636.603,696.129 639.5,695.5 Z"/></g>
<g><path style="opacity:1" fill="#8d8d8d" d="M 258.5,697.5 C 253.767,698.19 248.934,698.856 244,699.5C 243.83,709.009 243.33,718.342 242.5,727.5C 242.334,717.828 242.5,708.161 243,698.5C 248.072,697.529 253.238,697.195 258.5,697.5 Z"/></g>
</svg>
