<svg id="Layer_1" data-name="Layer 1" xmlns="http://www.w3.org/2000/svg" viewBox="0 0 702.81 365.13"><defs><style>.cls-1{fill:#0d76bd;}.cls-2{fill:#8fc740;}</style></defs><path class="cls-1" d="M181.47,126.33h90.07c-.18.94-.3,1.8-.53,2.63-8.32,29.46-16.77,58.88-24.94,88.38-6.92,25-13.55,50.11-20.26,75.18-2.7,10.08-8.53,18.15-16,25.09a52.53,52.53,0,0,1-21.69,12c-11.18,3.13-22.54,3.68-33.79.3-8.66-2.6-15.12-8.05-18.46-16.56-1.11-2.85-1.34-6.1-1.62-9.2-.68-7.7,1.19-15,3.26-22.38q17.66-62.4,35.26-124.82c2.63-9.33,5.22-18.67,7.84-28C180.82,128.09,181.15,127.25,181.47,126.33Z" transform="translate(-59.58 -114.15)"/><path class="cls-1" d="M667.32,259.42l-1.85,22.19L690,283.66c-12.41,26.38-38.06,42.54-63.93,37.75-31.78-5.89-52-41.18-45-78.68s38.45-63.21,70.23-57.33c15.73,2.91,28.62,13,36.79,27.06l48.14-40.77C720,144.2,694.56,124.37,663.6,118.63c-30.65-5.67-61.17,3.49-86,23,.16.39.34.76.49,1.15,4.15,10.47,4.83,21.27,3.64,32.3a142.63,142.63,0,0,1-4.84,23.53A143,143,0,0,1,571,215.45a111.91,111.91,0,0,1-15.32,26.34c-1.32,1.67-9.81,11.23-12.93,14.15A97.94,97.94,0,0,1,522,271c3.56,58.49,39.86,107.57,91.69,117.16C661.54,397,709,369.74,735.14,323.56l.36-2-3.25,38.94,22.21,1.86,7.92-95.06Zm71,28.42-1.52-.28,1.54.13Z" transform="translate(-59.58 -114.15)"/><path class="cls-1" d="M290.18,341.75" transform="translate(-59.58 -114.15)"/><path class="cls-1" d="M295.52,339.65" transform="translate(-59.58 -114.15)"/><path class="cls-1" d="M287.84,345.12" transform="translate(-59.58 -114.15)"/><polygon class="cls-1" points="210.97 243.23 210.99 243.3 210.89 243.34 210.95 243.22 210.97 243.23"/><path class="cls-1" d="M304.12,322.21c-8.41,9.31-20.09,17.71-30.11,25.2a193.72,193.72,0,0,1-44.44,24.82c-9,3.26-21.64,6.07-33.9,7.51a216.78,216.78,0,0,1-38.59.84c-13.91-.84-28.76-2.1-43.07-5.55-9.77-2.36-26-11.31-31.57-17.42-9.82-10.76-15.58-22.86-17.13-35.95a106.38,106.38,0,0,1-.3-15.27l0-.7c.24-8.44,1.81-22.8,8-43.29,7.52-25.1,17.67-59.37,30.26-102q5.92-20,11.82-40c.25-.84.51-1.67.78-2.53l.4-1.28L111.18,115l-.4,1.27c-.28.89-.55,1.75-.81,2.61q-5.91,20-11.81,40c-9.86,33.39-20,67.91-30.26,102-6.31,21-7.93,35.9-8.17,44.66l0,.7a109,109,0,0,0,.33,16c1.68,14.22,7.9,27.31,18.48,38.91,6.77,7.42,24.49,16.65,34.25,19,14.71,3.55,29.83,4.83,44,5.69q8,.48,15.56.48a205.43,205.43,0,0,0,24-1.35A179,179,0,0,0,226,379c16.16-4.46,26.63-8.18,34.53-13.77.84-.59,2.7-1.44,3.52-2.05,4.49-2.82,9.9-5.83,14.15-9,10.29-7.69,18.87-18.95,27.51-28.51Z" transform="translate(-59.58 -114.15)"/><path class="cls-2" d="M570.5,144.48a44.57,44.57,0,0,0-13.71-18.73,55.51,55.51,0,0,0-14.65-8.26,46,46,0,0,0-17.33-3.34c-50.58.15-101.15.09-151.72.09h-4c-.94,3.49-1.83,6.66-2.64,9.86-1.5,5.84-2.87,11.71-4.46,17.53-2.09,7.65-4.41,15.25-6.51,22.9-2.24,8.12-4.33,16.27-6.5,24.4-1.87,7-3.79,13.94-5.63,20.92C342,214.9,340.82,220,339.49,225c-1.79,6.81-3.65,13.6-5.45,20.41-.69,2.62-1.28,5.27-2,7.89-1.58,5.92-2.78,10.28-3.33,12.21-.78,2.69-1.47,5.09-2.51,8.35,0,0-1.36,4.25-2.69,8a190.48,190.48,0,0,1-9.61,22c-3.38,6.52-5.49,13.37-9.8,19.33-6.35,8.76-10.55,15.9-18.7,22.94-11,9.53-17.15,15.3-29.48,21.35-6.24,3.06-13.43,6.43-17.18,7.79-3.28,1.2-10.59,4.54-13.89,5h0c51.05,0,100.36-.27,151.71-.27,8.88-33.13,17.69-66,26.58-99.14,1.93-.05,3.83-.14,5.72-.15,17.29-.1,34.59,0,51.87-.37a136.76,136.76,0,0,0,17.43-1.89c3.86-.57,7.62-1.85,11.48-2.52a75,75,0,0,0,15.48-4.92c4-1.62,7.81-3.54,11.61-5.53A92.75,92.75,0,0,0,537.07,251c1.77-1.67,3.55-3.31,5.16-5.12a66.13,66.13,0,0,0,6-6.6c1.21-1.51,2.33-3.06,3.38-4.62a107.43,107.43,0,0,0,12.22-21.9,136.58,136.58,0,0,0,5.56-15.86,134.8,134.8,0,0,0,4.54-22.1C575,164.45,574.4,154.31,570.5,144.48ZM489,187.59a54.63,54.63,0,0,1-2.15,10.87c-2.57,8.6-8.39,14.71-15.81,19.38a40.42,40.42,0,0,1-12.81,5.09c-12.84,2.85-25.89,1.88-38.88,2a6.17,6.17,0,0,1-1.16-.31c5.1-19.09,10.18-38.15,15.35-57.51a17,17,0,0,1,2.45-.31c8.68,0,17.37,0,26.06.15a45.53,45.53,0,0,1,16,2.92c4.9,1.93,8.63,5.42,9.76,11C488.27,183.07,489.23,185.38,489,187.59Z" transform="translate(-59.58 -114.15)"/><path class="cls-1" d="M73.23,466.7a15.21,15.21,0,0,1-6.32-6,17.3,17.3,0,0,1-2.21-8.85v-30h5.76v29.62a11.82,11.82,0,0,0,3.32,8.67q3.31,3.38,9.3,3.37t9.28-3.37a11.91,11.91,0,0,0,3.27-8.67V421.87h5.76v30a17.5,17.5,0,0,1-2.19,8.85,15.14,15.14,0,0,1-6.29,6,21,21,0,0,1-9.83,2.14A21.06,21.06,0,0,1,73.23,466.7Z" transform="translate(-59.58 -114.15)"/><path class="cls-1" d="M108.84,434.77h5.57v4.74h.13a10.73,10.73,0,0,1,3.91-3.86,12.25,12.25,0,0,1,6.34-1.52c3.65,0,6.48,1.11,8.5,3.31s3,5.22,3,9v21.61h-5.57V447.45a9.14,9.14,0,0,0-1.9-6.23q-1.91-2.16-5.75-2.16a8.74,8.74,0,0,0-4.58,1.17,8,8,0,0,0-3,3.28,10.93,10.93,0,0,0-1.07,5v19.59h-5.57Z" transform="translate(-59.58 -114.15)"/><path class="cls-1" d="M143.41,428.11a3.49,3.49,0,0,1,0-4.95,3.5,3.5,0,1,1,0,4.95Zm-.32,6.66h5.57v33.3h-5.57Z" transform="translate(-59.58 -114.15)"/><path class="cls-1" d="M157.39,439.38h-4.65v-4.61h4.65v-4.1q0-4.8,2.25-7.12t6.87-2.32q.93,0,1.86.06c.62,0,1.13.1,1.54.16V426c-.35,0-.72-.07-1.14-.09s-.84,0-1.27,0a4.56,4.56,0,0,0-3.45,1.2,5.1,5.1,0,0,0-1.16,3.66v4.07h6.86v4.61H163v28.69h-5.57Z" transform="translate(-59.58 -114.15)"/><path class="cls-1" d="M175.53,428.11a3.49,3.49,0,0,1,0-4.95,3.5,3.5,0,1,1,0,4.95Zm-.32,6.66h5.57v33.3h-5.57Z" transform="translate(-59.58 -114.15)"/><path class="cls-1" d="M193.2,466.6a13.84,13.84,0,0,1-5.28-6,20.84,20.84,0,0,1-1.84-9.08v0a21,21,0,0,1,1.86-9.08,14.56,14.56,0,0,1,5.21-6.12,15.51,15.51,0,0,1,15.74-.09,13.64,13.64,0,0,1,5.05,5.87,20.66,20.66,0,0,1,1.76,8.78v2.05H188.86v-4.36h24.08l-2.81,4v-2.15a15.25,15.25,0,0,0-1.17-6.4,8.37,8.37,0,0,0-3.22-3.77,9,9,0,0,0-4.71-1.23,8.9,8.9,0,0,0-4.77,1.3,8.76,8.76,0,0,0-3.33,3.84,14.49,14.49,0,0,0-1.22,6.26v2.15a13.81,13.81,0,0,0,1.2,6,8.78,8.78,0,0,0,3.42,3.82,9.87,9.87,0,0,0,5.21,1.33,10.4,10.4,0,0,0,3.78-.64,7.92,7.92,0,0,0,2.79-1.76,6.47,6.47,0,0,0,1.6-2.56l.1-.29h5.47l-.06.32a11,11,0,0,1-1.59,3.84,12.25,12.25,0,0,1-3,3.16,14.42,14.42,0,0,1-4.16,2.11,16.51,16.51,0,0,1-5.06.75A15.42,15.42,0,0,1,193.2,466.6Z" transform="translate(-59.58 -114.15)"/><path class="cls-1" d="M225.72,466.58a13.93,13.93,0,0,1-4.95-6,22,22,0,0,1-1.76-9.14v0a21.84,21.84,0,0,1,1.78-9.13,14.12,14.12,0,0,1,5-6,12.83,12.83,0,0,1,7.33-2.13,12.07,12.07,0,0,1,6.31,1.67,11.65,11.65,0,0,1,4.35,4.54h.13V421.87h5.57v46.2h-5.57v-5.63h-.13a12,12,0,0,1-4.27,4.59,11.69,11.69,0,0,1-6.29,1.68A13.11,13.11,0,0,1,225.72,466.58Zm13.53-4.33a10.22,10.22,0,0,0,3.41-4.33,15.94,15.94,0,0,0,1.23-6.5v0a15.64,15.64,0,0,0-1.24-6.48,10.33,10.33,0,0,0-3.42-4.31,8.33,8.33,0,0,0-5-1.54,8.61,8.61,0,0,0-5.1,1.51,9.44,9.44,0,0,0-3.29,4.26,16.87,16.87,0,0,0-1.16,6.56v0a17.19,17.19,0,0,0,1.16,6.6,9.31,9.31,0,0,0,3.29,4.27,8.67,8.67,0,0,0,5.1,1.49A8.47,8.47,0,0,0,239.25,462.25Z" transform="translate(-59.58 -114.15)"/><path class="cls-1" d="M270,421.87h5.76v46.2H270Zm2.88,24.59H285q5,0,7.68-2.58a9.31,9.31,0,0,0,2.72-7.12v-.07a9.31,9.31,0,0,0-2.72-7.14Q289.91,427,285,427H272.84v-5.12h13.58a15.59,15.59,0,0,1,7.68,1.85,13.54,13.54,0,0,1,5.24,5.19,15.27,15.27,0,0,1,1.91,7.72v.06a15.43,15.43,0,0,1-1.91,7.75,13.69,13.69,0,0,1-5.24,5.25,15.29,15.29,0,0,1-7.68,1.89H272.84Z" transform="translate(-59.58 -114.15)"/><path class="cls-1" d="M307.38,467.46a9.29,9.29,0,0,1-3.89-3.52,9.87,9.87,0,0,1-1.4-5.28v-.07a8.28,8.28,0,0,1,3.18-6.8c2.11-1.7,5.08-2.65,8.9-2.87l12.33-.7v4.32l-11.69.71a9.24,9.24,0,0,0-5.17,1.6,4.48,4.48,0,0,0-1.85,3.74v.07a4.59,4.59,0,0,0,1.81,3.81,7.65,7.65,0,0,0,4.82,1.41,10,10,0,0,0,4.73-1.11,8.74,8.74,0,0,0,3.33-3,7.85,7.85,0,0,0,1.23-4.33v-9.83a6.16,6.16,0,0,0-1.91-4.78,7.67,7.67,0,0,0-5.39-1.75,8.74,8.74,0,0,0-5.17,1.4,5.76,5.76,0,0,0-2.45,3.63l-.07.29h-5.38l0-.35a9.93,9.93,0,0,1,1.87-5,11.3,11.3,0,0,1,4.47-3.57,17.82,17.82,0,0,1,13.56,0,10.25,10.25,0,0,1,4.43,3.79,10.44,10.44,0,0,1,1.57,5.78v23h-5.57v-5.41h-.13a10.63,10.63,0,0,1-2.56,3.19,12.27,12.27,0,0,1-3.6,2.11,12,12,0,0,1-4.25.75A12.69,12.69,0,0,1,307.38,467.46Z" transform="translate(-59.58 -114.15)"/><path class="cls-1" d="M337.29,479.2c-.55-.05-1-.11-1.36-.18v-4.54l.81.13a7.7,7.7,0,0,0,1,.06,8.33,8.33,0,0,0,4.24-.93,6.7,6.7,0,0,0,2.58-3.75l.67-1.88-12.36-33.34h6l9.6,29-1.18-1.28h1.66l-1.18,1.28,9.64-29h5.86l-13,35.38a21.57,21.57,0,0,1-2.66,5.19,9.09,9.09,0,0,1-3.55,3,12.15,12.15,0,0,1-5.1,1C338.37,479.28,337.83,479.25,337.29,479.2Z" transform="translate(-59.58 -114.15)"/><path class="cls-1" d="M366.94,434.77h5.57v4.87h.13a9.15,9.15,0,0,1,3.52-4,10.29,10.29,0,0,1,5.61-1.52,10.82,10.82,0,0,1,4.11.75,9,9,0,0,1,3.19,2.18,9.56,9.56,0,0,1,2.05,3.48h.12a10.61,10.61,0,0,1,2.49-3.45,10.93,10.93,0,0,1,3.58-2.19,12.32,12.32,0,0,1,4.37-.77,11.51,11.51,0,0,1,5.73,1.36,9.49,9.49,0,0,1,3.78,3.81,11.79,11.79,0,0,1,1.35,5.78v23H407V446.36a7.57,7.57,0,0,0-1.81-5.36,6.66,6.66,0,0,0-5.11-1.94,7.54,7.54,0,0,0-3.91,1,7.15,7.15,0,0,0-2.66,2.79,8.36,8.36,0,0,0-1,4.05v21.16H387V445.75a6.53,6.53,0,0,0-1.85-4.86,6.78,6.78,0,0,0-5-1.83,7.27,7.27,0,0,0-3.92,1.07,7.87,7.87,0,0,0-2.71,2.9,8.62,8.62,0,0,0-1,4.17v20.87h-5.57Z" transform="translate(-59.58 -114.15)"/><path class="cls-1" d="M424.45,466.6a13.78,13.78,0,0,1-5.28-6,20.84,20.84,0,0,1-1.84-9.08v0a21,21,0,0,1,1.85-9.08,14.65,14.65,0,0,1,5.22-6.12,15.51,15.51,0,0,1,15.74-.09,13.64,13.64,0,0,1,5.05,5.87,20.66,20.66,0,0,1,1.76,8.78v2.05H420.11v-4.36h24.08l-2.82,4v-2.15a15.42,15.42,0,0,0-1.16-6.4,8.37,8.37,0,0,0-3.22-3.77,9,9,0,0,0-4.71-1.23,8.9,8.9,0,0,0-4.77,1.3,8.76,8.76,0,0,0-3.33,3.84,14.49,14.49,0,0,0-1.22,6.26v2.15a13.81,13.81,0,0,0,1.2,6,8.76,8.76,0,0,0,3.41,3.82,9.93,9.93,0,0,0,5.22,1.33,10.4,10.4,0,0,0,3.78-.64,7.92,7.92,0,0,0,2.79-1.76,6.59,6.59,0,0,0,1.6-2.56l.09-.29h5.48l-.06.32a11,11,0,0,1-1.59,3.84,12.42,12.42,0,0,1-3,3.16,14.35,14.35,0,0,1-4.17,2.11,16.41,16.41,0,0,1-5.06.75A15.38,15.38,0,0,1,424.45,466.6Z" transform="translate(-59.58 -114.15)"/><path class="cls-1" d="M451.89,434.77h5.58v4.74h.12a10.73,10.73,0,0,1,3.91-3.86,12.27,12.27,0,0,1,6.34-1.52c3.65,0,6.49,1.11,8.5,3.31s3,5.22,3,9v21.61H473.8V447.45a9.14,9.14,0,0,0-1.91-6.23c-1.27-1.44-3.18-2.16-5.75-2.16a8.77,8.77,0,0,0-4.58,1.17,7.86,7.86,0,0,0-3,3.28,10.8,10.8,0,0,0-1.07,5v19.59h-5.58Z" transform="translate(-59.58 -114.15)"/><path class="cls-1" d="M489.76,466.54c-1.52-1.46-2.27-3.77-2.27-7V439.38h-4.87v-4.61h4.87v-9h5.76v9h6.34v4.61h-6.34v20.18c0,1.77.38,3,1.15,3.6a5.26,5.26,0,0,0,3.4.94,7.58,7.58,0,0,0,1-.05l.82-.08v4.52l-1.33.14a15,15,0,0,1-1.65.08Q492,468.71,489.76,466.54Z" transform="translate(-59.58 -114.15)"/><path class="cls-1" d="M526.73,465.88a19.59,19.59,0,0,1-7.36-8.37,29.15,29.15,0,0,1-2.62-12.78v0a28,28,0,0,1,2.62-12.52,19.31,19.31,0,0,1,7.36-8.18,23.29,23.29,0,0,1,20.4-1,17.76,17.76,0,0,1,6.39,5.09,20,20,0,0,1,3.55,7.32l.16.61h-6.05l-.13-.35a14.12,14.12,0,0,0-4.93-6.81,13.59,13.59,0,0,0-8.2-2.42,14.73,14.73,0,0,0-8.16,2.2,14.08,14.08,0,0,0-5.27,6.29,23.74,23.74,0,0,0-1.84,9.8v0a24.93,24.93,0,0,0,1.85,10,14.56,14.56,0,0,0,5.29,6.5,14.31,14.31,0,0,0,8.13,2.28,15.23,15.23,0,0,0,7.22-1.65,12.07,12.07,0,0,0,4.87-4.6,13.15,13.15,0,0,0,1.74-6.82v-.83h-13v-5.06h18.8V449a22.71,22.71,0,0,1-2.34,10.69,16.06,16.06,0,0,1-6.71,6.82,21.84,21.84,0,0,1-10.55,2.37A20.77,20.77,0,0,1,526.73,465.88Z" transform="translate(-59.58 -114.15)"/><path class="cls-1" d="M567.3,467.46a9.35,9.35,0,0,1-3.89-3.52,9.86,9.86,0,0,1-1.39-5.28v-.07a8.3,8.3,0,0,1,3.17-6.8c2.11-1.7,5.08-2.65,8.9-2.87l12.33-.7v4.32l-11.69.71a9.27,9.27,0,0,0-5.17,1.6,4.48,4.48,0,0,0-1.84,3.74v.07a4.57,4.57,0,0,0,1.81,3.81,7.61,7.61,0,0,0,4.82,1.41,9.93,9.93,0,0,0,4.72-1.11,8.6,8.6,0,0,0,3.33-3,7.85,7.85,0,0,0,1.23-4.33v-9.83a6.16,6.16,0,0,0-1.9-4.78,7.68,7.68,0,0,0-5.4-1.75,8.76,8.76,0,0,0-5.17,1.4,5.8,5.8,0,0,0-2.45,3.63l-.06.29h-5.38l0-.35a9.93,9.93,0,0,1,1.87-5,11.3,11.3,0,0,1,4.47-3.57,17.82,17.82,0,0,1,13.56,0,10.34,10.34,0,0,1,4.44,3.79,10.53,10.53,0,0,1,1.57,5.78v23h-5.58v-5.41h-.13a10.63,10.63,0,0,1-2.56,3.19,12.14,12.14,0,0,1-3.6,2.11,12,12,0,0,1-4.24.75A12.73,12.73,0,0,1,567.3,467.46Z" transform="translate(-59.58 -114.15)"/><path class="cls-1" d="M599.6,466.54c-1.52-1.46-2.28-3.77-2.28-7V439.38h-4.86v-4.61h4.86v-9h5.77v9h6.34v4.61h-6.34v20.18c0,1.77.38,3,1.15,3.6a5.25,5.25,0,0,0,3.39.94,7.74,7.74,0,0,0,1-.05l.82-.08v4.52l-1.33.14a15.19,15.19,0,0,1-1.65.08C603.4,468.71,601.11,468,599.6,466.54Z" transform="translate(-59.58 -114.15)"/><path class="cls-1" d="M619.26,466.6a13.8,13.8,0,0,1-5.29-6,21,21,0,0,1-1.84-9.08v0a21,21,0,0,1,1.86-9.08,14.65,14.65,0,0,1,5.22-6.12,15.51,15.51,0,0,1,15.74-.09,13.55,13.55,0,0,1,5,5.87,20.51,20.51,0,0,1,1.76,8.78v2.05H614.92v-4.36H639l-2.82,4v-2.15a15.25,15.25,0,0,0-1.17-6.4,8.31,8.31,0,0,0-3.22-3.77,9.5,9.5,0,0,0-9.47.07A8.76,8.76,0,0,0,619,444.2a14.35,14.35,0,0,0-1.22,6.26v2.15a13.81,13.81,0,0,0,1.2,6,8.76,8.76,0,0,0,3.41,3.82,9.88,9.88,0,0,0,5.22,1.33,10.4,10.4,0,0,0,3.78-.64,7.79,7.79,0,0,0,2.78-1.76,6.47,6.47,0,0,0,1.6-2.56l.1-.29h5.48l-.07.32a10.74,10.74,0,0,1-1.58,3.84,12.29,12.29,0,0,1-3,3.16,14.17,14.17,0,0,1-4.16,2.11,16.46,16.46,0,0,1-5.06.75A15.36,15.36,0,0,1,619.26,466.6Z" transform="translate(-59.58 -114.15)"/><path class="cls-1" d="M644,434.77h5.54l6.66,27.09h.13l7.52-27.09h5.38l7.56,27.09h.13l6.66-27.09h5.5l-9.28,33.3h-5.67l-7.52-25.77h-.13L659,468.07H653.3Z" transform="translate(-59.58 -114.15)"/><path class="cls-1" d="M696.25,467.46a9.35,9.35,0,0,1-3.89-3.52,10,10,0,0,1-1.39-5.28v-.07a8.3,8.3,0,0,1,3.17-6.8c2.11-1.7,5.08-2.65,8.9-2.87l12.33-.7v4.32l-11.69.71a9.27,9.27,0,0,0-5.17,1.6,4.5,4.5,0,0,0-1.84,3.74v.07a4.57,4.57,0,0,0,1.81,3.81,7.63,7.63,0,0,0,4.82,1.41,9.91,9.91,0,0,0,4.72-1.11,8.6,8.6,0,0,0,3.33-3,7.85,7.85,0,0,0,1.24-4.33v-9.83a6.16,6.16,0,0,0-1.91-4.78,7.67,7.67,0,0,0-5.39-1.75,8.79,8.79,0,0,0-5.18,1.4,5.8,5.8,0,0,0-2.45,3.63l-.06.29h-5.38l0-.35a9.94,9.94,0,0,1,1.88-5,11.19,11.19,0,0,1,4.46-3.57,17.82,17.82,0,0,1,13.56,0,10.34,10.34,0,0,1,4.44,3.79,10.53,10.53,0,0,1,1.57,5.78v23h-5.57v-5.41h-.13a10.79,10.79,0,0,1-2.56,3.19,12.19,12.19,0,0,1-3.61,2.11,12,12,0,0,1-4.24.75A12.73,12.73,0,0,1,696.25,467.46Z" transform="translate(-59.58 -114.15)"/><path class="cls-1" d="M726.16,479.2c-.54-.05-1-.11-1.36-.18v-4.54l.82.13a7.59,7.59,0,0,0,1,.06,8.36,8.36,0,0,0,4.24-.93,6.75,6.75,0,0,0,2.58-3.75l.67-1.88-12.36-33.34h5.95l9.61,29-1.18-1.28h1.66l-1.18,1.28,9.63-29h5.86l-13,35.38a21.57,21.57,0,0,1-2.65,5.19,9.11,9.11,0,0,1-3.56,3,12.1,12.1,0,0,1-5.09,1C727.25,479.28,726.71,479.25,726.16,479.2Z" transform="translate(-59.58 -114.15)"/></svg>