<svg xmlns="http://www.w3.org/2000/svg" viewBox="0 0 32.92 7.96"><defs><style>.cls-1{fill:#255afe;}</style></defs><g id="Layer_2" data-name="Layer 2"><g id="Layer_1-2" data-name="Layer 1"><path class="cls-1" d="M1.18,0c0,1.48,0,3,0,4.44A1.79,1.79,0,0,0,3.73,6.07a1.7,1.7,0,0,0,1.05-1.6c0-.78,0-1.55,0-2.35H5.94A24.43,24.43,0,0,1,5.92,5,2.91,2.91,0,0,1,2.67,7.39,3,3,0,0,1,0,4.48V0Z"/><path class="cls-1" d="M32.92,1.56c-.16.46-.32.92-.47,1.38-.39,1.19-.74,2.4-1.15,3.59s-1.36,1.71-2.74,1.24V7a6.18,6.18,0,0,0,1.32-.19c.22-.08.33-.45.53-.74l-.58,0L28.35,1.41h1.31l1,3.55h.07l1-3.55h1.26Z"/><path class="cls-1" d="M6,0V1.18c-.47,0-.93,0-1.4,0a.84.84,0,0,0-1,1V5.28H2.41V2.05A2,2,0,0,1,4,.06.33.33,0,0,0,4.08,0Z"/><path class="cls-1" d="M19.38,1.4V2a4.81,4.81,0,0,1,1.05-.65,1.75,1.75,0,0,1,2.35,1.39,5,5,0,0,1,0,1.77A2.06,2.06,0,0,1,19.5,5.84v2H18.3V1.4ZM19.5,5c.75.48,1.54.41,1.86-.18a2.3,2.3,0,0,0,.09-2.06,1,1,0,0,0-1.2-.49.87.87,0,0,0-.75.87C19.48,3.74,19.5,4.36,19.5,5Z"/><path class="cls-1" d="M26.6,5.6a1.94,1.94,0,0,1-1.68.66,1.36,1.36,0,0,1-1.38-1.15,1.54,1.54,0,0,1,.82-1.76,3.66,3.66,0,0,1,1.05-.25,7.71,7.71,0,0,1,1,0c.15-.52,0-.8-.48-.85s-.94,0-1.41,0H24l0-1c.85,0,1.67,0,2.48.12A1.32,1.32,0,0,1,27.66,2.8c0,.66,0,1.32,0,2a4.36,4.36,0,0,0,.06.49l.46.05v.87C27.28,6.34,26.91,6.21,26.6,5.6Zm-.13-1.81a8.1,8.1,0,0,0-1.18.12.68.68,0,0,0-.53.72.63.63,0,0,0,.4.69.94.94,0,0,0,1.31-.83C26.48,4.28,26.47,4.08,26.47,3.79Z"/><path class="cls-1" d="M9.11,1.39h1.17v.38c0,.83,0,1.66,0,2.49a.89.89,0,0,0,1.16,1,.78.78,0,0,0,.71-.87c0-.84,0-1.68,0-2.53V1.4h1.21c0,.12,0,.25,0,.37V4.26a1.78,1.78,0,0,1-1.53,1.91,2.8,2.8,0,0,1-1.69-.12A1.6,1.6,0,0,1,9.08,4.5c0-1,0-2,0-3A.74.74,0,0,1,9.11,1.39Z"/><path class="cls-1" d="M14.39,1.4h1v.87l.08.08a1.58,1.58,0,0,1,2-1v1.1h-.84c-.73,0-1.07.36-1.07,1.08V6.11h-1.2Z"/></g></g></svg>