<svg xmlns="http://www.w3.org/2000/svg" viewBox="0 0 1100 460" role="img" aria-labelledby="arch-title arch-desc" preserveAspectRatio="xMidYMid meet">
  <title id="arch-title">Ottu Platform Architecture</title>
  <desc id="arch-desc">The merchant backend calls Ottu's REST API. The customer enters card details in the Checkout SDK embedded in the merchant frontend. Ottu's orchestration engine routes to 45+ payment gateways. Webhooks deliver HMAC-signed outcome events back to the merchant backend.</desc>

  <defs>
    <marker id="arrow-light" viewBox="0 0 10 10" refX="9" refY="5" markerWidth="7" markerHeight="7" orient="auto">
      <path d="M0,1 L9,5 L0,9 z" fill="#8B8A90" />
    </marker>
    <style>
      .node { fill: #FFFFFF; stroke: #D4D4D4; stroke-width: 1.4; }
      .accent { fill: #0B82BE; stroke: #0B82BE; stroke-width: 1.4; }
      .container-bg { fill: #F6FAFD; stroke: #0B82BE; stroke-dasharray: 5 5; stroke-width: 1.2; opacity: 0.85; }
      .platform-label { fill: #0B82BE; font: 700 10px 'Inter', system-ui, -apple-system, sans-serif; letter-spacing: 1.6px; }
      .label { fill: #302F37; font: 600 13px 'Inter', system-ui, -apple-system, sans-serif; }
      .label-white { fill: #FFFFFF; font: 600 13px 'Inter', system-ui, -apple-system, sans-serif; }
      .sub { fill: #6B6B72; font: 400 11px 'Inter', system-ui, -apple-system, sans-serif; }
      .sub-white { fill: #FFFFFF; font: 400 11px 'Inter', system-ui, -apple-system, sans-serif; opacity: 0.9; }
      .divider { stroke: #E0E0E3; stroke-width: 1; }
      .arrow { fill: none; stroke: #8B8A90; stroke-width: 1.4; }
      .arrow-label { fill: #6B6B72; font: 500 10px 'Inter', system-ui, -apple-system, sans-serif; letter-spacing: 0.3px; }
      .arrow-label-bg { fill: #F6FAFD; }
    </style>
  </defs>

  <!-- Ottu Platform container -->
  <rect class="container-bg" x="320" y="70" width="550" height="290" rx="14" />
  <text class="platform-label" x="340" y="96">OTTU PLATFORM</text>

  <!-- Customer -->
  <rect class="node" x="30" y="36" width="180" height="48" rx="24" />
  <text class="label" x="120" y="66" text-anchor="middle">Customer</text>

  <!-- Merchant Frontend -->
  <rect class="node" x="30" y="120" width="180" height="70" rx="8" />
  <text class="label" x="120" y="150" text-anchor="middle">Merchant Frontend</text>
  <text class="sub" x="120" y="170" text-anchor="middle">Website or mobile app</text>

  <!-- Merchant Backend -->
  <rect class="node" x="30" y="230" width="180" height="70" rx="8" />
  <text class="label" x="120" y="260" text-anchor="middle">Merchant Backend</text>
  <text class="sub" x="120" y="280" text-anchor="middle">Your server</text>

  <!-- Checkout SDK -->
  <rect class="node" x="340" y="115" width="220" height="70" rx="8" />
  <text class="label" x="450" y="145" text-anchor="middle">Checkout SDK</text>
  <text class="sub" x="450" y="165" text-anchor="middle">Web · iOS · Android · Flutter</text>

  <!-- REST API (accent) -->
  <rect class="accent" x="340" y="215" width="220" height="70" rx="8" />
  <text class="label-white" x="450" y="245" text-anchor="middle">REST API</text>
  <text class="sub-white" x="450" y="265" text-anchor="middle">Api-Key · Basic auth</text>

  <!-- Orchestration Engine (accent) -->
  <rect class="accent" x="600" y="115" width="240" height="70" rx="8" />
  <text class="label-white" x="720" y="145" text-anchor="middle">Orchestration Engine</text>
  <text class="sub-white" x="720" y="165" text-anchor="middle">Smart routing · Failover</text>

  <!-- Webhooks -->
  <rect class="node" x="600" y="215" width="240" height="70" rx="8" />
  <text class="label" x="720" y="245" text-anchor="middle">Webhooks</text>
  <text class="sub" x="720" y="265" text-anchor="middle">HMAC-SHA256 signed events</text>

  <!-- Payment Gateway -->
  <rect class="node" x="900" y="100" width="180" height="210" rx="8" />
  <text class="label" x="990" y="135" text-anchor="middle">Payment Gateway</text>
  <line class="divider" x1="930" y1="150" x2="1050" y2="150" />
  <text class="sub" x="990" y="175" text-anchor="middle">KNET</text>
  <text class="sub" x="990" y="193" text-anchor="middle">MPGS</text>
  <text class="sub" x="990" y="211" text-anchor="middle">Cybersource</text>
  <text class="sub" x="990" y="229" text-anchor="middle">Tabby · Tamara</text>
  <text class="sub" x="990" y="247" text-anchor="middle">STC Pay · Benefit</text>
  <text class="sub" x="990" y="287" text-anchor="middle" font-style="italic">+ 40 more gateways</text>

  <!-- Arrows -->
  <!-- Customer → Checkout SDK -->
  <path class="arrow" d="M 210 60 C 280 60 310 120 340 140" marker-end="url(#arrow-light)" />
  <rect class="arrow-label-bg" x="246" y="86" width="68" height="14" rx="3" />
  <text class="arrow-label" x="280" y="97" text-anchor="middle">enters card</text>

  <!-- Merchant Frontend → Checkout SDK -->
  <path class="arrow" d="M 210 155 L 340 155" marker-end="url(#arrow-light)" />
  <rect class="arrow-label-bg" x="244" y="143" width="62" height="14" rx="3" />
  <text class="arrow-label" x="275" y="154" text-anchor="middle">embeds</text>

  <!-- Merchant Backend → REST API -->
  <path class="arrow" d="M 210 250 L 340 250" marker-end="url(#arrow-light)" />
  <rect class="arrow-label-bg" x="240" y="238" width="70" height="14" rx="3" />
  <text class="arrow-label" x="275" y="249" text-anchor="middle">REST calls</text>

  <!-- Checkout SDK → REST API (internal) -->
  <path class="arrow" d="M 450 185 L 450 215" marker-end="url(#arrow-light)" />

  <!-- REST API → Orchestration (internal) -->
  <path class="arrow" d="M 560 240 Q 580 205 600 158" marker-end="url(#arrow-light)" />

  <!-- Orchestration → Payment Gateway -->
  <path class="arrow" d="M 840 150 L 900 180" marker-end="url(#arrow-light)" />
  <rect class="arrow-label-bg" x="842" y="148" width="44" height="14" rx="3" />
  <text class="arrow-label" x="864" y="159" text-anchor="middle">routes</text>

  <!-- Webhooks → Merchant Backend (async return) -->
  <path class="arrow" d="M 600 275 Q 420 410 210 290" stroke-dasharray="4 3" marker-end="url(#arrow-light)" />
  <rect class="arrow-label-bg" x="350" y="398" width="92" height="14" rx="3" />
  <text class="arrow-label" x="396" y="409" text-anchor="middle">HMAC events</text>
</svg>
