<svg width="320" height="240" viewBox="0 0 320 240" fill="none" xmlns="http://www.w3.org/2000/svg">
  <rect x="12" y="20" width="296" height="200" rx="18" fill="#0F1117" stroke="#F57D2D" stroke-width="4"/>
  <rect x="32" y="40" width="256" height="36" rx="8" fill="#171A21"/>
  <circle cx="48" cy="58" r="6" fill="#F57D2D"/>
  <circle cx="66" cy="58" r="6" fill="#F8A46C"/>
  <circle cx="84" cy="58" r="6" fill="#FABF97"/>
  <rect x="32" y="92" width="120" height="12" rx="6" fill="#2B2F3A"/>
  <rect x="32" y="114" width="180" height="12" rx="6" fill="#2B2F3A"/>
  <rect x="32" y="136" width="140" height="12" rx="6" fill="#2B2F3A"/>
  <rect x="32" y="166" width="256" height="36" rx="8" fill="#171A21" stroke="#F57D2D" stroke-width="2"/>
  <path d="M64 184L48 168L64 152" stroke="#F57D2D" stroke-width="6" stroke-linecap="round" stroke-linejoin="round"/>
  <path d="M104 184L120 168L104 152" stroke="#F57D2D" stroke-width="6" stroke-linecap="round" stroke-linejoin="round"/>
  <rect x="140" y="160" width="124" height="16" rx="8" fill="#2B2F3A"/>
  <rect x="140" y="184" width="88" height="10" rx="5" fill="#2B2F3A"/>
</svg>
