<?xml version="1.0" encoding="UTF-8" standalone="no"?>
<svg
   width="397.125pt"
   height="118.6875pt"
   viewBox="0 0 397.12499 118.68749"
   version="1.1"
   id="svg19"
   xmlns="http://www.w3.org/2000/svg"
   xmlns:svg="http://www.w3.org/2000/svg">
  <defs
     id="defs19" />
  <path
     fill-rule="nonzero"
     fill="#ba151b"
     fill-opacity="1"
     d="m 397.125,61.996091 c 0,-7.01562 -5.0586,-10.45312 -12.69532,-16.16406 -7.44531,-5.56641 -20.12109,-13.75781 -27.66406,-18.25391 -7.54687,-4.49609 -19.8125,-11.42187 -28.28906,-15.48047 -8.54297,-4.08593 -15.36719,-6.79296 -19.5,-6.79296 -4.12109,0 -6.98828,1.29687 -9.01563,4 -2.02734,2.69531 -3.23437,6.64843 -4.04296,11.64843 -0.8125,4.9961 -1.23438,11.04688 -1.46094,17.94922 -0.21485,6.90625 -0.23047,23.09375 -0.23047,23.09375 0,0 0.0156,16.1875 0.23047,23.09375 0.22656,6.90235 0.64844,12.95313 1.46094,17.945309 0.80859,5 2.01562,8.95704 4.04296,11.65235 2.02735,2.70312 4.89454,4 9.01563,4 4.13281,0 10.95703,-2.70703 19.5,-6.79297 8.47656,-4.05859 20.74219,-10.98828 28.28906,-15.480469 7.54297,-4.49609 20.21875,-12.6875 27.66406,-18.25391 7.63672,-5.71093 12.69532,-9.14843 12.69532,-16.16406"
     id="path1" />
  <path
     fill-rule="nonzero"
     fill="#ed1c24"
     fill-opacity="1"
     d="m 385.83984,53.437501 h -1.58203 c -0.73828,0 -1.34766,0.60547 -1.34766,1.34765 v 14.42969 c 0,0.74219 0.60938,1.34766 1.34766,1.34766 h 1.58203 c 0.74219,0 1.35156,-0.60547 1.35156,-1.34766 v -14.42969 c 0,-0.74218 -0.60937,-1.34765 -1.35156,-1.34765"
     id="path2" />
  <path
     fill-rule="nonzero"
     fill="#ed1c24"
     fill-opacity="1"
     d="M 337.16015,49.156251 H 338.75 c 0.74218,0 1.35156,-0.60547 1.35156,-1.34766 v -22.99609 c 0,-0.7461 -0.60938,-1.34375 -1.35156,-1.34375 h -1.58985 c -0.73828,0 -1.35156,0.59765 -1.35156,1.34375 v 22.99609 c 0,0.74219 0.61328,1.34766 1.35156,1.34766"
     id="path3" />
  <path
     fill-rule="nonzero"
     fill="#ed1c24"
     fill-opacity="1"
     d="m 351.58984,87.687501 h -1.57812 c -0.75391,0 -1.35157,0.60937 -1.35157,1.35156 v 1.58203 c 0,0.74219 0.59766,1.34766 1.35157,1.34766 h 1.57812 c 0.74219,0 1.35156,-0.60547 1.35156,-1.34766 v -1.58203 c 0,-0.74219 -0.60937,-1.35156 -1.35156,-1.35156"
     id="path4" />
  <path
     fill-rule="nonzero"
     fill="#ed1c24"
     fill-opacity="1"
     d="m 318.6875,27.746091 h -4.28516 l 0.004,-8.5625 h 4.28125 z m -15.77735,12.84375 H 321.625 c 0.73828,0 1.34375,-0.60937 1.34375,-1.35156 v -7.21094 h 7.21484 c 0.74609,0 1.34766,-0.60547 1.34766,-1.33984 v -10.15235 c 0,-0.75 -0.60157,-1.35156 -1.34766,-1.35156 h -1.58984 c -0.73438,0 -1.34375,0.60156 -1.34375,1.35156 v 7.21094 h -4.28125 v -11.5039 c 0,-0.74219 -0.60547,-1.33985 -1.34375,-1.33985 h -10.16016 c -0.74219,0 -1.33984,0.60547 -1.33984,1.34766 v 14.4375 c 0,0.73437 0.60937,1.33984 1.35547,1.33984 h 7.20703 v 4.27735 h -12.84375 v -15.76954 c 0,-0.75 -0.60157,-1.35156 -1.34766,-1.35156 h -1.58594 c -0.74218,0 -1.35156,0.60156 -1.35156,1.35156 v 18.70313 c 0,0.74219 0.61328,1.35156 1.35156,1.35156"
     id="path5" />
  <path
     fill-rule="nonzero"
     fill="#ed1c24"
     fill-opacity="1"
     d="m 377.28125,49.156251 h -1.58594 c -0.73828,0 -1.34766,0.60547 -1.34766,1.34765 v 20.0586 h -7.21484 c -0.74219,0 -1.35156,0.61328 -1.35156,1.34765 v 7.21875 H 361.5 v -7.21875 c 0,-0.74218 -0.60938,-1.35156 -1.34766,-1.35156 h -14.42969 c -0.73828,0 -1.34765,0.60938 -1.34765,1.35156 v 1.58594 c 0,0.74219 0.60937,1.34766 1.34765,1.34766 h 11.4961 v 4.28515 h -17.11719 v -12.84765 h 11.48828 c 0.74609,0 1.35156,-0.60938 1.35156,-1.34766 v -1.58594 c 0,-0.73828 -0.60547,-1.35156 -1.35156,-1.35156 h -14.42969 c -0.73828,0 -1.35156,0.60547 -1.35156,1.35156 v 18.70704 c 0,0.73828 0.61328,1.35546 1.35156,1.35546 h 20.0586 v 2.92969 c 0,0.74219 0.60937,1.34766 1.34765,1.34766 h 1.58985 c 0.73828,0 1.34375,-0.60547 1.34375,-1.34766 v -2.92969 h 7.20703 c 0.74219,0 1.35547,-0.625 1.35547,-1.36718 v -7.19922 h 7.21875 c 0.74218,0 1.35156,-0.60547 1.35156,-1.34766 v -22.99219 c 0,-0.74218 -0.60938,-1.34765 -1.35156,-1.34765"
     id="path6" />
  <path
     fill-rule="nonzero"
     fill="#ed1c24"
     fill-opacity="1"
     d="m 343.03125,87.687501 h -10.16407 c -0.73828,0 -1.33984,0.60937 -1.33984,1.35156 v 7.21484 h -25.68359 v -4.28515 h 20.05859 c 0.73828,0 1.34766,-0.60547 1.34766,-1.34766 v -1.57812 c 0,-0.7461 -0.60938,-1.35547 -1.34766,-1.35547 h -23.00391 c -0.73828,0 -1.33984,0.60547 -1.33984,1.34375 v 10.16015 c 0,0.73829 0.61719,1.343749 1.35547,1.343749 h 31.55078 c 0.74609,0 1.34375,-0.605459 1.34375,-1.343749 v -7.21875 h 4.29297 v 2.9375 c 0,0.74219 0.58984,1.34375 1.32812,1.34375 h 1.60157 c 0.74218,0 1.34375,-0.60156 1.34375,-1.34375 v -5.87109 c 0,-0.74219 -0.60157,-1.35156 -1.34375,-1.35156"
     id="path7" />
  <path
     fill-rule="nonzero"
     fill="#ed1c24"
     fill-opacity="1"
     d="m 308.73828,104.8164 h -1.51172 c -0.76172,0 -1.38281,0.6211 -1.38281,1.38282 v 1.51953 c 0,0.75781 0.62109,1.3789 1.38281,1.3789 h 1.51172 c 0.76562,0 1.38672,-0.62109 1.38672,-1.3789 v -1.51953 c 0,-0.76172 -0.6211,-1.38282 -1.38672,-1.38282"
     id="path8" />
  <path
     fill-rule="nonzero"
     fill="#ed1c24"
     fill-opacity="1"
     d="m 317.30859,104.8164 h -1.52344 c -0.7539,0 -1.38281,0.6211 -1.38281,1.38282 v 1.51953 c 0,0.75781 0.62891,1.3789 1.38281,1.3789 h 1.52344 c 0.76172,0 1.37891,-0.62109 1.37891,-1.3789 v -1.51953 c 0,-0.76172 -0.61719,-1.38282 -1.37891,-1.38282"
     id="path9" />
  <path
     fill-rule="nonzero"
     fill="#ed1c24"
     fill-opacity="1"
     d="m 302.94531,79.132811 c -0.76172,0 -1.38672,0.62109 -1.38672,1.38281 v 1.50782 c 0,0.76171 0.625,1.38671 1.38672,1.38671 h 1.51172 c 0.76562,0 1.38281,-0.625 1.38281,-1.38671 v -1.50782 c 0,-0.76172 -0.61719,-1.38281 -1.38281,-1.38281 z m 0,0"
     id="path10" />
  <path
     fill-rule="nonzero"
     fill="#ed1c24"
     fill-opacity="1"
     d="m 311.5039,79.128901 c -0.76172,0 -1.38281,0.6211 -1.38281,1.37891 v 1.51563 c 0,0.76171 0.62109,1.38671 1.38281,1.38671 h 1.51563 c 0.76172,0 1.38281,-0.625 1.38281,-1.38671 v -1.51563 c 0,-0.75781 -0.62109,-1.37891 -1.38281,-1.37891 z m 0,0"
     id="path11" />
  <path
     fill-rule="nonzero"
     fill="#ed1c24"
     fill-opacity="1"
     d="m 318.6875,80.507811 v 1.51563 c 0,0.76171 0.625,1.38671 1.38281,1.38671 h 10.10937 c 0.75,0 1.35157,-0.61328 1.35157,-1.35546 v -18.70704 c 0,-0.74609 -0.60157,-1.35156 -1.35157,-1.35156 h -1.58593 c -0.73438,0 -1.34375,0.60547 -1.34375,1.35156 v 15.78125 h -7.17969 c -0.75781,0 -1.38281,0.6211 -1.38281,1.37891"
     id="path12" />
  <path
     fill-rule="nonzero"
     fill="#ed1c24"
     fill-opacity="1"
     d="m 358.60156,61.996091 c -0.75781,0 -1.38281,0.625 -1.38281,1.38672 v 1.51953 c 0,0.75781 0.625,1.37891 1.38281,1.37891 h 1.51562 c 0.76172,0 1.37891,-0.6211 1.37891,-1.37891 v -1.51953 c 0,-0.76172 -0.61719,-1.38672 -1.37891,-1.38672 z m 0,0"
     id="path13" />
  <path
     fill-rule="nonzero"
     fill="#ed1c24"
     fill-opacity="1"
     d="m 354.32031,36.304691 h 1.51562 c 0.76172,0 1.38282,-0.61329 1.38282,-1.375 v -1.51563 c 0,-0.76172 -0.6211,-1.38672 -1.38282,-1.38672 h -1.51562 c -0.75781,0 -1.37891,0.625 -1.37891,1.38672 v 1.51563 c 0,0.76171 0.6211,1.375 1.37891,1.375"
     id="path14" />
  <path
     fill-rule="nonzero"
     fill="#ed1c24"
     fill-opacity="1"
     d="m 330.14453,36.304691 h -1.50781 c -0.76563,0 -1.38672,0.6289 -1.38672,1.39062 v 1.51563 c 0,0.76171 0.62109,1.3789 1.38672,1.3789 h 1.50781 c 0.76562,0 1.38672,-0.61719 1.38672,-1.3789 v -1.51563 c 0,-0.76172 -0.6211,-1.39062 -1.38672,-1.39062"
     id="path15" />
  <path
     fill-rule="nonzero"
     fill="#ed1c24"
     fill-opacity="1"
     d="m 321.58593,53.441401 h -1.51562 c -0.75781,0 -1.38281,0.6211 -1.38281,1.37891 v 1.51953 c 0,0.75391 0.625,1.37891 1.38281,1.37891 h 1.51562 c 0.76563,0 1.38282,-0.625 1.38282,-1.37891 v -1.51953 c 0,-0.75781 -0.61719,-1.37891 -1.38282,-1.37891"
     id="path16" />
  <path
     fill-rule="nonzero"
     fill="#ed1c24"
     fill-opacity="1"
     d="m 368.67968,61.996091 h -1.51171 c -0.75782,0 -1.38672,0.625 -1.38672,1.38672 v 1.51563 c 0,0.76171 0.6289,1.38281 1.38672,1.38281 h 1.51171 c 0.76954,0 1.38282,-0.6211 1.38282,-1.38281 v -1.51563 c 0,-0.76172 -0.61328,-1.38672 -1.38282,-1.38672"
     id="path17" />
  <path
     fill-rule="nonzero"
     fill="#ed1c24"
     fill-opacity="1"
     d="M 348.66015,49.156251 H 361.5 v -4.28125 h 4.28125 v 8.55859 h -17.1211 z m -45.75,25.6875 H 321.625 c 0.73828,0 1.34375,-0.60547 1.34375,-1.34766 v -10.14844 c 0,-0.73828 -0.60547,-1.34765 -1.34375,-1.34765 h -7.21875 V 49.156251 H 327.25 v 7.18359 c 0,0.75391 0.62109,1.37891 1.38672,1.37891 h 40.08203 c 0.74218,0 1.34375,-0.60938 1.34375,-1.34766 v -14.4375 c 0,-0.73437 -0.59766,-1.34375 -1.34375,-1.34375 h -10.13672 c -0.74219,0 -1.35938,0.60938 -1.35938,1.34375 v 2.94141 h -8.5625 v -15.78125 c 0,-0.73828 -0.60547,-1.34766 -1.35156,-1.34766 h -1.58594 c -0.73828,0 -1.34765,0.60938 -1.34765,1.34766 v 24.33984 h -12.84766 v -7.21484 c 0,-0.73828 -0.60156,-1.34375 -1.34766,-1.34375 h -18.70703 c -0.74218,0 -1.34375,0.60547 -1.34375,1.34375 v 18.72265 c 0,0.73438 0.60157,1.33985 1.34375,1.33985 h 7.21485 v 4.27734 h -12.84375 l -0.004,-24.33594 c 0,-0.73828 -0.60547,-1.34765 -1.34766,-1.34765 h -1.58203 c -0.73828,0 -1.35156,0.59765 -1.35156,1.34375 v 27.27734 c 0,0.74219 0.61328,1.34766 1.35156,1.34766"
     id="path18" />
  <path
     fill-rule="nonzero"
     fill="#282e37"
     fill-opacity="1"
     d="m 136.57812,33.007811 c 0,-0.4375 0.36719,-0.76953 0.76953,-0.76953 h 2.57422 c 0.4375,0 0.83985,0.33203 0.83985,0.76953 v 2.67578 c 0,0.36719 -0.40235,0.69922 -0.83985,0.69922 h -2.57422 c -0.40234,0 -0.76953,-0.33203 -0.76953,-0.69922 z m -115.941398,56.41406 7.08984,-19.72656 5.11719,-12.84375 4.98437,12.84375 6.91797,19.72656 z m 19.66015,-39.09375 c -1,-2.13672 -1.46875,-3.34375 -4.54687,-3.34375 h -5.91797 c -2.70703,0 -3.64453,1.20703 -4.44531,3.34375 C 24.750002,52.035151 2e-6,115.64062 2e-6,115.64062 c 0,0 0,2.10547 2.375,2.10547 h 6.32422 c 1.40234,0 2.03515,-1.5039 2.03515,-1.5039 l 6.85938,-18.824219 h 30.5 l 6.78515,18.824219 c 0,0 0.60547,1.5039 2.07422,1.5039 h 6.01953 c 2.57813,0 2.57813,-2.10547 2.57813,-2.10547 0,0 -24.58203,-63.605469 -25.25391,-65.312499 M 251.71875,109.08984 H 235.93359 V 84.910151 h 15.78516 c 7.46093,0 11.9375,5.11329 11.9375,12.23829 0,7.390619 -4.47657,11.941399 -11.9375,11.941399 M 235.93359,55.613281 h 14.61719 c 6.55078,0 10.73437,4.51562 10.73437,10.83594 0,5.91797 -4.18359,10.33203 -10.73437,10.33203 h -14.61719 z m 26.21875,24.74609 c 5.72266,-2.30859 9.26563,-7.99218 9.26563,-15.11328 0,-11.73828 -8.66407,-18.26172 -20.86719,-18.26172 h -21.53906 c -2.60938,0 -3.21094,2.74219 -3.21094,3.34375 v 64.414069 c 0,0.89843 0,3.0039 3.21094,3.0039 h 22.10546 c 12.53907,0 22.67579,-6.58594 22.67579,-20.328119 0,-7.39453 -4.25,-14.58203 -11.64063,-17.0586 m -53.14062,22.074219 c -0.80079,-1.4375 -2.07032,-0.83594 -2.8711,0 -3.01172,2.70703 -10.13672,7.1875 -19.73437,7.1875 -15.54688,0 -26.28516,-12.472649 -26.28516,-27.753899 0,-14.58204 10.13281,-26.72266 25.6875,-26.72266 8.32422,0 14.27734,3.21094 17.78906,5.58594 2.54297,1.53906 3.10938,1.53906 4.61328,0 0.80079,-1.50391 2.04297,-3.57813 2.04297,-3.57813 0,0 1.46875,-2.00781 0,-3.04297 -3.54687,-2.27343 -11.70703,-7.99218 -24.44531,-7.99218 -20.60547,0 -35.82031,15.48437 -35.82031,35.75 0,20.566399 14.54687,36.683589 35.82031,36.683589 13.74219,0 22.40234,-6.51953 25.91406,-9.46094 1.53907,-0.97265 0.90235,-1.875 0.30078,-3.07812 -0.30078,-0.5 -1.76953,-2.3086 -3.01171,-3.57813 M 99.894532,109.08984 H 87.320312 V 55.613281 h 12.57422 c 16.148438,0 26.281248,9.63281 26.281248,26.92187 0,16.91797 -10.13281,26.554689 -26.281248,26.554689 M 101.13281,46.984371 H 80.195312 c -0.63672,0 -2.40625,0.60547 -2.40625,3.34375 v 64.414069 c 0,3.0039 2.40625,3.0039 2.40625,3.0039 h 20.937498 c 21.13281,0 35.75,-13.20703 35.75,-35.210939 0,-22.40625 -14.61719,-35.55078 -35.75,-35.55078 M 13.179682,35.882811 c 0,-0.43359 0.36719,-0.70312 0.76954,-0.70312 h 2.27343 c 0.36719,0 0.73438,0.26953 0.73438,0.70312 v 2.37891 c 0,0.36328 -0.36719,0.66797 -0.73438,0.66797 h -2.27343 c -0.40235,0 -0.76954,-0.30469 -0.76954,-0.66797 z m -6.1875,0 c 0,-0.43359 0.33594,-0.70312 0.76954,-0.70312 h 2.20312 c 0.4375,0 0.76953,0.26953 0.76953,0.70312 v 2.37891 c 0,0.36328 -0.36719,0.66797 -0.76953,0.66797 h -2.20312 c -0.4336,0 -0.76954,-0.30469 -0.76954,-0.66797 z m -5.41796,-13.57812 c 0,-1 0.19921,-2.97657 0.46875,-4.41016 0.10156,-0.50391 0.20312,-0.67188 0.70312,-0.67188 h 2.57422 c 0.36719,0 0.56641,0.20313 0.56641,0.63672 -0.10157,0.96875 -0.19922,2.07032 -0.19922,2.70703 0,4.64844 0.76562,8.125 6.7539,8.125 1.20313,0 2.17578,-0.0664 3.11328,-0.19921 0.0977,-2.23829 0.0977,-3.27735 0.0977,-5.08204 v -2.9414 c 0,-5.1211 3.04297,-7.42578 8.79297,-7.42578 1.57422,0 3.51562,0.16797 4.75391,0.43359 0.36718,0.10156 0.5664,0.23438 0.5664,0.66797 v 14.48047 c 0,0.40234 -0.26562,0.70312 -0.66797,0.70312 h -2.94531 c -0.36719,0 -0.63281,-0.30078 -0.63281,-0.70312 v -11.53516 c -0.80078,-0.10156 -1.13672,-0.13281 -1.77344,-0.13281 -2.54297,0 -3.84375,0.96875 -3.84375,3.91016 v 5.51953 c 0,1.60156 -0.0352,3.67968 -0.13672,5.25 0,0.39843 -0.23437,0.63281 -0.73828,0.73437 -1.87109,0.30078 -4.27734,0.5 -6.68359,0.5 -7.66016,0 -10.76953,-3.64453 -10.76953,-10.5664 m 29.42968,11.77343 c 0,-0.33593 0.19922,-0.5039 0.56641,-0.5039 h 0.70312 c 2.50782,0 3.41016,-0.23438 3.41016,-2.97266 v -16.35547 c 0,-0.36719 0.26953,-0.63672 0.66797,-0.63672 h 2.91406 c 0.36328,0 0.63281,0.26953 0.63281,0.63672 v 15.85547 c 0,1.70313 -0.10156,3.27344 -0.76953,4.57813 -1.03515,1.90625 -2.74218,2.60546 -5.55078,2.60546 -0.36719,0 -1.53906,0 -2.10547,-0.0976 -0.30078,-0.0703 -0.46875,-0.26953 -0.46875,-0.63672 z m 13.8086,-29.52734 c 0,-0.37109 0.30078,-0.66797 0.70312,-0.66797 h 2.97656 c 0.4336,0 0.66797,0.29688 0.66797,0.66797 v 18.79297 c 0,1.5039 0.63672,1.70703 1.875,1.70703 h 1.10547 v 4.27734 h -2.34375 c -3.04297,0 -4.98437,-0.80078 -4.98437,-4.71484 z m 14.34765,28.45703 c 0,-0.4375 0.36719,-0.76953 0.76953,-0.76953 h 2.57422 c 0.4336,0 0.83594,0.33203 0.83594,0.76953 v 2.67578 c 0,0.36719 -0.40234,0.69922 -0.83594,0.69922 h -2.57422 c -0.40234,0 -0.76953,-0.33203 -0.76953,-0.69922 z m -7.01953,-3.67969 c -0.53906,0 -1.10547,-0.23437 -1.10547,-0.39843 v -3.48047 c 0,-0.23438 0.60157,-0.39844 1.10547,-0.39844 h 14.54297 l -1.57031,-3.48047 c -1.30469,-2.84375 -3.57813,-4.64844 -7.82813,-4.64844 -0.29687,0 -1.30078,0.0352 -1.80078,0.0664 -0.47265,0.0352 -0.70312,-0.13281 -0.70312,-0.53516 v -2.47265 c 0,-0.33594 0.23047,-0.53516 0.66797,-0.63672 1.10546,-0.23438 2.10546,-0.30078 3.27734,-0.30078 4.87891,0 8.39062,1.9375 11.07031,7.99218 0.69922,1.60547 1.33594,3.20704 1.57031,3.54297 0.23438,0.36719 0.40235,0.47266 0.76954,0.47266 h 0.33203 v 4.27734 z m 28.48828,-21.4375 c 0,-0.42968 0.40235,-0.76953 0.80469,-0.76953 h 2.33984 c 0.4375,0 0.76954,0.33985 0.76954,0.76953 v 2.60938 c 0,0.40234 -0.33204,0.73437 -0.76954,0.73437 h -2.33984 c -0.40234,0 -0.80469,-0.33203 -0.80469,-0.73437 z m -6.18359,0 c 0,-0.42968 0.36328,-0.76953 0.80078,-0.76953 h 2.30859 c 0.4375,0 0.83594,0.33985 0.83594,0.76953 v 2.60938 c 0,0.40234 -0.43359,0.73437 -0.83594,0.73437 h -2.30859 c -0.4375,0 -0.80078,-0.33203 -0.80078,-0.73437 z m -3.14453,17.5586 c 0,-0.23438 0.60156,-0.39844 1.10156,-0.39844 h 3.11328 c 0.76563,0 1.94141,-0.10547 1.94141,-1.14063 v -9.66406 c 0,-0.36719 0.26562,-0.63672 0.66797,-0.63672 h 2.90625 c 0.36718,0 0.63281,0.26953 0.63281,0.63672 v 10.23438 c 0.27344,0.46484 1.57422,0.57031 2.17578,0.57031 h 0.80078 v 4.27734 h -0.39844 c -1.70312,0 -3.57812,-0.19922 -4.75,-1.13672 -1.23437,0.8711 -3.17578,1.13672 -4.61328,1.13672 h -2.47656 c -0.5,0 -1.10156,-0.13281 -1.10156,-0.39843 z m 12.23828,0 c 0,-0.23438 0.60156,-0.39844 1.10156,-0.39844 h 2.94531 c 1.07032,0 1.30469,-0.0352 1.30469,-1.10547 V 4.582031 c 0,-0.40234 0.30078,-0.69922 0.66797,-0.69922 h 3.04293 c 0.37109,0 0.63672,0.29688 0.63672,0.69922 v 19.42969 c 0,1.20312 -0.0352,2.77734 -0.16797,3.97656 -0.0977,0.4375 -0.23438,0.73828 -0.76953,0.97656 -0.96485,0.26172 -3.71094,0.36328 -5.51563,0.36328 h -2.14453 c -0.5,0 -1.10156,-0.13281 -1.10156,-0.39843 z m 13.98047,-20.89844 c 0,-0.37109 0.26562,-0.66797 0.66797,-0.66797 h 3.007808 c 0.40234,0 0.67187,0.29688 0.67187,0.66797 v 24.07422 c 0,0.36719 -0.26953,0.70312 -0.67187,0.70312 h -3.007808 c -0.40235,0 -0.66797,-0.33593 -0.66797,-0.70312 z m 26.351558,31.33203 c 0,-0.43359 0.36719,-0.70312 0.73438,-0.70312 h 2.27734 c 0.36719,0 0.73437,0.26953 0.73437,0.70312 v 2.37891 c 0,0.36328 -0.36718,0.66797 -0.73437,0.66797 h -2.27734 c -0.36719,0 -0.73438,-0.30469 -0.73438,-0.66797 z m -6.21875,0 c 0,-0.43359 0.36719,-0.70312 0.76953,-0.70312 h 2.23828 c 0.39844,0 0.76953,0.26953 0.76953,0.70312 v 2.37891 c 0,0.36328 -0.40234,0.66797 -0.76953,0.66797 h -2.23828 c -0.40234,0 -0.76953,-0.30469 -0.76953,-0.66797 z m -5.38672,-13.57812 c 0,-0.96875 0.16797,-2.97657 0.4336,-4.41016 0.0664,-0.4375 0.30468,-0.67188 0.67187,-0.67188 h 2.57422 c 0.43359,0 0.60156,0.20313 0.57031,0.63672 -0.10547,0.96875 -0.16797,2.07032 -0.16797,2.70703 0,4.64844 0.76563,8.125 6.75391,8.125 1.20312,0 2.17187,-0.0664 3.10937,-0.19921 0.10157,-2.23829 0.10157,-3.27735 0.10157,-5.08204 v -2.9414 c 0,-5.08594 3.07422,-7.42578 8.58984,-7.42578 1.77734,0 3.64844,0.19922 4.82422,0.43359 0.36328,0.10156 0.56641,0.23438 0.56641,0.66797 v 9.73437 c 0,0.96875 0.36718,1.17188 1.53515,1.17188 h 1.53906 v 4.27734 h -2.64066 c -3.07813,0 -4.67969,-0.73437 -4.67969,-4.21093 v -8.02735 c -0.67187,-0.10156 -1.0039,-0.13281 -1.64453,-0.13281 -2.53906,0 -3.84375,0.96875 -3.84375,3.91016 v 5.51953 c 0,1.60156 -0.0352,3.67968 -0.12891,5.25 0,0.39843 -0.24218,0.63281 -0.74218,0.73437 -1.8711,0.30078 -4.2461,0.5 -6.6836,0.5 -7.66015,0 -10.73828,-3.64453 -10.73828,-10.5664 m 51.60156,2.84375 c 0.56641,0 0.66797,-0.36719 0.66797,-2.20704 v -0.5 c 0,-4.08203 -1.90234,-5.38671 -6.28515,-5.38671 -1.50782,0 -4.58203,0.20312 -6.25782,1.4375 v 6.58593 c 1.03907,0.0391 2.3125,0.0703 4.01563,0.0703 z m -21.23437,0.5 c 0,-0.36719 0.30078,-0.59766 0.66797,-0.59766 h 4.34765 V 4.582031 c 0,-0.40234 0.26563,-0.69922 0.66797,-0.69922 h 3.04297 c 0.36719,0 0.63281,0.29688 0.63281,0.69922 v 10.19922 c 2.34375,-1.60547 5.78907,-1.80469 7.35938,-1.80469 5.71875,0 9.39844,2.33984 9.39844,8.96094 v 1.37109 c 0,1.47266 -0.13672,3.54688 -0.4336,4.88281 -0.10156,0.4336 -0.37109,0.8711 -1.07031,0.96875 -1.23828,0.16797 -6.22266,0.16797 -8.125,0.16797 h -15.82031 c -0.36719,0 -0.66797,-0.23437 -0.66797,-0.60156 z m 14.27734,-19.39454 c 0,-0.43359 0.36719,-0.76953 0.80078,-0.76953 h 2.64454 c 0.40234,0 0.73437,0.33594 0.73437,0.76953 v 2.60938 c 0,0.40234 -0.33203,0.73437 -0.76562,0.73437 h -2.61329 c -0.49609,0 -0.80078,-0.33203 -0.80078,-0.73437 z m 21.90235,15.1836 c 0,2.53906 1.03906,3.74219 3.54687,3.74219 h 2.51172 v -8.15625 c -0.63672,-0.0664 -1.33594,-0.10157 -2.04297,-0.10157 -2.53906,0 -4.01562,1.50391 -4.01562,4.08203 z m -2.96875,12.60937 c 0,-0.37109 0.19531,-0.57422 0.59765,-0.57422 h 3.04688 c 3.47656,0 5.3125,-0.60156 5.3125,-3.14062 v -1.00391 h -2.44141 c -4.84765,0 -7.75781,-2.50781 -7.75781,-7.35547 v -0.66796 c 0,-5.25 3.21094,-8.26172 8.96484,-8.26172 1.70313,0 3.97657,0.23437 4.91407,0.5664 0.4375,0.16797 0.57031,0.26953 0.57031,0.63672 v 10.80469 h 2.9414 v 4.27734 h -3.01171 v 1.13672 c -0.42969,5.48438 -4.01172,6.82031 -8.58985,6.82031 -0.76953,0 -3.51562,0 -4.01562,-0.16796 -0.4336,-0.0977 -0.53125,-0.26563 -0.53125,-0.63282 z m 18.32422,-1.03906 c 0,-0.4375 0.36718,-0.76953 0.76562,-0.76953 h 2.57813 c 0.43359,0 0.83593,0.33203 0.83593,0.76953 v 2.67578 c 0,0.36719 -0.40234,0.69922 -0.83593,0.69922 h -2.57813 c -0.39844,0 -0.76562,-0.33203 -0.76562,-0.69922 z m -2.27735,-3.67969 c -0.5,0 -1.10156,-0.13281 -1.10156,-0.39843 v -3.48047 c 0,-0.23438 0.60156,-0.39844 1.10156,-0.39844 h 3.44531 c 1.07032,0 1.33985,-0.0352 1.33985,-1.10547 v -5.21875 c 0,-1.36719 -0.0391,-2.875 -0.0703,-4.48047 0,-0.36719 0.27343,-0.63672 0.67187,-0.63672 h 2.80859 c 0.5,0 0.69922,0.26953 0.73047,0.63672 0.0352,1.4375 0.0742,2.47656 0.0742,3.44531 v 4.34766 c 0,2.83984 0,4.75 -0.13672,5.94922 -0.10156,0.4375 -0.23437,0.73828 -0.76953,0.97656 -0.93359,0.26172 -3.57812,0.36328 -5.38281,0.36328 z m 14.88281,-20.13281 c 0,-0.36719 0.26563,-0.66797 0.66797,-0.66797 h 3.00782 c 0.40234,0 0.67187,0.30078 0.67187,0.66797 v 19.42969 c 0,0.36719 -0.26953,0.70312 -0.67187,0.70312 h -3.00782 c -0.40234,0 -0.66797,-0.33593 -0.66797,-0.70312 z m -0.60156,-2.77344 c -0.37109,0 -0.53125,-0.13672 -0.53125,-0.40234 v -0.96875 c 0,-0.23438 0.16016,-0.33594 0.53125,-0.33594 h 0.63672 c -0.36719,-0.53515 -0.53516,-1.23437 -0.53516,-1.90625 0,-1.87109 1.10157,-2.8085900000002 3.33985,-2.8085900000002 0.36719,0 1.03906,0.0352000000002 1.57422,0.1992200000002 0.23437,0.0352 0.37109,0.16797 0.37109,0.33593 v 0.90235 c 0,0.23437 -0.13672,0.33594 -0.4375,0.33594 h -1.16797 c -1.17578,0 -1.67578,0.36718 -1.67578,1.33593 0,0.77344 0.30078,1.33594 0.70313,1.57422 h 2.33984 c 0.37109,0 0.53516,0.0977 0.53516,0.33203 v 1.00391 c 0,0.26562 -0.16407,0.40234 -0.53516,0.40234 z m 23.60938,9.63282 c 0,-0.27344 0.19922,-0.40235 0.60156,-0.40235 h 0.5 c -0.26953,-0.4375 -0.43359,-1.24219 -0.43359,-1.875 0,-2.17187 1.36718,-3.34375 3.77734,-3.34375 0.40234,0 1.03906,0.0352 1.67187,0.19922 0.30079,0.0664 0.4375,0.26953 0.4375,0.57031 v 1.20313 c 0,0.30469 -0.13671,0.4375 -0.4375,0.4375 -0.26562,0 -1.07031,-0.0664 -1.33593,-0.0664 -1.03516,0 -1.50391,0.56641 -1.50391,1.40235 0,0.69921 0.30078,1.23437 0.53516,1.375 h 2.50781 c 0.39844,0 0.60156,0.16406 0.60156,0.46093 v 1.375 c 0,0.30078 -0.20312,0.46875 -0.60156,0.46875 h -5.71875 c -0.40234,0 -0.60156,-0.16797 -0.60156,-0.46875 z M 225,18.761721 c 0.36718,0 0.5664,0.19922 0.5664,0.63281 -0.0312,0.50391 -0.0312,1.27344 -0.0312,1.50391 0,3.21093 1.60157,4.15234 6.05078,4.15234 h 8.09375 c 0.80079,0 1.90625,-0.10547 1.90625,-1.14063 V 4.582031 c 0,-0.40234 0.30469,-0.69922 0.67188,-0.69922 h 3.00781 c 0.36719,0 0.66797,0.29688 0.66797,0.69922 v 19.89844 c 0.26953,0.46484 1.47266,0.57031 2.10547,0.57031 h 0.87109 v 4.27734 h -0.40234 c -1.33594,0 -3.27734,-0.16797 -4.61328,-0.9375 -1.20313,0.76953 -3.11328,0.9375 -4.61719,0.9375 h -8.42583 c -7.15625,0 -9.26563,-2.64062 -9.26563,-7.28906 0,-0.43359 0.0352,-1.94141 0.20313,-2.60937 0.13281,-0.50391 0.26953,-0.66797 0.69922,-0.66797 z m 28.99218,-10.83594 c 0,-0.4375 0.36719,-0.76953 0.80469,-0.76953 h 2.63672 c 0.40234,0 0.73828,0.33203 0.73828,0.76953 v 2.60937 c 0,0.39844 -0.33594,0.73829 -0.76953,0.73829 h -2.60547 c -0.5039,0 -0.80469,-0.33985 -0.80469,-0.73829 z m -5.05078,21.40234 c -0.5,0 -1.10156,-0.13281 -1.10156,-0.39843 v -3.48047 c 0,-0.23438 0.60156,-0.39844 1.10156,-0.39844 h 3.14453 c 0.76954,0 1.9375,-0.10547 1.9375,-1.14063 v -9.66406 c 0,-0.36719 0.26954,-0.63672 0.67188,-0.63672 h 2.90625 c 0.37109,0 0.63672,0.26953 0.63672,0.63672 v 10.23438 c 0.26562,0.46484 1.57422,0.57031 2.17578,0.57031 h 0.80078 v 4.27734 h -0.40234 c -1.70313,0 -3.57422,-0.19922 -4.7461,-1.13672 -1.23437,0.8711 -3.17578,1.13672 -4.61328,1.13672 z m 14.21485,3.67969 c 0,-0.4375 0.36718,-0.76953 0.76953,-0.76953 H 266.5 c 0.43359,0 0.83593,0.33203 0.83593,0.76953 v 2.67578 c 0,0.36719 -0.40234,0.69922 -0.83593,0.69922 h -2.57422 c -0.40235,0 -0.76953,-0.33203 -0.76953,-0.69922 z m -1.94141,-3.67969 c -0.5,0 -1.10156,-0.13281 -1.10156,-0.39843 v -3.48047 c 0,-0.23438 0.60156,-0.39844 1.10156,-0.39844 h 3.10938 c 1.07031,0 1.33984,-0.0352 1.33984,-1.10547 v -5.31641 c 0,-1.37109 -0.0312,-2.8789 -0.0664,-4.48437 0,-0.36719 0.26563,-0.63281 0.66797,-0.63281 h 2.8086 c 0.5,0 0.70312,0.26562 0.73437,0.63281 0.0352,1.44141 0.0703,2.47656 0.0703,3.44531 v 4.44922 c 0,2.83984 0,4.75 -0.13672,5.94922 -0.0976,0.4375 -0.23046,0.73828 -0.76562,0.97656 -0.93359,0.26172 -3.58203,0.36328 -5.38281,0.36328 z m 0,0"
     id="path19" />
</svg>
