<?xml version="1.0" encoding="utf-8"?>
<!-- Generator: Adobe Illustrator 21.0.0, SVG Export Plug-In . SVG Version: 6.00 Build 0)  -->
<svg version="1.1" id="Layer_1" xmlns="http://www.w3.org/2000/svg" xmlns:xlink="http://www.w3.org/1999/xlink" x="0px" y="0px"
	 width="780.8px" height="174px" viewBox="0 0 780.8 174" style="enable-background:new 0 0 780.8 174;" xml:space="preserve">
<style type="text/css">
	.st0{fill:#003B71;}
	.st1{fill:#3FA1DA;}
</style>
<g>
	<path class="st0" d="M0,121.5h26.3c10.7,0,14.6,6.4,14.6,13.8c0,4.8-2,10.1-7.1,11.1c4.3,0.8,7.9,5.1,7.9,11.7
		c0,9.6-4.3,15.2-15.2,15.2H3.3c-1.8,0-3.3-1.5-3.3-3.3V121.5z M25.7,142c3.6,0,5.4-2.2,5.4-5.9c0-4.8-2.9-5.9-5.4-5.9H9.9V142H25.7
		z M26.1,164.5c3,0,5.7-1.4,5.7-6.9c0-3.8-1.5-7.3-5.7-7.3H9.9v14.2H26.1z"/>
	<path class="st0" d="M67.7,121.5h6.5c1.4,0,2.7,0.9,3.2,2.3l16.1,49.5h-8.1c-1.4,0-2.7-0.9-3.2-2.3l-2.9-9.2H62.3l-3,9.2
		c-0.4,1.4-1.7,2.3-3.1,2.3h-8.2l16.7-49.5C65.1,122.4,66.3,121.5,67.7,121.5 M76.9,153l-5.8-18.5L64.8,153H76.9z"/>
	<path class="st0" d="M106.3,121.5h6.7l20.5,33.4v-30.1c0-1.8,1.5-3.3,3.3-3.3h6.6v51.8h-9.9l-20.6-33.1v33.1h-6.7
		c-1.8,0-3.3-1.5-3.3-3.3v-45.1C103,123,104.4,121.5,106.3,121.5"/>
	<path class="st0" d="M155.1,121.5h6.2c1.8,0,3.3,1.5,3.3,3.3v18.3h4.2l12.1-20c0.6-1,1.7-1.6,2.8-1.6h9.7l-15.8,25.9l15.8,25.8
		h-9.7c-1.2,0-2.2-0.6-2.8-1.6l-12.1-19.8h-4.1V170c0,1.8-1.5,3.3-3.3,3.3h-6.3V121.5z"/>
	<path class="st0" d="M243.7,121.5h6.5c1.4,0,2.7,0.9,3.2,2.3l16.1,49.5h-8.1c-1.4,0-2.7-0.9-3.2-2.3l-2.9-9.2h-16.9l-3,9.2
		c-0.4,1.4-1.7,2.3-3.2,2.3h-8.2l16.7-49.5C241,122.4,242.2,121.5,243.7,121.5 M252.8,153l-5.8-18.5l-6.2,18.5H252.8z"/>
	<path class="st0" d="M288.8,164.2h18.8c1.8,0,3.3,1.5,3.3,3.3v5.8h-28.7c-1.8,0-3.3-1.5-3.3-3.3v-48.4h6.6c1.8,0,3.3,1.5,3.3,3.3
		V164.2z"/>
	<path class="st0" d="M318.9,163.9c6.4,0.6,10.1,0.8,10.1-6.6v-32.5c0-1.8,1.5-3.3,3.3-3.3h6.6v40.1c0,3.3-0.2,8.1-3.8,10.4
		c-3,2-9.5,2.4-13.8,1.6c-1.5-0.3-2.6-1.7-2.5-3.2L318.9,163.9z"/>
	<path class="st0" d="M368.6,121.5h6.5c1.4,0,2.7,0.9,3.2,2.3l16.1,49.5h-8.1c-1.4,0-2.7-0.9-3.2-2.3l-2.9-9.2h-16.9l-3,9.2
		c-0.4,1.4-1.7,2.3-3.1,2.3h-8.2l16.7-49.5C365.9,122.4,367.2,121.5,368.6,121.5 M377.7,153l-5.8-18.5l-6.2,18.5H377.7z"/>
	<path class="st0" d="M401.4,164.2l23.7-33.5h-23.7v-5.8c0-1.8,1.5-3.3,3.3-3.3h29c1.8,0,3.3,1.5,3.3,3.3v5.8l-22.6,33.5H437v5.8
		c0,1.8-1.5,3.3-3.3,3.3h-29c-1.8,0-3.3-1.5-3.3-3.3V164.2z"/>
	<path class="st0" d="M450.7,121.5h6.6v51.8h-6.6c-1.8,0-3.3-1.5-3.3-3.3v-45.1C447.3,123,448.8,121.5,450.7,121.5"/>
	<path class="st0" d="M468.2,121.5h26c8.1,0,14.1,3.8,14.1,16.1c0,12.8-5.4,14.3-8.2,15.2l9.8,20.4h-9c-1.3,0-2.5-0.8-3-2l-7.7-17.6
		h-12V170c0,1.8-1.5,3.3-3.3,3.3h-6.6V121.5z M493.2,144.9c3.4,0,5.1-1,5.1-7.3c0-5.9-2-7.3-5.1-7.3h-15v14.6H493.2z"/>
	<path class="st0" d="M537.3,121.5h6.5c1.4,0,2.7,0.9,3.1,2.3l16.1,49.5h-8.1c-1.4,0-2.7-0.9-3.2-2.3l-2.9-9.2h-16.9l-3,9.2
		c-0.4,1.4-1.7,2.3-3.1,2.3h-8.2l16.7-49.5C534.6,122.4,535.9,121.5,537.3,121.5 M546.5,153l-5.8-18.5l-6.2,18.5H546.5z"/>
	<path class="st0" d="M538.5,81c-4.1,0-7.3,3.4-7.3,7.5s3.2,7.4,7.3,7.4c4.1,0,7.5-3.3,7.5-7.4S542.6,81,538.5,81"/>
	<path class="st0" d="M508.2,14.8c4.1,0,7.4-3.3,7.4-7.4c0-4.1-3.3-7.4-7.4-7.4c-4.1,0-7.3,3.3-7.3,7.4
		C500.8,11.5,504.1,14.8,508.2,14.8"/>
	<path class="st0" d="M554.2,22.4c-2,0-3.6,1.6-3.6,3.6v32.8h-37.4V22.4h-8.7c-2,0-3.6,1.6-3.6,3.6v32.8h-35.1v-58h-7.8
		c-2.6,0-4.7,2.1-4.7,4.7v53.3h-70.1V29.9h-7.8c-2.6,0-4.7,2.1-4.7,4.7v31.6h0c0.1,2.8,2.4,5,5.2,5L559.6,71c2,0,3.6-1.6,3.6-3.6
		v-45H554.2z"/>
	<path class="st0" d="M427.9,34.9h-28v-4.5c0-2,1.6-3.6,3.6-3.6v-2.8c0-10.6,6.6-18.9,17.8-18.9c4.4,0,8.2,2.2,12,6.1l-3.4,3.4
		c-1.2,1.3-3.2,1.3-4.6,0.2c-1.5-1.2-3.2-1.7-5-1.7c-5.5,0-8.2,3.3-8.2,9.6v4.1h21.3v2.6C433.5,32.4,431,34.9,427.9,34.9"/>
	<path class="st0" d="M185.6,15.9c4.1,0,7.4-3.3,7.4-7.4c0-4.1-3.4-7.4-7.4-7.4c-4.1,0-7.4,3.4-7.4,7.4
		C178.3,12.5,181.6,15.9,185.6,15.9"/>
	<path class="st0" d="M335.6,67.5V3.8c0-1.9-1.6-3.5-3.5-3.5h-8.9V71h8.9C334,71,335.6,69.4,335.6,67.5"/>
	<path class="st0" d="M119.3,80.9c-2.6,0.6-4.7,2.8-5.3,5.5c-1.2,5.2,2.9,9.7,8.1,9.1c3.1-0.4,5.7-2.7,6.4-5.8
		C129.5,84.3,124.5,79.6,119.3,80.9"/>
	<path class="st0" d="M139.7,80.7c-4.1,0-7.2,3.4-7.2,7.5c0,4.1,3.1,7.4,7.2,7.4c4.1,0,7.4-3.3,7.4-7.4
		C147.1,84,143.8,80.7,139.7,80.7"/>
	<path class="st0" d="M24.6,0.5C22,1.2,19.9,3.3,19.3,6c-1.2,5.2,2.9,9.7,8.1,9.1c3.1-0.4,5.7-2.7,6.4-5.8
		C34.8,3.9,29.9-0.8,24.6,0.5"/>
	<path class="st0" d="M45,0.3c-4.1,0-7.2,3.4-7.2,7.5c0,4.1,3.2,7.4,7.2,7.4c4.1,0,7.4-3.3,7.4-7.4C52.5,3.7,49.1,0.3,45,0.3"/>
	<path class="st0" d="M234.2,80.5c-4,0-7.3,3.4-7.3,7.5c0,4.1,3.3,7.4,7.3,7.4c4.1,0,7.5-3.3,7.5-7.4
		C241.7,83.9,238.3,80.5,234.2,80.5"/>
	<path class="st0" d="M61.5,55.2c0,17-12.5,25.6-25.6,25.6h-9.7C9,80.8,0.5,68.3,0.5,55.2c0-13.1,8.5-25.6,25.6-25.6h35.4V55.2z
		 M35.8,68.5c6.4,0,13.4-4.5,13.4-13.3V41.9H26.1c-8.8,0-13.3,6.9-13.3,13.4c0,6.4,4.5,13.3,13.3,13.3H35.8z"/>
	<path class="st0" d="M153.3,29.4c-2,0-3.6,1.6-3.6,3.6v25.7H87.4V71h71.1c2,0,3.6-1.6,3.6-3.6v-38H153.3z"/>
	<path class="st0" d="M219.3,24.5c0,1.6,1.3,2.9,2.8,3c26.4,0.9,38.1,14,38.1,29.5l0.1,1.8h-70.7V71h117.9c2,0,3.6-1.6,3.6-3.6V0.3
		h-8.8c-2,0-3.6,1.6-3.6,3.6v54.8H273c0.9-22.8-16.2-45.3-53.7-42.8V24.5z"/>
	<path class="st0" d="M73.4,96.1c-1-2-0.6-4.4,1-5.9c2.8-2.6,4.7-6.3,4.7-11.2V33.1c0-2,1.6-3.6,3.6-3.6h8.8v47.4
		c0,13-5.3,21.1-14,25.3L73.4,96.1z"/>
	<path class="st0" d="M173.9,96.1c-1-2-0.6-4.4,1-5.9c2.8-2.6,4.7-6.3,4.7-11.2V33.1c0-2,1.6-3.6,3.6-3.6h8.8v47.4
		c0,13-5.3,21.1-14,25.3L173.9,96.1z"/>
	<path class="st0" d="M311.2,47.5c0,3.4-2.8,6.2-6.2,6.2s-6.2-2.8-6.2-6.2c0-3.4,2.8-6.2,6.2-6.2S311.2,44.1,311.2,47.5"/>
	<path class="st0" d="M335.6,47.5c0,3.4-2.8,6.2-6.2,6.2s-6.2-2.8-6.2-6.2c0-3.4,2.8-6.2,6.2-6.2S335.6,44.1,335.6,47.5"/>
	<path class="st0" d="M383.3,47.5c0,3.4-2.8,6.2-6.2,6.2s-6.2-2.8-6.2-6.2c0-3.4,2.8-6.2,6.2-6.2S383.3,44.1,383.3,47.5"/>
	<path class="st0" d="M465.9,47.5c0,3.4-2.8,6.2-6.2,6.2c-3.4,0-6.2-2.8-6.2-6.2c0-3.4,2.8-6.2,6.2-6.2
		C463.1,41.3,465.9,44.1,465.9,47.5"/>
	<path class="st0" d="M513.3,47.5c0,3.4-2.8,6.2-6.2,6.2c-3.4,0-6.2-2.8-6.2-6.2c0-3.4,2.8-6.2,6.2-6.2
		C510.5,41.3,513.3,44.1,513.3,47.5"/>
	<path class="st0" d="M563.1,47.5c0,3.4-2.8,6.2-6.2,6.2c-3.4,0-6.2-2.8-6.2-6.2c0-3.4,2.8-6.2,6.2-6.2
		C560.4,41.3,563.1,44.1,563.1,47.5"/>
	<path class="st0" d="M243.7,23.2c0,3.4-2.8,6.2-6.2,6.2s-6.2-2.8-6.2-6.2c0-3.4,2.8-6.2,6.2-6.2S243.7,19.8,243.7,23.2"/>
	<path class="st0" d="M261.4,31.5c0,3.4-2.8,6.2-6.2,6.2s-6.2-2.8-6.2-6.2c0-3.4,2.8-6.2,6.2-6.2S261.4,28,261.4,31.5"/>
	<path class="st0" d="M192.1,43.9c0,3.4-2.8,6.2-6.2,6.2s-6.2-2.8-6.2-6.2c0-3.4,2.8-6.2,6.2-6.2S192.1,40.5,192.1,43.9"/>
	<path class="st0" d="M162.1,44c0,3.4-2.8,6.2-6.2,6.2s-6.2-2.8-6.2-6.2c0-3.4,2.8-6.2,6.2-6.2S162.1,40.6,162.1,44"/>
	<path class="st0" d="M91.5,50.1c0,3.4-2.8,6.2-6.2,6.2c-3.4,0-6.2-2.8-6.2-6.2c0-3.4,2.8-6.2,6.2-6.2
		C88.7,43.9,91.5,46.7,91.5,50.1"/>
	<path class="st0" d="M646.5,145.4L633,122.6l-11.2-9l-5.6-22.4l-7.5-5.8l-2.3-4.4V160c0,7.3,5.9,13.2,13.2,13.2h33.9l-7.2-19.3
		L646.5,145.4z"/>
	<path class="st1" d="M780.8,14.4c0-7.3-5.9-13.2-13.2-13.2h-102c0,0,0,0,0,0h-5.5c2.7,8.1,15.9,42.7,20.3,50
		c4.6,7.7,15.7,23.1,16.3,23.9l0.9,1.2c1.2-0.2,3.3-0.6,4.2-0.7l0.4-0.1l0.6,0.3c0.3,0.1,0.4,0.2,0.9,0.5l0.6,0.4v2.5l4,6.1l17-2.5
		c1.2-1.6,5.1-5.4,8.1-9.5l3.6-2.5l-0.8,0.7c0.1,0.3,0.1,0.5,0.2,0.8c0.2,0.6,0.3,1.2,0.5,1.6c0.8,1.3,2.9,2.6,13.4,8.2l0.3,0.2
		c3.2,1.7,7.6,4.1,10,5.5l0.9,0.5l-0.4,1c-1.3,3.5-4.6,11-5.7,12.9c-0.1,0.2-10.7,17.9-12,20.2l-0.1,0.2l-0.1,0.1
		c-0.3,0.3-2.2,2.1-4.2,3.9c-1.9,1.8-3.9,3.7-4.4,4.2l-0.2,0.2l-0.3,0.1c-1.3,0.4-10.8,3.4-12.5,3.9l-5.6,4.9
		c-0.1,0.8-0.6,3.7-0.6,3.7l-0.5,0.3c-1.6,0.9-8.8,4.9-14.5,8.2c-3.9,2.2-7.6,4.3-7.9,4.4l-0.2,0.1l-0.2,0c-0.6,0.2-13.7,4-22.4,6.5
		l-16.2,10.1l114.2-0.5c7.3,0,13.1-5.9,13.1-13.2V14.4z"/>
</g>
</svg>
