<?xml version="1.0" encoding="utf-8"?>
<!-- Generator: Adobe Illustrator 26.0.3, SVG Export Plug-In . SVG Version: 6.00 Build 0)  -->
<svg version="1.1" id="Layer_1" xmlns="http://www.w3.org/2000/svg" xmlns:xlink="http://www.w3.org/1999/xlink" x="0px" y="0px"
	 viewBox="0 0 300 150" xml:space="preserve">
<g>
	<path id="XMLID_1775_" d="M89.1,148.7v-9.8c0-3.8-2.3-6.2-6.2-6.2c-2,0-4.1,0.6-5.6,2.8c-1.1-1.8-2.8-2.8-5.2-2.8
		c-1.6,0-3.3,0.5-4.6,2.3v-2h-3.4v15.7h3.4V140c0-2.8,1.5-4.1,3.8-4.1s3.4,1.5,3.4,4.1v8.7h3.4V140c0-2.8,1.6-4.1,3.8-4.1
		c2.3,0,3.4,1.5,3.4,4.1v8.7H89.1L89.1,148.7z M140,133h-5.6v-4.7H131v4.7h-3.1v3.1h3.1v7.2c0,3.6,1.5,5.7,5.4,5.7
		c1.5,0,3.1-0.5,4.3-1.1l-1-3c-1,0.6-2.1,0.8-3,0.8c-1.6,0-2.3-1-2.3-2.6v-7h5.6L140,133L140,133z M169.2,132.6c-2,0-3.3,1-4.1,2.3
		v-2h-3.4v15.7h3.4v-8.8c0-2.6,1.1-4.1,3.3-4.1c0.6,0,1.5,0.2,2.1,0.3l1-3.3C170.8,132.6,169.8,132.6,169.2,132.6L169.2,132.6z
		 M125.1,134.3c-1.6-1.1-3.9-1.6-6.4-1.6c-3.9,0-6.5,2-6.5,5.1c0,2.6,2,4.1,5.4,4.6l1.6,0.2c1.8,0.3,2.8,0.8,2.8,1.6
		c0,1.1-1.3,2-3.6,2s-4.1-0.8-5.2-1.6l-1.6,2.6c1.8,1.3,4.3,2,6.7,2c4.6,0,7.2-2.1,7.2-5.1c0-2.8-2.1-4.3-5.4-4.7l-1.6-0.2
		c-1.5-0.2-2.6-0.5-2.6-1.5c0-1.1,1.1-1.8,3-1.8c2,0,3.9,0.8,4.9,1.3L125.1,134.3L125.1,134.3z M216.5,132.6c-2,0-3.3,1-4.1,2.3v-2
		h-3.4v15.7h3.4v-8.8c0-2.6,1.1-4.1,3.3-4.1c0.6,0,1.5,0.2,2.1,0.3l1-3.2C218.1,132.6,217.1,132.6,216.5,132.6L216.5,132.6z
		 M172.6,140.8c0,4.7,3.3,8.2,8.4,8.2c2.3,0,3.9-0.5,5.6-1.8l-1.6-2.8c-1.3,1-2.6,1.5-4.1,1.5c-2.8,0-4.7-2-4.7-5.1
		c0-3,2-4.9,4.7-5.1c1.5,0,2.8,0.5,4.1,1.5l1.6-2.8c-1.6-1.3-3.3-1.8-5.6-1.8C175.9,132.6,172.6,136.1,172.6,140.8L172.6,140.8
		L172.6,140.8z M204.3,140.8V133h-3.4v2c-1.1-1.5-2.8-2.3-4.9-2.3c-4.4,0-7.9,3.4-7.9,8.2s3.4,8.2,7.9,8.2c2.3,0,3.9-0.8,4.9-2.3v2
		h3.4V140.8L204.3,140.8z M191.7,140.8c0-2.8,1.8-5.1,4.7-5.1c2.8,0,4.7,2.1,4.7,5.1c0,2.8-2,5.1-4.7,5.1
		C193.5,145.7,191.7,143.6,191.7,140.8L191.7,140.8z M150.7,132.6c-4.6,0-7.9,3.3-7.9,8.2c0,4.9,3.3,8.2,8,8.2
		c2.3,0,4.6-0.6,6.4-2.1l-1.6-2.5c-1.3,1-3,1.6-4.6,1.6c-2.1,0-4.3-1-4.7-3.8h11.6c0-0.5,0-0.8,0-1.3
		C158,135.9,155.1,132.6,150.7,132.6L150.7,132.6L150.7,132.6z M150.7,135.6c2.1,0,3.6,1.3,3.9,3.8h-8.2
		C146.7,137.2,148.2,135.6,150.7,135.6L150.7,135.6z M235.9,140.8v-14.1h-3.4v8.2c-1.1-1.5-2.8-2.3-4.9-2.3c-4.4,0-7.9,3.4-7.9,8.2
		s3.4,8.2,7.9,8.2c2.3,0,3.9-0.8,4.9-2.3v2h3.4V140.8L235.9,140.8z M223.3,140.8c0-2.8,1.8-5.1,4.7-5.1c2.8,0,4.7,2.1,4.7,5.1
		c0,2.8-2,5.1-4.7,5.1C225.1,145.7,223.3,143.6,223.3,140.8L223.3,140.8z M108.4,140.8V133H105v2c-1.1-1.5-2.8-2.3-4.9-2.3
		c-4.4,0-7.9,3.4-7.9,8.2s3.4,8.2,7.9,8.2c2.3,0,3.9-0.8,4.9-2.3v2h3.4V140.8L108.4,140.8z M95.7,140.8c0-2.8,1.8-5.1,4.7-5.1
		c2.8,0,4.7,2.1,4.7,5.1c0,2.8-2,5.1-4.7,5.1C97.5,145.7,95.7,143.6,95.7,140.8z"/>
	<g>
		<rect id="rect19" x="124.1" y="13.6" fill="#ff5a00" width="51.6" height="92.6"/>
		<path id="XMLID_330_" fill="#eb001b" d="M127.6,59.9c0-18.8,8.8-35.5,22.4-46.3C140,5.8,127.4,1,113.7,1C81.1,1,54.7,27.4,54.7,59.9
			s26.4,58.9,58.9,58.9c13.7,0,26.4-4.7,36.3-12.6C136.4,95.6,127.6,78.8,127.6,59.9z"/>
		<path id="path22" fill="#f79e1b" d="M245.3,59.9c0,32.6-26.4,58.9-58.9,58.9c-13.7,0-26.4-4.7-36.3-12.6
			c13.7-10.8,22.4-27.5,22.4-46.3s-8.8-35.5-22.4-46.3C160,5.8,172.6,1,186.3,1C218.9,1,245.3,27.5,245.3,59.9z"/>
	</g>
</g>
</svg>
