<svg width="15" height="16" viewBox="0 0 15 16" fill="none" xmlns="http://www.w3.org/2000/svg">
<g clip-path="url(#clip0_0_839)">
<path d="M2.36523 7.87042H12.8057C13.3107 7.87042 13.6971 8.26755 13.6973 8.72882V13.8333C13.6973 14.2947 13.3108 14.6917 12.8057 14.6917H2.36523C1.86023 14.6916 1.47363 14.2946 1.47363 13.8333V8.72882C1.47381 8.26764 1.86035 7.87056 2.36523 7.87042Z" stroke="#4A4A4A" stroke-width="1.2" stroke-linecap="round" stroke-linejoin="round"/>
<mask id="path-2-inside-1_0_839" fill="white">
<path d="M3.85645 7.27081V4.35415C3.85645 3.38721 4.24929 2.45988 4.94855 1.77615C5.64782 1.09243 6.59623 0.708313 7.58514 0.708313C8.57405 0.708313 9.52246 1.09243 10.2217 1.77615C10.921 2.45988 11.3138 3.38721 11.3138 4.35415V7.27081"/>
</mask>
<path d="M2.65645 7.27081C2.65645 7.93356 3.1937 8.47081 3.85645 8.47081C4.51919 8.47081 5.05645 7.93356 5.05645 7.27081H3.85645H2.65645ZM3.85645 4.35415H2.65645H3.85645ZM10.1138 7.27081C10.1138 7.93356 10.6511 8.47081 11.3138 8.47081C11.9766 8.47081 12.5138 7.93356 12.5138 7.27081H11.3138H10.1138ZM3.85645 7.27081H5.05645V4.35415H3.85645H2.65645V7.27081H3.85645ZM3.85645 4.35415H5.05645C5.05645 3.71428 5.31615 3.09503 5.7875 2.63416L4.94855 1.77615L4.10961 0.918145C3.18242 1.82473 2.65645 3.06014 2.65645 4.35415H3.85645ZM4.94855 1.77615L5.7875 2.63416C6.25975 2.1724 6.90589 1.90831 7.58514 1.90831L7.58514 0.708313V-0.491687C6.28656 -0.491687 5.03589 0.012454 4.10961 0.918145L4.94855 1.77615ZM7.58514 0.708313V1.90831C8.26438 1.90831 8.91052 2.1724 9.38278 2.63416L10.2217 1.77615L11.0607 0.918145C10.1344 0.012454 8.88372 -0.491687 7.58514 -0.491687V0.708313ZM10.2217 1.77615L9.38278 2.63416C9.85412 3.09503 10.1138 3.71428 10.1138 4.35415H11.3138H12.5138C12.5138 3.06014 11.9879 1.82473 11.0607 0.918145L10.2217 1.77615ZM11.3138 4.35415H10.1138V7.27081H11.3138H12.5138V4.35415H11.3138Z" fill="#4A4A4A" mask="url(#path-2-inside-1_0_839)"/>
</g>
<defs>
<clipPath id="clip0_0_839">
<rect width="15" height="16" fill="white"/>
</clipPath>
</defs>
</svg>
