<svg width="16" height="15" viewBox="0 0 16 15" fill="none" xmlns="http://www.w3.org/2000/svg">
<g clip-path="url(#clip0_0_815)">
<path d="M5.33366 14.1804C5.70185 14.1804 6.00033 13.8813 6.00033 13.5123C6.00033 13.1434 5.70185 12.8443 5.33366 12.8443C4.96547 12.8443 4.66699 13.1434 4.66699 13.5123C4.66699 13.8813 4.96547 14.1804 5.33366 14.1804Z" stroke="#4A4A4A" stroke-width="1.2" stroke-linecap="round" stroke-linejoin="round"/>
<path d="M12.6667 14.1804C13.0349 14.1804 13.3333 13.8813 13.3333 13.5123C13.3333 13.1434 13.0349 12.8443 12.6667 12.8443C12.2985 12.8443 12 13.1434 12 13.5123C12 13.8813 12.2985 14.1804 12.6667 14.1804Z" stroke="#4A4A4A" stroke-width="1.2" stroke-linecap="round" stroke-linejoin="round"/>
<path d="M1.36719 0.853088H2.70052L4.47385 9.15007C4.53891 9.45393 4.70763 9.72556 4.95099 9.91821C5.19436 10.1109 5.49712 10.2125 5.80719 10.2056H12.3272C12.6306 10.2051 12.9248 10.1009 13.1612 9.91018C13.3976 9.71949 13.5619 9.45371 13.6272 9.15675L14.7272 4.19326H3.41385" stroke="#4A4A4A" stroke-width="1.2" stroke-linecap="round" stroke-linejoin="round"/>
</g>
<defs>
<clipPath id="clip0_0_815">
<rect width="16" height="15" fill="white"/>
</clipPath>
</defs>
</svg>
