<svg width="20" height="20" viewBox="0 0 20 20" fill="none" xmlns="http://www.w3.org/2000/svg">
<path d="M1.66602 10.5083H15.8327" stroke="#4A4A4A" stroke-width="1.5" stroke-miterlimit="10" stroke-linecap="round" stroke-linejoin="round"/>
<path d="M15.8327 8.56668V14.525C15.8077 16.9 15.1577 17.5 12.6827 17.5H4.81604C2.29937 17.5 1.66602 16.875 1.66602 14.3917V8.56668C1.66602 6.31668 2.19102 5.59168 4.16602 5.47501C4.36602 5.46668 4.58271 5.45834 4.81604 5.45834H12.6827C15.1993 5.45834 15.8327 6.08334 15.8327 8.56668Z" stroke="#4A4A4A" stroke-width="1.5" stroke-linecap="round" stroke-linejoin="round"/>
<path d="M18.3327 5.60833V11.4333C18.3327 13.6833 17.8077 14.4083 15.8327 14.525V8.56667C15.8327 6.08333 15.1993 5.45833 12.6827 5.45833H4.81604C4.58271 5.45833 4.36602 5.46667 4.16602 5.475C4.19102 3.1 4.84104 2.5 7.31604 2.5H15.1827C17.6993 2.5 18.3327 3.125 18.3327 5.60833Z" stroke="#4A4A4A" stroke-width="1.5" stroke-linecap="round" stroke-linejoin="round"/>
<path d="M4.375 14.8417H5.80831" stroke="#4A4A4A" stroke-width="1.5" stroke-miterlimit="10" stroke-linecap="round" stroke-linejoin="round"/>
<path d="M7.5918 14.8417H10.4585" stroke="#4A4A4A" stroke-width="1.5" stroke-miterlimit="10" stroke-linecap="round" stroke-linejoin="round"/>
</svg>
