<svg width="20" height="20" viewBox="0 0 20 20" fill="none" xmlns="http://www.w3.org/2000/svg">
<path d="M4.16602 6.66666C5.54673 6.66666 6.66602 5.54737 6.66602 4.16666C6.66602 2.78594 5.54673 1.66666 4.16602 1.66666C2.7853 1.66666 1.66602 2.78594 1.66602 4.16666C1.66602 5.54737 2.7853 6.66666 4.16602 6.66666Z" stroke="#4A4A4A" stroke-width="1.5" stroke-linecap="round" stroke-linejoin="round"/>
<path d="M15.834 12.5C17.2147 12.5 18.334 11.3807 18.334 10C18.334 8.61929 17.2147 7.5 15.834 7.5C14.4533 7.5 13.334 8.61929 13.334 10C13.334 11.3807 14.4533 12.5 15.834 12.5Z" stroke="#4A4A4A" stroke-width="1.5" stroke-linecap="round" stroke-linejoin="round"/>
<path d="M4.16602 18.3333C5.54673 18.3333 6.66602 17.2141 6.66602 15.8333C6.66602 14.4526 5.54673 13.3333 4.16602 13.3333C2.7853 13.3333 1.66602 14.4526 1.66602 15.8333C1.66602 17.2141 2.7853 18.3333 4.16602 18.3333Z" stroke="#4A4A4A" stroke-width="1.5" stroke-linecap="round" stroke-linejoin="round"/>
<path d="M13.3327 9.99999H7.49935C5.66602 9.99999 4.16602 9.16666 4.16602 6.66666V13.3333" stroke="#4A4A4A" stroke-width="1.5" stroke-linecap="round" stroke-linejoin="round"/>
</svg>
